<svg xmlns="http://www.w3.org/2000/svg" viewBox="0 0 441.14 80.04"><defs><radialGradient id="a" cx="223.09" cy="42.35" r="490.13" gradientUnits="userSpaceOnUse"><stop offset="0" stop-color="#fff"/><stop offset=".5" stop-color="#ffebef"/><stop offset="1" stop-color="#ffccd9"/></radialGradient></defs><ellipse cx="39.5" cy="40.04" rx="39.5" ry="40" fill="url(#a)"/><ellipse cx="99.86" cy="40" rx="39.5" ry="40" fill="url(#a)"/><ellipse cx="160.21" cy="40" rx="39.5" ry="40" fill="url(#a)"/><ellipse cx="220.57" cy="40" rx="39.5" ry="40" fill="url(#a)"/><ellipse cx="280.93" cy="40" rx="39.5" ry="40" fill="url(#a)"/><ellipse cx="341.29" cy="40" rx="39.5" ry="40" fill="url(#a)"/><ellipse cx="401.64" cy="40" rx="39.5" ry="40" fill="url(#a)"/><path d="M55.34 34.82h-10v20.33a2.91 2.91 0 01-1.27 2.61 5.71 5.71 0 01-3.27.85 5.92 5.92 0 01-3.33-.86 2.92 2.92 0 01-1.28-2.6V34.82h-10a7.39 7.39 0 01-3.5-.64 1.89 1.89 0 01-1.14-1.68 1.91 1.91 0 011.19-1.72 7.52 7.52 0 013.45-.63h29.15a7.38 7.38 0 013.54.65A1.91 1.91 0 0160 32.5a1.89 1.89 0 01-1.17 1.68 7.58 7.58 0 01-3.49.64zm29.51 23.31H71a8.14 8.14 0 01-4.28-.83 2.9 2.9 0 01-1.29-2.64v-21A2.88 2.88 0 0166.74 31a8.4 8.4 0 014.26-.85h14.68a53.86 53.86 0 015.63.25 17.08 17.08 0 014.27 1 11.1 11.1 0 012.84 1.5 6.7 6.7 0 011.89 2 4.52 4.52 0 01.65 2.32q0 4.2-6.81 6.15 8.94 1.76 8.94 6.83a5.74 5.74 0 01-2 4.23 11.8 11.8 0 01-5.25 2.78 27.46 27.46 0 01-4.77.75q-2.63.18-6.22.17zM74.61 34.4v7.24H83a26.72 26.72 0 005.31-.4 5.14 5.14 0 002.86-1.53 2.53 2.53 0 00.83-1.79c0-1.42-.82-2.35-2.44-2.82a29.58 29.58 0 00-7.46-.7zm9.56 11.31h-9.56v8.17h9.86q9.32 0 9.31-4.15c0-1.41-.8-2.43-2.41-3.07a20.58 20.58 0 00-7.2-.95zm27.24 9.44v-22a2.89 2.89 0 011.27-2.58 5.75 5.75 0 013.28-.86 5.92 5.92 0 013.35.85 2.89 2.89 0 011.29 2.59v22a2.91 2.91 0 01-1.29 2.6 5.92 5.92 0 01-3.35.86 5.73 5.73 0 01-3.27-.87 2.93 2.93 0 01-1.28-2.59zm31.79-8.99H140v9a2.93 2.93 0 01-1.27 2.62 5.91 5.91 0 01-3.31.84 5.66 5.66 0 01-3.4-.88 3 3 0 01-1.21-2.58V33.62a2.89 2.89 0 011.32-2.62 8.49 8.49 0 014.3-.82h14.94c2.06 0 3.82.05 5.29.16a20.2 20.2 0 014 .66 13.6 13.6 0 013.78 1.58 7.76 7.76 0 012.49 2.4 5.43 5.43 0 01.85 2.89 5.74 5.74 0 01-2.86 5c-1.91 1.25-4.8 2.13-8.68 2.66a17.55 17.55 0 014.67 2.36 30.22 30.22 0 014 3.33 24.37 24.37 0 012.72 3.19 4.65 4.65 0 011 2 1.56 1.56 0 01-.57 1.1 4 4 0 01-1.56.85 7.54 7.54 0 01-2.29.32 6.62 6.62 0 01-2.6-.45A6.7 6.7 0 01159.7 57c-.5-.46-1.19-1.14-2-2l-3.7-3.78a24.57 24.57 0 00-3.55-3.17 9.71 9.71 0 00-3.17-1.49 17.49 17.49 0 00-4.08-.4zm5.26-11.76H140v7.7h8.22a36.23 36.23 0 005.57-.36 8.07 8.07 0 003.45-1.2 2.79 2.79 0 00.23-4.39 6.21 6.21 0 00-2.66-1.33 30.4 30.4 0 00-6.35-.42z" fill="#ccc"/><path d="M54.34 33.76h-10v20.33a2.91 2.91 0 01-1.27 2.61 5.71 5.71 0 01-3.27.85 5.92 5.92 0 01-3.33-.86 2.92 2.92 0 01-1.28-2.6V33.76h-10a7.39 7.39 0 01-3.5-.64 1.89 1.89 0 01-1.14-1.68 1.91 1.91 0 011.19-1.72 7.52 7.52 0 013.45-.63h29.15a7.38 7.38 0 013.54.65 1.91 1.91 0 011.12 1.7 1.89 1.89 0 01-1.17 1.68 7.58 7.58 0 01-3.49.64zm29.51 23.31H70a8.14 8.14 0 01-4.28-.83 2.9 2.9 0 01-1.29-2.64v-21a2.88 2.88 0 011.32-2.66 8.4 8.4 0 014.25-.85h14.68a53.86 53.86 0 015.63.25 17.08 17.08 0 014.27.95 11.1 11.1 0 012.84 1.5 6.7 6.7 0 011.89 2 4.52 4.52 0 01.65 2.32q0 4.2-6.81 6.15 8.94 1.76 8.94 6.83a5.74 5.74 0 01-2 4.23 11.9 11.9 0 01-5.25 2.78 27.46 27.46 0 01-4.77.75q-2.63.23-6.22.22zM73.61 33.34v7.24H82a26.72 26.72 0 005.31-.4 5.14 5.14 0 002.86-1.53 2.53 2.53 0 00.83-1.79c0-1.42-.82-2.35-2.44-2.82a29.58 29.58 0 00-7.46-.7zm9.56 11.3h-9.56v8.18h9.86q9.32 0 9.31-4.15c0-1.41-.8-2.43-2.41-3.07a20.54 20.54 0 00-7.2-.96zm27.24 9.45v-22a2.89 2.89 0 011.27-2.58 5.75 5.75 0 013.28-.86 5.92 5.92 0 013.35.85 2.89 2.89 0 011.29 2.59v22a2.91 2.91 0 01-1.29 2.6 5.92 5.92 0 01-3.35.86 5.73 5.73 0 01-3.27-.87 2.93 2.93 0 01-1.28-2.59zm31.79-8.99H139v9a2.93 2.93 0 01-1.27 2.62 5.91 5.91 0 01-3.31.84 5.66 5.66 0 01-3.4-.88 3 3 0 01-1.21-2.58V32.56a2.89 2.89 0 011.33-2.65 8.49 8.49 0 014.3-.82h14.94c2.06 0 3.82.05 5.29.16a20.2 20.2 0 014 .66 13.6 13.6 0 013.78 1.58 7.76 7.76 0 012.49 2.4 5.43 5.43 0 01.85 2.89 5.74 5.74 0 01-2.86 5q-2.87 1.88-8.68 2.65a17.89 17.89 0 014.67 2.37 30.22 30.22 0 014 3.33 24.37 24.37 0 012.72 3.19 4.65 4.65 0 011 2 1.56 1.56 0 01-.57 1.1 4 4 0 01-1.56.85 7.54 7.54 0 01-2.29.32 6.62 6.62 0 01-2.6-.45A6.7 6.7 0 01158.7 56c-.5-.46-1.19-1.14-2-2l-3.7-3.84a24 24 0 00-3.58-3.16 9.71 9.71 0 00-3.17-1.49 17.49 17.49 0 00-4.05-.41zm5.26-11.76H139V41h8.22a36.23 36.23 0 005.57-.36 8.07 8.07 0 003.45-1.2 2.79 2.79 0 00.23-4.39 6.21 6.21 0 00-2.66-1.33 30.4 30.4 0 00-6.35-.38zM32.11 18.87a1 1 0 01.81.36 1.33 1.33 0 01.23.84 4 4 0 01-.11.84.54.54 0 01-.57.36.41.41 0 01-.47-.47 3.13 3.13 0 00.16-.68c0-.34-.14-.52-.42-.52h-9.29a.27.27 0 00-.31.31v.89a.42.42 0 01-.48.47.41.41 0 01-.47-.47v-1a.84.84 0 01.95-.95zm-.79 1.67a.28.28 0 01-.31.32h-.6a15.5 15.5 0 011.43.93c.22.08.32.2.32.36 0 .35-.16.52-.48.52a.83.83 0 01-.2-.08l-.8-.55c-1 .08-2 .13-3 .17v.71h3.44c.21 0 .32.1.32.3s-.11.38-.32.38h-3.45v.57h5.11c.28 0 .43.13.43.41a.38.38 0 01-.43.42H21.62a.37.37 0 01-.43-.42c0-.28.13-.41.43-.41h5.1v-.57H23c-.22 0-.31-.12-.31-.38s.09-.3.31-.3h3.75v-.66c-1.43.08-2.82.15-4.17.19-.24 0-.36-.13-.36-.41a.34.34 0 01.36-.38h1.82l.63-.8h-1.96a.29.29 0 01-.32-.32.28.28 0 01.32-.31H31a.28.28 0 01.32.31zm1.56-6.46q0 .42-.36.42h-4.85v.62h4.17a.37.37 0 110 .73h-9.23c-.26 0-.38-.11-.38-.37s.12-.36.38-.36h4.11v-.62h-4.9q-.36 0-.36-.42a.32.32 0 01.36-.36h4.9v-.21a.48.48 0 011 0v.21h4.85a.32.32 0 01.31.36zm-1.51 2.4c.42 0 .63.16.63.47v.93c0 .35-.21.52-.63.52h-8.3c-.42 0-.62-.17-.62-.52V17c0-.31.2-.47.62-.47zm-.3 1v-.21c0-.11 0-.16-.06-.16h-7.58s-.05.05-.05.16v.21c0 .14 0 .2.05.2H31s.07-.02.07-.16zm-1.58 3.86a.4.4 0 01-.31-.42.15.15 0 010-.1H26l-.6.77c1.52 0 2.94-.09 4.25-.19zm5.8-4.19a11 11 0 011.25 1.36.72.72 0 01.11.31c0 .29-.16.42-.48.42a.34.34 0 01-.25-.1c-.42-.48-.86-1-1.31-1.42a.52.52 0 01-.11-.25c0-.31.17-.47.52-.47.08 0 .16.06.27.15zm1.45 3.49a16.05 16.05 0 01-.38 2.15 14.61 14.61 0 01-.76 2.07.49.49 0 01-.42.26c-.32 0-.47-.14-.47-.41a.35.35 0 01.11-.21 14.81 14.81 0 00.7-1.87 20.61 20.61 0 00.45-2.2c0-.16.15-.25.36-.25s.41.16.41.46zm-1-6.92a10.45 10.45 0 01.95 1.09.94.94 0 01.09.31c0 .28-.16.42-.46.42a.34.34 0 01-.26-.11c-.32-.39-.65-.76-1-1.13a.66.66 0 01-.09-.27c0-.31.17-.47.52-.47.03 0 .11.05.21.16zm2.89-.33a.29.29 0 01.15.22.63.63 0 01-.06.2 6.12 6.12 0 01-.81 1.11l.51.42c.18-.31.37-.65.56-1a.25.25 0 01.26-.15.65.65 0 01.3.09.28.28 0 01.12.22.32.32 0 01-.06.15 11 11 0 01-1.26 1.9 8.34 8.34 0 00.93-.13.55.55 0 01-.05-.22c0-.2.12-.31.36-.31a.41.41 0 01.22.11 6.87 6.87 0 01.46.94.63.63 0 01.06.2c0 .21-.12.32-.36.32a.25.25 0 01-.16-.06 3.47 3.47 0 01-.18-.33.13.13 0 01-.09 0l-.62.12v2.26c0 .22-.13.32-.37.32s-.31-.1-.31-.32v-2.17c-.4.06-.79.11-1.15.14s-.36-.14-.36-.42a.33.33 0 01.36-.37h.48a7.55 7.55 0 00.51-.71c-.33-.27-.68-.53-1-.79a.35.35 0 01-.11-.21q0-.36.42-.36h.12c.2-.31.4-.67.61-1.08a.25.25 0 01.27-.22.66.66 0 01.21.13zm-.91 4.36a.24.24 0 01.11.19.53.53 0 010 .16 13.11 13.11 0 01-.38 1.4.36.36 0 01-.25.16c-.25 0-.38-.08-.38-.27a.28.28 0 01.06-.2c.11-.35.24-.8.37-1.36 0-.11.12-.16.26-.16a.46.46 0 01.17.08zm7.11 3.52c.14 0 .22-.08.22-.27v-.09a.2.2 0 00-.22-.21h-7.4q-.36 0-.36-.42a.33.33 0 01.36-.37h7.62c.56 0 .84.25.84.73v.63c0 .53-.28.79-.84.79h-6.31c-.22 0-.32.12-.32.36a.14.14 0 00.16.16h7.25c.38 0 .58.26.58.77a2.35 2.35 0 01-.16.76 2 2 0 01-.55.87 2.44 2.44 0 01-1.48.3c-1.25 0-3.18-.08-5.8-.21a.39.39 0 01-.37-.41c0-.28.15-.42.47-.42 2.23.14 4.13.2 5.7.2a1.43 1.43 0 001-.22.92.92 0 00.28-.55c0-.21-.08-.32-.21-.32h-7.1c-.43 0-.63-.24-.63-.72a3.46 3.46 0 01.12-.89.55.55 0 01.56-.47h6.58zm-5-3.44a9.9 9.9 0 01.18 1v.21c0 .22-.1.31-.3.31s-.31-.08-.31-.25c-.06-.43-.1-.8-.15-1.11v-.09c0-.18.08-.27.25-.27a.36.36 0 01.33.2zm3.08-3.12c0 .21-.1.3-.26.3h-2.46c-.17 0-.25-.09-.25-.3s.08-.27.25-.27h2.46a.24.24 0 01.26.27zm-.2-1c0 .17-.1.25-.27.25h-1.93c-.18 0-.26-.08-.26-.25s.08-.27.26-.27h1.93a.24.24 0 01.27.23zm-.06 2a.23.23 0 01-.26.26h-1.82c-.19 0-.27-.08-.27-.26a.23.23 0 01.27-.27h1.82a.24.24 0 01.26.26zm0 1c0 .19-.09.27-.26.27h-1.78c-.18 0-.26-.08-.26-.27s.08-.25.26-.25h1.78a.23.23 0 01.26.22zm-.41.79c.35 0 .52.15.52.41v1.2c0 .28-.17.42-.52.42h-1.37c-.32 0-.46-.14-.46-.42v-1.2c0-.26.14-.41.46-.41zm-.16 1.25v-.48c0-.16-.08-.25-.22-.25h-.62c-.11 0-.15.09-.15.25v.48c0 .18 0 .26.15.26h.62c.14-.01.22-.11.22-.29zm2.79-5.28a.34.34 0 01.14.23.28.28 0 01-.06.14 5 5 0 01-.83 1.08l.46.43c.21-.32.41-.67.63-1a.25.25 0 01.26-.16.65.65 0 01.3.09.25.25 0 01.12.21.31.31 0 01-.06.16 11.89 11.89 0 01-1.4 1.94 7.41 7.41 0 001.11-.16 1.05 1.05 0 01-.07-.11.52.52 0 010-.22q0-.3.36-.3a.43.43 0 01.21.1 7.76 7.76 0 01.73 1 1.57 1.57 0 01.05.25c0 .21-.12.32-.36.32a.42.42 0 01-.22 0c-.1-.16-.18-.31-.26-.46a.31.31 0 01-.15 0 6.88 6.88 0 01-.68.14v2.3c0 .22-.12.32-.36.32s-.31-.1-.31-.32v-2.2q-.65.12-1.26.18c-.25 0-.37-.14-.37-.42s.12-.36.37-.37a2 2 0 00.43 0 6.31 6.31 0 00.59-.72c-.36-.32-.72-.62-1.07-.92a.36.36 0 01-.11-.2c0-.24.14-.37.42-.37a.39.39 0 01.21.11 7.21 7.21 0 00.64-1c0-.11.12-.16.26-.16a.62.62 0 01.28.06zM44 17.75a.24.24 0 01.11.19.4.4 0 01-.06.16c-.08.56-.16 1-.25 1.45a.33.33 0 01-.27.16c-.28 0-.41-.11-.41-.32a.17.17 0 010-.15c.09-.37.2-.84.31-1.41a.25.25 0 01.27-.16.46.46 0 01.3.08zm2.19.19a5.86 5.86 0 01.24 1 1.06 1.06 0 010 .2c0 .21-.12.3-.36.3a.28.28 0 01-.32-.3c-.06-.42-.12-.76-.19-1.06V18c0-.17.09-.27.3-.27a.34.34 0 01.28.21zm9.04 2.81a.49.49 0 01-.26.41 18.44 18.44 0 01-2.39.62 7.18 7.18 0 01.15 1.37 2.43 2.43 0 01-.31 1.16 1.63 1.63 0 01-.69.75 2 2 0 01-.94.22 3.71 3.71 0 01-1.1-.21c-.26-.11-.41-.25-.41-.47s.15-.5.41-.52a6.5 6.5 0 001.05.26.92.92 0 00.45-.12 1.07 1.07 0 00.43-.44 1.21 1.21 0 00.16-.63 8.4 8.4 0 00-.09-1.2c-.93.17-2 .33-3.25.47-.27 0-.4-.18-.42-.47a.42.42 0 01.36-.47c1.29-.1 2.3-.24 3-.37l-.24-.47a3.42 3.42 0 00-.59-.65.21.21 0 01-.11-.17.48.48 0 01.52-.48.68.68 0 01.3.14 5.86 5.86 0 01.61.71l.06.08a4.1 4.1 0 00.68-.51 3.05 3.05 0 00.6-.65.86.86 0 00.2-.35c0-.05-.05-.09-.15-.09h-4.4c-.29 0-.42-.13-.42-.43a.37.37 0 01.42-.41h5.22c.41 0 .63.17.63.52a1.12 1.12 0 01-.2.57 6 6 0 01-.87 1.1 6.86 6.86 0 01-1.09.89c.78-.15 1.49-.31 2.1-.48a.6.6 0 01.22 0 .35.35 0 01.36.32zm-.58-6.94c0 .23-.17.38-.52.43a22.84 22.84 0 01-2.69.33 25.7 25.7 0 01-2.58.19c-.34 0-.52-.15-.52-.46a.37.37 0 01.42-.43c1 0 1.83-.06 2.64-.14a17.24 17.24 0 002.84-.44c.27 0 .41.18.41.52zm-5.12 1.47a9.5 9.5 0 01.52 1.56 1.3 1.3 0 01.06.31c0 .25-.18.37-.52.37-.14 0-.24-.1-.31-.32a9.92 9.92 0 00-.47-1.45.64.64 0 01-.11-.32c0-.24.15-.36.47-.36a.46.46 0 01.36.21zm2-.16a8.33 8.33 0 01.57 1.31 1.21 1.21 0 01.06.31c0 .28-.18.41-.52.41-.18 0-.3-.09-.38-.31a7.77 7.77 0 00-.41-1.3.45.45 0 01-.11-.26c0-.24.15-.37.47-.37a.48.48 0 01.37.21zm3-.36a.34.34 0 01.16.25.66.66 0 01-.06.22 10.76 10.76 0 01-1 1.92.36.36 0 01-.3.21q-.54 0-.54-.36a.3.3 0 010-.21 14.2 14.2 0 001-1.94.28.28 0 01.31-.2.66.66 0 01.45.11zm2.09-.95v9.7a.63.63 0 00.18.52 1.64 1.64 0 00.92.16c.53 0 .84-.09.95-.28a1.54 1.54 0 00.2-.81v-1.88c0-.36.16-.55.47-.58s.49.26.52.68a12.34 12.34 0 01-.16 2.8 1.24 1.24 0 01-.5.78 2.69 2.69 0 01-1.48.28 2.94 2.94 0 01-1.72-.34 1.36 1.36 0 01-.38-1.12v-9.91a.42.42 0 01.48-.46c.37 0 .54.16.54.46zm6.6 5.79a14.3 14.3 0 01-.36 3.46 7.09 7.09 0 01-.68 1.8.73.73 0 01-.47.21c-.35 0-.52-.17-.54-.47a1 1 0 01.12-.29 6.24 6.24 0 00.71-1.73 12.5 12.5 0 00.33-3v-5.14a.64.64 0 01.72-.72 60.16 60.16 0 008.93-.48.5.5 0 01.52.48c0 .21-.14.35-.41.42a55.8 55.8 0 01-8.41.41c-.28 0-.41.17-.41.52v.16h8.71c.48 0 .74.21.74.62v1.67c0 .46-.26.67-.74.67h-3.64v1.11h4.58a.38.38 0 01.43.41c0 .32-.15.47-.43.47h-5.37c0 .37-.09.72-.15 1h4.28c.61 0 .93.34.93 1a11.61 11.61 0 01-.14 1.85 1.41 1.41 0 01-.59 1 3.29 3.29 0 01-1.4.24 9.09 9.09 0 01-2.25-.27c-.25-.12-.37-.28-.37-.47 0-.39.17-.57.53-.57a8.33 8.33 0 002 .36 1.71 1.71 0 00.78-.14.74.74 0 00.33-.53 5.16 5.16 0 00.1-1c0-.37-.17-.57-.47-.57h-4l-.11.34A4.15 4.15 0 0166 24.14a6.25 6.25 0 01-2 1.12h-.12c-.34 0-.52-.2-.52-.57 0-.17.09-.29.31-.37a4.43 4.43 0 001.8-1 3.44 3.44 0 00.76-1.32 8.37 8.37 0 00.38-1.82H64c-.28 0-.41-.15-.41-.47a.36.36 0 01.41-.41h3.34v-1.11h-4.12zm0-2.18h8.3c.16 0 .25-.11.25-.32v-.83a.24.24 0 00-.25-.27h-8.3zM79.08 16c0 .32-.15.47-.41.47h-1v.43l1.59 2.5a1.06 1.06 0 01.14.4c0 .32-.18.47-.52.47a.36.36 0 01-.35-.27l-.86-1.68v6.63a.47.47 0 11-.93 0v-6.77l-.14.46c-.24.8-.44 1.42-.62 1.86a7.55 7.55 0 01-.6 1.34.47.47 0 01-.42.31.41.41 0 01-.47-.47.82.82 0 01.1-.36 23.33 23.33 0 001.32-2.93 16.33 16.33 0 00.53-2h-1.22c-.28 0-.42-.15-.42-.47a.37.37 0 01.42-.42h1.47v-1.78a.47.47 0 11.93 0v1.82h1a.37.37 0 01.46.46zm2.59.15c.14-.3.27-.59.38-.88a.61.61 0 000-.11h-2.59c-.3 0-.43-.15-.43-.47s.13-.41.43-.41h2.9c.08-.27.14-.52.22-.79a.5.5 0 01.42-.21.53.53 0 01.37.16.53.53 0 01.15.36.66.66 0 01-.09.32 1.66 1.66 0 00-.06.16h2.72a.37.37 0 01.41.41c0 .32-.15.47-.41.47h-3c0 .14-.09.27-.12.38s-.17.42-.25.61h2.15c.55 0 .83.27.83.79v7.24h.52c.32 0 .48.13.48.41a.42.42 0 01-.48.47h-7.3c-.29 0-.42-.16-.42-.47s.13-.41.42-.41h.78V16.9c0-.52.28-.79.84-.79zM84.78 18v-.73a.28.28 0 00-.31-.31H81a.27.27 0 00-.31.31V18zm0 2v-1.13h-4.12V20zm0 2v-1.2h-4.12V22zm0 2.08v-1.2h-4.12v1.26zm8.76-10.16c.46 0 .76.27.95.79a21.81 21.81 0 002 5 15.79 15.79 0 001.82 2.67 21.67 21.67 0 001.91 2 .5.5 0 01.16.37.46.46 0 01-.47.47.58.58 0 01-.41-.22 16.74 16.74 0 01-2.11-2.15 18.77 18.77 0 01-2.17-3.31 16.71 16.71 0 01-.82-2 18.13 18.13 0 01-2.12 4 14.75 14.75 0 01-3.44 3.49.8.8 0 01-.41.16c-.32 0-.48-.17-.48-.52a.45.45 0 01.27-.37 14.26 14.26 0 003.69-3.79 22.75 22.75 0 002-4.22.15.15 0 010-.07c-.12-.38-.23-.75-.32-1.13-.06-.22-.15-.33-.31-.33h-3c-.33 0-.47-.14-.47-.46a.41.41 0 01.47-.47zm9.09.42c0 .55 0 1.08-.07 1.57h1.06v-2.24c0-.32.14-.48.46-.48a.42.42 0 01.48.48v2.24h.83a.37.37 0 01.42.41c0 .32-.15.47-.42.47h-.83v3c.23-.14.47-.3.73-.48h.21c.31 0 .47.17.47.52a.56.56 0 01-.24.4 9.44 9.44 0 01-1.17.8v3.84a.42.42 0 01-.48.48c-.32 0-.46-.16-.46-.48v-3.35a13 13 0 01-1.58.67.76.76 0 01-.3.07c-.32 0-.48-.18-.48-.52a.49.49 0 01.38-.52 12.46 12.46 0 001.75-.72l.23-.11v-3.6h-1.15A16.3 16.3 0 01102 19a.52.52 0 01-.58.41.32.32 0 01-.36-.36 1 1 0 01.06-.36 17 17 0 00.62-4.43.38.38 0 01.42-.43c.31-.02.47.17.47.51zm5.17-.78c0 .52-.09 1-.16 1.4h4.7q1 0 1 .84a53.13 53.13 0 01-.32 6.7 4 4 0 01-.76 2.18 2.12 2.12 0 01-1.63.6 4.6 4.6 0 01-1.47-.32.49.49 0 01-.36-.52c0-.34.15-.52.47-.52a5.48 5.48 0 001.36.32 1.12 1.12 0 001-.45 4.13 4.13 0 00.46-1.63 45 45 0 00.26-5.94.33.33 0 00-.37-.37h-.41c0 .2 0 .39-.06.57a15.87 15.87 0 01-.85 3.46 12.51 12.51 0 01-1.35 2.62 14 14 0 01-2.18 2.36.69.69 0 01-.36.1.44.44 0 01-.34-.14.56.56 0 01-.14-.38.41.41 0 01.16-.36 14 14 0 002.07-2.18 10.28 10.28 0 001.29-2.43 13.58 13.58 0 00.85-3.62h-1.14V16a14.51 14.51 0 01-.83 2.68 11.47 11.47 0 01-1.16 2.2 7 7 0 01-1.3 1.54.49.49 0 01-.32.1.41.41 0 01-.33-.16.48.48 0 01-.14-.36.45.45 0 01.16-.32 8 8 0 001.23-1.44 14.08 14.08 0 001.09-2.08 12.42 12.42 0 00.71-2.31h-1.11c0 .12-.06.23-.08.33a7.68 7.68 0 01-1.11 2.22.7.7 0 01-.47.27c-.39 0-.58-.17-.58-.52a.62.62 0 01.16-.27 6.09 6.09 0 001.07-2 10.92 10.92 0 00.39-2.32c0-.27.16-.41.48-.41s.42.14.42.41zm12.68-.16a.79.79 0 01.28 0 .55.55 0 01.24 0 .66.66 0 01.42.27 11.77 11.77 0 001 1.08 13.22 13.22 0 001.35-1.24.57.57 0 01.37-.22.42.42 0 01.47.47.57.57 0 01-.22.43 10.4 10.4 0 01-1.39 1.16 5.88 5.88 0 00.93.76 9.37 9.37 0 001.51-1.26.57.57 0 01.37-.2.42.42 0 01.47.47.57.57 0 01-.21.42 11.92 11.92 0 01-1.38 1.06 13.82 13.82 0 002.11 1 .43.43 0 01.31.41c0 .35-.2.52-.58.52a1.66 1.66 0 01-.53-.15 12.19 12.19 0 01-3.21-1.9 10.34 10.34 0 01-1.87-2c-.08.13-.16.25-.25.37a13.16 13.16 0 01-2.06 1.83 15.46 15.46 0 01-2.9 1.65 1.17 1.17 0 01-.55.16c-.35 0-.52-.15-.52-.47a.48.48 0 01.25-.46 17.65 17.65 0 002.26-1c-.32-.27-.59-.47-.79-.63s-.4-.28-.63-.43a.5.5 0 01-.16-.36.41.41 0 01.47-.47.77.77 0 01.31.11q.38.24.69.48a6.9 6.9 0 01.89.76v.05a9.51 9.51 0 001.31-1c.45-.36.68-.6.68-.73a.1.1 0 00-.11-.1h-3.07c-.3 0-.43-.13-.43-.43s.13-.41.43-.41zm4.08 5.36a.67.67 0 01.77.74v1.82a.69.69 0 01-.77.78h-1.1l-.42 2h3.34c.32 0 .48.14.48.46a.42.42 0 01-.48.47h-11.07a.41.41 0 01-.47-.47c0-.32.15-.46.47-.46h3.11l-.49-2h-1.1a.69.69 0 01-.79-.78V19.5c0-.48.26-.74.79-.74zm-.16 2.1V20a.27.27 0 00-.31-.3h-6.79c-.21 0-.32.1-.32.3v.9c0 .24.11.36.32.36h6.79c.2-.04.31-.16.31-.4zm-1-3.55c0 .32-.15.47-.43.47h-4.47c-.29 0-.42-.15-.42-.47s.13-.41.42-.41h4.5a.38.38 0 01.41.41zm-1.4 6.83l.44-2h-3.54l.5 2zm9.27-10.66l1.73 1.86a.53.53 0 01.16.36.44.44 0 01-.46.46.36.36 0 01-.26-.11L131 14.36a.3.3 0 00-.19-.12c-.05 0-.11.06-.16.14a17.07 17.07 0 01-1.54 2 .54.54 0 01.28-.08h2.77a.38.38 0 01.42.42.37.37 0 01-.42.41h-1v1.52h1.4a.38.38 0 01.43.41c0 .32-.15.47-.43.47h-1.4v3.97a10.85 10.85 0 001.25-.35.54.54 0 01.21 0 .36.36 0 01.37.36.44.44 0 01-.27.41 11.46 11.46 0 01-1.84.59c-.59.13-1.3.26-2.13.4a.41.41 0 01-.41-.47.43.43 0 01.36-.47c.68-.08 1.21-.16 1.62-.24v-4.18h-1.51c-.28 0-.42-.15-.42-.47a.37.37 0 01.42-.41h1.51v-1.52h-.89a.36.36 0 01-.41-.41.34.34 0 01.07-.26 1.9 1.9 0 01-.18.2.64.64 0 01-.41.22.44.44 0 01-.47-.47.63.63 0 01.2-.43 11.68 11.68 0 002-2.37c.18-.32.37-.48.56-.48s.26.12.48.33zm-1.92 6.86c.08.4.18 1 .28 1.9v.39c0 .24-.15.36-.41.36s-.4-.12-.42-.36q-.09-1.2-.24-2.07v-.17c0-.21.12-.32.37-.32a.43.43 0 01.42.27zm3.31 0a.28.28 0 01.14.22.85.85 0 01-.05.26c-.15.7-.31 1.3-.47 1.83a.32.32 0 01-.27.15c-.32 0-.46-.1-.46-.31v-.21c.13-.48.27-1.08.41-1.83a.32.32 0 01.32-.2.82.82 0 01.38.07zm3 1.68a1.44 1.44 0 01-.37.71 14.86 14.86 0 01-1.15 1.27 9.16 9.16 0 01-1 1 .78.78 0 01-.36.11.37.37 0 01-.42-.41.63.63 0 01.29-.55 10.77 10.77 0 001.19-1.05 14.79 14.79 0 001.13-1.38.43.43 0 01.27-.1.37.37 0 01.38.38zm-1-5.42c-.56 0-.84-.22-.84-.67 0-.08.2-.91.63-2.46 0-.24.22-.35.52-.35s.52.11.52.35l-.12.36H138c.58 0 .89.26.89.74 0 .09-.28 1.12-.81 3.08H140a.42.42 0 010 .83h-3.13v.14a7.93 7.93 0 00.4 1.71 2.56 2.56 0 00.11.24 10.15 10.15 0 001.41-1.36.36.36 0 01.32-.21c.31 0 .47.14.47.41a1 1 0 01-.21.52 9.51 9.51 0 01-1.51 1.41.12.12 0 01-.08 0 8.91 8.91 0 00.48.8 8.53 8.53 0 001.74 1.94.42.42 0 01.1.26c0 .34-.16.52-.46.52a.5.5 0 01-.32-.15 8.6 8.6 0 01-1.32-1.49 12.12 12.12 0 01-1-1.84.14.14 0 010-.1v3.06c0 .58-.27.89-.79.89a4.41 4.41 0 01-1.51-.32c-.25-.07-.37-.2-.37-.41s.16-.46.42-.47a6.72 6.72 0 001.1.31c.13 0 .2-.12.2-.36v-5.52h-2.55a.42.42 0 110-.83h3.71c.11-.4.2-.75.28-1.05zm-.57 2.5l.49.5a7 7 0 01.66.81 1 1 0 01.09.25q0 .42-.36.42a.79.79 0 01-.42-.1c-.24-.32-.44-.56-.58-.74l-.46-.46a.43.43 0 01-.16-.32.37.37 0 01.41-.41 3 3 0 01.24.03zm.77-3.6c0 .15.13.22.43.22h2.4c.14-.5.2-.77.2-.79s-.1-.2-.32-.2H135c-.15.47-.22.73-.22.75zM153 13.72c0 .25-.2.42-.57.47-1.26.15-2.93.27-5 .37h-.51a.52.52 0 01-.2.32 16 16 0 01-2 1.87 1.47 1.47 0 01.28.16 14.57 14.57 0 012.39 1.66c.23-.22.44-.45.66-.69a26.16 26.16 0 001.92-2.52.5.5 0 01.42-.21.61.61 0 01.37.14.55.55 0 01.15.38.59.59 0 01-.09.3 21.82 21.82 0 01-1.68 2.18 12.67 12.67 0 01-1.14 1.11c1.25 0 2.42-.06 3.53-.11-.3-.37-.62-.76-1-1.16a.53.53 0 01-.16-.36.38.38 0 01.43-.43.77.77 0 01.31.11c.38.45.74.88 1.06 1.31a15 15 0 011.4 2.08.6.6 0 01.14.26.37.37 0 01-.41.42.63.63 0 01-.42-.16c-.29-.47-.56-.88-.79-1.23a.29.29 0 01-.16 0l-3.95.17V25a.47.47 0 01-.52.52.47.47 0 01-.54-.52v-4.77c-1.79.07-3.53.12-5.21.16-.32 0-.47-.19-.47-.57a.43.43 0 01.47-.48c1.71 0 3.33 0 4.85-.06l.08-.06c-.95-.7-1.74-1.23-2.38-1.62s-1.19-.66-1.87-1a.5.5 0 01-.16-.36.41.41 0 01.47-.47.89.89 0 01.31.1l.81.45a17.57 17.57 0 001.83-1.65c-1.45.08-2.51.11-3.17.11-.38 0-.57-.17-.57-.52s.16-.43.48-.43c1.77 0 3.4-.05 4.89-.14 1.87-.1 3.63-.26 5.23-.48.34-.02.49.16.49.51zm-7.83 7.76a1.11 1.11 0 01-.22.58 16.79 16.79 0 01-2.66 3 .57.57 0 01-.37.16c-.39 0-.58-.17-.58-.52a.64.64 0 01.11-.37 16.19 16.19 0 002.82-3.12.43.43 0 01.38-.26.47.47 0 01.53.53zm5.59-.42c.4.45.76.88 1.1 1.29a14.41 14.41 0 011.45 2 .55.55 0 01.16.32c0 .35-.16.52-.47.52a.71.71 0 01-.48-.16q-.81-1.28-1.35-2c-.32-.4-.67-.83-1-1.27a.53.53 0 01-.16-.36c0-.31.14-.47.46-.47a1 1 0 01.3.13zm6.6-7.81a.44.44 0 01.18.31 1.18 1.18 0 010 .25 13.43 13.43 0 01-1.36 2.3s0 .07-.06.08a7.12 7.12 0 01.84.89c.39-.62.75-1.28 1.1-2a.48.48 0 01.41-.21.46.46 0 01.3.12.47.47 0 01.12.31.5.5 0 01-.11.3 22.94 22.94 0 01-1.26 2.23 10.94 10.94 0 01-.89 1.17 17.26 17.26 0 001.9-.24c-.08-.24-.15-.44-.22-.61a.45.45 0 01-.05-.2c0-.24.13-.36.41-.36a.46.46 0 01.33.2 12.53 12.53 0 01.57 1.67 1.13 1.13 0 01.05.32c0 .24-.17.36-.52.36-.14 0-.25-.11-.32-.32a1.47 1.47 0 01-.05-.26l-1 .18V25a.47.47 0 11-.94 0v-5.09c-.64.09-1.24.16-1.83.21-.28 0-.41-.18-.41-.57s.13-.4.41-.41a4.18 4.18 0 00.51 0 13 13 0 001-1.32.36.36 0 01-.12-.08c-.35-.38-.64-.69-.88-.93s-.44-.37-.7-.57a.54.54 0 01-.15-.37.38.38 0 01.42-.42.77.77 0 01.31.11l.09.08a19.31 19.31 0 001.16-2.22.36.36 0 01.36-.25.79.79 0 01.4.08zm-1 7.66a1.31 1.31 0 010 .31 25.84 25.84 0 01-.68 3.38.48.48 0 01-.42.26c-.32 0-.48-.15-.48-.42a.47.47 0 01.11-.3 24.63 24.63 0 00.68-3.34c0-.17.15-.26.36-.26s.46.13.46.37zm2.82.09c.08.44.15 1.14.23 2.1v.41c0 .24-.15.36-.42.36a.37.37 0 01-.43-.36c0-.88-.1-1.63-.18-2.25v-.2c0-.2.12-.31.37-.31a.44.44 0 01.46.25zm3.09-1a17.22 17.22 0 01-.27 2.3 5.17 5.17 0 01-.79 1.8 4.31 4.31 0 01-1.43 1.16h-.07c-.35 0-.52-.2-.52-.57a.4.4 0 01.31-.41 3.11 3.11 0 001.12-1 4.47 4.47 0 00.52-1.4 11.92 11.92 0 00.24-1.95c0-.24.17-.36.47-.36s.45.13.45.43zm1-6.24v.93h2.71a.47.47 0 010 .94h-3.5l-1.26 2.77a25 25 0 003.64-.42 12.08 12.08 0 00-.75-1.2.45.45 0 01-.11-.26c0-.24.15-.37.47-.37.11 0 .2.08.31.21a14.61 14.61 0 011.83 3.12 1.89 1.89 0 010 .38c0 .28-.2.41-.57.41-.16 0-.28-.12-.36-.37s-.32-.78-.47-1.12a.53.53 0 01-.16 0c-1.76.32-3.43.55-5 .68-.32 0-.47-.18-.47-.57s.15-.45.47-.47h.19l1.27-2.81h-1.41c-.32 0-.46-.15-.46-.47s.14-.47.46-.47h2.2v-.93a.52.52 0 111 0zm1.26 6.19v4a.58.58 0 00.13.44 1.21 1.21 0 00.7.13c.36 0 .57 0 .65-.12a.57.57 0 00.13-.36v-.81c0-.33.15-.51.42-.52s.44.21.47.61a4.67 4.67 0 01-.12 1.48.78.78 0 01-.39.42 3.18 3.18 0 01-1.16.14A2.31 2.31 0 01164 25a1.15 1.15 0 01-.31-1v-4.09c0-.27.13-.41.43-.41s.48.14.48.41zM26.3 61.12h-2.14v4.55c0 .24-.13.36-.4.36s-.41-.12-.41-.36v-4.55h-2.13c-.32 0-.47-.1-.47-.3s.15-.31.47-.31h5.08c.32 0 .47.1.47.31s-.15.3-.47.3zm5.05 4.93c-.27 0-.39-.12-.39-.36v-.31a3.72 3.72 0 01-.94.45A3.2 3.2 0 0129 66a2.17 2.17 0 01-1.11-.25.9.9 0 01-.52-.84c0-.46.28-.81.86-1.06a4.51 4.51 0 011.7-.29H31c0-.57-.47-.85-1.28-.85a2.74 2.74 0 00-.81.12 1.23 1.23 0 00-.64.36.36.36 0 01-.26.16c-.3 0-.45-.11-.45-.35s.07-.19.22-.32a3 3 0 011.94-.58 2.38 2.38 0 011.61.45 1.33 1.33 0 01.46 1v2.14c-.04.24-.18.36-.44.36zM31 64.18h-.69c-1.39 0-2.09.25-2.09.75a.37.37 0 00.24.35 1.09 1.09 0 00.55.13 2.92 2.92 0 001.12-.23 2 2 0 00.87-.56zm3.39-3.06a.67.67 0 01-.39.12.71.71 0 01-.41-.12.38.38 0 010-.62.71.71 0 01.41-.12.67.67 0 01.39.12.37.37 0 010 .62zM34 66c-.27 0-.41-.12-.41-.37v-3.15c0-.24.14-.36.41-.36s.39.12.39.36v3.19c0 .25-.13.33-.39.33zm9.56-3.44l-1.69 3.24a.39.39 0 01-.37.21.32.32 0 01-.32-.21l-1.39-2.63-1.42 2.63a.35.35 0 01-.32.21.39.39 0 01-.37-.21L36 62.56a.27.27 0 01-.06-.17c0-.18.15-.28.44-.28a.35.35 0 01.33.2L38.05 65l1.42-2.63a.34.34 0 01.32-.22.4.4 0 01.34.22L41.5 65l1.35-2.65a.34.34 0 01.33-.2c.29 0 .44.1.44.28a.5.5 0 01-.06.13zm4.52 3.49c-.27 0-.39-.12-.39-.36v-.31a3.56 3.56 0 01-.94.45 3.2 3.2 0 01-1 .19 2.17 2.17 0 01-1.11-.25.9.9 0 01-.52-.84c0-.46.28-.81.87-1.06a4.42 4.42 0 011.69-.29h1.06c0-.57-.47-.85-1.28-.85a2.74 2.74 0 00-.81.12 1.23 1.23 0 00-.64.36.36.36 0 01-.26.16c-.3 0-.45-.11-.45-.35s.07-.19.22-.32a3 3 0 011.94-.58 2.38 2.38 0 011.61.45 1.33 1.33 0 01.46 1v2.14c-.05.22-.19.34-.45.34zm-.39-1.87H47c-1.39 0-2.09.25-2.09.75a.37.37 0 00.24.35 1.09 1.09 0 00.55.13 3 3 0 001.13-.23 2 2 0 00.86-.56zM53.53 66c-.27 0-.39-.12-.39-.36v-2a.77.77 0 00-.39-.64 1.66 1.66 0 00-.9-.25 2.22 2.22 0 00-1.21.34c-.31.21-.47.42-.47.64v2c0 .24-.11.36-.34.36s-.45-.12-.45-.36v-3.26c0-.24.12-.36.39-.36s.4.12.4.36v.26a2.37 2.37 0 011.68-.62 2.53 2.53 0 011.47.43 1.27 1.27 0 01.6 1.07v2q0 .39-.39.39zm9.81-.52a4.2 4.2 0 01-2.08.42h-2c-.31 0-.47-.12-.47-.36v-4.67c0-.24.16-.36.47-.36h2.49a2.78 2.78 0 011.41.32 1.16 1.16 0 01.62 1c0 .61-.38 1-1.12 1.26a1.92 1.92 0 01.93.4 1.15 1.15 0 01-.26 2zm-.71-4.22a1.32 1.32 0 00-.66-.14h-2.18c-.13 0-.18.05-.18.13v1.56h1.76a2.39 2.39 0 001.11-.23.82.82 0 00.51-.73.68.68 0 00-.36-.59zm.14 2.44a2.88 2.88 0 00-1.4-.28h-1.76v1.74c0 .09 0 .13.18.13h1.79a2.72 2.72 0 001.11-.2.8.8 0 00.56-.7.87.87 0 00-.48-.69zm4.87-.89a2.93 2.93 0 00-1 .3 2.33 2.33 0 00-.49.42 1 1 0 00-.29.6v1.53a.32.32 0 01-.35.36c-.29 0-.43-.12-.43-.36v-3.18q0-.36.42-.36a.32.32 0 01.36.36V63a2.1 2.1 0 011.65-.73c.3 0 .44.12.44.34s-.12.19-.31.2zm4.94 1.39h-3.24a1.17 1.17 0 00.45.86 1.52 1.52 0 001 .35 1.43 1.43 0 00.86-.24 2 2 0 00.49-.51.39.39 0 01.35-.15.43.43 0 01.27.11.29.29 0 01.14.24c0 .16-.15.36-.42.61a2.49 2.49 0 01-1.72.55 2.46 2.46 0 01-1.72-.59A1.79 1.79 0 0168.5 64a1.73 1.73 0 01.66-1.34 2.49 2.49 0 011.65-.57 2.45 2.45 0 011.66.56 1.57 1.57 0 01.6 1.21c0 .24-.17.34-.49.34zm-.75-1.2a1.7 1.7 0 00-1-.26 1.47 1.47 0 00-.9.26 1.19 1.19 0 00-.51.66h2.83a.91.91 0 00-.42-.66zm5.94 3.05c-.27 0-.4-.12-.4-.36v-.31a3.56 3.56 0 01-.94.45 3.16 3.16 0 01-1.05.19 2.17 2.17 0 01-1.11-.25.9.9 0 01-.52-.84c0-.46.28-.81.87-1.06a4.43 4.43 0 011.7-.29h1.05c0-.57-.47-.85-1.28-.85a2.74 2.74 0 00-.81.12 1.23 1.23 0 00-.64.36.36.36 0 01-.26.16c-.3 0-.45-.11-.45-.35s.07-.19.23-.32a2.94 2.94 0 011.93-.58 2.38 2.38 0 011.61.45 1.33 1.33 0 01.46 1v2.14c0 .22-.16.34-.39.34zm-.4-1.87h-.68q-2.1 0-2.1.75a.37.37 0 00.24.35 1.09 1.09 0 00.55.13 3 3 0 001.13-.23 2 2 0 00.86-.56zm5.09 1.6A3.89 3.89 0 0181 66a3.1 3.1 0 01-1.54-.35c-.43-.23-.64-.45-.64-.67s.15-.33.47-.33a.38.38 0 01.27.15 1.67 1.67 0 001.4.59c.88 0 1.33-.15 1.33-.46 0-.15-.2-.31-.59-.44l-.92-.23a6.89 6.89 0 01-1.19-.34c-.45-.19-.66-.44-.66-.75a.87.87 0 01.6-.81 3.24 3.24 0 011.47-.25 3.73 3.73 0 011.24.24c.5.19.75.42.75.7s-.15.33-.45.33c-.1 0-.21-.08-.33-.26a1.39 1.39 0 00-1.21-.43c-.81 0-1.22.17-1.22.49 0 .12.12.21.36.29l.89.21a9.78 9.78 0 011.36.4c.5.24.76.52.76.86s-.22.65-.69.84zm3.84.12h-.88c-.54 0-.81-.3-.81-.91v-2.15H84c-.31 0-.46-.1-.46-.31s.15-.31.46-.31h.59v-.66c0-.24.12-.36.38-.36s.41.12.41.36v.66h.83c.3 0 .46.11.46.31s-.16.31-.46.31h-.81V65c0 .22 0 .33.15.33h.75c.3 0 .46.11.46.31s-.16.26-.46.26zm6.22.1a.35.35 0 01-.4-.39v-4.83a.4.4 0 01.8 0v4.85a.35.35 0 01-.4.37zm8.71 0c-.27 0-.4-.12-.4-.36v-2.3a.6.6 0 00-.3-.46 1.09 1.09 0 00-.6-.16 1.42 1.42 0 00-.82.21c-.3.18-.45.36-.45.51v2.21c0 .24-.14.36-.41.36s-.4-.12-.4-.36v-2.21c0-.14-.12-.31-.35-.5a1.06 1.06 0 00-.65-.22A1.41 1.41 0 0096 63c-.28.22-.41.4-.41.54v2.12c0 .24-.14.36-.39.36s-.41-.12-.41-.36v-3.19c0-.24.12-.36.39-.36s.42.15.42.44v.05a1.74 1.74 0 011.27-.49 1.68 1.68 0 011.4.6 2.33 2.33 0 011.68-.6 2 2 0 011.18.36 1.06 1.06 0 01.52.87v2.31c-.02.24-.16.35-.42.35zm5.38-.59a2.59 2.59 0 01-1.78.6 2.39 2.39 0 01-.87-.16 1.26 1.26 0 01-.63-.41v1.19c0 .24-.13.36-.4.36s-.4-.12-.4-.36v-4.16c0-.24.13-.36.4-.36s.4.12.4.36v.27a2.11 2.11 0 011.62-.63 2.49 2.49 0 011.69.57 1.75 1.75 0 01.65 1.35 1.74 1.74 0 01-.68 1.38zm-.55-2.3a1.61 1.61 0 00-1.11-.38 1.75 1.75 0 00-1.17.38 1.22 1.22 0 00-.45 1 1.24 1.24 0 00.36.94 1.49 1.49 0 001.14.4A1.67 1.67 0 00106 65a1.29 1.29 0 00.45-1 1.24 1.24 0 00-.39-.89zm3.37 2.89c-.27 0-.41-.12-.41-.36v-4.9c0-.23.14-.35.41-.35s.39.12.39.35v4.93q0 .33-.39.33zm6.14.05c-.27 0-.39-.12-.39-.36v-.31a3.63 3.63 0 01-1 .45 3.15 3.15 0 01-1 .19 2.24 2.24 0 01-1.12-.25.89.89 0 01-.51-.84c0-.46.28-.81.86-1.06a4.47 4.47 0 011.7-.29h1.06c-.05-.57-.47-.85-1.29-.85a2.63 2.63 0 00-.8.12 1.26 1.26 0 00-.65.36.36.36 0 01-.25.16c-.31 0-.45-.11-.45-.35s.06-.19.22-.32a2.94 2.94 0 011.93-.58 2.35 2.35 0 011.61.45 1.3 1.3 0 01.46 1v2.14q.05.34-.38.34zm-.39-1.87h-.69c-1.39 0-2.09.25-2.09.75a.37.37 0 00.24.35 1 1 0 00.55.13 2.92 2.92 0 001.12-.23 2 2 0 00.87-.56zM121 66c-.27 0-.4-.12-.4-.36v-2a.76.76 0 00-.38-.64 1.69 1.69 0 00-.9-.25 2.22 2.22 0 00-1.21.34c-.32.21-.48.42-.48.64v2q0 .36-.33.36c-.31 0-.45-.12-.45-.36v-3.26c0-.24.12-.36.39-.36s.39.12.39.36v.26a2.38 2.38 0 011.69-.62 2.49 2.49 0 011.46.43 1.25 1.25 0 01.61 1.07v2q.02.39-.39.39zm3.76-.1h-.87c-.54 0-.81-.3-.81-.91v-2.15h-.59c-.31 0-.46-.1-.46-.31s.15-.31.46-.31h.59v-.66c0-.24.12-.36.38-.36s.4.12.4.36v.66h.84c.3 0 .46.11.46.31s-.16.31-.46.31h-.84V65c0 .22 0 .33.16.33h.74c.31 0 .46.11.46.31s-.15.26-.46.26zm10.43.1c-.13 0-.23-.09-.28-.28s-.09-.39-.13-.59a3.75 3.75 0 00-.24-.6 1.67 1.67 0 00-1.55-.87h-2.33v2q0 .36-.39.36c-.27 0-.4-.12-.4-.36v-4.8q0-.36.48-.36h3.39a2.21 2.21 0 011.35.42 1.23 1.23 0 01.56 1 1.25 1.25 0 01-.45.93 2.37 2.37 0 01-1.08.52 2.12 2.12 0 01.94.6 3.12 3.12 0 01.46.81 2.74 2.74 0 01.19.89c0 .25-.18.33-.52.33zm-.73-4.68a1.39 1.39 0 00-.84-.23h-2.78c-.12 0-.18.05-.18.13v1.83H133a2.66 2.66 0 00.88-.14 1.52 1.52 0 00.69-.43.86.86 0 00.24-.54.7.7 0 00-.35-.59zm6.12 2.88h-3.24a1.2 1.2 0 00.45.86 1.52 1.52 0 001.05.35 1.46 1.46 0 00.87-.24 2.19 2.19 0 00.48-.51.41.41 0 01.36-.15.45.45 0 01.27.11.28.28 0 01.13.24c0 .16-.14.36-.41.61a2.5 2.5 0 01-1.72.55 2.44 2.44 0 01-1.72-.59 1.77 1.77 0 01-.6-1.4 1.73 1.73 0 01.66-1.34 2.49 2.49 0 011.66-.57 2.44 2.44 0 011.65.56 1.58 1.58 0 01.61 1.21c0 .21-.17.31-.5.31zm-.75-1.2a1.67 1.67 0 00-1-.26 1.47 1.47 0 00-.9.26 1.2 1.2 0 00-.52.66h2.83a.91.91 0 00-.41-.66zm6.41-.32a2.55 2.55 0 00-.44.15 1 1 0 01.22.56 1 1 0 01-.65.9 2.79 2.79 0 01-1.32.31 2.83 2.83 0 01-.63-.07q-.18.1-.18.18s.09.09.29.14l1.79.34c.63.17 1 .45 1 .83s-.27.59-.8.77a4.22 4.22 0 01-1.36.21 5 5 0 01-1.57-.21c-.54-.17-.79-.43-.79-.77s.37-.63 1.11-.81c-.32-.11-.47-.27-.47-.5a.57.57 0 01.29-.44 1 1 0 01-.63-.86 1.07 1.07 0 01.63-1 3 3 0 012.59 0 1.8 1.8 0 01.91-.27c.24 0 .38.1.38.3s-.15.2-.37.24zm-2 2.79c-1.09.12-1.63.31-1.63.55s.5.4 1.52.4a3.89 3.89 0 00.78-.08c.34-.07.52-.18.52-.32s-.43-.39-1.2-.55zm.58-2.55a1.68 1.68 0 00-.76-.19 1.82 1.82 0 00-.79.16.56.56 0 00-.36.52c0 .19.14.33.42.44a1.87 1.87 0 00.78.14 1.54 1.54 0 00.68-.16c.25-.12.38-.27.38-.42a.58.58 0 00-.36-.49zm4.39-1.8a.65.65 0 01-.39.12.65.65 0 01-.4-.12.37.37 0 010-.62.65.65 0 01.4-.12.65.65 0 01.39.12.37.37 0 010 .62zm-.39 4.88c-.27 0-.4-.12-.4-.37v-3.15c0-.24.13-.36.4-.36s.39.12.39.36v3.19c0 .25-.13.33-.39.33zm5.64-.22A3.89 3.89 0 01153 66a3.08 3.08 0 01-1.54-.35c-.43-.23-.64-.45-.64-.67s.15-.33.47-.33a.38.38 0 01.27.15 1.66 1.66 0 001.4.59c.88 0 1.33-.15 1.33-.46 0-.15-.2-.31-.6-.44-.15 0-.46-.12-.91-.23a6.89 6.89 0 01-1.19-.34c-.45-.19-.66-.44-.66-.75a.88.88 0 01.59-.81 3.29 3.29 0 011.43-.26 3.73 3.73 0 011.24.24c.49.19.75.42.75.7s-.15.33-.45.33c-.1 0-.21-.08-.33-.26a1.39 1.39 0 00-1.16-.43c-.81 0-1.22.17-1.22.49 0 .12.12.21.36.29l.89.21a9.78 9.78 0 011.36.4c.5.24.76.52.76.86s-.22.66-.69.85zm3.83.12h-.87c-.54 0-.81-.3-.81-.91v-2.15H156c-.31 0-.46-.1-.46-.31s.15-.31.46-.31h.59v-.66c0-.24.12-.36.38-.36s.4.12.4.36v.66h.84c.3 0 .46.11.46.31s-.16.31-.46.31h-.84V65c0 .22.05.33.16.33h.74c.31 0 .46.11.46.31s-.13.26-.44.26zm3.83-3.09a2.87 2.87 0 00-1 .3 2.33 2.33 0 00-.49.42 1 1 0 00-.29.6v1.53a.32.32 0 01-.34.34c-.29 0-.43-.12-.43-.36v-3.16q0-.36.42-.36a.32.32 0 01.36.36V63a2.08 2.08 0 011.65-.73c.3 0 .44.12.44.34s-.13.19-.32.2zm5.23-.23l-2.66 4.26a.38.38 0 01-.3.16c-.29 0-.42-.1-.42-.28a.8.8 0 01.21-.44l.53-.76-1.94-2.94v-.18c0-.11.09-.28.29-.28a.47.47 0 01.39.19l1.7 2.54 1.61-2.54a.39.39 0 01.37-.19c.2 0 .3.09.3.28a.54.54 0 01-.08.18zm49.02-32.18a1.53 1.53 0 011.28.57 2.1 2.1 0 01.36 1.32 6.28 6.28 0 01-.17 1.32.84.84 0 01-.9.56c-.51 0-.74-.23-.74-.73a5.09 5.09 0 00.25-1.07c0-.54-.23-.81-.67-.81h-14.6a.42.42 0 00-.48.48v1.4c0 .5-.25.73-.75.73s-.74-.23-.74-.73v-1.55a1.32 1.32 0 011.49-1.49zm-1.24 2.6a.43.43 0 01-.48.5h-1A23 23 0 01216 35c.34.13.5.31.5.57q0 .81-.75.81a1.19 1.19 0 01-.32-.12c-.42-.3-.84-.59-1.26-.86a.07.07 0 01-.06 0c-1.6.13-3.15.21-4.66.27v1.11h5.39c.34 0 .51.17.51.48s-.17.59-.51.59h-5.44v.9h8a.58.58 0 01.67.65.59.59 0 01-.67.65h-17.52a.58.58 0 01-.67-.65c0-.44.21-.65.67-.65h8v-.9H202c-.33 0-.48-.19-.48-.59a.42.42 0 01.48-.48h5.91v-1c-2.25.12-4.44.23-6.56.29-.38 0-.56-.21-.56-.65a.52.52 0 01.56-.59h2.86l1-1.26h-3a.49.49 0 110-1h12.48a.43.43 0 01.44.43zm2.46-10.14c0 .44-.19.65-.57.65h-7.62v1h6.6a.52.52 0 01.59.56.52.52 0 01-.59.59h-14.56a.52.52 0 01-.59-.59c0-.37.19-.56.59-.56h6.47v-1h-7.71c-.38 0-.57-.21-.57-.65a.5.5 0 01.57-.56h7.71V22a.75.75 0 011.49 0v.34h7.6a.5.5 0 01.59.54zm-2.38 3.77c.66 0 1 .26 1 .74v1.46c0 .55-.33.82-1 .82h-13c-.67 0-1-.27-1-.82v-1.44c0-.48.32-.74 1-.74zm-.48 1.64V28c0-.16 0-.25-.08-.25h-11.91c-.06 0-.09.09-.09.25v.34c0 .21 0 .31.09.31h11.91s.08-.15.08-.36zm-2.48 6.05a.61.61 0 01-.48-.65.47.47 0 010-.17h-5l-.94 1.22c2.39 0 4.62-.15 6.67-.29a1.69 1.69 0 01-.25-.09zm9.12-6.62a17.73 17.73 0 012 2.14 1.11 1.11 0 01.17.48c0 .46-.25.67-.76.67a.56.56 0 01-.4-.17c-.65-.75-1.34-1.51-2-2.22a.75.75 0 01-.17-.4c0-.48.27-.73.82-.73a.71.71 0 01.34.23zm2.29 5.49a25.74 25.74 0 01-.61 3.37 22.53 22.53 0 01-1.2 3.25.76.76 0 01-.65.42c-.5 0-.74-.23-.74-.65a.59.59 0 01.17-.34 20 20 0 001.09-2.93 30.1 30.1 0 00.72-3.46c0-.25.23-.39.57-.39s.65.25.65.73zM222 22.32a15.24 15.24 0 011.51 1.68 1.37 1.37 0 01.15.48c0 .44-.25.65-.74.65a.52.52 0 01-.4-.17c-.5-.61-1-1.19-1.57-1.78a1 1 0 01-.15-.42c0-.48.27-.73.82-.73.1.04.23.12.38.29zm4.54-.53a.51.51 0 01.23.36 1.15 1.15 0 01-.09.31 9.34 9.34 0 01-1.28 1.74c.3.23.55.44.8.65.29-.48.59-1 .88-1.57a.43.43 0 01.42-.23.84.84 0 01.46.15.39.39 0 01.19.33.57.57 0 01-.08.25 17.38 17.38 0 01-2 3 10.61 10.61 0 001.47-.21v-.06a.9.9 0 01-.08-.34c0-.31.19-.48.56-.48a.6.6 0 01.34.17 12.38 12.38 0 01.74 1.46 1.24 1.24 0 01.08.32c0 .33-.19.5-.57.5a.43.43 0 01-.25-.08c-.1-.17-.19-.36-.27-.53a.26.26 0 01-.15 0 7.87 7.87 0 01-1 .19v3.58c0 .34-.21.51-.58.51s-.49-.17-.49-.51v-3.39c-.63.08-1.24.17-1.8.21-.38 0-.57-.21-.57-.65s.19-.56.57-.59.5 0 .75 0a9.57 9.57 0 00.8-1.11c-.52-.42-1.07-.83-1.64-1.23a.56.56 0 01-.16-.34c0-.37.21-.56.65-.56a.55.55 0 01.19.06 19.14 19.14 0 001-1.7.39.39 0 01.42-.33 1.22 1.22 0 01.48.12zm-1.43 6.85a.43.43 0 01.17.3.63.63 0 01-.07.25c-.19.84-.38 1.57-.59 2.2a.52.52 0 01-.39.25c-.4 0-.59-.13-.59-.42a.43.43 0 01.08-.31c.17-.55.38-1.26.59-2.14 0-.17.19-.25.4-.25a.72.72 0 01.42.12zm11.17 5.53c.21 0 .34-.12.34-.42v-.14a.32.32 0 00-.34-.34h-11.55c-.38 0-.57-.21-.57-.65a.52.52 0 01.57-.58h12c.88 0 1.32.39 1.32 1.15v1c0 .84-.44 1.24-1.32 1.24h-9.91c-.34 0-.51.19-.51.56a.23.23 0 00.25.26h11.41c.59 0 .9.42.9 1.21a3.67 3.67 0 01-.25 1.19 3.16 3.16 0 01-.86 1.37 3.86 3.86 0 01-2.33.48c-2 0-5-.13-9.12-.34a.61.61 0 01-.56-.65c0-.44.23-.65.73-.65q5.27.31 9 .32a2.19 2.19 0 001.53-.36 1.41 1.41 0 00.44-.86c0-.33-.12-.5-.33-.5h-11.24c-.67 0-1-.38-1-1.13a5.3 5.3 0 01.19-1.4.86.86 0 01.88-.74h10.35zm-7.79-5.4c.08.33.17.88.27 1.63v.34a.42.42 0 01-.48.48c-.31 0-.48-.13-.48-.4-.09-.67-.15-1.25-.23-1.74v-.14c0-.28.12-.42.39-.42a.61.61 0 01.55.25zm4.83-4.9c0 .33-.15.48-.4.48h-3.86c-.28 0-.4-.15-.4-.48s.12-.42.4-.42h3.86a.37.37 0 01.42.42zm-.32-1.63c0 .27-.14.39-.42.39h-3c-.29 0-.42-.12-.42-.39a.37.37 0 01.42-.42h3a.37.37 0 01.42.42zm-.08 3.18a.37.37 0 01-.42.42h-2.86c-.29 0-.42-.13-.42-.42a.37.37 0 01.42-.42h2.86a.38.38 0 01.44.42zm0 1.55a.37.37 0 01-.42.42h-2.79c-.28 0-.4-.13-.4-.42a.35.35 0 01.4-.4h2.79a.37.37 0 01.44.43zm-.65 1.23c.55 0 .82.23.82.65v1.89c0 .44-.27.65-.82.65h-2.14c-.51 0-.74-.21-.74-.65v-1.89c0-.42.23-.65.74-.65zm-.25 2v-.75c0-.25-.13-.4-.34-.4h-1c-.16 0-.23.15-.23.4v.75c0 .28.07.4.23.4h1c.23-.03.32-.15.32-.43zm4.39-8.29a.51.51 0 01.21.36.41.41 0 01-.09.22 8.44 8.44 0 01-1.3 1.7c.25.21.48.44.72.67.33-.5.65-1 1-1.61a.41.41 0 01.42-.25.92.92 0 01.46.14.4.4 0 01.19.34.61.61 0 01-.08.25 18.71 18.71 0 01-2.21 3 11.52 11.52 0 001.75-.25l-.11-.17a.9.9 0 01-.08-.34c0-.31.19-.48.57-.48a.65.65 0 01.33.17 13 13 0 011.14 1.63 2.14 2.14 0 01.08.4c0 .34-.19.5-.57.5a.62.62 0 01-.33-.08 6.9 6.9 0 01-.42-.71.53.53 0 01-.23.06c-.38.08-.74.17-1.08.21v3.63c0 .34-.18.51-.56.51s-.49-.17-.49-.51v-3.45c-.67.12-1.34.21-2 .27-.4 0-.59-.21-.59-.65s.19-.56.59-.59a3.66 3.66 0 00.67 0 9.83 9.83 0 00.93-1.13c-.57-.5-1.14-1-1.68-1.44a.54.54 0 01-.17-.32c0-.37.21-.58.65-.58a.62.62 0 01.33.16l.07.07a14.88 14.88 0 001-1.62.37.37 0 01.4-.25.9.9 0 01.5.11zM235 28.64a.43.43 0 01.17.3.69.69 0 01-.09.25c-.12.88-.25 1.63-.4 2.28a.52.52 0 01-.42.25c-.44 0-.65-.16-.65-.5a.25.25 0 01.09-.23c.14-.59.31-1.32.48-2.22a.4.4 0 01.42-.25.72.72 0 01.4.12zm3.44.3a9.46 9.46 0 01.38 1.57v.31c0 .34-.19.48-.56.48a.45.45 0 01-.51-.48c-.08-.65-.19-1.19-.29-1.65v-.15c0-.27.14-.42.48-.42a.53.53 0 01.48.34zm14.26 4.42a.76.76 0 01-.4.65 29.75 29.75 0 01-3.76 1 10.67 10.67 0 01.24 2.16 3.77 3.77 0 01-.49 1.82 2.59 2.59 0 01-1.09 1.17 3 3 0 01-1.47.36 5.67 5.67 0 01-1.72-.34c-.42-.16-.65-.4-.65-.73 0-.52.23-.8.65-.82a10.19 10.19 0 001.64.4 1.4 1.4 0 00.71-.19 1.5 1.5 0 00.67-.69 1.88 1.88 0 00.25-1 12.93 12.93 0 00-.14-1.89c-1.45.27-3.15.53-5.11.73-.42 0-.63-.27-.65-.73a.65.65 0 01.57-.73c2-.17 3.61-.38 4.75-.59-.13-.25-.25-.5-.38-.73a4.91 4.91 0 00-.92-1 .32.32 0 01-.17-.27c0-.46.29-.71.82-.75a1 1 0 01.46.23 7.29 7.29 0 011 1.11.94.94 0 00.09.12 5.8 5.8 0 001.07-.79 4.77 4.77 0 00.94-1 1.42 1.42 0 00.32-.54c0-.09-.08-.15-.23-.15h-7c-.47 0-.68-.21-.68-.67s.21-.65.68-.65h8.19c.65 0 1 .27 1 .82a1.73 1.73 0 01-.31.9 9.22 9.22 0 01-1.37 1.71 10 10 0 01-1.7 1.41c1.22-.23 2.33-.48 3.3-.76a1.11 1.11 0 01.34-.06.54.54 0 01.55.49zm-.9-10.9c0 .36-.27.59-.82.68a40.57 40.57 0 01-4.22.52c-2 .21-3.32.29-4 .29-.55 0-.82-.23-.82-.73a.58.58 0 01.65-.67c1.49 0 2.88-.09 4.16-.21a29.63 29.63 0 004.45-.69c.37 0 .6.27.6.81zm-8 2.31a15.63 15.63 0 01.81 2.45 1.75 1.75 0 01.09.48c0 .4-.27.59-.82.59-.21 0-.38-.17-.48-.5a16.79 16.79 0 00-.74-2.29 1 1 0 01-.17-.5c0-.38.23-.57.74-.57a.76.76 0 01.53.34zm3.21-.25a12.06 12.06 0 01.9 2.05 2.35 2.35 0 01.09.48c0 .44-.28.65-.82.65-.28 0-.46-.15-.59-.48a11.91 11.91 0 00-.65-2 .67.67 0 01-.17-.4c0-.38.23-.59.74-.59a.74.74 0 01.49.29zm4.66-.57a.5.5 0 01.25.4 1.19 1.19 0 01-.08.34 17.24 17.24 0 01-1.55 3 .62.62 0 01-.49.34q-.84 0-.84-.57c0-.17 0-.27.09-.33a24 24 0 001.57-3 .45.45 0 01.48-.32 1.09 1.09 0 01.53.19zm3.3-1.49v15.23a1 1 0 00.27.82 2.66 2.66 0 001.45.25c.84 0 1.33-.15 1.49-.44a2.38 2.38 0 00.32-1.28v-2.95c0-.57.25-.86.73-.9s.78.4.82 1.07a19.72 19.72 0 01-.25 4.4 1.88 1.88 0 01-.78 1.21 4.16 4.16 0 01-2.33.44 4.84 4.84 0 01-2.71-.52 2.2 2.2 0 01-.59-1.76V22.46a.66.66 0 01.76-.73c.51 0 .78.27.78.73zm10.29 9.1a22.74 22.74 0 01-.56 5.44 10.59 10.59 0 01-1.08 2.83 1.08 1.08 0 01-.73.33c-.55 0-.82-.27-.84-.73a1.55 1.55 0 01.19-.46 10.16 10.16 0 001-2.72 19.53 19.53 0 00.52-4.67v-8.13a1 1 0 011.14-1.13 93.36 93.36 0 0014-.76.8.8 0 01.82.76c0 .33-.24.54-.66.65a87.33 87.33 0 01-13.21.65c-.44 0-.65.27-.65.81v.26H279c.75 0 1.15.33 1.15 1v2.62c0 .71-.4 1.05-1.15 1.05h-5.65v1.73h7.2a.59.59 0 01.67.65c0 .51-.23.74-.67.74h-8.44a42.8 42.8 0 01-.23 1.63h6.72c1 0 1.47.54 1.47 1.63a18.27 18.27 0 01-.23 2.91 2.16 2.16 0 01-.93 1.55 5.06 5.06 0 01-2.2.38 14.27 14.27 0 01-3.53-.5c-.4-.19-.59-.44-.59-.73 0-.61.27-.9.84-.9a13.47 13.47 0 003.19.56 2.63 2.63 0 001.22-.21 1.26 1.26 0 00.53-.84 9.43 9.43 0 00.14-1.63c0-.59-.25-.9-.73-.9h-6.22c-.06.21-.12.38-.17.54a6.59 6.59 0 01-1.78 2.73 9.81 9.81 0 01-3.22 1.76h-.18c-.55 0-.82-.32-.82-.9 0-.27.14-.46.48-.59a7 7 0 002.83-1.55 5.35 5.35 0 001.3-2.09 13.91 13.91 0 00.61-2.87h-4.12c-.44 0-.65-.23-.65-.74a.58.58 0 01.65-.65h5.25v-1.73h-6.47zm0-3.44h13.05c.25 0 .39-.17.39-.5v-1.3a.37.37 0 00-.39-.42h-13.05zm24.93-2.28c0 .5-.23.73-.65.73h-1.64v.67l2.5 3.94a1.49 1.49 0 01.21.63c0 .5-.27.73-.82.73a.56.56 0 01-.54-.42l-1.35-2.64v10.41a.66.66 0 01-.73.76c-.51 0-.74-.26-.74-.76V29.31c-.08.26-.15.51-.21.74a29.57 29.57 0 01-1 2.91 10.86 10.86 0 01-.94 2.11.74.74 0 01-.65.49c-.51 0-.74-.23-.74-.74a1.34 1.34 0 01.15-.56 35.34 35.34 0 002.08-4.61 27 27 0 00.84-3.08h-1.85c-.44 0-.65-.23-.65-.73a.58.58 0 01.65-.67h2.31v-2.85c0-.5.23-.76.74-.76a.66.66 0 01.73.76v2.85h1.64a.59.59 0 01.66.67zm4.08.23c.21-.46.42-.92.58-1.38a.51.51 0 000-.17h-4.12c-.46 0-.67-.23-.67-.74s.21-.64.67-.64h4.56l.35-1.24a.77.77 0 01.66-.34.83.83 0 01.58.26.8.8 0 01.23.56 1 1 0 01-.14.5 1.34 1.34 0 00-.09.26h4.27a.58.58 0 01.65.64c0 .51-.23.74-.65.74h-4.69c-.08.21-.14.42-.19.58-.12.34-.27.67-.39 1h3.38c.86 0 1.3.42 1.3 1.23v11.35h.82c.5 0 .75.21.75.65a.66.66 0 01-.75.73H290c-.46 0-.67-.25-.67-.73s.21-.65.67-.65h1.22V27.3c0-.81.44-1.23 1.32-1.23zm4.87 3V28a.43.43 0 00-.48-.48h-5.51a.42.42 0 00-.48.48v1.1zm0 3.1V30.4h-6.47v1.8zm0 3.21v-1.86h-6.47v1.89zm0 3.27v-2h-6.47v2zm13.78-16.02c.71 0 1.19.42 1.49 1.24a34.09 34.09 0 003.06 7.85 24.91 24.91 0 002.86 4.19 34.88 34.88 0 003 3.08.84.84 0 01.26.59.72.72 0 01-.74.73.85.85 0 01-.57-.25 27.23 27.23 0 01-3.28-3.37 30 30 0 01-3.4-5.2 26.13 26.13 0 01-1.3-3.08 28.66 28.66 0 01-3.32 6.33 23.08 23.08 0 01-5.42 5.49 1.28 1.28 0 01-.63.25c-.5 0-.75-.27-.75-.82a.69.69 0 01.42-.59 22.26 22.26 0 005.79-5.94 35.38 35.38 0 003.15-6.64.31.31 0 01.09-.11c-.19-.58-.36-1.17-.51-1.78-.08-.33-.23-.5-.48-.5h-4.77a.64.64 0 01-.73-.73.65.65 0 01.73-.74zm14.28.65c0 .88-.05 1.7-.11 2.47h1.66v-3.51c0-.51.23-.76.74-.76a.67.67 0 01.75.76v3.51h1.31a.59.59 0 01.65.65c0 .51-.23.74-.65.74h-1.31v4.75q.54-.32 1.14-.75l.33-.07c.49 0 .74.28.74.82a.87.87 0 01-.38.63 13.16 13.16 0 01-1.83 1.26v6a.66.66 0 01-.75.75.65.65 0 01-.74-.75v-5.21a18.84 18.84 0 01-2.48 1 1.13 1.13 0 01-.46.1q-.75 0-.75-.81a.77.77 0 01.58-.82 18.76 18.76 0 002.75-1.04 2.37 2.37 0 00.36-.17v-5.69H327a23.89 23.89 0 01-.74 3.43.81.81 0 01-.9.65.5.5 0 01-.57-.56 1.71 1.71 0 01.08-.57 26.49 26.49 0 001-6.95.6.6 0 01.65-.68c.48 0 .68.28.68.82zm8.13-1.21c-.07.81-.15 1.55-.26 2.2h7.4c1 0 1.55.44 1.55 1.32a86.38 86.38 0 01-.5 10.51 6.22 6.22 0 01-1.2 3.44 3.38 3.38 0 01-2.56.94 7.65 7.65 0 01-2.31-.5.79.79 0 01-.57-.82c0-.55.23-.82.73-.82a9 9 0 002.15.5 1.77 1.77 0 001.57-.71 6.61 6.61 0 00.72-2.55 69.86 69.86 0 00.42-9.34.52.52 0 00-.59-.57h-.65a7.69 7.69 0 01-.09.88A25 25 0 01339.8 32a19.47 19.47 0 01-2.12 4.1 21.81 21.81 0 01-3.43 3.71 1 1 0 01-.56.17.7.7 0 01-.53-.24.8.8 0 01-.23-.58.7.7 0 01.25-.57 21.39 21.39 0 003.26-3.43 16 16 0 002-3.81 22 22 0 001.32-5.68H338l-.06.23a23.26 23.26 0 01-1.3 4.21 17.5 17.5 0 01-1.83 3.46 10.84 10.84 0 01-2 2.4.76.76 0 01-.5.17.67.67 0 01-.53-.25.84.84 0 01-.2-.56.66.66 0 01.25-.51 13.35 13.35 0 001.93-2.26 22.85 22.85 0 001.7-3.27 19.18 19.18 0 001.11-3.62h-1.77a4 4 0 01-.13.5 11.46 11.46 0 01-1.74 3.5 1.08 1.08 0 01-.73.42c-.61 0-.91-.27-.91-.82a.89.89 0 01.26-.42 10.1 10.1 0 001.68-3.14 17.22 17.22 0 00.6-3.64c0-.42.26-.65.76-.65s.74.23.74.65zm19.93-.25a1.51 1.51 0 01.44.06.91.91 0 01.38-.06 1 1 0 01.65.42 17.2 17.2 0 001.49 1.69 18.25 18.25 0 002.12-1.93.94.94 0 01.59-.33.65.65 0 01.73.73.9.9 0 01-.33.67 15.67 15.67 0 01-2.19 1.82 9.07 9.07 0 001.45 1.2 14.59 14.59 0 002.37-2 .92.92 0 01.59-.32.66.66 0 01.74.74.88.88 0 01-.34.65 18.33 18.33 0 01-2.16 1.67 20 20 0 003.32 1.53.7.7 0 01.48.65c0 .55-.32.82-.9.82a2.86 2.86 0 01-.84-.23 19.21 19.21 0 01-5-3 15.63 15.63 0 01-2.94-3.08c-.13.21-.26.4-.4.59a19.45 19.45 0 01-3.28 2.89 23.21 23.21 0 01-4.56 2.6 1.93 1.93 0 01-.86.25c-.54 0-.82-.23-.82-.74a.77.77 0 01.4-.73 26.2 26.2 0 003.55-1.63c-.5-.42-.92-.73-1.24-1s-.63-.44-1-.67a.76.76 0 01-.26-.56.66.66 0 01.74-.74 1.32 1.32 0 01.48.17c.4.25.76.51 1.09.76a8.52 8.52 0 011.39 1.19s0 .08.06.08a15.18 15.18 0 002.06-1.55c.72-.56 1.07-.94 1.07-1.15s-.06-.14-.17-.14h-4.83c-.46 0-.67-.21-.67-.68s.21-.64.67-.64zm6.4 8.42c.8 0 1.22.39 1.22 1.15v2.87a1.08 1.08 0 01-1.22 1.21h-1.72l-.67 3.21h5.25c.5 0 .75.23.75.73a.66.66 0 01-.75.73h-17.39a.65.65 0 01-.74-.73c0-.5.23-.73.74-.73H352l-.78-3.21h-1.72c-.84 0-1.24-.4-1.24-1.21v-2.87c0-.76.4-1.15 1.24-1.15zm-.25 3.28v-1.4a.43.43 0 00-.48-.48h-10.67c-.34 0-.51.17-.51.48v1.4q0 .57.51.57h10.67c.31 0 .48-.19.48-.57zM359.86 28c0 .51-.24.74-.68.74h-7c-.46 0-.67-.23-.67-.74a.58.58 0 01.67-.65h7a.6.6 0 01.68.65zm-2.17 10.73l.7-3.21h-5.57l.78 3.21zm14.51-16.79l2.73 2.91a.87.87 0 01.26.57.71.71 0 01-.74.73.59.59 0 01-.4-.17l-2.33-2.66a.43.43 0 00-.29-.18c-.09 0-.17.08-.26.21a26 26 0 01-2.41 3.18.74.74 0 01.44-.13h4.35a.59.59 0 01.65.65.58.58 0 01-.65.65h-1.64v2.39h2.21a.59.59 0 01.67.65c0 .5-.23.73-.67.73h-2.21v6.2a15.16 15.16 0 002-.54.77.77 0 01.32-.09.57.57 0 01.59.57.72.72 0 01-.42.65 17.25 17.25 0 01-2.9.92c-.92.21-2 .42-3.34.63a.64.64 0 01-.65-.74.67.67 0 01.57-.73c1.07-.12 1.91-.25 2.54-.38v-6.49h-2.38c-.44 0-.65-.23-.65-.73a.58.58 0 01.65-.65h2.38V27.7h-1.42a.69.69 0 01-.55-1.05 3.21 3.21 0 01-.27.32 1 1 0 01-.65.33.67.67 0 01-.73-.73 1 1 0 01.31-.67 17.94 17.94 0 003.15-3.73c.3-.5.59-.75.88-.75a1.38 1.38 0 01.86.52zm-3 10.77c.13.63.27 1.61.44 3v.61c0 .38-.23.57-.65.57s-.63-.19-.65-.57c-.1-1.26-.23-2.35-.38-3.25v-.27c0-.33.19-.5.59-.5a.7.7 0 01.65.41zm5.19 0a.39.39 0 01.23.33 1.72 1.72 0 01-.08.42c-.24 1.09-.49 2-.74 2.87a.51.51 0 01-.42.23c-.5 0-.73-.15-.73-.48a.5.5 0 01.08-.34c.21-.75.42-1.69.65-2.87a.48.48 0 01.5-.31 1.11 1.11 0 01.51.13zm4.66 2.64a2.28 2.28 0 01-.59 1.11 24.1 24.1 0 01-1.74 2A15.71 15.71 0 01375.1 40a1.37 1.37 0 01-.56.16.58.58 0 01-.66-.65 1 1 0 01.45-.86 13.3 13.3 0 001.86-1.65 20.3 20.3 0 001.81-2.18.65.65 0 01.42-.16.59.59 0 01.63.67zm-1.64-8.53c-.88 0-1.32-.33-1.32-1.05 0-.12.32-1.42 1-3.85.08-.38.35-.57.82-.57s.82.19.82.57a3.71 3.71 0 00-.19.56h4.28c.93 0 1.41.4 1.41 1.16 0 .14-.44 1.76-1.28 4.84h3a.58.58 0 01.65.64.57.57 0 01-.65.65H381V30a12.18 12.18 0 00.63 2.69 3 3 0 00.16.37 15.65 15.65 0 002.23-2.13.55.55 0 01.5-.34c.49 0 .74.23.74.65a1.52 1.52 0 01-.26.76 15.24 15.24 0 01-2.37 2.22.18.18 0 01-.13.06c.24.44.49.86.76 1.26a13.8 13.8 0 002.73 3 .6.6 0 01.17.4c0 .55-.25.82-.74.82a.84.84 0 01-.5-.23 13.59 13.59 0 01-2.14-2.35 17.79 17.79 0 01-1.64-2.89.22.22 0 01-.06-.15V39c0 .92-.42 1.4-1.24 1.4a6.73 6.73 0 01-2.38-.5c-.4-.1-.58-.31-.58-.65s.25-.71.67-.73a10.23 10.23 0 001.72.48c.21 0 .31-.19.31-.56v-8.69h-4a.57.57 0 01-.65-.65.57.57 0 01.65-.64h5.84c.17-.63.32-1.18.44-1.66zm-.9 3.94l.78.77a12.77 12.77 0 011 1.28 1.46 1.46 0 01.14.4c0 .44-.19.65-.56.65a1.16 1.16 0 01-.65-.15c-.38-.5-.7-.88-.93-1.17l-.71-.71a.74.74 0 01-.26-.51.58.58 0 01.66-.64 3.32 3.32 0 01.53.06zm1.22-5.66c0 .23.21.34.67.34h3.78c.21-.78.32-1.2.32-1.24 0-.21-.17-.31-.51-.31h-3.9a10.22 10.22 0 00-.36 1.19zm28.65-2.78c0 .4-.32.65-.91.73-2 .23-4.6.42-7.91.59h-.8a.77.77 0 01-.32.5 23.84 23.84 0 01-3.17 2.94 3 3 0 01.44.25 23.16 23.16 0 013.76 2.67c.36-.35.69-.71 1-1.08a39.8 39.8 0 003-4 .77.77 0 01.66-.34 1 1 0 01.58.23.89.89 0 01.23.59.91.91 0 01-.14.48 33.28 33.28 0 01-2.63 3.41 20 20 0 01-1.74 1.7c1.95 0 3.8-.08 5.54-.17L402.51 29a.85.85 0 01-.25-.56.59.59 0 01.67-.67 1.21 1.21 0 01.48.16c.61.71 1.18 1.39 1.68 2.06a23.4 23.4 0 012.19 3.26.92.92 0 01.23.42.58.58 0 01-.65.65.9.9 0 01-.65-.25c-.46-.73-.88-1.38-1.24-1.93a.55.55 0 01-.25 0c-2.12.11-4.2.19-6.22.28V40a.83.83 0 01-1.66 0v-7.46c-2.81.1-5.54.19-8.19.25-.5 0-.74-.29-.74-.9a.67.67 0 01.74-.75c2.69 0 5.23-.05 7.62-.09a.41.41 0 00.13-.1c-1.49-1.09-2.73-1.93-3.74-2.54s-1.87-1-2.94-1.61a.78.78 0 01-.25-.56.65.65 0 01.73-.74 1.29 1.29 0 01.49.17l1.28.69a29.05 29.05 0 002.88-2.58c-2.29.13-4 .17-5 .17-.61 0-.91-.27-.91-.81s.26-.68.76-.68c2.77 0 5.34-.08 7.69-.22 2.94-.15 5.69-.4 8.21-.76.52 0 .78.29.78.84zm-12.31 12.19a1.81 1.81 0 01-.34.9 26.76 26.76 0 01-4.18 4.73.94.94 0 01-.59.25q-.9 0-.9-.81a1 1 0 01.17-.59 25.83 25.83 0 004.43-4.9.67.67 0 01.59-.4.72.72 0 01.82.82zm8.78-.67c.63.71 1.19 1.38 1.74 2a21.29 21.29 0 012.27 3.2.91.91 0 01.25.51c0 .54-.25.81-.73.81a1.16 1.16 0 01-.76-.25c-.84-1.34-1.55-2.38-2.12-3.16-.51-.63-1.05-1.3-1.64-2a.85.85 0 01-.25-.56.65.65 0 01.73-.74 1.46 1.46 0 01.51.19zm10.37-12.25a.65.65 0 01.27.48 1.43 1.43 0 01-.06.39 19.89 19.89 0 01-2.14 3.61 1.18 1.18 0 01-.08.12 11.93 11.93 0 011.32 1.41c.61-1 1.18-2 1.72-3.08a.76.76 0 01.65-.34.7.7 0 01.46.19.73.73 0 01.19.48.84.84 0 01-.16.48 36 36 0 01-2 3.5 18.84 18.84 0 01-1.39 1.85c1.07-.09 2.06-.21 3-.38-.13-.38-.24-.69-.34-1a.78.78 0 01-.08-.32c0-.38.21-.56.65-.56a.67.67 0 01.5.31 18.23 18.23 0 01.9 2.62 1.76 1.76 0 01.09.5c0 .38-.27.57-.82.57-.23 0-.4-.17-.5-.51a2.16 2.16 0 01-.09-.39l-1.55.27V40a.66.66 0 01-.74.73.64.64 0 01-.73-.73v-8c-1 .14-2 .25-2.88.33-.44 0-.65-.29-.65-.9 0-.42.21-.63.65-.65h.8a20.6 20.6 0 001.61-2.07.7.7 0 01-.18-.13c-.55-.61-1-1.09-1.39-1.46s-.69-.59-1.09-.9a.82.82 0 01-.23-.57.58.58 0 01.65-.67 1.15 1.15 0 01.48.17l.15.12a28.56 28.56 0 001.79-3.45.55.55 0 01.57-.4 1.14 1.14 0 01.65.17zm-1.53 12a2.49 2.49 0 01-.06.48 41.2 41.2 0 01-1.08 5.32.71.71 0 01-.65.4c-.5 0-.75-.23-.75-.65a.71.71 0 01.17-.48 39.75 39.75 0 001.07-5.24c0-.27.23-.42.56-.42.49 0 .74.23.74.61zm4.43.14c.13.7.23 1.79.36 3.29a6.27 6.27 0 01.06.65c0 .38-.23.57-.65.57s-.65-.19-.67-.57c-.09-1.38-.17-2.55-.3-3.54v-.31q0-.48.57-.48a.7.7 0 01.63.41zm4.88-1.61a24.16 24.16 0 01-.5 3.67 7.84 7.84 0 01-1.24 2.82 6.62 6.62 0 01-2.26 1.83.24.24 0 00-.1 0c-.55 0-.82-.32-.82-.9a.63.63 0 01.48-.65 4.63 4.63 0 001.76-1.64 6.74 6.74 0 00.82-2.19 19.05 19.05 0 00.36-3.06c0-.38.27-.57.74-.57s.76.27.76.69zm1.64-9.8v1.46h4.26a.66.66 0 01.74.74.65.65 0 01-.74.73h-5.5l-2 4.36a41.51 41.51 0 005.71-.67c-.4-.71-.8-1.34-1.18-1.89a.69.69 0 01-.16-.4c0-.37.23-.58.73-.58.17 0 .32.12.48.33a22.63 22.63 0 012.88 4.9 3.44 3.44 0 01.08.59c0 .44-.31.65-.9.65-.25 0-.44-.19-.56-.59-.26-.63-.51-1.21-.74-1.76a.54.54 0 01-.25 0q-4.15.75-7.88 1.06c-.5 0-.73-.29-.73-.9a.66.66 0 01.73-.73h.3l2-4.42h-2.37c-.51 0-.74-.23-.74-.73a.65.65 0 01.74-.74H421v-1.41a.82.82 0 111.64 0zm2 9.72v6.22a.92.92 0 00.21.69 2 2 0 001.1.21 1.68 1.68 0 001-.19 1 1 0 00.21-.57v-1.27c0-.53.23-.8.65-.82s.69.34.73 1a7.32 7.32 0 01-.19 2.33 1.12 1.12 0 01-.61.65 4.88 4.88 0 01-1.82.23 3.71 3.71 0 01-2.23-.46 1.86 1.86 0 01-.48-1.51V32a.58.58 0 01.67-.65c.45.04.7.27.7.65z" fill="#da4d6d"/><path d="M207.22 46.7h-3.35v9.36c0 .49-.21.74-.63.74s-.64-.25-.64-.74V46.7h-3.35c-.49 0-.74-.19-.74-.62s.25-.63.74-.63h8c.49 0 .74.21.74.63s-.28.62-.77.62zm7.91 10.13c-.42 0-.62-.24-.62-.74v-.63a5 5 0 01-1.48.93 3.84 3.84 0 01-1.63.39 2.8 2.8 0 01-1.75-.51 2 2 0 01-.81-1.73 2.36 2.36 0 011.36-2.18 5.51 5.51 0 012.66-.6h1.65c-.07-1.16-.74-1.75-2-1.75a3.42 3.42 0 00-1.27.25 2 2 0 00-1 .74c-.14.23-.28.34-.4.34-.48 0-.71-.23-.71-.73a1.07 1.07 0 01.35-.65 3.92 3.92 0 013-1.2 2.84 2.84 0 013.24 3v4.38c.03.45-.18.69-.59.69zm-.62-3.83h-1.07c-2.19 0-3.28.53-3.28 1.55a.86.86 0 00.37.73 1.49 1.49 0 00.87.26 3.83 3.83 0 001.76-.48 3.28 3.28 0 001.35-1.14zm5.38-6.3a.91.91 0 01-1.25 0 .88.88 0 010-1.27.91.91 0 011.25 0 .91.91 0 010 1.27zm-.62 10.12c-.42 0-.63-.25-.63-.76V49.5c0-.49.21-.74.63-.74s.62.25.62.74v6.56c0 .51-.21.76-.62.76zm14.98-7.16l-2.64 6.66a.6.6 0 01-.58.44c-.23 0-.41-.14-.51-.44l-2.17-5.41-2.22 5.41c-.12.3-.3.44-.51.44a.6.6 0 01-.58-.44l-2.7-6.66a.74.74 0 01-.09-.33c0-.39.23-.59.69-.59a.56.56 0 01.51.41l2.17 5.45 2.22-5.4c.1-.3.28-.46.51-.46s.39.16.53.46l2.12 5.4 2.11-5.45a.55.55 0 01.51-.41c.46 0 .69.2.69.59a.91.91 0 01-.06.33zm7.09 7.17c-.42 0-.62-.24-.62-.74v-.63a5 5 0 01-1.48.93 3.88 3.88 0 01-1.64.39 2.78 2.78 0 01-1.74-.51 2 2 0 01-.81-1.73 2.37 2.37 0 011.35-2.18 5.57 5.57 0 012.67-.6h1.65c-.07-1.16-.74-1.75-2-1.75a3.46 3.46 0 00-1.27.25 2.06 2.06 0 00-1 .74c-.14.23-.28.34-.41.34-.47 0-.7-.23-.7-.73a1.07 1.07 0 01.35-.65 3.9 3.9 0 013-1.2 2.86 2.86 0 013.25 3v4.38c.06.45-.2.69-.6.69zm-.62-3.83h-1.07c-2.19 0-3.28.53-3.28 1.55a.83.83 0 00.37.73 1.48 1.48 0 00.86.26 3.84 3.84 0 001.77-.48 3.41 3.41 0 001.35-1.14zm9.15 3.78c-.42 0-.62-.25-.62-.74v-4.21a1.71 1.71 0 00-.6-1.32 2.13 2.13 0 00-1.41-.51 2.88 2.88 0 00-1.9.7 1.77 1.77 0 00-.74 1.3v4c0 .49-.18.74-.53.74s-.7-.25-.7-.74v-6.51c0-.5.19-.75.61-.75s.62.25.62.75V50a3.28 3.28 0 012.64-1.27 3.23 3.23 0 012.29.89 2.85 2.85 0 011 2.2V56c-.04.53-.26.78-.66.78zm15.37-1.11a5.29 5.29 0 01-3.26.86h-3.12a.65.65 0 01-.74-.74v-9.6a.66.66 0 01.74-.74h3.89a3.61 3.61 0 012.22.65 2.61 2.61 0 011 2.1 2.58 2.58 0 01-1.76 2.59 2.78 2.78 0 011.46.83 2.88 2.88 0 01.71 1.85 2.64 2.64 0 01-1.14 2.2zM264.13 47a1.69 1.69 0 00-1-.3h-3.42a.25.25 0 00-.28.28v3.19h2.76a3 3 0 001.73-.46 1.72 1.72 0 00.81-1.51 1.48 1.48 0 00-.6-1.2zm.21 5a3.68 3.68 0 00-2.19-.56h-2.76V55c0 .18.09.26.28.26h2.8a3.31 3.31 0 001.75-.42 1.62 1.62 0 00.88-1.43 1.91 1.91 0 00-.76-1.41zm7.66-1.81a3.56 3.56 0 00-1.6.62 3.94 3.94 0 00-.76.84 2.22 2.22 0 00-.46 1.24V56c0 .49-.19.74-.54.74s-.67-.25-.67-.74v-6.5c0-.49.21-.74.65-.74s.56.25.56.74v1a3 3 0 012.59-1.5.62.62 0 01.69.7.45.45 0 01-.46.49zm7.71 2.81h-5.08a2.74 2.74 0 00.71 1.77 2 2 0 001.64.72 2 2 0 001.35-.49 4.48 4.48 0 00.76-1.06.59.59 0 01.56-.3.61.61 0 01.43.21.71.71 0 01.21.51 2.29 2.29 0 01-.65 1.25 3.37 3.37 0 01-2.7 1.13 3.3 3.3 0 01-2.7-1.22 4.27 4.27 0 01-.93-2.87 4 4 0 011-2.75 3.35 3.35 0 012.59-1.18 3.3 3.3 0 012.59 1.15 3.63 3.63 0 011 2.5c-.01.46-.27.63-.78.63zm-1.18-2.48a2.18 2.18 0 00-1.59-.55 2 2 0 00-1.41.53 2.59 2.59 0 00-.81 1.36h4.44a2 2 0 00-.63-1.3zm9.3 6.31c-.42 0-.61-.24-.61-.74v-.63a5.23 5.23 0 01-1.48.93 3.91 3.91 0 01-1.64.39 2.8 2.8 0 01-1.75-.51 2 2 0 01-.81-1.73 2.36 2.36 0 011.36-2.18 5.51 5.51 0 012.66-.6h1.66c-.07-1.16-.74-1.75-2-1.75a3.42 3.42 0 00-1.27.25 2.09 2.09 0 00-1 .74c-.14.23-.28.34-.4.34-.48 0-.71-.23-.71-.73a1 1 0 01.36-.65 3.89 3.89 0 013-1.2 2.84 2.84 0 013.24 3v4.38c.01.45-.2.69-.61.69zm-.61-3.83h-1.08c-2.18 0-3.28.53-3.28 1.55a.86.86 0 00.37.73 1.49 1.49 0 00.87.26 3.83 3.83 0 001.76-.48 3.38 3.38 0 001.36-1.14zm7.96 3.29a5 5 0 01-2.25.47 4 4 0 01-2.42-.72c-.67-.48-1-.93-1-1.37s.24-.69.74-.69c.14 0 .28.1.42.32a2.41 2.41 0 002.2 1.21c1.38 0 2.08-.31 2.08-.95 0-.32-.31-.63-.93-.92-.25-.08-.72-.24-1.43-.45a8.77 8.77 0 01-1.87-.71 1.72 1.72 0 01-1-1.53 1.84 1.84 0 01.94-1.68 4.08 4.08 0 012.24-.53 4.43 4.43 0 011.93.5c.78.39 1.19.86 1.19 1.43a.62.62 0 01-.71.68c-.16 0-.33-.17-.53-.53a1.91 1.91 0 00-1.81-.89c-1.27 0-1.91.35-1.91 1 0 .23.18.42.57.58A14.34 14.34 0 00293 52a11.6 11.6 0 012.13.83 2.06 2.06 0 011.18 1.76 1.86 1.86 0 01-1.13 1.7zm6.01.24h-1.37c-.85 0-1.27-.62-1.27-1.87v-4.42h-.92c-.49 0-.72-.21-.72-.63s.23-.64.72-.64h.92v-1.35c0-.5.19-.74.6-.74s.63.24.63.74V49h1.31c.47 0 .72.22.72.64s-.25.63-.72.63h-1.31v4.33c0 .45.07.68.25.68h1.16c.48 0 .72.21.72.64s-.24.61-.72.61zm9.75.25c-.42 0-.62-.26-.62-.81V46c0-.53.2-.81.62-.81s.63.28.63.81v10c0 .52-.21.78-.63.78zm13.66-.02c-.43 0-.64-.24-.64-.74v-4.75a1.33 1.33 0 00-.47-.94 1.4 1.4 0 00-.94-.33 1.86 1.86 0 00-1.28.42c-.48.39-.71.74-.71 1.06V56c0 .5-.21.74-.63.74s-.64-.24-.64-.74v-4.52a1.72 1.72 0 00-.54-1 1.45 1.45 0 00-1-.45 1.86 1.86 0 00-1.35.56 1.8 1.8 0 00-.66 1.11V56c0 .5-.21.74-.59.74s-.66-.24-.66-.74v-6.51c0-.5.2-.75.62-.75s.65.3.65.9v.11a2.53 2.53 0 014.2.23 3.14 3.14 0 012.62-1.24 2.65 2.65 0 011.85.75 2.36 2.36 0 01.81 1.78V56c-.03.52-.24.76-.64.76zm8.4-1.23a3.57 3.57 0 01-2.8 1.23 3 3 0 01-1.36-.33 2 2 0 01-1-.85V58c0 .5-.22.74-.64.74s-.62-.24-.62-.74v-8.51c0-.5.2-.75.62-.75s.64.25.64.75V50a3 3 0 012.53-1.29 3.37 3.37 0 012.65 1.17 4.32 4.32 0 010 5.62zm-.86-4.72a2.16 2.16 0 00-1.75-.8 2.32 2.32 0 00-1.83.8 2.82 2.82 0 00-.7 1.94 3 3 0 00.56 1.93 2 2 0 001.78.83 2.29 2.29 0 001.83-.84 3.06 3.06 0 00.71-2 2.94 2.94 0 00-.58-1.86zm5.29 5.99c-.42 0-.64-.25-.64-.74V45.93c0-.48.22-.73.64-.73s.61.25.61.73v10.13c-.04.49-.21.74-.61.74zm9.62.03c-.42 0-.62-.24-.62-.74v-.63a5 5 0 01-1.48.93 3.84 3.84 0 01-1.64.39 2.78 2.78 0 01-1.74-.51 2 2 0 01-.81-1.73 2.36 2.36 0 011.36-2.18 5.51 5.51 0 012.66-.6h1.65c-.07-1.16-.74-1.75-2-1.75a3.37 3.37 0 00-1.26.25 2 2 0 00-1 .74c-.14.23-.28.34-.4.34-.48 0-.71-.23-.71-.73a1.07 1.07 0 01.35-.65 3.92 3.92 0 013-1.2 2.86 2.86 0 013.25 3v4.38c.01.45-.2.69-.61.69zm-.62-3.83h-1.07c-2.19 0-3.28.53-3.28 1.55a.83.83 0 00.37.73 1.48 1.48 0 00.86.26 3.84 3.84 0 001.77-.48 3.35 3.35 0 001.35-1.14zm9.15 3.78c-.42 0-.62-.25-.62-.74v-4.21a1.71 1.71 0 00-.6-1.32A2.12 2.12 0 00353 50a2.89 2.89 0 00-1.91.7 1.77 1.77 0 00-.74 1.3v4c0 .49-.17.74-.53.74s-.7-.25-.7-.74v-6.51c0-.5.19-.75.62-.75s.61.25.61.75V50a3.4 3.4 0 014.94-.38 2.88 2.88 0 01.95 2.2V56c-.04.53-.24.78-.66.78zm5.87-.25h-1.37c-.85 0-1.27-.62-1.27-1.87v-4.42h-.92c-.49 0-.72-.21-.72-.63s.23-.64.72-.64h.92v-1.35c0-.5.19-.74.6-.74s.63.24.63.74V49h1.3c.48 0 .73.22.73.64s-.25.63-.73.63H360v4.33c0 .45.07.68.25.68h1.16c.48 0 .72.21.72.64s-.2.61-.68.61zm16.34.27c-.21 0-.37-.2-.44-.58s-.14-.8-.21-1.22a9.37 9.37 0 00-.37-1.22 2.59 2.59 0 00-2.44-1.78h-3.65v4.07c0 .49-.21.74-.61.74s-.62-.25-.62-.74v-9.88a.66.66 0 01.74-.74h5.32a3 3 0 012.12.86 2.83 2.83 0 01.88 2.08 3 3 0 01-.71 1.91 3.58 3.58 0 01-1.69 1.07 3.58 3.58 0 011.47 1.23 7.13 7.13 0 01.72 1.68 7 7 0 01.3 1.81c0 .48-.28.71-.81.71zm-1.15-9.62a1.88 1.88 0 00-1.32-.48H371a.26.26 0 00-.29.28v3.76h3.65a3.29 3.29 0 001.38-.29 2.49 2.49 0 001.09-.89 2.06 2.06 0 00.37-1.11 1.62 1.62 0 00-.56-1.27zm9.59 5.82h-5.08a2.79 2.79 0 00.71 1.77 2 2 0 001.64.72 1.94 1.94 0 001.35-.49 4.21 4.21 0 00.76-1.06.6.6 0 01.57-.3.61.61 0 01.42.21.71.71 0 01.21.51 2.29 2.29 0 01-.65 1.25 3.36 3.36 0 01-2.7 1.13 3.29 3.29 0 01-2.69-1.22 4.23 4.23 0 01-.94-2.87 4 4 0 011-2.75 3.35 3.35 0 012.59-1.18 3.3 3.3 0 012.59 1.15 3.64 3.64 0 011 2.5c-.01.46-.27.63-.78.63zm-1.18-2.48a2.17 2.17 0 00-1.59-.55 2 2 0 00-1.41.53 2.59 2.59 0 00-.81 1.36h4.44a2 2 0 00-.63-1.3zm10.05-.61a3.43 3.43 0 00-.69.31 2.46 2.46 0 01.33 1.15 2.18 2.18 0 01-1 1.85 3.59 3.59 0 01-2.06.64 3.22 3.22 0 01-1-.15c-.19.15-.28.27-.28.37s.14.18.46.29c.63.14 1.57.37 2.8.7 1 .35 1.5.92 1.5 1.71a1.75 1.75 0 01-1.25 1.59 5.31 5.31 0 01-2.14.42 6.18 6.18 0 01-2.44-.42 1.71 1.71 0 01-1.26-1.59c0-.74.59-1.3 1.75-1.67a1.07 1.07 0 01-.74-1 1.22 1.22 0 01.46-.89 2.21 2.21 0 01-1-1.78 2.36 2.36 0 011-2 3.52 3.52 0 012.13-.65 3.56 3.56 0 011.92.55 2.52 2.52 0 011.43-.55.54.54 0 01.6.62c-.01.25-.19.43-.52.5zm-3.16 5.74c-1.71.25-2.55.64-2.55 1.13s.79.81 2.37.81a4.58 4.58 0 001.24-.16c.53-.14.81-.37.81-.65s-.64-.78-1.87-1.13zm.92-5.25a2.28 2.28 0 00-1.2-.39 2.21 2.21 0 00-1.23.34 1.17 1.17 0 00-.57 1.06 1 1 0 00.65.91 2.44 2.44 0 001.22.28 1.94 1.94 0 001.07-.33 1.09 1.09 0 00.6-.86 1.28 1.28 0 00-.54-1.01zm6.89-3.7a.91.91 0 01-1.25 0 .88.88 0 010-1.27.91.91 0 01.63-.25.92.92 0 01.62.25.91.91 0 010 1.27zm-.62 10.12c-.42 0-.63-.25-.63-.76V49.5c0-.49.21-.74.63-.74s.62.25.62.74v6.56c0 .51-.21.76-.62.76zm8.87-.53a5 5 0 01-2.25.47 4 4 0 01-2.42-.72c-.67-.48-1-.93-1-1.37s.24-.69.74-.69c.14 0 .28.1.42.32a2.41 2.41 0 002.2 1.21c1.38 0 2.08-.31 2.08-.95 0-.32-.31-.63-.93-.92-.25-.08-.72-.24-1.43-.45a8.77 8.77 0 01-1.87-.71 1.72 1.72 0 01-1-1.53 1.84 1.84 0 01.94-1.68 4.08 4.08 0 012.24-.53 4.47 4.47 0 011.93.5c.78.39 1.18.86 1.18 1.43a.61.61 0 01-.7.68c-.16 0-.34-.17-.53-.53a1.91 1.91 0 00-1.81-.89c-1.27 0-1.91.35-1.91 1 0 .23.18.42.57.58a14.34 14.34 0 001.39.44 11.6 11.6 0 012.13.83 2.06 2.06 0 011.18 1.76 1.86 1.86 0 01-1.15 1.75zm6 .24h-1.4c-.85 0-1.27-.62-1.27-1.87v-4.42h-.92c-.49 0-.72-.21-.72-.63s.23-.64.72-.64h.92v-1.35c0-.5.19-.74.6-.74s.63.24.63.74V49h1.3c.48 0 .73.22.73.64s-.25.63-.73.63h-1.3v4.33c0 .45.07.68.25.68H414c.48 0 .72.21.72.64s-.27.61-.72.61zm6-6.34a3.56 3.56 0 00-1.6.62 4.22 4.22 0 00-.76.84 2.22 2.22 0 00-.46 1.24V56c0 .49-.19.74-.54.74s-.67-.25-.67-.74v-6.5c0-.49.21-.74.65-.74s.56.25.56.74v1a3 3 0 012.59-1.5.62.62 0 01.69.7.45.45 0 01-.46.49zm8.16-.48L424 58.46a.55.55 0 01-.46.33c-.46 0-.67-.19-.67-.56a2 2 0 01.34-.92l.83-1.55-3-6v-.37c0-.38.14-.58.46-.58a.67.67 0 01.6.39l2.68 5.22 2.52-5.22a.59.59 0 01.58-.39c.3 0 .46.2.46.58a1.17 1.17 0 01-.18.32z"/></svg>