<svg xmlns="http://www.w3.org/2000/svg" viewBox="0 0 310 80"><defs><radialGradient id="a" cx="137.55" cy="35" r="191.56" gradientTransform="matrix(1.13 0 0 1.13 -.23 .35)" gradientUnits="userSpaceOnUse"><stop offset="0" stop-color="#fff"/><stop offset=".5" stop-color="#ffebef"/><stop offset="1" stop-color="#ffccd9"/></radialGradient></defs><path d="M270.5 0a39.14 39.14 0 00-28.87 12.72 39.13 39.13 0 00-57.75 0 39.13 39.13 0 00-57.75 0 39.13 39.13 0 00-57.75 0A39.18 39.18 0 0039.5 0C17.68 0 0 17.91 0 40s17.68 40 39.5 40a39.18 39.18 0 0028.88-12.72 39.13 39.13 0 0057.75 0 39.13 39.13 0 0057.75 0 39.13 39.13 0 0057.75 0A39.14 39.14 0 00270.5 80c21.82 0 39.5-17.91 39.5-40S292.32 0 270.5 0z" fill="url(#a)"/><path d="M111.19 37.22l1.49-.42a2.26 2.26 0 01.51-.08 2.15 2.15 0 001.87-1.36 2.07 2.07 0 000-.5 2.3 2.3 0 01.22-1.21c.06-.09 0-.27 0-.4a1.41 1.41 0 00-.14-.31.54.54 0 00-.18-.15c-.09-.06-.21-.08-.27-.15a.29.29 0 010-.27 1.79 1.79 0 011-.52.61.61 0 01.57.22 1.18 1.18 0 01.33 1.25v.14a1.35 1.35 0 01.08.77c0 .22.11.3.3.3a1.57 1.57 0 01.85.17h.34c.11 0 .35.08.52.1s.31 0 .47 0a2.86 2.86 0 011.61.17.54.54 0 01.24.59.19.19 0 01-.07.13 5.1 5.1 0 01-.82.31 4.15 4.15 0 00-.48.11c-.37.12-.74.22-1.11.32l-1.89.55c-.27.07-.54.16-.8.25s-.25.21-.32.4a8.74 8.74 0 01-.57 1.55c-.33.6-.55 1.25-.89 1.84a5.49 5.49 0 01-1.07 1.59 4.66 4.66 0 00-.39.49s0 .08-.06.1c-.31.31-.63.62-.93.94a1.55 1.55 0 01-.78.43.76.76 0 00-.36.25c-.23.28-.34.33-.66.21h-.15c-.54 0-.62-.39-.58-.76 0-.08.13-.2.22-.22a2.82 2.82 0 001.22-.78 4.74 4.74 0 01.49-.4 4.72 4.72 0 00.84-.89 3.68 3.68 0 01.39-.4c.06 0 .14-.09.16-.16.18-.52.67-.82.89-1.31s.4-.92.6-1.37a1.2 1.2 0 00.21-.66c0-.29-.07-.36-.35-.36a5.33 5.33 0 01-.8 0 3.87 3.87 0 01-.67-.17l-.65-.17a3.57 3.57 0 01-.43-.16zM65.25 29a2.6 2.6 0 00.3-.06 1.14 1.14 0 011 .11c.22.1.23.3.08.49a2.77 2.77 0 01-1.08.64l-.59.25c-.36.14-.4.5-.54.81a.65.65 0 00.59 0l.73-.27a.47.47 0 01.61.2.23.23 0 00.13.06.25.25 0 01.23.35c0 .19-.08.39-.38.46a15.69 15.69 0 00-2.13.61 9.08 9.08 0 00-1.24.72l-.49.3-.53.38a13.53 13.53 0 00.74 1.24.63.63 0 00.69.21c.45-.13.9-.27 1.33-.44a1.27 1.27 0 00.43-.34 2.27 2.27 0 00.33-.48.83.83 0 000-.28h-.29a2.06 2.06 0 01-1.74.19s-.11-.07-.11-.1 0-.13.1-.14.4-.14.59-.2l1.62-.5a.39.39 0 00.13-.06 1 1 0 011.07-.14.5.5 0 01.34.76 6.92 6.92 0 01-.67.78 3.07 3.07 0 01-.25.26c-.16.18-.17.2-.09.51l-.74.23-.64.2a3.53 3.53 0 01-1.41 0 .63.63 0 00-.19 0c0 .06 0 .14.06.18s.19.18.27.28a.3.3 0 010 .18.14.14 0 01-.13.08 3.14 3.14 0 01-1.39-.31.84.84 0 01-.36-.66c0-.34-.06-.67-.11-1a1.5 1.5 0 00-.19-.38l-1.73 1.41v-.17l1.48-1.28c.18-.15.34-.33.55-.52.28.1.53-.08.76-.31a1.23 1.23 0 01.58-.38.52.52 0 00.35-.75.71.71 0 010-.41c.07-.22.18-.43.25-.68-.5.13-.94.43-1.51.27a5.52 5.52 0 01-1.47-.68c.34-.07.61-.1.87-.17s.6-.23.91-.33a5.83 5.83 0 01.92-.21 1.64 1.64 0 001.25-1.12 4.71 4.71 0 00.12-.85A1 1 0 0064 27a.4.4 0 01-.17-.19 2.42 2.42 0 011.28.1.84.84 0 01.45 1c-.07.31-.2.61-.3.91zm14.68 9.76c0-.35.06-.65.06-.94s-.06-.48-.08-.73a1.28 1.28 0 010-.19 1.77 1.77 0 000-.46 3.38 3.38 0 010-.71 5 5 0 00-.15-1.08.78.78 0 000-.14 4.08 4.08 0 00-.16-.6c-.14-.34-.13-.4.2-.49a1.59 1.59 0 011.49.22.43.43 0 01.13.34 7.62 7.62 0 01-.22.82.72.72 0 00.17.8.86.86 0 00.38.16 4.62 4.62 0 00.64.06h1.13c.14 0 .21.06.15.2a1.07 1.07 0 00-.07.19c0 .12 0 .32-.06.36a2.27 2.27 0 01-.57.2c-.37.11-.74.22-1.1.35-.08 0-.14.12-.21.16a.38.38 0 01-.21.05c-.19 0-.35 0-.4.21s-.19.54 0 .81a.84.84 0 01.1.36.55.55 0 00.31.45 4.48 4.48 0 01.68.37 3.94 3.94 0 01.51.49.12.12 0 010 .11c0 .19-.37.45-.55.38l-1.1-.36a1.3 1.3 0 00-.33-.07c-.44-.06-.54-.41-.64-.74a3.25 3.25 0 01-.1-.58zm1.35 11.63v2.82h-.68v-3.94h1.11l.61 2.52h.05c.15-.66.3-1.32.46-2a3.74 3.74 0 01.12-.45.21.21 0 01.16-.11h1v4a4 4 0 01-.6 0s-.11-.15-.11-.23v-2.6c-.1.49-.2 1-.31 1.47s-.2.79-.28 1.18a.2.2 0 01-.24.19c-.48 0-.51 0-.62-.45-.19-.71-.34-1.43-.51-2.15a2.17 2.17 0 00-.07-.24zM60 37.91c.28 0 .56-.11.84-.14h.34a11.49 11.49 0 001.17-.22c.77-.21 1.54-.44 2.3-.68.52-.17 1-.39 1.55-.56a9 9 0 011.52-.41 4.68 4.68 0 011.54 0 3.45 3.45 0 012 .88.61.61 0 01-.17.89c-.27.12-.56.2-.85.3a13.16 13.16 0 01-2.07.35 10 10 0 01-1.09.08 9.65 9.65 0 002.73-1.57c.06 0 .08-.15.13-.26a2.7 2.7 0 00-1.13-.34c-.26 0-.51-.07-.77-.09a2.89 2.89 0 00-.29 0 4.14 4.14 0 00-1.92.61c-.54.29-1 .67-1.52 1a5.17 5.17 0 01-2 1 1.93 1.93 0 01-1.3-.25l-.93-.5a.58.58 0 00-.19 0zm12.73-.47a2.78 2.78 0 01.45-.29.33.33 0 01.29 0c.16.14.28.07.4 0a.63.63 0 01.62-.19c.05 0 .19-.12.22-.21a1.89 1.89 0 000-1.13c-.1-.3-.22-.59-.34-.88a.39.39 0 01.21-.48c.16-.1.25-.19.13-.38s0-.13 0-.2a1 1 0 01.91.28 2.37 2.37 0 01.9 1.23 4.78 4.78 0 00.13.74 2.21 2.21 0 010 1.17c-.06.24 0 .51 0 .76a6.22 6.22 0 01-.3 1 .27.27 0 01-.25 0 9.28 9.28 0 01-.69-.71c-.24-.25-.4-.59-.75-.71a.84.84 0 00-.31-.05l-1.35.12a1.11 1.11 0 01-.27-.07zm1.87 14.04v1.1h2.3v.69h-3c-.2 0-.18-.16-.18-.28v-3.84h3.06c0 .22.06.43.06.63 0 0-.13.11-.2.11h-2v.85h2v.74zm34.55-.74v2.47h-.67v-4h.63a.28.28 0 01.16.13l.68 1.21a12.48 12.48 0 00.7 1.14v-2.45h.57a.25.25 0 01.12.16v3.58c0 .2 0 .25-.26.29-.5.09-.65-.25-.83-.58l-1-1.75s-.03-.11-.1-.2zm-21.61 1.78v.69H85c-.2 0-.28 0-.28-.26V49.2h2.55a.2.2 0 01.14.09 2.08 2.08 0 010 .5s-.14.12-.22.12H85.5v.84h1.76v.69h-1.68v1.05zm29.28-3.26h2.74v.42c0 .14-.06.27-.27.27h-1.67v.85h1.75v.06c0 .63 0 .63-.61.63h-1.2v1h2v.7H117c-.14 0-.21 0-.21-.2zm9.64 1.11a3.88 3.88 0 01-.57.05c-.06 0-.14-.09-.17-.16a.72.72 0 00-1.09-.29.29.29 0 00.05.51 6.66 6.66 0 00.85.31 1.38 1.38 0 01.91.59 1.29 1.29 0 010 1.25 1.14 1.14 0 01-1 .64 1.94 1.94 0 01-1.06-.15 1.27 1.27 0 01-.66-1.21l.5-.08c.12 0 .19 0 .23.16a.74.74 0 001.06.53.48.48 0 00.34-.46c0-.24-.15-.35-.34-.42-.35-.13-.73-.21-1.07-.36a1 1 0 01-.63-1.2 1.1 1.1 0 01.77-.86 1.65 1.65 0 011.63.31 1 1 0 01.25.84zm-9.05-10.72c.28-.07.55-.14.83-.19a3.58 3.58 0 01.8-.1 7.23 7.23 0 01.91.16 6.48 6.48 0 011.15.3 6.29 6.29 0 011.14.73c.54.41.34 1 .33 1.54 0 .13-.22.25-.3.4s-.26.12-.41.1l-1.12-.1c-.11-.06-.26-.1-.32-.19s.1-.2.16-.3a.57.57 0 01.11-.11c.28-.23.33-.38.1-.65a8.27 8.27 0 00-.74-.71 1.14 1.14 0 00-.67-.24c-.32-.06-.64-.16-1-.25l-.94-.29zM107 49.22h.74v2.46a4.61 4.61 0 01-.11.82 1.05 1.05 0 01-1 .76 1.94 1.94 0 01-1.09-.1 1.19 1.19 0 01-.7-1.12v-2.77h.74v2.59a.7.7 0 00.4.67.76.76 0 00.73-.07c.26-.16.25-.47.26-.73.03-.82.03-1.65.03-2.51zm-10.78 1.09l-.71.24a1.19 1.19 0 01-.09-.15.65.65 0 00-.6-.51.77.77 0 00-.82.44 2.38 2.38 0 00-.14 1.24 1.24 1.24 0 00.36.83.72.72 0 001.15-.29c0-.12.09-.24.15-.36a6 6 0 01.6.19.24.24 0 01.07.19A1.48 1.48 0 0195 53.27a1.54 1.54 0 01-1.73-1.08 2.88 2.88 0 01.07-2.19 1.62 1.62 0 011.66-.82 1.44 1.44 0 011.22 1.13zm16.9-1.06h.82l.87 2.82c.08-.22.16-.4.21-.58q.32-1 .6-2a.28.28 0 01.34-.23h.5a.48.48 0 010 .17c-.26.81-.53 1.62-.79 2.42-.13.41-.26.82-.4 1.22a.3.3 0 01-.19.16h-.67zM64 49.9h-1.18v3.37h-.66c-.21 0-.24-.08-.24-.25V49.9h-1.18v-.73H64zm12.33-10.08A5.37 5.37 0 0074.85 41c-.39.49-.79 1-1.19 1.44-.45-.33-.72-.26-.83.26-.45-.11-.9-.19-1.34-.32-.27-.08-.38-.43-.29-.8s.13-.48.66-.43a4.34 4.34 0 001-.06c.41 0 .81-.11 1.21-.18a.4.4 0 00.17-.09c.1-.08.19-.22.31-.25a2 2 0 00.89-.51 1.06 1.06 0 01.89-.24zm54.97 9.44h.87s.06.05.08.09l.76 1.43.81-1.54h.87c-.17.31-.33.58-.48.86s-.49.81-.71 1.22a1 1 0 00-.1.44v1.25c0 .16-.06.22-.22.22-.71 0-.57.09-.58-.57a1.85 1.85 0 010-.47 2.11 2.11 0 00-.44-1.46l-.58-1zM58.83 37.21a.56.56 0 01.38.41q.24.71.42 1.44a2.49 2.49 0 01-.23 1.65.79.79 0 01-1 .48.33.33 0 01-.13-.13c-.17-.35-.36-.7-.5-1.07a.55.55 0 01.09-.43 4.77 4.77 0 00.77-1.72c.08-.19.13-.4.2-.63zm70.58 16.01v-3c0-.19 0-.35-.26-.28a4 4 0 01-.6 0c-.16 0-.25 0-.24-.21a3.72 3.72 0 000-.48h2.91v.64h-.85c-.16 0-.2.1-.2.24v2.81c0 .22-.06.3-.28.28a3.61 3.61 0 00-.48 0zm-28.92-3.94h.05c.7-.07.7-.07.7.63v2.63H103v.68h-2.53zm-22.92-.13a5.55 5.55 0 01.71 0 .23.23 0 01.16.17v3.66c0 .21 0 .31-.27.29s-.4 0-.61 0zm-9.31 4.12v-4.1h.84v4.1zm44.53-.06c-.75.06-.75.06-.75-.64v-3.3h.75zm15.11 0c-.73.06-.73.06-.73-.64v-3.32h.73zm-36.13.01v-4a5.61 5.61 0 01.58 0 .24.24 0 01.17.17v3.58c0 .16-.06.24-.24.23a4.47 4.47 0 00-.51.02zM127.2 34c0 .3-.08.6-.13.9s-.15.24-.36.19a.71.71 0 01-.59-.8 1.09 1.09 0 00-.38-.86.56.56 0 01-.13-.44c0-.26.12-.29.39-.21a5.74 5.74 0 00.81.23c.22 0 .26.2.3.35s0 .43.06.64zm-27.97-1.51l.44.1a.77.77 0 01.49.7c0 .35.07.69.11 1a.77.77 0 010 .3c-.07.35-.16.69-.24 1a1.51 1.51 0 01-.1.3c-.09.16-.21.16-.3 0a1.65 1.65 0 01-.19-1.26 1.45 1.45 0 000-.35 8.38 8.38 0 000-.87 5.63 5.63 0 00-.14-.69zm-32.09 9.18l.15-.07a1.34 1.34 0 011.59 1 .63.63 0 01-.29.71 1.08 1.08 0 01-.75 0h-.3a.23.23 0 01-.1-.08c.22-.2.44-.37.63-.56s0-.5-.19-.62a1.33 1.33 0 00-.3-.23 1.93 1.93 0 00-.44-.15z" fill="#da4d6d"/><path d="M135.85 35.22c-.15-.12-.16-.43-.47-.36a.81.81 0 00-.9-.19 20.61 20.61 0 00-2.06.5c-.3.12-.64.16-.95.26l-.81.28h-.36a4.6 4.6 0 011-.78c.51-.28 1-.56 1.52-.85.27-.16.5-.39.78-.54a2.66 2.66 0 001.11-1 .67.67 0 00-.22-.81 1.87 1.87 0 00-1.55-.06c-.48.16-.94.37-1.4.55-.15-.19-.29-.34-.4-.5a.28.28 0 010-.25c.09-.15.22-.27.32-.41l.75-1a.88.88 0 00.14-.9.47.47 0 00-.34-.25 4 4 0 00-.91 0c-.32.05-.33.12-.29.45a.35.35 0 01-.1.25c-.18.22-.38.42-.57.64a3.37 3.37 0 01-.43.55 2.07 2.07 0 00-.64.88 4.23 4.23 0 01-.23.41h-.08a1.42 1.42 0 010-.35c.06-.4.14-.8.23-1.2a.79.79 0 00-.42-1 2.87 2.87 0 00-.66 0h-.56a.47.47 0 00-.17 0l-.06.1c.11.07.21.16.33.23a1 1 0 01.46.9 1.47 1.47 0 000 .42 12.49 12.49 0 01.19 2.2 2.08 2.08 0 010 .35 4.43 4.43 0 01-.06 1 .89.89 0 000 .7.18.18 0 01-.05.17 6.17 6.17 0 01-.57.44l-1.52 1.1-1.13.84a.83.83 0 00-1.3.5c-.08.32.05.68.27.71a1.34 1.34 0 00.66 0c.51-.22 1-.48 1.5-.74s1.13-.62 1.7-.93c.25-.14.49-.29.75-.42s.56-.26.84-.37a3.8 3.8 0 00.54-.18 5.14 5.14 0 011.67-.71c.33-.07.66-.16 1-.26l1.19-.39h.34l-.36.63-.29.14a4.12 4.12 0 00-1 .65 6.92 6.92 0 01-1.22.91 1.24 1.24 0 01-.71.22.79.79 0 00-.64.24c-.17.13-.38.25-.29.57s.23.38.48.27l.44-.2a1.91 1.91 0 01.57-.19c.22 0 .26.05.16.26s-.12.16-.16.26c-.11.28-.39.39-.6.56-.4.34-.84.63-.79 1.26a.41.41 0 00.27.39c.32.15.73.07 1 .37 0 .06.09.11.13.16s-.13.1-.2.1c-.3 0-.6 0-.91.06a1.84 1.84 0 00-.41 0c-.36.09-.71.21-1.07.29A3 3 0 00127 43a.78.78 0 00.24 1.22 1.45 1.45 0 01.75.44.73.73 0 00.36.21c.38.11.78.2 1.17.28a.9.9 0 00.46 0 2.68 2.68 0 001.25-.62 2.37 2.37 0 00.52-.53c.23-.41.4-.85.59-1.28a1.16 1.16 0 000-.32l.77-.06c.42 0 .82.19 1.25.09a.51.51 0 00.28-.12.3.3 0 000-.27 1.3 1.3 0 00-.73-.67 2.74 2.74 0 00-1.42-.05c-.19 0-.38.07-.51-.16a1 1 0 00-.33-.31c-.21-.14-.44-.26-.7-.42a2.06 2.06 0 01.42-.45 3.15 3.15 0 001-.89.4.4 0 00.07-.45c-.16-.25-.34-.48-.55-.77a6.83 6.83 0 01.66-.3c.3-.13.63-.21.93-.34s.6-.34.91-.5l1.32-.61c.11-.05.27-.13.28-.22a.71.71 0 00-.14-.68zm-3.4-2.63v.31c-.22.25-.46.47-.71.73-.17-.63.01-.87.71-1.04zm-2.79.58c-.21.15-.4.31-.6.46a.23.23 0 01-.1 0 3 3 0 01.83-1.92c0 .11.06.22.07.33 0 .37.16.48.54.47 0 0 .15.08.14.11s0 .18-.1.2a5.34 5.34 0 01-.52.18 1.26 1.26 0 00-.26.17zm1.49 9.58a1.38 1.38 0 01-.61.88s-.08 0-.1.06c-.32.4-.8.36-1.22.42a1.85 1.85 0 01-.75-.21.82.82 0 01-.22-.16c-.08-.06-.23-.18-.22-.2a.92.92 0 01.29-.35 6 6 0 011.47-.51c.35-.07.69-.19 1-.29s.36-.08.36.36zm-36.36-7.83c-.33-.21-.68-.4-1-.58-.17-.09-.29-.22-.21-.38a1.11 1.11 0 000-.84.49.49 0 010-.47 2 2 0 00.18-1.7.74.74 0 00-.88-.52.83.83 0 01.21.79 3.83 3.83 0 01-.41.87 1.84 1.84 0 00-.33 1.37.88.88 0 01-.61 1.07l-.18.08-.7.43h-.06l.78-1.78h-.06l-1.21 2.2h-.08c-.18-.48-.58-.26-.9-.3v-.08l1.11-.66c.06-.46-.11-.61-.41-.67a.74.74 0 00-.71.13s-.13.08-.17.06c-.22-.11-.4 0-.6.08s-.47.12-.77.2a.85.85 0 01.07-.29 7 7 0 01.74-.8A9.12 9.12 0 0190.1 32c.18-.11.37-.25.33-.51s-.23-.34-.55-.32a4.57 4.57 0 00-.72.14c-.66.12-1.32.24-2 .34-.31.05-.63.06-1 .09.24.2.43.37.64.52a1.59 1.59 0 001.58.09c.13-.05.24-.1.34.06l-.49.55c-.16.18-.33.35-.48.53l-.14.18a.47.47 0 01-.45.23 2.33 2.33 0 00-.39 0 .62.62 0 01.31.66c.3.22.3.22.65.16a.48.48 0 01.5.29c0 .11-.06.33-.15.36-.34.13-.33.4-.31.67 0 .44.35.67.68.54l.71-.29a.49.49 0 01.17 0 .53.53 0 010 .18s-.07.08-.12.12l-1.55 1a3.65 3.65 0 01-.64.28.28.28 0 01-.2-.07 2.05 2.05 0 01-.06-.49c0-.54.1-1.08.09-1.62a1.53 1.53 0 00-.23-1c-.1-.12-.08-.33-.13-.54a2.54 2.54 0 00-.17.46c-.07.3-.11.61-.15.91l-.21 1.62a4.85 4.85 0 01-.08.55.91.91 0 00.57 1c.24 0 .5.14.72-.08a1.87 1.87 0 01.3-.26c.51-.34 1-.77 1.43-1.15a14.08 14.08 0 001.48-1.51c.13-.15.2-.11.31 0a.79.79 0 00.34.2 1.13 1.13 0 00.45 0c.14 0 .28-.1.41-.14a1.07 1.07 0 00.38-.13c.3-.28.57-.58.86-.87a.26.26 0 01.18-.09.17.17 0 01.11.15 1.62 1.62 0 01-.1.54 9.85 9.85 0 01-.64 1 1.34 1.34 0 01-.42.4c-.69.35-1.39.68-2.09 1l-1.88.85-.68.29a1.25 1.25 0 001.3.06c.26-.13.5-.3.76-.44a1.15 1.15 0 01.19 0 .53.53 0 010 .18c-.1.2-.2.4-.32.59a1.31 1.31 0 01-.25.32 1.29 1.29 0 01-.23.12v.38c-.24.49-.48 1-.75 1.46a3.37 3.37 0 00-.46 1.81 2 2 0 00.46 1.23c.07.09.27.1.41.1s.13-.15.15-.24.05-.4.08-.6 0-.11 0-.16a4.91 4.91 0 01.1-1.16 11.18 11.18 0 01.65-1.41h.1a3.44 3.44 0 01.3.53c.07.18-.13.23-.23.31s0 .09-.09.12-.25.15-.14.31.19.28.41.2a4.68 4.68 0 01.54-.1 2.49 2.49 0 01-.44.47 3.46 3.46 0 01-.52.36c-.32.16-.3.31-.27.61a.15.15 0 00.22.14 6.61 6.61 0 00.76-.36c.28-.17.53-.4.81-.57a4.12 4.12 0 01.64-.3v.06l-1 1.19.07.08c.13-.06.27-.11.4-.18s.53-.32.84 0a.48.48 0 00.32.08 1.34 1.34 0 001.21-.77 5.57 5.57 0 00.41-.93.71.71 0 000-.21l.06-.43a1 1 0 000-.14 3.19 3.19 0 01.22-1.45c-.11-.13-.26-.23-.3-.36a1.35 1.35 0 00-1.26-1 3.2 3.2 0 01-.61-.15 2.39 2.39 0 00-.45-.09.89.89 0 00-.7.45h.12c.37 0 .44.1.37.45v.35c-.22.41-.46.82-.7 1.22-.06.1-.17.13-.25 0l-.11-.21c-.15-.29-.32-.57-.46-.87 0-.08-.09-.22-.05-.29a3.09 3.09 0 011-1.22 9.13 9.13 0 011.13-.56 3.38 3.38 0 00.62-.26 1.73 1.73 0 00.42-.47.37.37 0 000-.29c0-.05-.16-.06-.27-.09s0-.1.07-.14a2.21 2.21 0 011.52-.62c.21 0 .47 0 .56-.29a.63.63 0 00-.18-.79zm-5.73 6.6c.1-.27.18-.51.29-.74s.14-.15.22 0a1 1 0 01.12.29c0 .14-.41.45-.63.45zm2.32-.52a7.74 7.74 0 001.18-1.43c.07-.1 0-.34.25-.29a.73.73 0 01.33.24 3.64 3.64 0 01.42.63v.33a.69.69 0 000 .24 1.36 1.36 0 01.07.35c0 .42-.11.84-.15 1.26a1.77 1.77 0 01-1.24 1.27h-.18l-.06-.11.21-.09a5 5 0 00.54-.35c.09-.07.2-.19.18-.27a.36.36 0 00-.35-.34 3.23 3.23 0 00-.51.14l-.54.15s-.07 0-.17-.07c.46-.25.88-.44 1.26-.68s.58-.34.58-.73a.4.4 0 00-.42-.41 2 2 0 00-.94.23 4.94 4.94 0 01-.49.19.52.52 0 01.03-.26zm17.67-5.8a8.65 8.65 0 00-.76-.47c-.16-.1-.36-.26-.5-.23-.35.09-.69 0-1 .11a13.77 13.77 0 01-2 .68c-.15 0-.3.1-.43-.08l.26-.11c.63-.27 1.25-.56 1.88-.81a2.64 2.64 0 001.08-.75.39.39 0 00.12-.25 1.14 1.14 0 00-.89-.8 1.57 1.57 0 01-.92-.24.37.37 0 01-.22-.37v-.62c0-.2.11-.32.19-.34a1.92 1.92 0 011-.08c.26.08.43 0 .57-.31s0-.36-.14-.51-.55-.19-.85-.22a1.69 1.69 0 01-.62-.17 2.73 2.73 0 01-.37-.32 1.07 1.07 0 00-1.09 0v.89a.69.69 0 01-.13.38 5.15 5.15 0 01-.45.32c-.36.3-.7.61-1.06.9a1.15 1.15 0 01-.25.12 1.2 1.2 0 01-.09-.29c0-.39.09-.78.09-1.17a.74.74 0 00-.23-.42s-.21 0-.28.06c-.28.18-.54.39-.82.6a1.17 1.17 0 01.19.3 2.84 2.84 0 010 .58v2.9a1.25 1.25 0 010 .19c-.09.52-.25 1 .15 1.52 0 0 0 .07.05.13l-.52.27c-.31.15-.62.27-.92.43s-.58.37-.89.52c-.51.25-1 .46-1.54.71a7.29 7.29 0 01-1.86.79.21.21 0 00-.09.18c0 .21.09.43.14.64a.63.63 0 001 .42 9.38 9.38 0 00.9-.6c.18-.14.32-.31.5-.45s.62-.46.94-.68.71-.53 1.09-.76 1-.59 1.54-.87c.35-.19.71-.38 1.08-.54.21-.08.44-.11.65-.19a2.57 2.57 0 011.25-.19c.1 0 .19.07.29.1s-.07.21-.14.26c-.34.26-.7.49-1 .73l-.58.4a2.59 2.59 0 01-.29.14v.06c.42-.09.9 0 1.17-.44a1.39 1.39 0 00.29 0c.32-.08.64-.18 1-.25a8.35 8.35 0 011.29-.24 4.41 4.41 0 001.92-.46 2.38 2.38 0 00.44-.25.53.53 0 00-.14-.85zm-3.32-2.56s0-.07.07-.09c.22-.09.72.27.72.58a.77.77 0 01-.42.56c-.12.07-.26.12-.4.19a1.69 1.69 0 01-.12-.48 5.1 5.1 0 01.15-.76zm-1.44-.92c-.05.18 0 .4 0 .59a1.19 1.19 0 01-.27.44c-.21.23-.45.43-.66.66a.72.72 0 00.06.91c.12.16.27.3.4.45s.15.28 0 .47c-.39.4-1 .36-1.38.63h-.09v-.64c0-.6 0-1.21.11-1.81a2.91 2.91 0 01.63-1.22 1.89 1.89 0 01.78-.73 1.37 1.37 0 00.21-.15.3.3 0 01.21.4zM67.28 44.47a3.65 3.65 0 01-.54-1.25 1 1 0 00-.13-.27v.26c0 .08-.06.38-.11.55s-.1.34-.2.37c-.5.16-1 .29-1.53.41-.09 0-.21-.07-.31-.11a.89.89 0 01.16-.22c.2-.17.36-.34.18-.62a.13.13 0 010-.13c.12-.12.26-.22.39-.33l-.29.39.08.07.19-.21c0 .2.08.17.21 0s.54-.5.81-.75c0 0 .12-.1.12-.15 0-.39.09-.79-.18-1.15s-.28-.46-.57-.51-.33 0-.5 0l-.56-.08c.07-.07.09-.11.13-.14.27-.22.54-.45.82-.66s.47-.31.7-.47a1.14 1.14 0 00.47-.57c.07-.19.1-.36-.13-.47a4.83 4.83 0 01-.55-.3.71.71 0 00-.59 0 3 3 0 00-.78.47c-.44.28-.91.53-1.35.82a1.17 1.17 0 01-.76.26 1.51 1.51 0 00-.41.06 2.2 2.2 0 01-1.14 0h-.29c0 .05 0 .09.07.11.38.35.76.71 1.15 1.05a1 1 0 001.1 0l.92-.91.81-.72h.09a1 1 0 010 .34 1.77 1.77 0 01-.58.72 2.11 2.11 0 01-1 .53L63 41a1.76 1.76 0 000 .61c0 .07.29.07.44.06s.2-.1.3-.15a2.26 2.26 0 01.53-.28 1.29 1.29 0 01.94.2c.36.26.41.52.07.85-.36-.51-.89-.4-1.37-.29a2.17 2.17 0 00-.76.51 7.06 7.06 0 00-1.31 1.67 1 1 0 00-.12 1 2.27 2.27 0 01.11.53h-.06a1.75 1.75 0 00.43.17 1.12 1.12 0 00.4-.07c.33-.07.65-.16 1-.2.63-.09 1.27-.12 1.9-.21a13.67 13.67 0 001.55-.3.41.41 0 00.23-.63zm-4-.67a.1.1 0 01-.08 0c-.28 0-.29-.12-.24-.27a1 1 0 01.46-.63c.28-.17.53-.39.82-.55a.36.36 0 01.35 0 .45.45 0 01.05.38.61.61 0 01-.22.36c-.42.3-.77.5-1.16.71z" fill="#da4d6d"/><path d="M107.68 41.41a2.17 2.17 0 00-.47-.32 2.75 2.75 0 00-1.79-.07c-.22 0-.45.11-.65-.08a2.42 2.42 0 00-.31-.25l-.7-.4c.33-.29.63-.55.91-.81s.38-.37.57-.56a2.92 2.92 0 00.42-.44.42.42 0 000-.38 1 1 0 00-1.31-.26 2.72 2.72 0 01-.82.31c-.39.08-.67.27-.7.57 0 0-.08-.06-.07-.07.08-.31-.11-.26-.31-.25s-.44.12-.51-.2a1.94 1.94 0 00-.34.11 1.81 1.81 0 00-.41.3 1.32 1.32 0 00-.18.4c-.09.22 0 .33.2.41s.52-.06.77-.19.63-.33 1-.47.54-.15.87-.25a1.31 1.31 0 01-.15.46c-.38.35-.58.86-1 1.13a.35.35 0 00-.13.14c-.11.19-.21.39-.31.58s-.06.42.25.36a4 4 0 00.68-.29.69.69 0 01.4 0 3.69 3.69 0 01.62.32 1.91 1.91 0 01-.3.22l-1.19.52c-.14.06-.29.11-.42.18a6.36 6.36 0 00-.58.3c-.4.23-.81.46-1.2.72a1.32 1.32 0 00-.32.38.42.42 0 000 .29.85.85 0 00.61.55l.77.19c.38.09.76.18 1.14.25a2.46 2.46 0 00.54 0c.21 0 .43-.09.65-.08a1.91 1.91 0 001.53-.58 1.07 1.07 0 00.31-1c-.07-.36-.16-.71-.2-1.07 0-.13 0-.32.21-.31.54 0 1.07.08 1.6.08a.74.74 0 00.44-.16.29.29 0 00-.12-.28zm-2.91 1.73a.63.63 0 01-.56.39c-.47 0-.94.1-1.4.09a2.11 2.11 0 01-1.17-.32c.11-.46.46-.62.83-.76.21-.08.4-.18.61-.25a10.79 10.79 0 011.2-.34c.37-.08.6.14.59.52a3.74 3.74 0 01-.1.67zM67.75 53L67 51.07c-.24-.58-.47-1.17-.71-1.75 0-.07-.11-.16-.17-.16h-.8v.09c-.4 1-.8 2-1.19 3-.13.32-.25.64-.38 1h.91a6.24 6.24 0 01.27-.72c0-.09.15-.2.22-.2h1.48l.35.93h.93c-.1-.1-.13-.19-.16-.26zm-2.54-1.37c.18-.47.35-.91.54-1.42l.53 1.42zm57.17-.19a1.1 1.1 0 00.73-1.49.88.88 0 00-1-.7h-1.69c-.24 0-.25.05-.25.23v3.56a1.37 1.37 0 000 .19h.83v-1.7a.92.92 0 01.84.41c.23.4.47.79.72 1.18a.2.2 0 00.14.1h.86zm-.42-.55h-1V50h1.13c.21 0 .33.28.3.54a.44.44 0 01-.39.35zM91 50.21a1.26 1.26 0 00-1-1c-.61-.06-1.24 0-1.87 0v4h1.58a1.37 1.37 0 001.32-1 3.34 3.34 0 00-.03-2zM90.3 52a.67.67 0 01-.61.48 6.71 6.71 0 01-.78 0v-2.54h.85a.76.76 0 01.62.75A3.2 3.2 0 0190.3 52zm-17.98-2.75a1.32 1.32 0 00-.49 0h-1.94v4.07h.85v-1.59h1a4.46 4.46 0 00.51-.07 1.22 1.22 0 00.85-1.15 1.19 1.19 0 00-.78-1.26zm-.6 1.75h-.8c-.26 0-.19 0-.19-.16v-1h.94a.55.55 0 01.51.5.51.51 0 01-.46.66zM100 53c-.08-.22-.18-.45-.26-.67l-1-2.7c-.08-.24-.18-.43-.5-.35a.5.5 0 01-.27 0c-.14 0-.19 0-.23.15-.14.42-.3.85-.45 1.27l-.91 2.56h.7a.25.25 0 00.16-.14c.09-.24.16-.49.23-.74H99c.09.26.18.52.29.77a.18.18 0 00.13.11h.67A1.72 1.72 0 00100 53zm-2.22-1.35l.43-1.32h.06l.44 1.32zM32 57.5l-.81-.1h-.27v-.07a1.72 1.72 0 01.28-.08 4.44 4.44 0 01.63 0 1.05 1.05 0 00.75-.32 2.3 2.3 0 012-.37s.11.16.09.22a.81.81 0 01-.48.54c-.27.09-.56.15-.84.22h-.1zm6.43 0c-.29-.09-.59-.17-.88-.27a.77.77 0 01-.54-.74 2.49 2.49 0 011.68.11 1.22 1.22 0 01.34.18 1.61 1.61 0 001.37.43 1 1 0 01.32.1c-.1 0-.2.07-.3.09l-.74.1zm-11.2-27.79l.6.52a3.52 3.52 0 002.35.81 4.44 4.44 0 001.67-.4A9.55 9.55 0 0034.43 29q.6-.53 1.17-1.08c.14-.12.21-.13.36 0a14.5 14.5 0 003 2.37 6.2 6.2 0 001.93.73 3.14 3.14 0 002.22-.38c.42-.26.82-.56 1.26-.86L46.5 32a4.57 4.57 0 00.44.44.25.25 0 01.05.35 4.85 4.85 0 00-.74 2.34 20.48 20.48 0 00-.09 2.07 8.16 8.16 0 00.6 2.79 5.74 5.74 0 01.34 1.94 9.61 9.61 0 01-.3 2.82 9.16 9.16 0 01-1 2.3 10.89 10.89 0 01-1 1.38 18.47 18.47 0 01-1.68 1.63 17.41 17.41 0 01-1.68 1.29c-.7.47-1.41.91-2.14 1.31-1 .54-2 1-3 1.54a1.26 1.26 0 01-1.12 0 23.62 23.62 0 01-4-2.1 60.66 60.66 0 01-2.33-1.62 10.58 10.58 0 01-4.07-5.92 9.58 9.58 0 01-.28-3 16.36 16.36 0 01.56-2.68 8.67 8.67 0 00.18-1.33c0-.6.07-1.21.05-1.81a6.45 6.45 0 00-.52-2.59 1.78 1.78 0 00-.24-.39c-.11-.11-.08-.18 0-.28zm.24 1.2a2.94 2.94 0 00-.25.24c-.47.5-.94 1-1.42 1.5a.39.39 0 00-.12.52 7.59 7.59 0 01.56 2.83 13 13 0 010 1.4c-.07.68-.14 1.37-.27 2a20.37 20.37 0 00-.44 2.09 8.09 8.09 0 00.14 2.41 9.22 9.22 0 00.93 2.52 9.85 9.85 0 001.71 2.29 19.5 19.5 0 003 2.29 24.64 24.64 0 004.11 2.21.89.89 0 00.84 0c.64-.33 1.3-.61 1.93-1 .84-.45 1.69-.91 2.48-1.44S42.23 49.66 43 49a9 9 0 002.42-3.21 8.16 8.16 0 00.76-4.07 5.37 5.37 0 00-.18-1.03c-.13-.5-.34-1-.45-1.49s-.17-1.27-.26-1.9a8.77 8.77 0 01.1-2.4 5.4 5.4 0 01.51-1.76.31.31 0 00-.08-.41c-.28-.28-.55-.57-.81-.86s-.6-.66-.9-1l-.28.21a4.18 4.18 0 01-2.28.81 5.22 5.22 0 01-2.34-.5 11.22 11.22 0 01-2.71-1.8l-.7-.59c-.32.28-.61.56-.93.81A22.12 22.12 0 0133 31.08a5.67 5.67 0 01-2.21.78 4.05 4.05 0 01-2.74-.55c-.19-.13-.38-.31-.58-.4z" fill="#da4d6d"/><path d="M32.47 53.89a3 3 0 01.43.35 1.78 1.78 0 00.75.49 1.82 1.82 0 011 .67c.07.12.07.27.15.38a2.43 2.43 0 00.34.38s.1 0 .13.06c.42.45.83.26 1.24 0a1.13 1.13 0 00.45-.63 1.19 1.19 0 01.5-.55c.26-.18.57-.26.84-.42a4.33 4.33 0 00.47-.4c.11-.09.23-.17.36-.26v.09a9.37 9.37 0 01-.44 1.19A1.93 1.93 0 0137 56.32a.3.3 0 00-.17.08l-.55.36a1.71 1.71 0 01.23.13.93.93 0 01.13.15c-.06.05-.14.16-.19.15A1.19 1.19 0 0136 57c-.13-.08-.22-.09-.33 0a.45.45 0 01-.23.13h-.32c-.05 0 0-.22.13-.26a.75.75 0 00.17-.1l-.31-.2a2 2 0 00-.63-.24 2 2 0 01-1.67-1.6 3.46 3.46 0 00-.35-.76zm-6.78-26.02c-.23-.42-.46-.84-.68-1.27 0-.09-.08-.25 0-.3a1.62 1.62 0 01.46-.31s.14.09.2.16c.34.39.66.8 1 1.18s.33.35 0 .68l-1-1.18c.16.31.31.62.48.93.08.15.24.29.24.44s-.2.23-.32.37l-1.26-1c.18.24.37.47.56.71l.15.15c.29.32.29.32-.09.6L24.3 28c-.14-.17-.29-.33-.43-.51a.21.21 0 010-.2 1 1 0 01.28-.27.36.36 0 01.27 0l1.23.92zM43 25l-.69 1.32a1.51 1.51 0 01-.31-.12.19.19 0 010-.2c.33-.64.68-1.28 1-1.91.44.09.46.12.46.56v1.27h.08l.68-1.25.41.19L43.56 27a1.5 1.5 0 01-.36-.16.23.23 0 01-.08-.18v-1.59zm8.26 8.61c-.15-.23-.26-.4-.09-.64s-.05-.55-.26-.61a.2.2 0 00-.28.21 3.1 3.1 0 00.1.53c.13.44 0 .78-.31.93a.8.8 0 01-1-.33 1.1 1.1 0 01-.17-.89c0-.18.22-.33.37-.54.14.26.29.43.09.67s0 .63.24.69a.23.23 0 00.33-.24 4.38 4.38 0 00-.12-.82.44.44 0 01.24-.57c.59-.35.92-.05 1.17.41a.75.75 0 010 .71 3.55 3.55 0 01-.31.49zM21.9 31.1l.56-.87.36.25-.56.84.46.33c.14-.21.3-.42.43-.64.23-.37.23-.37.62-.12l-.93 1.41-1-.66-1-.63.64-1c.23-.37.25-.37.6-.09l-.6.94zm4.24-5.67c.44-.26.86-.52 1.29-.76.16-.09.22 0 .3.32l-.94.57.27.38.64-.39c.26-.15.28-.15.41.14a.29.29 0 010 .1l-.89.54.31.47 1-.61.23.39-1.11.65c-.11.07-.24.19-.32.17s-.14-.21-.21-.31zm21.32 3.45l-.08.07c-.34.33-.34.33 0 .67a2.12 2.12 0 00.33.34c.16.14.11.23 0 .36s-.19.1-.29 0l-1-1.11.71-.66.9-.8c.1-.1.17-.08.26 0l1 1-.35.27-.43-.5c-.3-.34-.3-.34-.63 0 .18.2.37.39.54.59s.09.24.06.25-.19.29-.36.09-.47-.35-.66-.57zm-6.96-5.76l.47.2c-.17.49-.33 1-.48 1.45a.42.42 0 00.26.55c.21.06.4-.07.49-.32.16-.48.33-1 .51-1.45l.47.18c-.2.55-.39 1.12-.61 1.67a.62.62 0 01-.75.37 1.7 1.7 0 01-.71-.32c-.27-.21-.21-.54-.14-.82.14-.5.32-.98.49-1.51zM22.19 45.3a2.18 2.18 0 010-3.37c-.17.56.23 1 .28 1.5a3.38 3.38 0 01-.28 1.87zm27.22-.01a3 3 0 01-.23-1.73c.07-.33.2-.65.27-1a4 4 0 000-.61 2.15 2.15 0 01-.04 3.34zM33.89 23.45c-.24-.1-.46.23-.63-.15 0-.08-.25-.11-.38-.11a.42.42 0 00-.41.35 1.14 1.14 0 00.24 1 .59.59 0 00.41.17.48.48 0 00.32-.28c.07-.3.27-.29.49-.3a.88.88 0 01-.38.93 1.12 1.12 0 01-1.13-.06 1.67 1.67 0 01-.4-1.64 1 1 0 011.87.11zM23.14 43.44a3.64 3.64 0 010 .66 1 1 0 00.08.66 2.27 2.27 0 01.13 1.92.37.37 0 01-.05.11c-.32.43-.31.43-.55 0a2.55 2.55 0 010-2.47 6 6 0 00.3-.84zm25.4-.02a16.22 16.22 0 01.62 1.86 2.34 2.34 0 01-.27 1.45l-.22.43a1.53 1.53 0 01-.49-1.71 7.92 7.92 0 01.26-.78 1.34 1.34 0 000-.66 3.62 3.62 0 010-.57zm1.24 6.1a7.22 7.22 0 01-2.05 2.14 1.1 1.1 0 01-1.13.12 1.67 1.67 0 01-.16-.12 2.65 2.65 0 011.31-1.1 3.41 3.41 0 01.76-.2.73.73 0 00.42-.24l.59-.58a.68.68 0 01.21-.1zm-1.54 2.74a8.41 8.41 0 01-1.92 1.32 5.85 5.85 0 01-.9.28.9.9 0 01-.76-.23c-.11-.1-.13-.17 0-.28a2.15 2.15 0 011.34-.62 4 4 0 00.92 0 7.21 7.21 0 001-.52.8.8 0 01.23 0zM30.25 53a2.34 2.34 0 01.41.43 1.58 1.58 0 00.61.54 6 6 0 01.8.71.85.85 0 010 .94.21.21 0 01-.21.05 2.19 2.19 0 01-1.39-1.35.17.17 0 000-.07c-.1-.37-.16-.76-.22-1.25zm11.14 0c-.09.48-.15.87-.22 1.25a1.8 1.8 0 01-.92 1.21c-.17.1-.35.19-.53.28a.77.77 0 01-.06-1.18 4.19 4.19 0 01.86-.66c.25-.13.34-.36.5-.54zm-19.47-3.59c.08.07.17.13.24.2.31.3.55.68 1 .78a5.19 5.19 0 011 .33 2.42 2.42 0 01.91.86s0 .17-.06.2a.92.92 0 01-.91 0 4.15 4.15 0 01-1.61-1.36l-.53-.7c0-.07-.09-.15-.14-.23zm1.52 2.71l.34.16c.24.14.47.29.71.41a.67.67 0 00.32 0 2.54 2.54 0 012.14.62c.11.11.12.17 0 .26a.9.9 0 01-.71.23 2.69 2.69 0 01-1.33-.43c-.5-.31-1-.69-1.42-1a.59.59 0 01-.13-.18zm24.41-2.83a1 1 0 01-.73-1.18c.08-.34.2-.67.26-1a2.9 2.9 0 000-.59V46h.07l.13.26c.12.25.23.5.37.73a2.09 2.09 0 01.14 1.71 4.58 4.58 0 01-.24.59zm-24.04.01a2.21 2.21 0 010-2.57c.17-.15.19-.45.28-.68 0 0 0-.06.1-.08a1.61 1.61 0 010 .48 2.16 2.16 0 00.17 1.23 1.55 1.55 0 010 1.14 1 1 0 01-.55.48zm1.73 5.04a2 2 0 01.49.13 2 2 0 001.49.05 2 2 0 011.39.11l.22.09c.29.11.32.25.1.47a1.21 1.21 0 01-1.06.26 6.8 6.8 0 01-2.53-.94.21.21 0 01-.08-.06s0-.03-.02-.11zm2.77-2.56a5 5 0 00.33.65 4.38 4.38 0 00.51.55c.33.33.68.67.61 1.19a1.2 1.2 0 01-.29.51h-.24a3.07 3.07 0 01-.85-.94 2 2 0 01-.15-1v-.81a.57.57 0 010-.13zm15.21 4.36a.91.91 0 01-.22.11 12.21 12.21 0 01-1.29.33 3.19 3.19 0 01-1.93-.12s-.08 0-.1-.06-.2-.31-.3-.47a1.62 1.62 0 01.4-.19A2.26 2.26 0 0142 56a.78.78 0 00.6.11c.31-.06.62-.07.92-.1zm-.11-4.29v.43a1.69 1.69 0 000 .45 1.53 1.53 0 01-.45 1.45 3.67 3.67 0 01-.52.44c-.21.15-.31.12-.43-.1a.89.89 0 010-1 5.12 5.12 0 01.71-.76.88.88 0 00.28-.36 3.15 3.15 0 01.33-.59zm7.33-5.25a6.8 6.8 0 01-1.21 2.17 3.81 3.81 0 01-.8.64.75.75 0 01-.78 0 2.2 2.2 0 01.81-1.18c.3-.21.67-.32 1-.53a3.23 3.23 0 00.55-.61c.11-.18.18-.42.43-.49zm-30.32-2.88c.06.12.11.19.15.27.13.3.25.61.41.9a1.47 1.47 0 00.36.34 2.81 2.81 0 011.26 1.83c0 .18-.08.28-.27.23a1.48 1.48 0 01-.91-.67 8.64 8.64 0 01-1.05-2.79zm25.65 10.72a1.92 1.92 0 01-.26.17 17.63 17.63 0 01-1.93.77 1.5 1.5 0 01-1.39-.12 2.22 2.22 0 01-.32-.35 2.61 2.61 0 012.43-.26 1.16 1.16 0 00.6-.06c.2 0 .38-.12.58-.18h.25zm-25.13-7.86c.07.08.16.16.23.25s.29.47.45.68a.71.71 0 00.31.19 2.66 2.66 0 011.72 1.66.81.81 0 01-.91 0A3.73 3.73 0 0121.52 48c-.23-.39-.42-.81-.62-1.22a.5.5 0 010-.13zm5.67 3.62a1.45 1.45 0 01.17.44c0 .42.27.69.48 1a1.42 1.42 0 01.33 1.12.73.73 0 01-.4.52.19.19 0 01-.19 0 2.32 2.32 0 01-.75-1.56.79.79 0 01.07-.4 2.36 2.36 0 00.2-1s.03-.06.09-.12zm-1.52-1.99a2.3 2.3 0 01.1.51 1.41 1.41 0 00.23.75 4.86 4.86 0 01.41 1.1.78.78 0 01-.37.83c-.12.09-.16.1-.26 0a2.5 2.5 0 01-.6-1.6 3 3 0 01.12-.52c.07-.29.15-.58.23-.86l.05-.22zm3.01 7.85h.4a4.86 4.86 0 01.55.1 1.14 1.14 0 00.78-.23 1.93 1.93 0 011.41-.23 4.42 4.42 0 00.5.1c.24 0 .2.17.14.32a.74.74 0 01-.57.42 4 4 0 01-1.24.1 17.66 17.66 0 01-1.91-.45h-.06zm18.46-7.88l.32 1a2 2 0 01-.14 1.69 4.11 4.11 0 01-.39.54s-.14.05-.17 0a1 1 0 01-.36-1.17c.12-.32.32-.6.44-.91a7.52 7.52 0 00.19-.85 3.07 3.07 0 01.11-.3zm2.44-.86a2.67 2.67 0 01.55-1.4 3.28 3.28 0 01.64-.6 1.64 1.64 0 00.69-.91c.07-.18.14-.36.22-.54 0 0 .08 0 .13-.08s0 .1 0 .15a13.34 13.34 0 01-.74 2.21 2.12 2.12 0 01-.8 1 3.47 3.47 0 01-.69.17zm-4 2.91c.1.4.19.75.29 1.1a1.74 1.74 0 01-.29 1.4 3.28 3.28 0 01-.27.38c-.24.25-.4.23-.59 0a.81.81 0 01-.11-.79 2.37 2.37 0 01.38-.72 2.73 2.73 0 00.47-1.11 1.05 1.05 0 01.12-.26zm.88-22.46l1.36-1 .39.32-1.14.74a7.77 7.77 0 00-.78.48c-.2.15-.28 0-.4-.08s-.09-.22-.05-.32c.11-.27.23-.53.34-.8s.26-.7.41-1c0-.07.14-.11.22-.17 0 .16.35.16.23.41s-.37.8-.55 1.2c0 .05 0 .11-.07.17zm4.81 10.36a3.76 3.76 0 002.23-1c.15.46.09.58-.32.8-.16.08-.32.18-.51.3.24.08.45.17.66.23.37.11.37.1.37.47v.17c-.35-.14-.69-.23-1-.39a1.88 1.88 0 00-1.21-.13c-.17 0-.18 0-.18-.15s-.02-.2-.04-.3zm1.49-2.52c0-.18-.11-.34-.14-.5a.2.2 0 01.08-.17 1.36 1.36 0 01.33-.07c.13.56.26 1.1.39 1.65a.2.2 0 01-.1.14 1.71 1.71 0 01-.29.08 3.25 3.25 0 01-.13-.46c0-.17-.11-.17-.24-.14l-1.43.37c-.24.07-.28-.09-.32-.26s.05-.2.22-.24c.54-.11 1.08-.26 1.63-.4zM20.9 38.36c0 .17 0 .44-.09.45a3.76 3.76 0 01-.75 0l-.56-.08h-.57V39c0 .4 0 .41-.46.35 0-.41.05-.81.08-1.22a1.46 1.46 0 000-.22c0-.4 0-.4.45-.36V38c0 .1 0 .17.15.17zm17.58-13.72v.24c0 .13 0 .19-.18.17s-.47 0-.71-.07l-.72-.12.29-2.31.48.07v.49c-.05.35-.12.71-.15 1.06s0 .37.31.37a6.38 6.38 0 01.68.1zM19.37 34.4a1.37 1.37 0 01.08-.35.19.19 0 01.16-.09c.68.23 1.36.48 2 .72h.07l-.15.46zm30.68.73l-.19-.45 1-.35 1.02-.33c.21-.08.28.06.33.21s0 .22-.17.28c-.66.16-1.31.4-1.99.64zM30.68 23.32c.41-.21.43-.22.56.18.19.58.36 1.18.52 1.78.06.24-.19.17-.3.23s-.16 0-.2-.13c-.18-.68-.38-1.38-.58-2.06zm-8.5 5.76c.37-.35.37-.35.74 0s.85.69 1.28 1c.14.11.13.19 0 .29s-.12.3-.35.1c-.49-.44-1-.84-1.54-1.26zm22.16-1.57c-.45-.24-.45-.27-.15-.69s.63-.92.93-1.39c.13-.2.23-.06.33 0s.21.08.08.26c-.41.6-.79 1.21-1.19 1.82zm6.08 3.02a8.9 8.9 0 00-.61-.9s-.15-.05-.2 0l-.75.49-1.07.7.28.41.76-.52a1.28 1.28 0 00.11.21 1.58 1.58 0 00.12.15c.13.18.09.32-.09.45a2.37 2.37 0 00-.34.29.2.2 0 00-.07.18 2.22 2.22 0 00.24.32l.09-.06c.11-.09.23-.18.33-.28l.42-.48c.26.14.52 0 .71-.25a.6.6 0 00.07-.71zm-.58.46a.23.23 0 01-.36 0l-.31-.46.24-.17.24-.17a4.85 4.85 0 01.35.57c0 .01-.08.16-.16.24zM30.45 24.4a1 1 0 00-1.45-.52 5.28 5.28 0 01-.69.29v.07c.28.67.55 1.34.84 2a.21.21 0 00.16.08c.32-.13.63-.27.94-.42a.6.6 0 00.24-.26 1.36 1.36 0 00-.04-1.24zm-1 1.39l-.56-1.36a2.11 2.11 0 01.51-.23c.26-.07.4.15.52.31a1.1 1.1 0 01.17.5c.08.45.03.5-.61.78zm6.3-3.09c0-.08-.12-.14-.19-.2-.12.13-.38-.09-.47.2-.21.72-.45 1.44-.68 2.16.45.07.45.07.6-.32a.35.35 0 01.2-.15h.32c.28-.05.39.11.44.35 0 .05.07.12.11.12a3.8 3.8 0 00.46 0zM35.2 24l.19-.75h.07l.23.75zM21.37 35.45L19 35.7c-.16.49-.16.5.28.78s1 .62 1.5.93c.05 0 .15.08.18.06a.34.34 0 00-.05-.55c-.11-.06-.26-.09-.23-.26s.12-.45.17-.67c.52-.05.6-.13.52-.54zm-1.11 1.08l-.77-.44.89-.07zm1.6-2.88a3.8 3.8 0 01-.5-.24c.06-.13.11-.23.16-.35.16-.4.18-.72-.17-1s-.82-.37-1.11.14c-.17.3-.31.62-.49 1l2.16 1L22 34c.1-.17.09-.28-.14-.35zm-.86-.38l-.69-.33a3.48 3.48 0 01.47-.53s.32.11.32.17a3.59 3.59 0 01-.1.69zm18.47 8.86v1.59H38v1.1h2.32c.18 0 .24-.06.24-.24v-2.44h1.56c.14 0 .19 0 .19.19v4h-6.1v-6.82h1.32v-3.12h3.99s.14.07.14.11v1.45h-2.14c-.19 0-.26.06-.25.25v2.75c0 .05-.12.14-.18.15H38v1.07zM32.31 41v-3.08H30v-1.55h4v3.12h1.34v6.86h-5.72c-.21 0-.3 0-.3-.29v-3.68c0-.18.06-.27.25-.26h1.35c.17 0 .2.08.2.23v2.19c0 .19 0 .28.25.28h2c.22 0 .32-.06.3-.29s0-.51 0-.8h-1.29c-.2 0-.28 0-.27-.26v-1.12c0-.16.06-.22.22-.22h1.09c.16 0 .23 0 .23-.19v-.75c0-.25-.11-.16-.23-.16z" fill="#da4d6d"/><path d="M41.66 34.07v1.55h-5v2.91c0 .23-.07.29-.29.28h-1.45v-3.18H30v-1.54h4.95v-2h1.75v2zM32.75 49.8c.25 0 .27-.17.26-.35s0-.62 0-.92c0-.11 0-.22-.15-.23s-.08-.1-.12-.15l.49-.13c.08 0 .22-.07.24-.05a.52.52 0 01.08.3v.83c0 .28-.15.63.32.75-.42.02-.77.15-1.12-.05zm6.03-1.4a.65.65 0 00-.57-.44.61.61 0 00-.57.25 1.48 1.48 0 000 1.43.5.5 0 00.54.3.54.54 0 00.62-.43 1.52 1.52 0 00-.02-1.11zm-.45 1.13c0 .08-.11.14-.16.21s-.13-.11-.13-.17v-1.23c0-.06.1-.12.16-.19s.16.14.17.22 0 .41 0 .62a4.86 4.86 0 01-.04.54zM35.06 48a.68.68 0 00-.76.29.87.87 0 000 .69c.14.22.39.3.78.22l-.17.53-.39-.14a.34.34 0 00-.2 0 .25.25 0 00-.08.15c.08.08.17.18.27.19a.81.81 0 001-.61 2.73 2.73 0 00.06-.64c.03-.43-.09-.58-.51-.68zm0 .88c0 .06-.09.11-.13.17s-.17-.11-.2-.18a.94.94 0 010-.29.44.44 0 010-.2.71.71 0 01.13-.22c.07.07.18.13.2.2a1.81 1.81 0 01.03.52zm2.12.12c-.12-.25-.41-.33-.77-.22v-.09a1.09 1.09 0 01.05-.26c.07-.25.19-.28.4-.13a.44.44 0 00.26.06s.09-.1.07-.13A.43.43 0 0037 48c-.25-.13-.48 0-.7.1-.39.18-.4.57-.46.93a.73.73 0 001.11.8.68.68 0 00.23-.83zm-.62.76c-.19 0-.22-.22-.22-.39v-.2a1.43 1.43 0 01.19-.24 2.05 2.05 0 01.2.23v.25c0 .1.06.33-.17.32z" fill="#da4d6d"/><path d="M178.34 35.61h-10v20.33a2.92 2.92 0 01-1.27 2.61 5.79 5.79 0 01-3.27.85 5.92 5.92 0 01-3.33-.86 2.92 2.92 0 01-1.28-2.6V35.61h-10a7.39 7.39 0 01-3.5-.64 1.82 1.82 0 010-3.4 7.52 7.52 0 013.45-.63h29.19a7.52 7.52 0 013.54.64 1.92 1.92 0 011.16 1.7 1.9 1.9 0 01-1.16 1.72 7.58 7.58 0 01-3.53.61zm29.51 23.31H194a8.24 8.24 0 01-4.28-.83 2.9 2.9 0 01-1.29-2.64v-21a2.88 2.88 0 011.32-2.66 8.4 8.4 0 014.25-.81h14.69c2.17 0 4 .08 5.63.24a17.52 17.52 0 014.27 1 11.1 11.1 0 012.84 1.5 6.7 6.7 0 011.89 2A4.52 4.52 0 01224 38q0 4.2-6.81 6.15 8.94 1.76 8.94 6.83a5.74 5.74 0 01-2 4.23 11.9 11.9 0 01-5.24 2.79 28.45 28.45 0 01-4.77.75q-2.68.18-6.27.17zm-10.24-23.73v7.24H206a27.51 27.51 0 005.31-.4 5.14 5.14 0 002.86-1.53 2.55 2.55 0 00.77-1.79c0-1.42-.82-2.36-2.44-2.82a29.12 29.12 0 00-7.46-.7zm9.56 11.3h-9.56v8.17h9.86q9.32 0 9.31-4.14a3.22 3.22 0 00-2.41-3.07 20.54 20.54 0 00-7.2-.96zm27.24 9.45v-22a2.89 2.89 0 011.27-2.57 5.67 5.67 0 013.28-.86 5.92 5.92 0 013.35.85 2.88 2.88 0 011.29 2.58v22a2.91 2.91 0 01-1.29 2.6 5.92 5.92 0 01-3.35.86 5.73 5.73 0 01-3.27-.87 2.93 2.93 0 01-1.28-2.59zM266.2 47H263v9a2.93 2.93 0 01-1.27 2.62 5.91 5.91 0 01-3.31.84 5.66 5.66 0 01-3.4-.88 3 3 0 01-1.21-2.58V34.41a2.88 2.88 0 011.33-2.65 8.49 8.49 0 014.3-.82h14.94c2.06 0 3.82 0 5.29.16a20.2 20.2 0 013.95.66 13.31 13.31 0 013.78 1.58 7.76 7.76 0 012.49 2.4 5.43 5.43 0 01.85 2.89 5.74 5.74 0 01-2.86 5q-2.87 1.88-8.68 2.65a17.89 17.89 0 014.67 2.37 28.75 28.75 0 014 3.33 24.37 24.37 0 012.72 3.19 4.65 4.65 0 011 2 1.53 1.53 0 01-.57 1.09 3.88 3.88 0 01-1.56.86 7.54 7.54 0 01-2.29.32 6.62 6.62 0 01-2.6-.45 6.49 6.49 0 01-1.81-1.14c-.5-.45-1.19-1.13-2.05-2L277 52a24 24 0 00-3.55-3.17 9.71 9.71 0 00-3.17-1.49 17.49 17.49 0 00-4.08-.34zm5.26-11.76H263v7.7h8.22a36.23 36.23 0 005.57-.36 8.07 8.07 0 003.45-1.2 2.79 2.79 0 00.23-4.39 6.21 6.21 0 00-2.66-1.33 30.4 30.4 0 00-6.35-.47z" fill="#ccc"/><path d="M177.34 34.55h-10v20.33a2.92 2.92 0 01-1.27 2.61 5.79 5.79 0 01-3.27.85 5.92 5.92 0 01-3.33-.86 2.92 2.92 0 01-1.28-2.6V34.55h-10a7.39 7.39 0 01-3.5-.64 1.82 1.82 0 010-3.4 7.52 7.52 0 013.45-.63h29.19a7.52 7.52 0 013.54.64 1.92 1.92 0 011.16 1.7 1.9 1.9 0 01-1.17 1.69 7.58 7.58 0 01-3.52.64zm29.51 23.31H193a8.24 8.24 0 01-4.28-.83 2.9 2.9 0 01-1.29-2.64v-21a2.88 2.88 0 011.32-2.66 8.4 8.4 0 014.25-.81h14.69c2.17 0 4 .08 5.63.24a17.52 17.52 0 014.27 1 11.1 11.1 0 012.84 1.5 6.7 6.7 0 011.89 2 4.52 4.52 0 01.68 2.24q0 4.2-6.81 6.15 8.94 1.76 8.94 6.83a5.74 5.74 0 01-2 4.23 11.9 11.9 0 01-5.25 2.78 29.52 29.52 0 01-4.77.75q-2.67.22-6.26.22zm-10.24-23.73v7.24H205a27.51 27.51 0 005.31-.4 5.14 5.14 0 002.86-1.53 2.55 2.55 0 00.77-1.8c0-1.41-.82-2.35-2.44-2.81a29.12 29.12 0 00-7.46-.7zm9.56 11.3h-9.56v8.17h9.86q9.32 0 9.31-4.14a3.22 3.22 0 00-2.41-3.07 20.54 20.54 0 00-7.2-.96zm27.24 9.45V32.83a2.89 2.89 0 011.27-2.57 5.67 5.67 0 013.32-.86 5.92 5.92 0 013.35.85 2.88 2.88 0 011.29 2.58v22.05a2.91 2.91 0 01-1.29 2.6 5.92 5.92 0 01-3.35.86 5.73 5.73 0 01-3.27-.87 2.93 2.93 0 01-1.32-2.59zm31.79-8.99H262v9a2.93 2.93 0 01-1.27 2.62 5.91 5.91 0 01-3.31.84 5.73 5.73 0 01-3.4-.88 3 3 0 01-1.21-2.58V33.35a2.88 2.88 0 011.33-2.65 8.49 8.49 0 014.3-.82h14.94c2.06 0 3.82.05 5.29.16a20.2 20.2 0 013.95.66 13.31 13.31 0 013.78 1.58 7.76 7.76 0 012.49 2.4 5.43 5.43 0 01.85 2.89 5.74 5.74 0 01-2.86 5q-2.87 1.88-8.68 2.65a17.89 17.89 0 014.67 2.37 28.75 28.75 0 014 3.33 24.37 24.37 0 012.72 3.19 4.65 4.65 0 011 2 1.53 1.53 0 01-.57 1.09 3.88 3.88 0 01-1.56.86 7.54 7.54 0 01-2.29.32 6.62 6.62 0 01-2.6-.45 6.49 6.49 0 01-1.81-1.14c-.5-.45-1.19-1.13-2.05-2L276 51a24 24 0 00-3.55-3.17 9.71 9.71 0 00-3.17-1.49 17 17 0 00-4.08-.45zm5.26-11.76H262v7.7h8.22a36.23 36.23 0 005.57-.36 8.07 8.07 0 003.45-1.2 2.79 2.79 0 00.23-4.39 6.21 6.21 0 00-2.66-1.33 30.4 30.4 0 00-6.35-.42zM155.11 19.66a1 1 0 01.81.36 1.3 1.3 0 01.23.84 4 4 0 01-.11.84.54.54 0 01-.57.36.41.41 0 01-.47-.47 3.26 3.26 0 00.16-.68c0-.35-.14-.52-.42-.52h-9.29a.27.27 0 00-.31.31v.89a.42.42 0 01-.48.47.41.41 0 01-.47-.47v-1a.84.84 0 01.95-.94zm-.79 1.66a.28.28 0 01-.31.32h-.6a15.75 15.75 0 011.43.94c.22.08.32.2.32.36 0 .34-.16.52-.48.52a.83.83 0 01-.2-.08c-.27-.19-.53-.38-.8-.55-1 .08-2 .13-3 .17v.71h3.44c.21 0 .32.1.32.3s-.11.37-.32.37h-3.44V25h5.11c.28 0 .43.13.43.41a.38.38 0 01-.43.42h-11.17a.37.37 0 01-.43-.42c0-.28.13-.41.43-.41h5.1v-.6H146c-.22 0-.31-.12-.31-.37s.09-.3.31-.3h3.75v-.66c-1.43.08-2.82.15-4.17.19-.24 0-.36-.14-.36-.41a.33.33 0 01.36-.38h1.82l.63-.8h-1.93a.28.28 0 01-.32-.32c0-.2.11-.3.32-.3h7.9a.27.27 0 01.32.27zm1.56-6.45c0 .28-.12.41-.36.41h-4.85v.63h4.17a.37.37 0 110 .73h-9.23c-.26 0-.38-.12-.38-.37s.12-.36.38-.36h4.11v-.63h-4.9c-.24 0-.36-.13-.36-.41a.32.32 0 01.36-.36h4.9v-.21a.48.48 0 01.95 0v.21h4.85a.32.32 0 01.36.36zm-1.51 2.4c.42 0 .63.16.63.47v.93c0 .35-.21.52-.63.52h-8.3c-.42 0-.62-.17-.62-.52v-.93c0-.31.2-.47.62-.47zm-.3 1v-.17c0-.11 0-.16-.06-.16h-7.58s-.05 0-.05.16v.21c0 .13 0 .2.05.2H154s.07-.07.07-.2zm-1.58 3.85a.39.39 0 01-.31-.41.2.2 0 010-.11H149l-.6.78c1.52 0 2.94-.1 4.25-.19a.53.53 0 01-.16-.03zm5.8-4.18a11 11 0 011.25 1.36.69.69 0 01.11.3c0 .3-.16.43-.48.43a.35.35 0 01-.25-.11c-.42-.48-.86-1-1.31-1.41a.52.52 0 01-.11-.25c0-.31.17-.47.52-.47a.44.44 0 01.27.15zm1.45 3.49a16.05 16.05 0 01-.38 2.15 14 14 0 01-.76 2.06.48.48 0 01-.42.27c-.32 0-.47-.14-.47-.41a.35.35 0 01.11-.21 14.81 14.81 0 00.7-1.87 20.61 20.61 0 00.45-2.2.32.32 0 01.36-.26c.27.04.41.16.41.47zm-1-6.92a10.45 10.45 0 011 1.09.94.94 0 01.09.31c0 .28-.16.41-.46.41a.33.33 0 01-.26-.1c-.32-.39-.65-.76-1-1.14a.59.59 0 01-.09-.26c0-.31.17-.47.52-.47-.02 0 .06.05.16.16zm2.89-.33a.29.29 0 01.15.22.63.63 0 01-.06.2 6.12 6.12 0 01-.81 1.11l.51.41c.18-.3.37-.64.56-1a.26.26 0 01.26-.14.65.65 0 01.3.09.25.25 0 01.12.21.31.31 0 01-.06.16 11.39 11.39 0 01-1.26 1.9 6.48 6.48 0 00.93-.14.52.52 0 010-.21c0-.2.12-.31.36-.31a.41.41 0 01.22.11 7.33 7.33 0 01.46.93.71.71 0 01.06.2c0 .22-.12.32-.36.32a.24.24 0 01-.16-.05c-.07-.11-.12-.23-.18-.33a.18.18 0 01-.09 0 4 4 0 01-.62.12v2.27c0 .21-.13.32-.37.32a.28.28 0 01-.31-.32v-2.18c-.4.05-.79.11-1.15.13s-.36-.13-.36-.41a.33.33 0 01.36-.37 3.85 3.85 0 00.48 0 6.3 6.3 0 00.51-.7c-.33-.27-.68-.54-1-.79a.35.35 0 01-.11-.21q0-.36.42-.36a.31.31 0 01.12 0c.2-.31.4-.67.61-1.08a.25.25 0 01.27-.22.66.66 0 01.16.12zm-.91 4.36a.24.24 0 01.11.18.42.42 0 010 .16 12.49 12.49 0 01-.38 1.4.33.33 0 01-.25.16c-.25 0-.38-.08-.38-.26a.27.27 0 01.06-.2c.11-.35.24-.8.37-1.36 0-.11.12-.16.26-.16a.39.39 0 01.17.08zm7.11 3.52c.14 0 .22-.08.22-.27v-.09a.2.2 0 00-.22-.22h-7.36c-.24 0-.36-.13-.36-.41a.33.33 0 01.36-.37h7.62c.56 0 .84.25.84.73v.63c0 .53-.28.79-.84.79h-6.31c-.22 0-.32.12-.32.35a.14.14 0 00.16.16h7.25c.38 0 .58.27.58.78a2.35 2.35 0 01-.16.76 2 2 0 01-.55.87 2.44 2.44 0 01-1.48.3c-1.25 0-3.18-.08-5.8-.21a.39.39 0 01-.37-.41c0-.28.15-.42.47-.42 2.23.14 4.13.2 5.7.2a1.43 1.43 0 001-.22 1 1 0 00.28-.55c0-.22-.08-.32-.21-.32h-7.1c-.43 0-.63-.24-.63-.72a3.54 3.54 0 01.12-.9.55.55 0 01.56-.46h6.58zm-5-3.44a9.9 9.9 0 01.18 1v.21c0 .21-.1.31-.3.31s-.31-.08-.31-.26c-.06-.42-.1-.8-.15-1.1v-.1c0-.17.08-.26.25-.26a.36.36 0 01.33.2zm3.08-3.12c0 .21-.1.3-.26.3h-2.46c-.17 0-.25-.09-.25-.3s.08-.27.25-.27h2.46a.24.24 0 01.26.27zm-.2-1c0 .17-.1.25-.27.25h-1.93c-.18 0-.26-.08-.26-.25s.08-.27.26-.27h1.93a.24.24 0 01.27.23zm-.06 2c0 .19-.09.27-.26.27h-1.82c-.19 0-.27-.08-.27-.27s.08-.26.27-.26h1.82a.23.23 0 01.26.24zm0 1c0 .19-.09.27-.26.27h-1.78c-.18 0-.26-.08-.26-.27s.08-.25.26-.25h1.78a.23.23 0 01.26.22zm-.41.79c.35 0 .52.14.52.41v1.2c0 .28-.17.41-.52.41h-1.37c-.32 0-.46-.13-.46-.41v-1.2c0-.27.14-.41.46-.41zm-.16 1.25V19c0-.16-.08-.25-.22-.25h-.62c-.11 0-.15.09-.15.25v.48c0 .17 0 .25.15.25h.62c.14.03.22-.05.22-.22zm2.79-5.28a.34.34 0 01.14.23.28.28 0 01-.06.14 5 5 0 01-.83 1.08l.46.43c.21-.32.41-.67.63-1a.26.26 0 01.26-.16.57.57 0 01.3.1.25.25 0 01.12.21.35.35 0 01-.06.16 11.39 11.39 0 01-1.4 1.93 6.31 6.31 0 001.11-.16s0-.06-.07-.1a.55.55 0 01-.05-.22q0-.3.36-.3a.43.43 0 01.21.1 8.32 8.32 0 01.73 1 1.91 1.91 0 01.05.26c0 .21-.12.32-.36.32a.43.43 0 01-.22-.06c-.1-.16-.18-.3-.26-.45a.31.31 0 01-.15 0 6.7 6.7 0 01-.68.13v2.31c0 .21-.12.32-.36.32s-.31-.11-.31-.32V18c-.43.08-.85.13-1.26.17-.25 0-.37-.13-.37-.41s.12-.36.37-.37a2 2 0 00.43 0 6.31 6.31 0 00.59-.72c-.36-.32-.72-.63-1.07-.92a.36.36 0 01-.11-.2c0-.24.14-.37.42-.37a.43.43 0 01.21.1 7.21 7.21 0 00.64-1c0-.11.12-.16.26-.16a.62.62 0 01.33.11zm-.87 4.28a.24.24 0 01.11.18.31.31 0 01-.06.16c-.08.56-.16 1-.25 1.46a.36.36 0 01-.27.16c-.28 0-.41-.11-.41-.32a.17.17 0 01.05-.15c.09-.37.2-.84.31-1.41a.25.25 0 01.27-.16.39.39 0 01.25.08zm2.19.18a6.4 6.4 0 01.24 1 1.19 1.19 0 010 .2c0 .22-.12.31-.36.31a.28.28 0 01-.32-.31c-.06-.41-.12-.76-.19-1.05v-.09c0-.18.09-.27.3-.27a.35.35 0 01.28.21zm9.04 2.82a.5.5 0 01-.23.46 18.6 18.6 0 01-2.39.61 7.28 7.28 0 01.15 1.38 2.43 2.43 0 01-.31 1.16 1.68 1.68 0 01-.69.75 2 2 0 01-.94.22 3.71 3.71 0 01-1.1-.21c-.26-.11-.41-.26-.41-.47s.15-.5.41-.52a6.5 6.5 0 001.05.26.92.92 0 00.45-.12 1 1 0 00.43-.45 1.15 1.15 0 00.16-.62 8.17 8.17 0 00-.09-1.2c-.93.17-2 .33-3.25.46-.27 0-.4-.17-.42-.46a.42.42 0 01.36-.47c1.29-.11 2.3-.24 3-.37l-.24-.47a3.14 3.14 0 00-.59-.65.23.23 0 01-.11-.18c0-.29.19-.45.52-.48a.73.73 0 01.3.15 4.65 4.65 0 01.61.71s0 .05.06.08a4.1 4.1 0 00.68-.51 3.05 3.05 0 00.6-.65 1 1 0 00.2-.35c0-.05 0-.09-.15-.09h-4.44c-.29 0-.42-.14-.42-.43s.13-.41.42-.41h5.22c.41 0 .63.17.63.52a1.12 1.12 0 01-.2.57 5.67 5.67 0 01-.87 1.09 6.42 6.42 0 01-1.09.9c.78-.15 1.49-.31 2.1-.48a.6.6 0 01.22 0 .35.35 0 01.37.27zm-.58-6.94c0 .23-.17.38-.52.43a25.2 25.2 0 01-2.69.33 25.7 25.7 0 01-2.58.19c-.34 0-.52-.15-.52-.47a.37.37 0 01.42-.42c1 0 1.83-.06 2.64-.14a17.24 17.24 0 002.84-.44c.27 0 .41.18.41.52zm-5.12 1.47a8.9 8.9 0 01.52 1.56 1.21 1.21 0 01.06.31c0 .25-.18.37-.52.37-.14 0-.24-.11-.31-.32a9.92 9.92 0 00-.47-1.45.67.67 0 01-.11-.32c0-.24.15-.36.47-.36a.46.46 0 01.36.21zm2.05-.16a8.33 8.33 0 01.57 1.31 1.14 1.14 0 01.06.3c0 .28-.18.42-.52.42-.18 0-.3-.1-.38-.31a7.93 7.93 0 00-.41-1.31.41.41 0 01-.11-.25c0-.24.15-.37.47-.37a.48.48 0 01.32.21zm3-.36a.34.34 0 01.16.25.66.66 0 01-.06.22 10.76 10.76 0 01-1 1.92.39.39 0 01-.3.21q-.54 0-.54-.36c0-.11 0-.17.05-.21a14.2 14.2 0 001-1.94.28.28 0 01.31-.2.66.66 0 01.35.11zm2.09-1v9.7a.63.63 0 00.18.52 1.64 1.64 0 00.92.16c.53 0 .84-.09.95-.28a1.57 1.57 0 00.2-.81V22c0-.36.16-.54.47-.57s.49.25.52.68a12.4 12.4 0 01-.16 2.8 1.2 1.2 0 01-.5.77 2.58 2.58 0 01-1.48.29 2.94 2.94 0 01-1.72-.34 1.36 1.36 0 01-.38-1.12V14.6a.42.42 0 01.48-.46c.32 0 .49.16.49.46zm6.55 5.84a14.3 14.3 0 01-.36 3.46 6.85 6.85 0 01-.68 1.79.69.69 0 01-.47.22c-.35 0-.52-.18-.54-.47a1 1 0 01.12-.29 6.2 6.2 0 00.66-1.74 12.42 12.42 0 00.33-3v-5.13a.64.64 0 01.72-.72 60.16 60.16 0 008.93-.48.5.5 0 01.52.48c0 .21-.14.35-.41.41a55.4 55.4 0 01-8.41.42c-.28 0-.41.17-.41.52V16h8.71c.48 0 .74.21.74.62v1.67c0 .45-.26.67-.74.67h-3.59v1.1h4.58a.38.38 0 01.43.42c0 .32-.15.46-.43.46h-5.37c0 .38-.09.72-.15 1h4.28c.61 0 .93.35.93 1a11.65 11.65 0 01-.14 1.86 1.41 1.41 0 01-.59 1 3.29 3.29 0 01-1.4.24 9.09 9.09 0 01-2.25-.32c-.25-.13-.37-.28-.37-.47 0-.39.17-.57.53-.57a8.33 8.33 0 002 .36 1.71 1.71 0 00.78-.14.74.74 0 00.33-.53 5.16 5.16 0 00.1-1c0-.38-.17-.57-.47-.57h-4c0 .13-.08.23-.11.34a4.15 4.15 0 01-1.02 1.79 6.25 6.25 0 01-2.05 1.12h-.12c-.34 0-.52-.2-.52-.57 0-.17.09-.29.31-.37a4.55 4.55 0 001.8-1 3.52 3.52 0 00.85-1.35 8.35 8.35 0 00.38-1.83H187c-.28 0-.41-.14-.41-.46a.37.37 0 01.41-.42h3.34V19h-4.11zm0-2.19h8.3c.16 0 .25-.1.25-.32v-.82c0-.18-.09-.27-.25-.27h-8.3zm15.86-1.45c0 .32-.15.47-.41.47h-1v.42l1.59 2.51a1 1 0 01.14.4c0 .32-.18.47-.52.47a.36.36 0 01-.35-.27l-.86-1.68v6.63a.47.47 0 11-.93 0V19c-.05.16-.1.32-.14.47-.24.8-.44 1.41-.62 1.85a7.72 7.72 0 01-.6 1.35.47.47 0 01-.42.31.41.41 0 01-.47-.47.76.76 0 01.1-.36 23.33 23.33 0 001.32-2.93 16.33 16.33 0 00.53-2h-1.17c-.28 0-.42-.15-.42-.47a.38.38 0 01.42-.43h1.47v-1.81a.47.47 0 11.93 0v1.81h1a.38.38 0 01.41.43zm2.59.15c.14-.3.27-.59.38-.88a.61.61 0 000-.11h-2.62c-.3 0-.43-.15-.43-.47s.13-.41.43-.41h2.9c.08-.27.14-.52.22-.79A.5.5 0 01206 14a.53.53 0 01.37.16.53.53 0 01.15.36.66.66 0 01-.09.32 1 1 0 00-.06.16h2.72a.37.37 0 01.41.41c0 .32-.15.47-.41.47h-3c0 .13-.09.27-.12.37s-.17.43-.25.62h2.15c.55 0 .83.26.83.78v7.25h.52c.32 0 .48.13.48.41a.43.43 0 01-.48.47h-7.3c-.29 0-.42-.17-.42-.47s.13-.41.42-.41h.78v-7.22q0-.78.84-.78zm3.11 1.93v-.73a.28.28 0 00-.31-.31H204a.27.27 0 00-.31.31v.73zm0 2v-1.17h-4.12v1.14zm0 2.05v-1.24h-4.12v1.21zm0 2.08v-1.29h-4.12v1.26zm8.76-10.25c.46 0 .76.27 1 .79a21.81 21.81 0 001.95 5 15.72 15.72 0 001.82 2.66 21.53 21.53 0 001.91 2 .5.5 0 01.16.37.46.46 0 01-.47.47.58.58 0 01-.36-.16 17.41 17.41 0 01-2.11-2.15 19.14 19.14 0 01-2.17-3.31 17.46 17.46 0 01-.82-2 18.13 18.13 0 01-2.12 4 14.75 14.75 0 01-3.44 3.49.8.8 0 01-.41.16c-.32 0-.48-.17-.48-.52a.45.45 0 01.27-.37 14.26 14.26 0 003.69-3.79 23.22 23.22 0 002-4.23.13.13 0 01.05-.06c-.12-.38-.23-.75-.32-1.14-.06-.21-.15-.32-.31-.32h-3c-.33 0-.47-.14-.47-.46a.41.41 0 01.47-.47zm9.09.41c0 .56 0 1.08-.07 1.58h1.06v-2.24c0-.32.14-.48.46-.48a.42.42 0 01.48.48v2.24h.83a.37.37 0 01.42.41c0 .32-.15.47-.42.47h-.83v3a7.55 7.55 0 00.73-.48h.21c.31 0 .47.18.47.52a.53.53 0 01-.24.4 7.66 7.66 0 01-1.17.8v3.84a.43.43 0 01-.48.49c-.32 0-.46-.16-.46-.49v-3.35A13 13 0 01225 23a.72.72 0 01-.3.06c-.32 0-.48-.17-.48-.52a.5.5 0 01.38-.52 12.46 12.46 0 001.75-.72 1.15 1.15 0 00.23-.1v-3.6h-1.15a15.83 15.83 0 01-.47 2.18.53.53 0 01-.58.42.32.32 0 01-.36-.36 1 1 0 01.06-.36 17.09 17.09 0 00.62-4.43.38.38 0 01.42-.43c.35-.02.51.16.51.5zm5.17-.77c0 .52-.09 1-.16 1.4h4.7q1 0 1 .84a52.85 52.85 0 01-.32 6.69 4 4 0 01-.76 2.19 2.12 2.12 0 01-1.63.6 4.6 4.6 0 01-1.47-.32.49.49 0 01-.36-.52c0-.34.15-.52.47-.52a5.48 5.48 0 001.36.32 1.12 1.12 0 001-.45 4.13 4.13 0 00.46-1.63 45.23 45.23 0 00.26-5.95.33.33 0 00-.37-.36h-.41c0 .2 0 .39-.06.56a16.09 16.09 0 01-.85 3.47 12.2 12.2 0 01-1.35 2.61 13.27 13.27 0 01-2.18 2.36.61.61 0 01-.36.11.42.42 0 01-.34-.15.52.52 0 01-.14-.37.41.41 0 01.16-.36 13.54 13.54 0 002.07-2.19 10 10 0 001.29-2.42 13.58 13.58 0 00.85-3.62h-1.14v.15a14.51 14.51 0 01-.83 2.68 11.77 11.77 0 01-1.16 2.2 6.7 6.7 0 01-1.3 1.53.5.5 0 01-.32.11.41.41 0 01-.33-.16.5.5 0 01-.14-.36.43.43 0 01.16-.32 8 8 0 001.18-1.47 14.08 14.08 0 001.09-2 12.66 12.66 0 00.71-2.31h-1.11l-.08.32a7.75 7.75 0 01-1.11 2.23.7.7 0 01-.47.27c-.39 0-.58-.18-.58-.52a.57.57 0 01.16-.27 6.19 6.19 0 001.07-2 11 11 0 00.39-2.32c0-.27.16-.41.48-.41s.47.09.47.36zm12.68-.16a.79.79 0 01.28 0 .55.55 0 01.24 0 .66.66 0 01.42.27 11.77 11.77 0 001 1.08 13.22 13.22 0 001.35-1.24.57.57 0 01.37-.22.42.42 0 01.47.47.57.57 0 01-.22.43 10.4 10.4 0 01-1.39 1.16 5.88 5.88 0 00.93.76 9.91 9.91 0 001.51-1.26.57.57 0 01.37-.2.42.42 0 01.47.47.55.55 0 01-.21.41 12 12 0 01-1.38 1.07 13 13 0 002.11 1 .44.44 0 01.31.42c0 .34-.2.52-.58.52a1.66 1.66 0 01-.53-.15 12.19 12.19 0 01-3.21-1.91 10.05 10.05 0 01-1.87-2 3.57 3.57 0 01-.25.38 12.67 12.67 0 01-2.06 1.82 15 15 0 01-2.9 1.66 1.3 1.3 0 01-.55.16c-.35 0-.52-.15-.52-.47a.51.51 0 01.25-.47 15.26 15.26 0 002.26-1l-.79-.62c-.19-.14-.4-.28-.63-.43a.54.54 0 01-.16-.36.41.41 0 01.47-.47.77.77 0 01.31.11q.38.24.69.48a6.19 6.19 0 01.89.76v.05a10.39 10.39 0 001.31-1c.45-.36.68-.6.68-.74s0-.09-.11-.09h-3.07c-.3 0-.43-.13-.43-.43s.13-.41.43-.41zm4.08 5.36c.51 0 .77.25.77.73v1.83a.69.69 0 01-.77.78h-1.1l-.42 2h3.34c.32 0 .48.14.48.46a.42.42 0 01-.48.47h-11.07a.41.41 0 01-.47-.47c0-.32.15-.46.47-.46h3.11l-.49-2h-1.1a.69.69 0 01-.79-.78v-1.83c0-.48.26-.73.79-.73zm-.16 2.09v-.89a.28.28 0 00-.31-.31h-6.79a.28.28 0 00-.32.31v.89c0 .24.11.36.32.36h6.79c.2 0 .31-.12.31-.36zm-1-3.54c0 .32-.15.46-.43.46h-4.47c-.29 0-.42-.14-.42-.46a.37.37 0 01.42-.42h4.5a.38.38 0 01.41.42zm-1.4 6.83l.44-2h-3.54l.5 2zm9.27-10.66l1.73 1.85a.53.53 0 01.16.36.44.44 0 01-.46.47.41.41 0 01-.26-.11L254 15.15a.3.3 0 00-.19-.12c-.05 0-.11.05-.16.13a17.19 17.19 0 01-1.54 2 .54.54 0 01.28-.08h2.77a.42.42 0 110 .83h-1v1.52h1.4a.38.38 0 01.43.41c0 .32-.15.47-.43.47h-1.4v3.94a9.23 9.23 0 001.25-.34.54.54 0 01.21-.05.36.36 0 01.37.35.45.45 0 01-.27.42 11.46 11.46 0 01-1.84.59q-.88.2-2.13.39c-.27 0-.41-.17-.41-.46a.43.43 0 01.36-.47c.68-.08 1.21-.16 1.62-.24v-4.1h-1.51c-.28 0-.42-.15-.42-.47a.37.37 0 01.42-.41h1.51v-1.52h-.89c-.28 0-.41-.14-.41-.42 0-.12 0-.2.07-.25a1.9 1.9 0 01-.18.2.62.62 0 01-.41.21.42.42 0 01-.47-.46.62.62 0 01.2-.43 12.25 12.25 0 002-2.37c.18-.32.37-.48.56-.48s.26.12.48.33zm-1.92 6.85c.08.4.18 1 .28 1.91v.39c0 .24-.15.36-.41.36s-.4-.12-.42-.36c-.06-.8-.14-1.5-.24-2.07v-.17c0-.22.12-.32.37-.32a.44.44 0 01.42.26zm3.31 0a.25.25 0 01.14.21.91.91 0 01-.05.27c-.15.69-.31 1.3-.47 1.83a.33.33 0 01-.27.14c-.32 0-.46-.09-.46-.3v-.22c.13-.48.27-1.08.41-1.82a.31.31 0 01.32-.2.82.82 0 01.38.08zm3 1.68a1.44 1.44 0 01-.37.71 14.86 14.86 0 01-1.11 1.29 9.16 9.16 0 01-1 1 .78.78 0 01-.36.11.37.37 0 01-.42-.41.63.63 0 01.29-.55 10.77 10.77 0 001.19-1 16.22 16.22 0 001.13-1.38.39.39 0 01.27-.11.38.38 0 01.34.33zm-1-5.43c-.56 0-.84-.21-.84-.66 0-.08.2-.91.63-2.46.05-.24.22-.36.52-.36s.52.12.52.36-.09.26-.12.36H261c.58 0 .89.26.89.74 0 .09-.28 1.12-.81 3.08H263a.37.37 0 01.41.41.37.37 0 01-.41.41h-3.13v.15a8.07 8.07 0 00.4 1.71 2.56 2.56 0 00.11.24A10.15 10.15 0 00261.8 20a.35.35 0 01.32-.22c.31 0 .47.15.47.42a1 1 0 01-.21.52 10 10 0 01-1.51 1.41.12.12 0 01-.08 0 8.91 8.91 0 00.48.8 8.75 8.75 0 001.73 1.94.42.42 0 01.1.26c0 .34-.16.51-.46.51a.49.49 0 01-.32-.14A8.6 8.6 0 01261 24a12.21 12.21 0 01-1-1.85.11.11 0 010-.09v3.06c0 .58-.27.89-.79.89a4.41 4.41 0 01-1.51-.32c-.25-.07-.37-.2-.37-.41s.16-.46.42-.47a6.72 6.72 0 001.1.31c.13 0 .2-.12.2-.36v-5.52h-2.55c-.28 0-.42-.13-.42-.41a.37.37 0 01.42-.41h3.71c.11-.4.2-.75.28-1.06zm-.66 2.5l.49.49a7.15 7.15 0 01.66.82 1 1 0 01.09.25c0 .28-.12.41-.36.41a.79.79 0 01-.42-.09l-.58-.75-.46-.45a.45.45 0 01-.16-.32.36.36 0 01.41-.41 1.65 1.65 0 01.33.05zm.77-3.6c0 .15.13.21.43.21h2.4c.14-.49.2-.76.2-.78s-.1-.2-.32-.2H258a7.9 7.9 0 00-.22.77zM276 14.51c0 .25-.2.41-.57.47-1.26.14-2.93.26-5 .37h-.51a.52.52 0 01-.2.32 15.91 15.91 0 01-2 1.86l.28.16a14.63 14.63 0 012.39 1.67c.23-.23.44-.45.66-.69a26.16 26.16 0 001.92-2.52.48.48 0 01.42-.22.62.62 0 01.37.15.55.55 0 01.15.37.6.6 0 01-.09.31 20.61 20.61 0 01-1.73 2.24 10.33 10.33 0 01-1.09 1c1.25 0 2.42-.05 3.53-.1-.3-.38-.62-.76-1-1.16a.53.53 0 01-.16-.36.38.38 0 01.43-.43.77.77 0 01.31.11c.38.45.74.88 1.06 1.3a15.68 15.68 0 011.4 2.08.61.61 0 01.14.27.36.36 0 01-.41.41.58.58 0 01-.42-.16c-.29-.46-.56-.88-.79-1.22a.41.41 0 01-.16 0L271 21v4.83a.47.47 0 01-.52.52.47.47 0 01-.54-.52V21c-1.79.06-3.53.12-5.21.16-.32 0-.47-.19-.47-.58a.43.43 0 01.47-.48c1.71 0 3.33 0 4.85-.05 0 0 .05 0 .08-.07-1-.69-1.74-1.22-2.38-1.61s-1.19-.67-1.87-1a.46.46 0 01-.16-.36.41.41 0 01.47-.46.89.89 0 01.31.1l.81.44a16.52 16.52 0 001.83-1.64c-1.45.08-2.51.11-3.17.11-.38 0-.57-.17-.57-.52s.16-.43.48-.43c1.77 0 3.4 0 4.89-.14 1.87-.1 3.63-.26 5.23-.48.32.01.47.17.47.52zm-7.83 7.76a1.14 1.14 0 01-.22.58 16.79 16.79 0 01-2.66 3 .57.57 0 01-.37.16c-.39 0-.58-.17-.58-.52a.64.64 0 01.11-.37 16 16 0 002.83-3.12.42.42 0 01.38-.25.46.46 0 01.52.52zm5.59-.43c.4.46.76.89 1.1 1.3a13.85 13.85 0 011.45 2 .55.55 0 01.16.32c0 .35-.16.52-.47.52a.71.71 0 01-.48-.16q-.81-1.27-1.35-2c-.32-.41-.67-.83-1-1.27a.53.53 0 01-.16-.36c0-.31.14-.47.46-.47a1.18 1.18 0 01.3.12zm6.6-7.84a.44.44 0 01.18.31 1.18 1.18 0 010 .25 13.82 13.82 0 01-1.36 2.3l-.06.08a6.49 6.49 0 01.84.89c.39-.63.75-1.28 1.1-2a.48.48 0 01.41-.21.41.41 0 01.42.42.51.51 0 01-.11.31 24.19 24.19 0 01-1.26 2.23 10.94 10.94 0 01-.89 1.17 17.26 17.26 0 001.9-.24c-.08-.24-.15-.44-.22-.61a.45.45 0 010-.2c0-.24.13-.36.41-.36a.43.43 0 01.33.2 12.37 12.37 0 01.57 1.66 1.25 1.25 0 01.05.32c0 .24-.17.36-.52.36-.14 0-.25-.1-.32-.32a1.23 1.23 0 01-.05-.25l-1 .17v5.19a.47.47 0 11-.94 0V20.7c-.64.09-1.24.16-1.83.21-.28 0-.41-.19-.41-.57s.13-.4.41-.42h.51a15.69 15.69 0 001-1.32.62.62 0 01-.12-.08c-.35-.39-.64-.69-.88-.93s-.44-.38-.7-.58a.52.52 0 01-.15-.36.37.37 0 01.42-.42.89.89 0 01.31.1.34.34 0 00.09.08 18.29 18.29 0 001.16-2.21.36.36 0 01.36-.25.79.79 0 01.35.05zm-1 7.66a1.24 1.24 0 010 .3 26 26 0 01-.68 3.39.47.47 0 01-.42.25c-.32 0-.48-.14-.48-.41a.47.47 0 01.11-.3 24.63 24.63 0 00.68-3.34.32.32 0 01.36-.27c.3.04.46.18.46.42zm2.82.09c.08.44.15 1.14.23 2.1v.41c0 .24-.15.36-.42.36a.37.37 0 01-.43-.36c-.05-.88-.1-1.63-.18-2.26v-.2c0-.2.12-.3.37-.3a.44.44 0 01.46.29zm3.09-1a17.06 17.06 0 01-.32 2.33 5.15 5.15 0 01-.79 1.81 4.31 4.31 0 01-1.43 1.16h-.07c-.35 0-.52-.2-.52-.57a.4.4 0 01.31-.41 3.2 3.2 0 001.12-1 4.54 4.54 0 00.52-1.41 11.63 11.63 0 00.24-1.94c0-.24.17-.36.47-.36s.5.12.5.39zm1-6.24v.93h2.71a.47.47 0 010 .94h-3.5l-1.26 2.77a24.93 24.93 0 003.64-.43c-.25-.45-.51-.85-.75-1.2a.41.41 0 01-.11-.25c0-.24.15-.37.47-.37.11 0 .2.08.31.21a14.14 14.14 0 011.83 3.12 1.8 1.8 0 01.05.37c0 .28-.2.42-.57.42-.16 0-.28-.12-.36-.38s-.32-.77-.47-1.12a.36.36 0 01-.16 0c-1.76.32-3.43.55-5 .68-.32 0-.47-.19-.47-.57a.42.42 0 01.47-.47h.19l1.27-2.81h-1.46c-.32 0-.46-.15-.46-.47s.14-.47.46-.47h2.2v-.93a.52.52 0 111 0zm1.26 6.19v4a.58.58 0 00.13.44 1.21 1.21 0 00.7.13c.36 0 .57 0 .65-.12a.57.57 0 00.13-.36v-.81c0-.34.15-.51.42-.52s.44.21.47.61a4.67 4.67 0 01-.12 1.48.78.78 0 01-.39.42 3.18 3.18 0 01-1.16.14 2.31 2.31 0 01-1.42-.29 1.17 1.17 0 01-.31-1V20.7a.37.37 0 01.43-.42c.38 0 .54.15.54.42zM149.3 61.9h-2.14v4.56c0 .24-.13.36-.4.36s-.41-.12-.41-.36V61.9h-2.13c-.32 0-.47-.09-.47-.3s.15-.3.47-.3h5.08c.32 0 .47.1.47.3s-.15.3-.47.3zm5.05 4.94c-.27 0-.39-.12-.39-.36v-.31a3.72 3.72 0 01-.94.45 3.2 3.2 0 01-1.05.19 2.17 2.17 0 01-1.11-.25.9.9 0 01-.52-.84c0-.46.28-.81.86-1.06a4.51 4.51 0 011.7-.29h1.1c0-.57-.47-.85-1.28-.85a2.74 2.74 0 00-.81.12 1.23 1.23 0 00-.64.36.36.36 0 01-.26.16c-.3 0-.45-.11-.45-.35s.07-.19.22-.32a3 3 0 011.94-.58 2.44 2.44 0 011.61.44 1.37 1.37 0 01.46 1v2.14c-.04.23-.18.35-.44.35zM154 65h-.69c-1.39 0-2.09.25-2.09.75a.37.37 0 00.24.35 1.09 1.09 0 00.55.13 3.11 3.11 0 001.12-.23 2 2 0 00.87-.56zm3.39-3.1a.6.6 0 01-.39.1.64.64 0 01-.41-.12.35.35 0 01-.16-.3.37.37 0 01.16-.31.71.71 0 01.41-.12.67.67 0 01.39.12.38.38 0 01.17.31.36.36 0 01-.17.32zm-.39 4.93c-.27 0-.41-.12-.41-.37v-3.19c0-.24.14-.36.41-.36s.39.12.39.36v3.19c0 .25-.13.37-.39.37zm9.56-3.48l-1.69 3.24a.39.39 0 01-.37.21.32.32 0 01-.32-.21L162.79 64l-1.42 2.64a.35.35 0 01-.32.21.39.39 0 01-.37-.21L159 63.35a.27.27 0 01-.06-.17c0-.19.15-.28.44-.28a.35.35 0 01.33.2l1.38 2.65 1.42-2.63a.34.34 0 01.32-.22.4.4 0 01.34.22l1.37 2.63 1.35-2.65a.34.34 0 01.33-.2c.29 0 .44.09.44.28a.5.5 0 01-.1.17zm4.52 3.49c-.27 0-.39-.12-.39-.36v-.31a3.56 3.56 0 01-.94.45 3.2 3.2 0 01-1.05.19 2.17 2.17 0 01-1.11-.25.9.9 0 01-.52-.84c0-.46.28-.81.87-1.06a4.42 4.42 0 011.69-.29h1.06c0-.57-.47-.85-1.28-.85a2.74 2.74 0 00-.81.12 1.23 1.23 0 00-.6.36.36.36 0 01-.26.16c-.3 0-.45-.11-.45-.35s.07-.19.22-.32a3 3 0 011.94-.58 2.44 2.44 0 011.61.44 1.37 1.37 0 01.46 1v2.14c-.04.23-.18.35-.44.35zm-.39-1.84H170c-1.39 0-2.09.25-2.09.75a.37.37 0 00.24.35 1.09 1.09 0 00.55.13 3.21 3.21 0 001.13-.23 2.07 2.07 0 00.86-.56zm5.84 1.81c-.27 0-.39-.12-.39-.36v-2a.77.77 0 00-.39-.64 1.58 1.58 0 00-.9-.25 2.22 2.22 0 00-1.21.34c-.31.21-.47.42-.47.64v2c0 .24-.11.36-.34.36s-.45-.12-.45-.36v-3.28c0-.24.12-.36.39-.36s.4.12.4.36v.26a2.37 2.37 0 011.68-.62 2.53 2.53 0 011.47.43 1.27 1.27 0 01.6 1.07v2q0 .41-.39.41zm9.81-.54a4.2 4.2 0 01-2.08.42h-2c-.31 0-.47-.12-.47-.36v-4.67c0-.24.16-.36.47-.36h2.49a2.89 2.89 0 011.41.31 1.17 1.17 0 01.62 1c0 .62-.38 1-1.12 1.26a2 2 0 01.93.41 1.15 1.15 0 01-.26 2zm-.71-4.22a1.31 1.31 0 00-.66-.15h-2.18c-.13 0-.18.06-.18.14v1.55h1.76a2.39 2.39 0 001.11-.22.82.82 0 00.51-.74.66.66 0 00-.36-.58zm.14 2.44a2.88 2.88 0 00-1.4-.28h-1.76V66c0 .09 0 .13.18.13h1.79a2.72 2.72 0 001.11-.2c.37-.18.56-.41.56-.7a.86.86 0 00-.48-.74zm4.87-.89a2.73 2.73 0 00-1 .3 2.6 2.6 0 00-.49.41 1 1 0 00-.29.6v1.54a.32.32 0 01-.35.36c-.29 0-.43-.12-.43-.36v-3.18q0-.36.42-.36a.32.32 0 01.36.36v.49a2.1 2.1 0 011.65-.73c.3 0 .44.12.44.34s-.12.22-.31.23zm4.94 1.4h-3.24a1.17 1.17 0 00.45.86 1.52 1.52 0 001.05.35 1.5 1.5 0 00.86-.24 2.19 2.19 0 00.49-.51.39.39 0 01.35-.15.47.47 0 01.27.1.33.33 0 01.14.25c0 .16-.15.36-.42.61a2.49 2.49 0 01-1.72.55 2.46 2.46 0 01-1.72-.59 1.79 1.79 0 01-.59-1.4 1.71 1.71 0 01.66-1.34 2.49 2.49 0 011.65-.57 2.45 2.45 0 011.66.56 1.57 1.57 0 01.6 1.21c0 .2-.17.31-.49.31zm-.75-1.21a1.7 1.7 0 00-1-.26 1.54 1.54 0 00-.9.25 1.26 1.26 0 00-.51.66h2.83a.91.91 0 00-.42-.66zm5.94 3.05c-.27 0-.4-.12-.4-.36v-.31a3.56 3.56 0 01-.94.45 3.16 3.16 0 01-1.05.19 2.17 2.17 0 01-1.11-.25.9.9 0 01-.52-.84c0-.46.28-.81.87-1.06a4.43 4.43 0 011.7-.29h1.05c0-.57-.47-.85-1.28-.85a2.74 2.74 0 00-.81.12 1.23 1.23 0 00-.64.36.36.36 0 01-.26.16c-.3 0-.45-.11-.45-.35s.07-.19.23-.32a2.94 2.94 0 011.93-.58 2.44 2.44 0 011.61.44 1.37 1.37 0 01.46 1v2.14c0 .23-.16.35-.39.35zm-.4-1.87h-.68q-2.1 0-2.1.75a.37.37 0 00.24.35 1.09 1.09 0 00.55.13 3.21 3.21 0 001.13-.23 2.07 2.07 0 00.86-.56zm5.09 1.6a4.1 4.1 0 01-1.44.23 3.1 3.1 0 01-1.54-.35c-.43-.23-.64-.45-.64-.67s.15-.33.47-.33a.38.38 0 01.27.15 1.67 1.67 0 001.4.59c.88 0 1.33-.15 1.33-.46s-.2-.31-.59-.45l-.92-.22a6.89 6.89 0 01-1.19-.34c-.45-.19-.66-.44-.66-.75a.87.87 0 01.6-.81 3.24 3.24 0 011.45-.26 3.73 3.73 0 011.24.24q.75.28.75.69c0 .23-.15.34-.45.34-.1 0-.21-.09-.33-.26a1.39 1.39 0 00-1.16-.44c-.81 0-1.22.18-1.22.5 0 .11.12.21.36.28a8.15 8.15 0 00.89.22 8.55 8.55 0 011.36.4c.5.23.76.52.76.86s-.27.65-.74.84zm3.84.12h-.88c-.54 0-.81-.3-.81-.91v-2.15H207c-.31 0-.46-.1-.46-.31s.15-.31.46-.31h.59v-.66c0-.24.12-.36.38-.36s.41.12.41.36V63h.83c.3 0 .46.1.46.31s-.16.31-.46.31h-.83v2.12c0 .22 0 .33.15.33h.75c.3 0 .46.1.46.31s-.14.31-.44.31zm6.22.12a.35.35 0 01-.4-.39v-4.85a.4.4 0 01.8 0v4.85a.35.35 0 01-.4.39zm8.71-.01c-.27 0-.4-.12-.4-.36v-2.31a.6.6 0 00-.3-.46 1.09 1.09 0 00-.6-.16 1.51 1.51 0 00-.82.2c-.3.19-.45.36-.45.52v2.21c0 .24-.14.36-.41.36s-.4-.12-.4-.36v-2.21c0-.14-.12-.31-.35-.5a1.06 1.06 0 00-.65-.22 1.41 1.41 0 00-.87.27c-.28.22-.41.4-.41.54v2.12c0 .24-.14.36-.39.36s-.41-.12-.41-.36v-3.18c0-.24.12-.36.39-.36s.42.15.42.44a1.74 1.74 0 011.27-.49 1.68 1.68 0 011.4.6 2.33 2.33 0 011.68-.6 2 2 0 011.18.36 1.06 1.06 0 01.52.87v2.31c0 .29-.14.41-.4.41zm5.38-.6a2.64 2.64 0 01-1.78.6 2.39 2.39 0 01-.87-.16 1.26 1.26 0 01-.63-.41v1.19c0 .24-.13.36-.4.36s-.4-.12-.4-.36v-4.16c0-.24.13-.36.4-.36s.4.12.4.36v.27a2.07 2.07 0 011.67-.63 2.49 2.49 0 011.69.57 1.73 1.73 0 010 2.73zm-.55-2.3a1.61 1.61 0 00-1.11-.38 1.75 1.75 0 00-1.17.38 1.22 1.22 0 00-.45.95 1.24 1.24 0 00.36.94 1.52 1.52 0 001.14.4 1.67 1.67 0 001.17-.41 1.29 1.29 0 00.45-1 1.24 1.24 0 00-.39-.88zm3.37 2.92c-.27 0-.41-.12-.41-.36v-4.93c0-.23.14-.35.41-.35s.39.12.39.35v4.93q0 .36-.39.36zm6.14.02c-.27 0-.39-.12-.39-.36v-.31a3.63 3.63 0 01-1 .45 3.15 3.15 0 01-1 .19 2.24 2.24 0 01-1.12-.25.89.89 0 01-.51-.84c0-.46.28-.81.86-1.06a4.47 4.47 0 011.7-.29h1.06c-.05-.57-.47-.85-1.29-.85a2.63 2.63 0 00-.8.12 1.26 1.26 0 00-.65.36.36.36 0 01-.25.16c-.31 0-.45-.11-.45-.35s.06-.19.22-.32a2.94 2.94 0 011.93-.58 2.4 2.4 0 011.61.44 1.33 1.33 0 01.46 1v2.14q.05.35-.38.35zm-.39-1.84h-.69c-1.39 0-2.09.25-2.09.75a.37.37 0 00.24.35 1 1 0 00.55.13 3.11 3.11 0 001.12-.23 2.12 2.12 0 00.87-.56zm5.82 1.81c-.27 0-.4-.12-.4-.36v-2a.76.76 0 00-.38-.64 1.6 1.6 0 00-.9-.25 2.22 2.22 0 00-1.21.34c-.32.21-.48.42-.48.64v2q0 .36-.33.36c-.31 0-.45-.12-.45-.36v-3.28c0-.24.12-.36.39-.36s.39.12.39.36v.26a2.38 2.38 0 011.69-.62 2.49 2.49 0 011.46.43 1.25 1.25 0 01.61 1.07v2q.02.41-.39.41zm3.76-.12h-.87c-.54 0-.81-.3-.81-.91v-2.15h-.59c-.31 0-.46-.1-.46-.31s.15-.31.46-.31h.59v-.66c0-.24.12-.36.38-.36s.4.12.4.36V63h.84c.3 0 .46.1.46.31s-.16.31-.46.31h-.84v2.12c0 .22 0 .33.16.33h.74c.31 0 .46.1.46.31s-.15.31-.46.31zm10.43.13c-.13 0-.23-.1-.28-.28s-.09-.39-.13-.6a3.62 3.62 0 00-.24-.59 1.67 1.67 0 00-1.55-.87h-2.33v2q0 .36-.39.36c-.27 0-.4-.12-.4-.36v-4.8q0-.36.48-.36h3.39a2.21 2.21 0 011.35.42 1.18 1.18 0 01.11 1.93 2.28 2.28 0 01-1.08.53 2.12 2.12 0 01.94.6 3.12 3.12 0 01.46.81 2.74 2.74 0 01.19.89c0 .21-.18.32-.52.32zm-.73-4.68a1.39 1.39 0 00-.84-.24h-2.78c-.12 0-.18.06-.18.14v1.83H256a2.66 2.66 0 00.88-.14 1.45 1.45 0 00.69-.44.82.82 0 00.24-.54.7.7 0 00-.35-.61zm6.12 2.86h-3.24a1.2 1.2 0 00.45.86 1.52 1.52 0 001 .35 1.53 1.53 0 00.87-.24 2.42 2.42 0 00.48-.51.41.41 0 01.36-.15.5.5 0 01.27.1.31.31 0 01.13.25c0 .16-.14.36-.41.61a2.5 2.5 0 01-1.72.55 2.44 2.44 0 01-1.72-.59 1.77 1.77 0 01-.6-1.4 1.71 1.71 0 01.66-1.34 2.49 2.49 0 011.66-.57 2.44 2.44 0 011.65.56 1.58 1.58 0 01.61 1.21c.05.2-.12.31-.45.31zm-.75-1.21a1.67 1.67 0 00-1-.26 1.54 1.54 0 00-.9.25 1.28 1.28 0 00-.52.66h2.83a.91.91 0 00-.41-.66zm6.41-.32a2.55 2.55 0 00-.44.15 1 1 0 01.22.56 1 1 0 01-.65.9 2.92 2.92 0 01-1.32.31 2.83 2.83 0 01-.63-.07q-.18.11-.18.18s.09.08.29.14c.41.06 1 .17 1.79.34.63.17 1 .44 1 .83s-.27.59-.8.77a4.22 4.22 0 01-1.36.21 5 5 0 01-1.57-.21c-.54-.17-.79-.43-.79-.77s.37-.63 1.11-.81c-.32-.11-.47-.27-.47-.5a.57.57 0 01.29-.44 1 1 0 01-.63-.87 1.06 1.06 0 01.63-1 2.71 2.71 0 011.36-.32 2.85 2.85 0 011.23.26 1.88 1.88 0 01.91-.26c.24 0 .38.1.38.3s-.15.26-.37.3zm-2 2.79c-1.09.12-1.63.31-1.63.55s.5.39 1.52.39a3.9 3.9 0 00.78-.07c.34-.07.52-.18.52-.32s-.43-.39-1.2-.55zm.58-2.55a1.68 1.68 0 00-.76-.19 1.82 1.82 0 00-.79.16.56.56 0 00-.36.51q0 .28.42.45a2.05 2.05 0 00.78.14 1.43 1.43 0 00.68-.17c.25-.12.38-.26.38-.42a.58.58 0 00-.36-.48zm4.39-1.81a.59.59 0 01-.39.12.6.6 0 01-.4-.12.34.34 0 01-.17-.3.36.36 0 01.17-.31.65.65 0 01.4-.12.65.65 0 01.39.12.36.36 0 01.17.31.34.34 0 01-.17.3zm-.39 4.93c-.27 0-.4-.12-.4-.37v-3.19c0-.24.13-.36.4-.36s.39.12.39.36v3.19c0 .25-.13.37-.39.37zm5.64-.26a4.1 4.1 0 01-1.44.23 3.08 3.08 0 01-1.54-.35c-.43-.23-.64-.45-.64-.67s.15-.33.47-.33a.38.38 0 01.27.15 1.66 1.66 0 001.4.59c.88 0 1.33-.15 1.33-.46s-.2-.31-.6-.45l-.91-.22a6.89 6.89 0 01-1.19-.34c-.45-.19-.66-.44-.66-.75a.88.88 0 01.59-.81 3.29 3.29 0 011.46-.26 3.73 3.73 0 011.24.24c.49.19.75.42.75.69s-.15.34-.45.34c-.1 0-.21-.09-.33-.26a1.39 1.39 0 00-1.16-.44c-.81 0-1.22.18-1.22.5 0 .11.12.21.36.28a8.15 8.15 0 00.89.22 8.55 8.55 0 011.36.4c.5.23.76.52.76.86s-.27.65-.74.84zm3.83.12h-.87c-.54 0-.81-.3-.81-.91v-2.15H279c-.31 0-.46-.1-.46-.31s.15-.31.46-.31h.59v-.66c0-.24.12-.36.38-.36s.4.12.4.36V63h.84c.3 0 .46.1.46.31s-.16.31-.46.31h-.84v2.12c0 .22.05.33.16.33h.74c.31 0 .46.1.46.31s-.13.31-.44.31zm3.83-3.09a2.68 2.68 0 00-1 .3 2.6 2.6 0 00-.49.41 1 1 0 00-.29.6v1.54a.32.32 0 01-.35.36c-.29 0-.43-.12-.43-.36v-3.18q0-.36.42-.36a.32.32 0 01.36.36v.49A2.08 2.08 0 01285 63c.3 0 .44.12.44.34s-.13.25-.32.26zm5.23-.23l-2.66 4.25a.36.36 0 01-.3.17c-.29 0-.42-.1-.42-.28a.8.8 0 01.21-.44l.53-.76-1.94-2.94v-.18c0-.1.09-.28.29-.28a.47.47 0 01.39.19l1.7 2.54 1.61-2.54a.39.39 0 01.37-.19c.2 0 .3.09.3.28a.54.54 0 01-.08.18z" fill="#da4d6d"/></svg>