<svg xmlns="http://www.w3.org/2000/svg" xmlns:xlink="http://www.w3.org/1999/xlink" viewBox="0 0 441.14 80.04"><defs><radialGradient id="a" cx="223.09" cy="42.35" r="490.13" gradientUnits="userSpaceOnUse"><stop offset="0" stop-color="#fff"/><stop offset="0.5" stop-color="#ffebef"/><stop offset="1" stop-color="#ffccd9"/></radialGradient></defs><ellipse cx="39.5" cy="40.04" rx="39.5" ry="40" fill="url(#a)"/><ellipse cx="99.86" cy="40" rx="39.5" ry="40" fill="url(#a)"/><ellipse cx="160.21" cy="40" rx="39.5" ry="40" fill="url(#a)"/><ellipse cx="220.57" cy="40" rx="39.5" ry="40" fill="url(#a)"/><ellipse cx="280.93" cy="40" rx="39.5" ry="40" fill="url(#a)"/><ellipse cx="341.29" cy="40" rx="39.5" ry="40" fill="url(#a)"/><ellipse cx="401.64" cy="40" rx="39.5" ry="40" fill="url(#a)"/><path d="M55.34,34.82h-10V55.15a2.91,2.91,0,0,1-1.27,2.61,5.71,5.71,0,0,1-3.27.85,5.92,5.92,0,0,1-3.33-.86,2.92,2.92,0,0,1-1.28-2.6V34.82h-10a7.39,7.39,0,0,1-3.5-.64,1.89,1.89,0,0,1-1.14-1.68,1.91,1.91,0,0,1,1.19-1.72,7.52,7.52,0,0,1,3.45-.63H55.34a7.38,7.38,0,0,1,3.54.65A1.91,1.91,0,0,1,60,32.5a1.89,1.89,0,0,1-1.17,1.68A7.58,7.58,0,0,1,55.34,34.82Z" fill="#ccc"/><path d="M84.85,58.13H71a8.14,8.14,0,0,1-4.28-.83,2.9,2.9,0,0,1-1.29-2.64v-21A2.88,2.88,0,0,1,66.74,31,8.4,8.4,0,0,1,71,30.15H85.68a53.86,53.86,0,0,1,5.63.25,17.08,17.08,0,0,1,4.27,1,11.1,11.1,0,0,1,2.84,1.5,6.7,6.7,0,0,1,1.89,2,4.52,4.52,0,0,1,.65,2.32q0,4.2-6.81,6.15,8.94,1.76,8.94,6.83a5.74,5.74,0,0,1-2,4.23,11.8,11.8,0,0,1-5.25,2.78,27.46,27.46,0,0,1-4.77.75Q88.44,58.14,84.85,58.13ZM74.61,34.4v7.24H83a26.72,26.72,0,0,0,5.31-.4,5.14,5.14,0,0,0,2.86-1.53A2.53,2.53,0,0,0,92,37.92c0-1.42-.82-2.35-2.44-2.82a29.58,29.58,0,0,0-7.46-.7Zm9.56,11.31H74.61v8.17h9.86q9.32,0,9.31-4.15c0-1.41-.8-2.43-2.41-3.07A20.58,20.58,0,0,0,84.17,45.71Z" fill="#ccc"/><path d="M111.41,55.15v-22a2.89,2.89,0,0,1,1.27-2.58,5.75,5.75,0,0,1,3.28-.86,5.92,5.92,0,0,1,3.35.85,2.89,2.89,0,0,1,1.29,2.59v22a2.91,2.91,0,0,1-1.29,2.6,5.92,5.92,0,0,1-3.35.86,5.73,5.73,0,0,1-3.27-.87A2.93,2.93,0,0,1,111.41,55.15Z" fill="#ccc"/><path d="M143.2,46.16H140v9a2.93,2.93,0,0,1-1.27,2.62,5.91,5.91,0,0,1-3.31.84,5.66,5.66,0,0,1-3.4-.88,3,3,0,0,1-1.21-2.58V33.62A2.89,2.89,0,0,1,132.13,31a8.49,8.49,0,0,1,4.3-.82h14.94c2.06,0,3.82.05,5.29.16a20.2,20.2,0,0,1,4,.66,13.6,13.6,0,0,1,3.78,1.58,7.76,7.76,0,0,1,2.49,2.4,5.43,5.43,0,0,1,.85,2.89,5.74,5.74,0,0,1-2.86,5c-1.91,1.25-4.8,2.13-8.68,2.66a17.55,17.55,0,0,1,4.67,2.36,30.22,30.22,0,0,1,4,3.33,24.37,24.37,0,0,1,2.72,3.19,4.65,4.65,0,0,1,1,2,1.56,1.56,0,0,1-.57,1.1,4,4,0,0,1-1.56.85,7.54,7.54,0,0,1-2.29.32,6.62,6.62,0,0,1-2.6-.45A6.7,6.7,0,0,1,159.7,57c-.5-.46-1.19-1.14-2-2L154,51.22a24.57,24.57,0,0,0-3.55-3.17,9.71,9.71,0,0,0-3.17-1.49A17.49,17.49,0,0,0,143.2,46.16Zm5.26-11.76H140v7.7h8.22a36.23,36.23,0,0,0,5.57-.36,8.07,8.07,0,0,0,3.45-1.2,2.79,2.79,0,0,0,.23-4.39,6.21,6.21,0,0,0-2.66-1.33A30.4,30.4,0,0,0,148.46,34.4Z" fill="#ccc"/><path d="M54.34,33.76h-10V54.09a2.91,2.91,0,0,1-1.27,2.61,5.71,5.71,0,0,1-3.27.85,5.92,5.92,0,0,1-3.33-.86,2.92,2.92,0,0,1-1.28-2.6V33.76h-10a7.39,7.39,0,0,1-3.5-.64,1.89,1.89,0,0,1-1.14-1.68,1.91,1.91,0,0,1,1.19-1.72,7.52,7.52,0,0,1,3.45-.63H54.34a7.38,7.38,0,0,1,3.54.65A1.91,1.91,0,0,1,59,31.44a1.89,1.89,0,0,1-1.17,1.68A7.58,7.58,0,0,1,54.34,33.76Z" fill="#da4d6d"/><path d="M83.85,57.07H70a8.14,8.14,0,0,1-4.28-.83,2.9,2.9,0,0,1-1.29-2.64v-21a2.88,2.88,0,0,1,1.32-2.66A8.4,8.4,0,0,1,70,29.09H84.68a53.86,53.86,0,0,1,5.63.25,17.08,17.08,0,0,1,4.27.95,11.1,11.1,0,0,1,2.84,1.5,6.7,6.7,0,0,1,1.89,2,4.52,4.52,0,0,1,.65,2.32q0,4.2-6.81,6.15,8.94,1.76,8.94,6.83a5.74,5.74,0,0,1-2,4.23,11.9,11.9,0,0,1-5.25,2.78,27.46,27.46,0,0,1-4.77.75Q87.44,57.08,83.85,57.07ZM73.61,33.34v7.24H82a26.72,26.72,0,0,0,5.31-.4,5.14,5.14,0,0,0,2.86-1.53A2.53,2.53,0,0,0,91,36.86c0-1.42-.82-2.35-2.44-2.82a29.58,29.58,0,0,0-7.46-.7Zm9.56,11.3H73.61v8.18h9.86q9.32,0,9.31-4.15c0-1.41-.8-2.43-2.41-3.07A20.54,20.54,0,0,0,83.17,44.64Z" fill="#da4d6d"/><path d="M110.41,54.09v-22a2.89,2.89,0,0,1,1.27-2.58,5.75,5.75,0,0,1,3.28-.86,5.92,5.92,0,0,1,3.35.85,2.89,2.89,0,0,1,1.29,2.59v22a2.91,2.91,0,0,1-1.29,2.6,5.92,5.92,0,0,1-3.35.86,5.73,5.73,0,0,1-3.27-.87A2.93,2.93,0,0,1,110.41,54.09Z" fill="#da4d6d"/><path d="M142.2,45.1H139v9a2.93,2.93,0,0,1-1.27,2.62,5.91,5.91,0,0,1-3.31.84,5.66,5.66,0,0,1-3.4-.88,3,3,0,0,1-1.21-2.58V32.56a2.89,2.89,0,0,1,1.33-2.65,8.49,8.49,0,0,1,4.3-.82h14.94c2.06,0,3.82.05,5.29.16a20.2,20.2,0,0,1,4,.66,13.6,13.6,0,0,1,3.78,1.58,7.76,7.76,0,0,1,2.49,2.4,5.43,5.43,0,0,1,.85,2.89,5.74,5.74,0,0,1-2.86,5q-2.87,1.88-8.68,2.65a17.89,17.89,0,0,1,4.67,2.37,30.22,30.22,0,0,1,4,3.33,24.37,24.37,0,0,1,2.72,3.19,4.65,4.65,0,0,1,1,2,1.56,1.56,0,0,1-.57,1.1,4,4,0,0,1-1.56.85,7.54,7.54,0,0,1-2.29.32,6.62,6.62,0,0,1-2.6-.45A6.7,6.7,0,0,1,158.7,56c-.5-.46-1.19-1.14-2-2L153,50.16A24,24,0,0,0,149.42,47a9.71,9.71,0,0,0-3.17-1.49A17.49,17.49,0,0,0,142.2,45.1Zm5.26-11.76H139V41h8.22a36.23,36.23,0,0,0,5.57-.36,8.07,8.07,0,0,0,3.45-1.2,2.79,2.79,0,0,0,.23-4.39,6.21,6.21,0,0,0-2.66-1.33A30.4,30.4,0,0,0,147.46,33.34Z" fill="#da4d6d"/><path d="M32.11,18.87a1,1,0,0,1,.81.36,1.33,1.33,0,0,1,.23.84,4,4,0,0,1-.11.84.54.54,0,0,1-.57.36A.41.41,0,0,1,32,20.8a3.13,3.13,0,0,0,.16-.68c0-.34-.14-.52-.42-.52H22.45a.27.27,0,0,0-.31.31v.89a.42.42,0,0,1-.48.47.41.41,0,0,1-.47-.47v-1a.84.84,0,0,1,.95-.95Zm-.79,1.67a.28.28,0,0,1-.31.32h-.6a15.5,15.5,0,0,1,1.43.93c.22.08.32.2.32.36,0,.35-.16.52-.48.52a.83.83,0,0,1-.2-.08l-.8-.55a0,0,0,0,1,0,0c-1,.08-2,.13-3,.17v.71h3.44c.21,0,.32.1.32.3s-.11.38-.32.38H27.67v.57h5.11c.28,0,.43.13.43.41a.38.38,0,0,1-.43.42H21.62a.37.37,0,0,1-.43-.42c0-.28.13-.41.43-.41h5.1v-.57H23c-.22,0-.31-.12-.31-.38s.09-.3.31-.3h3.75v-.66c-1.43.08-2.82.15-4.17.19-.24,0-.36-.13-.36-.41a.34.34,0,0,1,.36-.38l1.82,0,.63-.8H23.07a.29.29,0,0,1-.32-.32.28.28,0,0,1,.32-.31H31A.28.28,0,0,1,31.32,20.54Zm1.56-6.46q0,.42-.36.42H27.67v.62h4.17a.37.37,0,1,1,0,.73H22.61c-.26,0-.38-.11-.38-.37s.12-.36.38-.36h4.11V14.5h-4.9q-.36,0-.36-.42a.32.32,0,0,1,.36-.36h4.9v-.21a.48.48,0,0,1,1,0v.21h4.85A.32.32,0,0,1,32.88,14.08Zm-1.51,2.4c.42,0,.63.16.63.47v.93c0,.35-.21.52-.63.52h-8.3c-.42,0-.62-.17-.62-.52V17c0-.31.2-.47.62-.47Zm-.3,1v-.21c0-.11,0-.16-.06-.16H23.43s-.05.05-.05.16v.21c0,.14,0,.2.05.2H31S31.07,17.66,31.07,17.52Zm-1.58,3.86a.4.4,0,0,1-.31-.42.15.15,0,0,1,0-.1H26l-.6.77c1.52,0,2.94-.09,4.25-.19Z" fill="#da4d6d"/><path d="M35.29,17.15a11,11,0,0,1,1.25,1.36.72.72,0,0,1,.11.31c0,.29-.16.42-.48.42a.34.34,0,0,1-.25-.1c-.42-.48-.86-1-1.31-1.42a.52.52,0,0,1-.11-.25c0-.31.17-.47.52-.47C35.1,17,35.18,17.06,35.29,17.15Zm1.45,3.49a16.05,16.05,0,0,1-.38,2.15,14.61,14.61,0,0,1-.76,2.07.49.49,0,0,1-.42.26c-.32,0-.47-.14-.47-.41a.35.35,0,0,1,.11-.21,14.81,14.81,0,0,0,.7-1.87,20.61,20.61,0,0,0,.45-2.2c0-.16.15-.25.36-.25S36.74,20.34,36.74,20.64Zm-1-6.92a10.45,10.45,0,0,1,.95,1.09.94.94,0,0,1,.09.31c0,.28-.16.42-.46.42a.34.34,0,0,1-.26-.11c-.32-.39-.65-.76-1-1.13a.66.66,0,0,1-.09-.27c0-.31.17-.47.52-.47C35.52,13.56,35.6,13.61,35.7,13.72Zm2.89-.33a.29.29,0,0,1,.15.22.63.63,0,0,1-.06.2,6.12,6.12,0,0,1-.81,1.11l.51.42c.18-.31.37-.65.56-1a.25.25,0,0,1,.26-.15.65.65,0,0,1,.3.09.28.28,0,0,1,.12.22.32.32,0,0,1-.06.15,11,11,0,0,1-1.26,1.9,8.34,8.34,0,0,0,.93-.13s0,0,0,0a.55.55,0,0,1-.05-.22c0-.2.12-.31.36-.31a.41.41,0,0,1,.22.11,6.87,6.87,0,0,1,.46.94.63.63,0,0,1,.06.2c0,.21-.12.32-.36.32a.25.25,0,0,1-.16-.06,3.47,3.47,0,0,1-.18-.33.13.13,0,0,1-.09,0l-.62.12v2.26c0,.22-.13.32-.37.32s-.31-.1-.31-.32V17.28c-.4.06-.79.11-1.15.14s-.36-.14-.36-.42a.33.33,0,0,1,.36-.37h.48a7.55,7.55,0,0,0,.51-.71c-.33-.27-.68-.53-1-.79a.35.35,0,0,1-.11-.21q0-.36.42-.36l.12,0c.2-.31.4-.67.61-1.08a.25.25,0,0,1,.27-.22A.66.66,0,0,1,38.59,13.39Zm-.91,4.36a.24.24,0,0,1,.11.19.53.53,0,0,1,0,.16,13.11,13.11,0,0,1-.38,1.4.36.36,0,0,1-.25.16c-.25,0-.38-.08-.38-.27a.28.28,0,0,1,.06-.2c.11-.35.24-.8.37-1.36,0-.11.12-.16.26-.16A.46.46,0,0,1,37.68,17.75Zm7.11,3.52c.14,0,.22-.08.22-.27v-.09a.2.2,0,0,0-.22-.21H37.43q-.36,0-.36-.42a.33.33,0,0,1,.36-.37h7.62c.56,0,.84.25.84.73v.63c0,.53-.28.79-.84.79H38.74c-.22,0-.32.12-.32.36a.14.14,0,0,0,.16.16h7.25c.38,0,.58.26.58.77a2.35,2.35,0,0,1-.16.76,2,2,0,0,1-.55.87,2.44,2.44,0,0,1-1.48.3c-1.25,0-3.18-.08-5.8-.21a.39.39,0,0,1-.37-.41c0-.28.15-.42.47-.42,2.23.14,4.13.2,5.7.2a1.43,1.43,0,0,0,1-.22.92.92,0,0,0,.28-.55c0-.21-.08-.32-.21-.32h-7.1c-.43,0-.63-.24-.63-.72a3.46,3.46,0,0,1,.12-.89.55.55,0,0,1,.56-.47h6.58Zm-5-3.44a9.9,9.9,0,0,1,.18,1c0,.11,0,.17,0,.21,0,.22-.1.31-.3.31s-.31-.08-.31-.25c-.06-.43-.1-.8-.15-1.11v-.09c0-.18.08-.27.25-.27A.36.36,0,0,1,39.83,17.83Zm3.08-3.12c0,.21-.1.3-.26.3H40.19c-.17,0-.25-.09-.25-.3s.08-.27.25-.27h2.46A.24.24,0,0,1,42.91,14.71Zm-.2-1c0,.17-.1.25-.27.25H40.51c-.18,0-.26-.08-.26-.25s.08-.27.26-.27h1.93A.24.24,0,0,1,42.71,13.67Zm-.06,2a.23.23,0,0,1-.26.26H40.57c-.19,0-.27-.08-.27-.26a.23.23,0,0,1,.27-.27h1.82A.24.24,0,0,1,42.65,15.7Zm0,1c0,.19-.09.27-.26.27H40.61c-.18,0-.26-.08-.26-.27s.08-.25.26-.25h1.78A.23.23,0,0,1,42.65,16.68Zm-.41.79c.35,0,.52.15.52.41v1.2c0,.28-.17.42-.52.42H40.87c-.32,0-.46-.14-.46-.42v-1.2c0-.26.14-.41.46-.41Zm-.16,1.25v-.48c0-.16-.08-.25-.22-.25h-.62c-.11,0-.15.09-.15.25v.48c0,.18,0,.26.15.26h.62C42,19,42.08,18.9,42.08,18.72Zm2.79-5.28a.34.34,0,0,1,.14.23.28.28,0,0,1-.06.14,5,5,0,0,1-.83,1.08l.46.43c.21-.32.41-.67.63-1a.25.25,0,0,1,.26-.16.65.65,0,0,1,.3.09.25.25,0,0,1,.12.21.31.31,0,0,1-.06.16,11.89,11.89,0,0,1-1.4,1.94,7.41,7.41,0,0,0,1.11-.16,1.05,1.05,0,0,1-.07-.11.52.52,0,0,1,0-.22q0-.3.36-.3a.43.43,0,0,1,.21.1,7.76,7.76,0,0,1,.73,1,1.57,1.57,0,0,1,.05.25c0,.21-.12.32-.36.32a.42.42,0,0,1-.22,0c-.1-.16-.18-.31-.26-.46a.31.31,0,0,1-.15,0,6.88,6.88,0,0,1-.68.14v2.3c0,.22-.12.32-.36.32s-.31-.1-.31-.32v-2.2q-.65.12-1.26.18c-.25,0-.37-.14-.37-.42s.12-.36.37-.37a2,2,0,0,0,.43,0,6.31,6.31,0,0,0,.59-.72c-.36-.32-.72-.62-1.07-.92a.36.36,0,0,1-.11-.2c0-.24.14-.37.42-.37a.39.39,0,0,1,.21.11l0,0a7.21,7.21,0,0,0,.64-1c0-.11.12-.16.26-.16A.62.62,0,0,1,44.87,13.44ZM44,17.75a.24.24,0,0,1,.11.19.4.4,0,0,1-.06.16c-.08.56-.16,1-.25,1.45a.33.33,0,0,1-.27.16c-.28,0-.41-.11-.41-.32a.17.17,0,0,1,0-.15c.09-.37.2-.84.31-1.41a.25.25,0,0,1,.27-.16A.46.46,0,0,1,44,17.75Zm2.19.19a5.86,5.86,0,0,1,.24,1,1.06,1.06,0,0,1,0,.2c0,.21-.12.3-.36.3a.28.28,0,0,1-.32-.3c-.06-.42-.12-.76-.19-1.06V18c0-.17.09-.27.3-.27A.34.34,0,0,1,46.14,17.94Z" fill="#da4d6d"/><path d="M55.23,20.75a.49.49,0,0,1-.26.41,18.44,18.44,0,0,1-2.39.62,7.18,7.18,0,0,1,.15,1.37,2.43,2.43,0,0,1-.31,1.16,1.63,1.63,0,0,1-.69.75,2,2,0,0,1-.94.22,3.71,3.71,0,0,1-1.1-.21c-.26-.11-.41-.25-.41-.47s.15-.5.41-.52a6.5,6.5,0,0,0,1.05.26.92.92,0,0,0,.45-.12,1.07,1.07,0,0,0,.43-.44,1.21,1.21,0,0,0,.16-.63,8.4,8.4,0,0,0-.09-1.2c-.93.17-2,.33-3.25.47-.27,0-.4-.18-.42-.47a.42.42,0,0,1,.36-.47c1.29-.1,2.3-.24,3-.37h0l-.24-.47a3.42,3.42,0,0,0-.59-.65.21.21,0,0,1-.11-.17.48.48,0,0,1,.52-.48.68.68,0,0,1,.3.14,5.86,5.86,0,0,1,.61.71l.06.08a4.1,4.1,0,0,0,.68-.51,3.05,3.05,0,0,0,.6-.65.86.86,0,0,0,.2-.35c0-.05-.05-.09-.15-.09H48.86c-.29,0-.42-.13-.42-.43a.37.37,0,0,1,.42-.41h5.22c.41,0,.63.17.63.52a1.12,1.12,0,0,1-.2.57,6,6,0,0,1-.87,1.1,6.86,6.86,0,0,1-1.09.89c.78-.15,1.49-.31,2.1-.48a.6.6,0,0,1,.22,0A.35.35,0,0,1,55.23,20.75Zm-.58-6.94c0,.23-.17.38-.52.43a22.84,22.84,0,0,1-2.69.33,25.7,25.7,0,0,1-2.58.19c-.34,0-.52-.15-.52-.46a.37.37,0,0,1,.42-.43c1,0,1.83-.06,2.64-.14a17.24,17.24,0,0,0,2.84-.44C54.51,13.29,54.65,13.47,54.65,13.81Zm-5.12,1.47a9.5,9.5,0,0,1,.52,1.56,1.3,1.3,0,0,1,.06.31c0,.25-.18.37-.52.37-.14,0-.24-.1-.31-.32a9.92,9.92,0,0,0-.47-1.45.64.64,0,0,1-.11-.32c0-.24.15-.36.47-.36A.46.46,0,0,1,49.53,15.28Zm2-.16a8.33,8.33,0,0,1,.57,1.31,1.21,1.21,0,0,1,.06.31c0,.28-.18.41-.52.41-.18,0-.3-.09-.38-.31a7.77,7.77,0,0,0-.41-1.3.45.45,0,0,1-.11-.26c0-.24.15-.37.47-.37A.48.48,0,0,1,51.58,15.12Zm3-.36a.34.34,0,0,1,.16.25.66.66,0,0,1-.06.22,10.76,10.76,0,0,1-1,1.92.36.36,0,0,1-.3.21q-.54,0-.54-.36a.3.3,0,0,1,0-.21,14.2,14.2,0,0,0,1-1.94.28.28,0,0,1,.31-.2A.66.66,0,0,1,54.55,14.76Zm2.09-.95v9.7a.63.63,0,0,0,.18.52,1.64,1.64,0,0,0,.92.16c.53,0,.84-.09.95-.28a1.54,1.54,0,0,0,.2-.81V21.22c0-.36.16-.55.47-.58s.49.26.52.68a12.34,12.34,0,0,1-.16,2.8,1.24,1.24,0,0,1-.5.78,2.69,2.69,0,0,1-1.48.28A2.94,2.94,0,0,1,56,24.84a1.36,1.36,0,0,1-.38-1.12V13.81a.42.42,0,0,1,.48-.46C56.47,13.35,56.64,13.51,56.64,13.81Z" fill="#da4d6d"/><path d="M63.22,19.6a14.3,14.3,0,0,1-.36,3.46,7.09,7.09,0,0,1-.68,1.8.73.73,0,0,1-.47.21c-.35,0-.52-.17-.54-.47a1,1,0,0,1,.12-.29A6.24,6.24,0,0,0,62,22.58a12.5,12.5,0,0,0,.33-3V14.44a.64.64,0,0,1,.72-.72,60.16,60.16,0,0,0,8.93-.48.5.5,0,0,1,.52.48c0,.21-.14.35-.41.42a55.8,55.8,0,0,1-8.41.41c-.28,0-.41.17-.41.52v.16h8.71c.48,0,.74.21.74.62v1.67c0,.46-.26.67-.74.67H68.34V19.3h4.58a.38.38,0,0,1,.43.41c0,.32-.15.47-.43.47H67.55c0,.37-.09.72-.15,1h4.28c.61,0,.93.34.93,1a11.61,11.61,0,0,1-.14,1.85,1.41,1.41,0,0,1-.59,1,3.29,3.29,0,0,1-1.4.24A9.09,9.09,0,0,1,68.23,25c-.25-.12-.37-.28-.37-.47,0-.39.17-.57.53-.57a8.33,8.33,0,0,0,2,.36,1.71,1.71,0,0,0,.78-.14.74.74,0,0,0,.33-.53,5.16,5.16,0,0,0,.1-1c0-.37-.17-.57-.47-.57h-4l-.11.34A4.15,4.15,0,0,1,66,24.14a6.25,6.25,0,0,1-2,1.12l-.12,0c-.34,0-.52-.2-.52-.57,0-.17.09-.29.31-.37a4.43,4.43,0,0,0,1.8-1A3.44,3.44,0,0,0,66.23,22a8.37,8.37,0,0,0,.38-1.82H64c-.28,0-.41-.15-.41-.47A.36.36,0,0,1,64,19.3h3.34V18.19H63.22Zm0-2.18h8.3c.16,0,.25-.11.25-.32v-.83a.24.24,0,0,0-.25-.27h-8.3Z" fill="#da4d6d"/><path d="M79.08,16c0,.32-.15.47-.41.47h-1v.43l1.59,2.5a1.06,1.06,0,0,1,.14.4c0,.32-.18.47-.52.47a.36.36,0,0,1-.35-.27l-.86-1.68v6.63a.47.47,0,1,1-.93,0V18.18l-.14.46c-.24.8-.44,1.42-.62,1.86a7.55,7.55,0,0,1-.6,1.34.47.47,0,0,1-.42.31.41.41,0,0,1-.47-.47.82.82,0,0,1,.1-.36,23.33,23.33,0,0,0,1.32-2.93,16.33,16.33,0,0,0,.53-2H75.22c-.28,0-.42-.15-.42-.47a.37.37,0,0,1,.42-.42h1.47V13.72a.47.47,0,1,1,.93,0v1.82h1A.37.37,0,0,1,79.08,16Zm2.59.15c.14-.3.27-.59.38-.88a.61.61,0,0,0,0-.11H79.46c-.3,0-.43-.15-.43-.47s.13-.41.43-.41h2.9c.08-.27.14-.52.22-.79a.5.5,0,0,1,.42-.21.53.53,0,0,1,.37.16.53.53,0,0,1,.15.36.66.66,0,0,1-.09.32,1.66,1.66,0,0,0-.06.16h2.72a.37.37,0,0,1,.41.41c0,.32-.15.47-.41.47h-3c0,.14-.09.27-.12.38s-.17.42-.25.61h2.15c.55,0,.83.27.83.79v7.24h.52c.32,0,.48.13.48.41a.42.42,0,0,1-.48.47h-7.3c-.29,0-.42-.16-.42-.47s.13-.41.42-.41h.78V16.9c0-.52.28-.79.84-.79ZM84.78,18v-.73a.28.28,0,0,0-.31-.31H81a.27.27,0,0,0-.31.31V18Zm0,2V18.87H80.66V20Zm0,2v-1.2H80.66v1.2Zm0,2.08V22.88H80.66v1.26Z" fill="#da4d6d"/><path d="M93.54,13.92c.46,0,.76.27.95.79a21.81,21.81,0,0,0,2,5,15.79,15.79,0,0,0,1.82,2.67,21.67,21.67,0,0,0,1.91,2,.5.5,0,0,1,.16.37.46.46,0,0,1-.47.47A.58.58,0,0,1,99.5,25a16.74,16.74,0,0,1-2.11-2.15,18.77,18.77,0,0,1-2.17-3.31,16.71,16.71,0,0,1-.82-2,18.13,18.13,0,0,1-2.12,4,14.75,14.75,0,0,1-3.44,3.49.8.8,0,0,1-.41.16c-.32,0-.48-.17-.48-.52a.45.45,0,0,1,.27-.37,14.26,14.26,0,0,0,3.69-3.79,22.75,22.75,0,0,0,2-4.22.15.15,0,0,1,0-.07c-.12-.38-.23-.75-.32-1.13-.06-.22-.15-.33-.31-.33h-3c-.33,0-.47-.14-.47-.46a.41.41,0,0,1,.47-.47Z" fill="#da4d6d"/><path d="M102.63,14.34c0,.55,0,1.08-.07,1.57h1.06V13.67c0-.32.14-.48.46-.48a.42.42,0,0,1,.48.48v2.24h.83a.37.37,0,0,1,.42.41c0,.32-.15.47-.42.47h-.83v3c.23-.14.47-.3.73-.48l.21,0c.31,0,.47.17.47.52a.56.56,0,0,1-.24.4,9.44,9.44,0,0,1-1.17.8v3.84a.42.42,0,0,1-.48.48c-.32,0-.46-.16-.46-.48V21.52a13,13,0,0,1-1.58.67.76.76,0,0,1-.3.07c-.32,0-.48-.18-.48-.52a.49.49,0,0,1,.38-.52,12.46,12.46,0,0,0,1.75-.72l.23-.11v-3.6h-1.15A16.3,16.3,0,0,1,102,19a.52.52,0,0,1-.58.41.32.32,0,0,1-.36-.36,1,1,0,0,1,.06-.36,17,17,0,0,0,.62-4.43.38.38,0,0,1,.42-.43C102.47,13.81,102.63,14,102.63,14.34Zm5.17-.78c0,.52-.09,1-.16,1.4h4.7q1,0,1,.84a53.13,53.13,0,0,1-.32,6.7,4,4,0,0,1-.76,2.18,2.12,2.12,0,0,1-1.63.6,4.6,4.6,0,0,1-1.47-.32.49.49,0,0,1-.36-.52c0-.34.15-.52.47-.52a5.48,5.48,0,0,0,1.36.32,1.12,1.12,0,0,0,1-.45,4.13,4.13,0,0,0,.46-1.63,45,45,0,0,0,.26-5.94.33.33,0,0,0-.37-.37h-.41c0,.2,0,.39-.06.57a15.87,15.87,0,0,1-.85,3.46,12.51,12.51,0,0,1-1.35,2.62,14,14,0,0,1-2.18,2.36.69.69,0,0,1-.36.1.44.44,0,0,1-.34-.14.56.56,0,0,1-.14-.38.41.41,0,0,1,.16-.36,14,14,0,0,0,2.07-2.18,10.28,10.28,0,0,0,1.29-2.43,13.58,13.58,0,0,0,.85-3.62h-1.14c0,.06,0,.1,0,.15a14.51,14.51,0,0,1-.83,2.68,11.47,11.47,0,0,1-1.16,2.2,7,7,0,0,1-1.3,1.54.49.49,0,0,1-.32.1.41.41,0,0,1-.33-.16.48.48,0,0,1-.14-.36.45.45,0,0,1,.16-.32,8,8,0,0,0,1.23-1.44,14.08,14.08,0,0,0,1.09-2.08,12.42,12.42,0,0,0,.71-2.31h-1.11c0,.12-.06.23-.08.33a7.68,7.68,0,0,1-1.11,2.22.7.7,0,0,1-.47.27c-.39,0-.58-.17-.58-.52a.62.62,0,0,1,.16-.27,6.09,6.09,0,0,0,1.07-2,10.92,10.92,0,0,0,.39-2.32c0-.27.16-.41.48-.41S107.8,13.29,107.8,13.56Z" fill="#da4d6d"/><path d="M120.48,13.4a.79.79,0,0,1,.28,0,.55.55,0,0,1,.24,0,.66.66,0,0,1,.42.27,11.77,11.77,0,0,0,1,1.08,13.22,13.22,0,0,0,1.35-1.24.57.57,0,0,1,.37-.22.42.42,0,0,1,.47.47.57.57,0,0,1-.22.43A10.4,10.4,0,0,1,123,15.35a5.88,5.88,0,0,0,.93.76,9.37,9.37,0,0,0,1.51-1.26.57.57,0,0,1,.37-.2.42.42,0,0,1,.47.47.57.57,0,0,1-.21.42,11.92,11.92,0,0,1-1.38,1.06,13.82,13.82,0,0,0,2.11,1,.43.43,0,0,1,.31.41c0,.35-.2.52-.58.52a1.66,1.66,0,0,1-.53-.15,12.19,12.19,0,0,1-3.21-1.9,10.34,10.34,0,0,1-1.87-2c-.08.13-.16.25-.25.37a13.16,13.16,0,0,1-2.06,1.83,15.46,15.46,0,0,1-2.9,1.65,1.17,1.17,0,0,1-.55.16c-.35,0-.52-.15-.52-.47a.48.48,0,0,1,.25-.46,17.65,17.65,0,0,0,2.26-1c-.32-.27-.59-.47-.79-.63s-.4-.28-.63-.43a.5.5,0,0,1-.16-.36.41.41,0,0,1,.47-.47.77.77,0,0,1,.31.11q.38.24.69.48a6.9,6.9,0,0,1,.89.76s0,.05,0,.05a9.51,9.51,0,0,0,1.31-1c.45-.36.68-.6.68-.73a.1.1,0,0,0-.11-.1h-3.07c-.3,0-.43-.13-.43-.43s.13-.41.43-.41Zm4.08,5.36a.67.67,0,0,1,.77.74v1.82a.69.69,0,0,1-.77.78h-1.1l-.42,2h3.34c.32,0,.48.14.48.46a.42.42,0,0,1-.48.47H115.31a.41.41,0,0,1-.47-.47c0-.32.15-.46.47-.46h3.11l-.49-2h-1.1a.69.69,0,0,1-.79-.78V19.5c0-.48.26-.74.79-.74Zm-.16,2.1V20a.27.27,0,0,0-.31-.3H117.3c-.21,0-.32.1-.32.3v.9c0,.24.11.36.32.36h6.79C124.29,21.22,124.4,21.1,124.4,20.86Zm-1-3.55c0,.32-.15.47-.43.47H118.5c-.29,0-.42-.15-.42-.47s.13-.41.42-.41H123A.38.38,0,0,1,123.41,17.31ZM122,24.14l.44-2h-3.54l.5,2Z" fill="#da4d6d"/><path d="M131.27,13.48,133,15.34a.53.53,0,0,1,.16.36.44.44,0,0,1-.46.46.36.36,0,0,1-.26-.11L131,14.36a.3.3,0,0,0-.19-.12c-.05,0-.11.06-.16.14a17.07,17.07,0,0,1-1.54,2,.54.54,0,0,1,.28-.08h2.77a.38.38,0,0,1,.42.42.37.37,0,0,1-.42.41h-1v1.52h1.4a.38.38,0,0,1,.43.41c0,.32-.15.47-.43.47h-1.4V23.5a10.85,10.85,0,0,0,1.25-.35.54.54,0,0,1,.21,0,.36.36,0,0,1,.37.36.44.44,0,0,1-.27.41,11.46,11.46,0,0,1-1.84.59c-.59.13-1.3.26-2.13.4a.41.41,0,0,1-.41-.47.43.43,0,0,1,.36-.47c.68-.08,1.21-.16,1.62-.24V19.55h-1.51c-.28,0-.42-.15-.42-.47a.37.37,0,0,1,.42-.41h1.51V17.15h-.89a.36.36,0,0,1-.41-.41.34.34,0,0,1,.07-.26,1.9,1.9,0,0,1-.18.2.64.64,0,0,1-.41.22.44.44,0,0,1-.47-.47.63.63,0,0,1,.2-.43,11.68,11.68,0,0,0,2-2.37c.18-.32.37-.48.56-.48S131.05,13.27,131.27,13.48Zm-1.92,6.86c.08.4.18,1,.28,1.9,0,.19,0,.31,0,.39,0,.24-.15.36-.41.36s-.4-.12-.42-.36q-.09-1.2-.24-2.07l0-.17c0-.21.12-.32.37-.32A.43.43,0,0,1,129.35,20.34Zm3.31,0a.28.28,0,0,1,.14.22.85.85,0,0,1-.05.26c-.15.7-.31,1.3-.47,1.83a.32.32,0,0,1-.27.15c-.32,0-.46-.1-.46-.31s0-.17,0-.21c.13-.48.27-1.08.41-1.83a.32.32,0,0,1,.32-.2A.82.82,0,0,1,132.66,20.32Zm3,1.68a1.44,1.44,0,0,1-.37.71A14.86,14.86,0,0,1,134.14,24a9.16,9.16,0,0,1-1,1,.78.78,0,0,1-.36.11.37.37,0,0,1-.42-.41.63.63,0,0,1,.29-.55,10.77,10.77,0,0,0,1.19-1.05,14.79,14.79,0,0,0,1.13-1.38.43.43,0,0,1,.27-.1A.37.37,0,0,1,135.62,22Zm-1-5.42c-.56,0-.84-.22-.84-.67,0-.08.2-.91.63-2.46,0-.24.22-.35.52-.35s.52.11.52.35l-.12.36H138c.58,0,.89.26.89.74,0,.09-.28,1.12-.81,3.08H140a.42.42,0,0,1,0,.83h-3.13v.14a7.93,7.93,0,0,0,.4,1.71,2.56,2.56,0,0,0,.11.24,10.15,10.15,0,0,0,1.41-1.36.36.36,0,0,1,.32-.21c.31,0,.47.14.47.41a1,1,0,0,1-.21.52,9.51,9.51,0,0,1-1.51,1.41.12.12,0,0,1-.08,0,8.91,8.91,0,0,0,.48.8A8.53,8.53,0,0,0,140,24.08a.42.42,0,0,1,.1.26c0,.34-.16.52-.46.52a.5.5,0,0,1-.32-.15A8.6,8.6,0,0,1,138,23.22a12.12,12.12,0,0,1-1-1.84.14.14,0,0,1,0-.1v3.06c0,.58-.27.89-.79.89a4.41,4.41,0,0,1-1.51-.32c-.25-.07-.37-.2-.37-.41s.16-.46.42-.47a6.72,6.72,0,0,0,1.1.31c.13,0,.2-.12.2-.36V18.46h-2.55a.42.42,0,1,1,0-.83h3.71c.11-.4.2-.75.28-1.05Zm-.57,2.5.49.5a7,7,0,0,1,.66.81,1,1,0,0,1,.09.25q0,.42-.36.42a.79.79,0,0,1-.42-.1c-.24-.32-.44-.56-.58-.74l-.46-.46a.43.43,0,0,1-.16-.32.37.37,0,0,1,.41-.41A3,3,0,0,1,134,19.08Zm.77-3.6c0,.15.13.22.43.22h2.4c.14-.5.2-.77.2-.79s-.1-.2-.32-.2H135C134.85,15.2,134.78,15.46,134.78,15.48Z" fill="#da4d6d"/><path d="M153,13.72c0,.25-.2.42-.57.47-1.26.15-2.93.27-5,.37l-.51,0a.52.52,0,0,1-.2.32,16,16,0,0,1-2,1.87,1.47,1.47,0,0,1,.28.16,14.57,14.57,0,0,1,2.39,1.66c.23-.22.44-.45.66-.69a26.16,26.16,0,0,0,1.92-2.52.5.5,0,0,1,.42-.21.61.61,0,0,1,.37.14.55.55,0,0,1,.15.38.59.59,0,0,1-.09.3,21.82,21.82,0,0,1-1.68,2.18A12.67,12.67,0,0,1,148,19.26c1.25,0,2.42-.06,3.53-.11-.3-.37-.62-.76-1-1.16a.53.53,0,0,1-.16-.36.38.38,0,0,1,.43-.43.77.77,0,0,1,.31.11c.38.45.74.88,1.06,1.31a15,15,0,0,1,1.4,2.08.6.6,0,0,1,.14.26.37.37,0,0,1-.41.42.63.63,0,0,1-.42-.16c-.29-.47-.56-.88-.79-1.23a.29.29,0,0,1-.16,0l-3.95.17V25a.47.47,0,0,1-.52.52.47.47,0,0,1-.54-.52V20.23c-1.79.07-3.53.12-5.21.16-.32,0-.47-.19-.47-.57a.43.43,0,0,1,.47-.48c1.71,0,3.33,0,4.85-.06,0,0,0,0,.08-.06-.95-.7-1.74-1.23-2.38-1.62s-1.19-.66-1.87-1a.5.5,0,0,1-.16-.36.41.41,0,0,1,.47-.47.89.89,0,0,1,.31.1l.81.45a17.57,17.57,0,0,0,1.83-1.65c-1.45.08-2.51.11-3.17.11-.38,0-.57-.17-.57-.52s.16-.43.48-.43c1.77,0,3.4-.05,4.89-.14,1.87-.1,3.63-.26,5.23-.48C152.85,13.19,153,13.37,153,13.72Zm-7.83,7.76a1.11,1.11,0,0,1-.22.58,16.79,16.79,0,0,1-2.66,3,.57.57,0,0,1-.37.16c-.39,0-.58-.17-.58-.52a.64.64,0,0,1,.11-.37,16.19,16.19,0,0,0,2.82-3.12.43.43,0,0,1,.38-.26A.47.47,0,0,1,145.18,21.48Zm5.59-.42c.4.45.76.88,1.1,1.29a14.41,14.41,0,0,1,1.45,2,.55.55,0,0,1,.16.32c0,.35-.16.52-.47.52a.71.71,0,0,1-.48-.16q-.81-1.28-1.35-2c-.32-.4-.67-.83-1-1.27a.53.53,0,0,1-.16-.36c0-.31.14-.47.46-.47A1,1,0,0,1,150.77,21.06Z" fill="#da4d6d"/><path d="M157.36,13.25a.44.44,0,0,1,.18.31,1.18,1.18,0,0,1,0,.25,13.43,13.43,0,0,1-1.36,2.3s0,.07-.06.08a7.12,7.12,0,0,1,.84.89c.39-.62.75-1.28,1.1-2a.48.48,0,0,1,.41-.21.46.46,0,0,1,.3.12.47.47,0,0,1,.12.31.5.5,0,0,1-.11.3,22.94,22.94,0,0,1-1.26,2.23,10.94,10.94,0,0,1-.89,1.17,17.26,17.26,0,0,0,1.9-.24c-.08-.24-.15-.44-.22-.61a.45.45,0,0,1-.05-.2c0-.24.13-.36.41-.36a.46.46,0,0,1,.33.2,12.53,12.53,0,0,1,.57,1.67,1.13,1.13,0,0,1,.05.32c0,.24-.17.36-.52.36-.14,0-.25-.11-.32-.32a1.47,1.47,0,0,1-.05-.26l-1,.18V25a.47.47,0,1,1-.94,0V19.91c-.64.09-1.24.16-1.83.21-.28,0-.41-.18-.41-.57s.13-.4.41-.41a4.18,4.18,0,0,0,.51,0,13,13,0,0,0,1-1.32.36.36,0,0,1-.12-.08c-.35-.38-.64-.69-.88-.93s-.44-.37-.7-.57a.54.54,0,0,1-.15-.37.38.38,0,0,1,.42-.42.77.77,0,0,1,.31.11l.09.08a19.31,19.31,0,0,0,1.16-2.22.36.36,0,0,1,.36-.25A.79.79,0,0,1,157.36,13.25Zm-1,7.66a1.31,1.31,0,0,1,0,.31,25.84,25.84,0,0,1-.68,3.38.48.48,0,0,1-.42.26c-.32,0-.48-.15-.48-.42a.47.47,0,0,1,.11-.3,24.63,24.63,0,0,0,.68-3.34c0-.17.15-.26.36-.26S156.39,20.67,156.39,20.91Zm2.82.09c.08.44.15,1.14.23,2.1,0,.2,0,.33,0,.41,0,.24-.15.36-.42.36a.37.37,0,0,1-.43-.36c0-.88-.1-1.63-.18-2.25l0-.2c0-.2.12-.31.37-.31A.44.44,0,0,1,159.21,21Zm3.09-1A17.22,17.22,0,0,1,162,22.3a5.17,5.17,0,0,1-.79,1.8,4.31,4.31,0,0,1-1.43,1.16l-.07,0c-.35,0-.52-.2-.52-.57a.4.4,0,0,1,.31-.41,3.11,3.11,0,0,0,1.12-1,4.47,4.47,0,0,0,.52-1.4,11.92,11.92,0,0,0,.24-1.95c0-.24.17-.36.47-.36S162.3,19.7,162.3,20Zm1-6.24v.93h2.71a.47.47,0,0,1,0,.94h-3.5l-1.26,2.77a25,25,0,0,0,3.64-.42,12.08,12.08,0,0,0-.75-1.2.45.45,0,0,1-.11-.26c0-.24.15-.37.47-.37.11,0,.2.08.31.21a14.61,14.61,0,0,1,1.83,3.12,1.89,1.89,0,0,1,0,.38c0,.28-.2.41-.57.41-.16,0-.28-.12-.36-.37s-.32-.78-.47-1.12a.53.53,0,0,1-.16,0c-1.76.32-3.43.55-5,.68-.32,0-.47-.18-.47-.57s.15-.45.47-.47h.19l1.27-2.81H160.1c-.32,0-.46-.15-.46-.47s.14-.47.46-.47h2.2v-.93a.52.52,0,1,1,1,0Zm1.26,6.19v4a.58.58,0,0,0,.13.44,1.21,1.21,0,0,0,.7.13c.36,0,.57,0,.65-.12a.57.57,0,0,0,.13-.36v-.81c0-.33.15-.51.42-.52s.44.21.47.61a4.67,4.67,0,0,1-.12,1.48.78.78,0,0,1-.39.42,3.18,3.18,0,0,1-1.16.14A2.31,2.31,0,0,1,164,25a1.15,1.15,0,0,1-.31-1V19.91c0-.27.13-.41.43-.41S164.6,19.64,164.6,19.91Z" fill="#da4d6d"/><path d="M26.3,61.12H24.16v4.55c0,.24-.13.36-.4.36s-.41-.12-.41-.36V61.12H21.22c-.32,0-.47-.1-.47-.3s.15-.31.47-.31H26.3c.32,0,.47.1.47.31S26.62,61.12,26.3,61.12Z" fill="#da4d6d"/><path d="M31.35,66.05c-.27,0-.39-.12-.39-.36v-.31a3.72,3.72,0,0,1-.94.45A3.2,3.2,0,0,1,29,66a2.17,2.17,0,0,1-1.11-.25.9.9,0,0,1-.52-.84c0-.46.28-.81.86-1.06a4.51,4.51,0,0,1,1.7-.29H31c0-.57-.47-.85-1.28-.85a2.74,2.74,0,0,0-.81.12,1.23,1.23,0,0,0-.64.36.36.36,0,0,1-.26.16c-.3,0-.45-.11-.45-.35s.07-.19.22-.32a3,3,0,0,1,1.94-.58,2.38,2.38,0,0,1,1.61.45,1.33,1.33,0,0,1,.46,1v2.14C31.75,65.93,31.61,66.05,31.35,66.05ZM31,64.18h-.69c-1.39,0-2.09.25-2.09.75a.37.37,0,0,0,.24.35,1.09,1.09,0,0,0,.55.13,2.92,2.92,0,0,0,1.12-.23,2,2,0,0,0,.87-.56Z" fill="#da4d6d"/><path d="M34.39,61.12a.67.67,0,0,1-.39.12.71.71,0,0,1-.41-.12.38.38,0,0,1,0-.62.71.71,0,0,1,.41-.12.67.67,0,0,1,.39.12.37.37,0,0,1,0,.62ZM34,66c-.27,0-.41-.12-.41-.37V62.48c0-.24.14-.36.41-.36s.39.12.39.36v3.19C34.39,65.92,34.26,66,34,66Z" fill="#da4d6d"/><path d="M43.56,62.56,41.87,65.8a.39.39,0,0,1-.37.21.32.32,0,0,1-.32-.21l-1.39-2.63L38.37,65.8a.35.35,0,0,1-.32.21.39.39,0,0,1-.37-.21L36,62.56a.27.27,0,0,1-.06-.17c0-.18.15-.28.44-.28a.35.35,0,0,1,.33.2L38.05,65l1.42-2.63a.34.34,0,0,1,.32-.22.4.4,0,0,1,.34.22L41.5,65l1.35-2.65a.34.34,0,0,1,.33-.2c.29,0,.44.1.44.28A.5.5,0,0,1,43.56,62.56Z" fill="#da4d6d"/><path d="M48.08,66.05c-.27,0-.39-.12-.39-.36v-.31a3.56,3.56,0,0,1-.94.45,3.2,3.2,0,0,1-1,.19,2.17,2.17,0,0,1-1.11-.25.9.9,0,0,1-.52-.84c0-.46.28-.81.87-1.06a4.42,4.42,0,0,1,1.69-.29h1.06c0-.57-.47-.85-1.28-.85a2.74,2.74,0,0,0-.81.12,1.23,1.23,0,0,0-.64.36.36.36,0,0,1-.26.16c-.3,0-.45-.11-.45-.35s.07-.19.22-.32a3,3,0,0,1,1.94-.58,2.38,2.38,0,0,1,1.61.45,1.33,1.33,0,0,1,.46,1v2.14C48.48,65.93,48.34,66.05,48.08,66.05Zm-.39-1.87H47c-1.39,0-2.09.25-2.09.75a.37.37,0,0,0,.24.35,1.09,1.09,0,0,0,.55.13,3,3,0,0,0,1.13-.23,2,2,0,0,0,.86-.56Z" fill="#da4d6d"/><path d="M53.53,66c-.27,0-.39-.12-.39-.36v-2a.77.77,0,0,0-.39-.64,1.66,1.66,0,0,0-.9-.25,2.22,2.22,0,0,0-1.21.34c-.31.21-.47.42-.47.64v2c0,.24-.11.36-.34.36s-.45-.12-.45-.36V62.47c0-.24.12-.36.39-.36s.4.12.4.36v.26a2.37,2.37,0,0,1,1.68-.62,2.53,2.53,0,0,1,1.47.43,1.27,1.27,0,0,1,.6,1.07v2Q53.92,66,53.53,66Z" fill="#da4d6d"/><path d="M63.34,65.48a4.2,4.2,0,0,1-2.08.42h-2c-.31,0-.47-.12-.47-.36V60.87c0-.24.16-.36.47-.36h2.49a2.78,2.78,0,0,1,1.41.32,1.16,1.16,0,0,1,.62,1c0,.61-.38,1-1.12,1.26a1.92,1.92,0,0,1,.93.4,1.15,1.15,0,0,1-.26,2Zm-.71-4.22a1.32,1.32,0,0,0-.66-.14H59.79c-.13,0-.18.05-.18.13v1.56h1.76a2.39,2.39,0,0,0,1.11-.23.82.82,0,0,0,.51-.73A.68.68,0,0,0,62.63,61.26Zm.14,2.44a2.88,2.88,0,0,0-1.4-.28H59.61v1.74c0,.09,0,.13.18.13h1.79a2.72,2.72,0,0,0,1.11-.2.8.8,0,0,0,.56-.7A.87.87,0,0,0,62.77,63.7Z" fill="#da4d6d"/><path d="M67.64,62.81a2.93,2.93,0,0,0-1,.3,2.33,2.33,0,0,0-.49.42,1,1,0,0,0-.29.6v1.53a.32.32,0,0,1-.35.36c-.29,0-.43-.12-.43-.36V62.48q0-.36.42-.36a.32.32,0,0,1,.36.36V63a2.1,2.1,0,0,1,1.65-.73c.3,0,.44.12.44.34S67.83,62.8,67.64,62.81Z" fill="#da4d6d"/><path d="M72.58,64.2H69.34a1.17,1.17,0,0,0,.45.86,1.52,1.52,0,0,0,1,.35,1.43,1.43,0,0,0,.86-.24,2,2,0,0,0,.49-.51.39.39,0,0,1,.35-.15.43.43,0,0,1,.27.11.29.29,0,0,1,.14.24c0,.16-.15.36-.42.61a2.49,2.49,0,0,1-1.72.55,2.46,2.46,0,0,1-1.72-.59A1.79,1.79,0,0,1,68.5,64a1.73,1.73,0,0,1,.66-1.34,2.49,2.49,0,0,1,1.65-.57,2.45,2.45,0,0,1,1.66.56,1.57,1.57,0,0,1,.6,1.21C73.07,64.1,72.9,64.2,72.58,64.2ZM71.83,63a1.7,1.7,0,0,0-1-.26,1.47,1.47,0,0,0-.9.26,1.19,1.19,0,0,0-.51.66h2.83A.91.91,0,0,0,71.83,63Z" fill="#da4d6d"/><path d="M77.77,66.05c-.27,0-.4-.12-.4-.36v-.31a3.56,3.56,0,0,1-.94.45,3.16,3.16,0,0,1-1.05.19,2.17,2.17,0,0,1-1.11-.25.9.9,0,0,1-.52-.84c0-.46.28-.81.87-1.06a4.43,4.43,0,0,1,1.7-.29h1.05c0-.57-.47-.85-1.28-.85a2.74,2.74,0,0,0-.81.12,1.23,1.23,0,0,0-.64.36.36.36,0,0,1-.26.16c-.3,0-.45-.11-.45-.35s.07-.19.23-.32a2.94,2.94,0,0,1,1.93-.58,2.38,2.38,0,0,1,1.61.45,1.33,1.33,0,0,1,.46,1v2.14C78.16,65.93,78,66.05,77.77,66.05Zm-.4-1.87h-.68q-2.1,0-2.1.75a.37.37,0,0,0,.24.35,1.09,1.09,0,0,0,.55.13,3,3,0,0,0,1.13-.23,2,2,0,0,0,.86-.56Z" fill="#da4d6d"/><path d="M82.46,65.78A3.89,3.89,0,0,1,81,66a3.1,3.1,0,0,1-1.54-.35c-.43-.23-.64-.45-.64-.67s.15-.33.47-.33a.38.38,0,0,1,.27.15,1.67,1.67,0,0,0,1.4.59c.88,0,1.33-.15,1.33-.46,0-.15-.2-.31-.59-.44l-.92-.23a6.89,6.89,0,0,1-1.19-.34c-.45-.19-.66-.44-.66-.75a.87.87,0,0,1,.6-.81A3.24,3.24,0,0,1,81,62.11a3.73,3.73,0,0,1,1.24.24c.5.19.75.42.75.7s-.15.33-.45.33c-.1,0-.21-.08-.33-.26A1.39,1.39,0,0,0,81,62.69c-.81,0-1.22.17-1.22.49,0,.12.12.21.36.29l.89.21a9.78,9.78,0,0,1,1.36.4c.5.24.76.52.76.86S82.93,65.59,82.46,65.78Z" fill="#da4d6d"/><path d="M86.3,65.9h-.88c-.54,0-.81-.3-.81-.91V62.84H84c-.31,0-.46-.1-.46-.31s.15-.31.46-.31h.59v-.66c0-.24.12-.36.38-.36s.41.12.41.36v.66h.83c.3,0,.46.11.46.31s-.16.31-.46.31H85.4V65c0,.22,0,.33.15.33h.75c.3,0,.46.11.46.31S86.6,65.9,86.3,65.9Z" fill="#da4d6d"/><path d="M92.52,66a.35.35,0,0,1-.4-.39V60.78a.4.4,0,0,1,.8,0v4.85A.35.35,0,0,1,92.52,66Z" fill="#da4d6d"/><path d="M101.23,66c-.27,0-.4-.12-.4-.36V63.34a.6.6,0,0,0-.3-.46,1.09,1.09,0,0,0-.6-.16,1.42,1.42,0,0,0-.82.21c-.3.18-.45.36-.45.51v2.21c0,.24-.14.36-.41.36s-.4-.12-.4-.36V63.44c0-.14-.12-.31-.35-.5a1.06,1.06,0,0,0-.65-.22A1.41,1.41,0,0,0,96,63c-.28.22-.41.4-.41.54v2.12c0,.24-.14.36-.39.36s-.41-.12-.41-.36V62.47c0-.24.12-.36.39-.36s.42.15.42.44v.05a1.74,1.74,0,0,1,1.27-.49,1.68,1.68,0,0,1,1.4.6,2.33,2.33,0,0,1,1.68-.6,2,2,0,0,1,1.18.36,1.06,1.06,0,0,1,.52.87v2.31C101.63,65.89,101.49,66,101.23,66Z" fill="#da4d6d"/><path d="M106.61,65.41a2.59,2.59,0,0,1-1.78.6,2.39,2.39,0,0,1-.87-.16,1.26,1.26,0,0,1-.63-.41v1.19c0,.24-.13.36-.4.36s-.4-.12-.4-.36V62.47c0-.24.13-.36.4-.36s.4.12.4.36v.27a2.11,2.11,0,0,1,1.62-.63,2.49,2.49,0,0,1,1.69.57,1.75,1.75,0,0,1,.65,1.35A1.74,1.74,0,0,1,106.61,65.41Zm-.55-2.3a1.61,1.61,0,0,0-1.11-.38,1.75,1.75,0,0,0-1.17.38,1.22,1.22,0,0,0-.45,1,1.24,1.24,0,0,0,.36.94,1.49,1.49,0,0,0,1.14.4A1.67,1.67,0,0,0,106,65a1.29,1.29,0,0,0,.45-1A1.24,1.24,0,0,0,106.06,63.11Z" fill="#da4d6d"/><path d="M109.43,66c-.27,0-.41-.12-.41-.36V60.74c0-.23.14-.35.41-.35s.39.12.39.35v4.93Q109.82,66,109.43,66Z" fill="#da4d6d"/><path d="M115.57,66.05c-.27,0-.39-.12-.39-.36v-.31a3.63,3.63,0,0,1-1,.45,3.15,3.15,0,0,1-1,.19,2.24,2.24,0,0,1-1.12-.25.89.89,0,0,1-.51-.84c0-.46.28-.81.86-1.06a4.47,4.47,0,0,1,1.7-.29h1.06c-.05-.57-.47-.85-1.29-.85a2.63,2.63,0,0,0-.8.12,1.26,1.26,0,0,0-.65.36.36.36,0,0,1-.25.16c-.31,0-.45-.11-.45-.35s.06-.19.22-.32a2.94,2.94,0,0,1,1.93-.58,2.35,2.35,0,0,1,1.61.45,1.3,1.3,0,0,1,.46,1v2.14Q116,66.05,115.57,66.05Zm-.39-1.87h-.69c-1.39,0-2.09.25-2.09.75a.37.37,0,0,0,.24.35,1,1,0,0,0,.55.13,2.92,2.92,0,0,0,1.12-.23,2,2,0,0,0,.87-.56Z" fill="#da4d6d"/><path d="M121,66c-.27,0-.4-.12-.4-.36v-2a.76.76,0,0,0-.38-.64,1.69,1.69,0,0,0-.9-.25,2.22,2.22,0,0,0-1.21.34c-.32.21-.48.42-.48.64v2q0,.36-.33.36c-.31,0-.45-.12-.45-.36V62.47c0-.24.12-.36.39-.36s.39.12.39.36v.26a2.38,2.38,0,0,1,1.69-.62,2.49,2.49,0,0,1,1.46.43,1.25,1.25,0,0,1,.61,1.07v2Q121.41,66,121,66Z" fill="#da4d6d"/><path d="M124.76,65.9h-.87c-.54,0-.81-.3-.81-.91V62.84h-.59c-.31,0-.46-.1-.46-.31s.15-.31.46-.31h.59v-.66c0-.24.12-.36.38-.36s.4.12.4.36v.66h.84c.3,0,.46.11.46.31s-.16.31-.46.31h-.84V65c0,.22,0,.33.16.33h.74c.31,0,.46.11.46.31S125.07,65.9,124.76,65.9Z" fill="#da4d6d"/><path d="M135.19,66c-.13,0-.23-.09-.28-.28s-.09-.39-.13-.59a3.75,3.75,0,0,0-.24-.6,1.67,1.67,0,0,0-1.55-.87h-2.33v2q0,.36-.39.36c-.27,0-.4-.12-.4-.36v-4.8q0-.36.48-.36h3.39a2.21,2.21,0,0,1,1.35.42,1.23,1.23,0,0,1,.56,1,1.25,1.25,0,0,1-.45.93,2.37,2.37,0,0,1-1.08.52,2.12,2.12,0,0,1,.94.6,3.12,3.12,0,0,1,.46.81,2.74,2.74,0,0,1,.19.89C135.71,65.92,135.53,66,135.19,66Zm-.73-4.68a1.39,1.39,0,0,0-.84-.23h-2.78c-.12,0-.18.05-.18.13v1.83H133a2.66,2.66,0,0,0,.88-.14,1.52,1.52,0,0,0,.69-.43.86.86,0,0,0,.24-.54A.7.7,0,0,0,134.46,61.35Z" fill="#da4d6d"/><path d="M140.58,64.2h-3.24a1.2,1.2,0,0,0,.45.86,1.52,1.52,0,0,0,1.05.35,1.46,1.46,0,0,0,.87-.24,2.19,2.19,0,0,0,.48-.51.41.41,0,0,1,.36-.15.45.45,0,0,1,.27.11.28.28,0,0,1,.13.24c0,.16-.14.36-.41.61a2.5,2.5,0,0,1-1.72.55,2.44,2.44,0,0,1-1.72-.59,1.77,1.77,0,0,1-.6-1.4,1.73,1.73,0,0,1,.66-1.34,2.49,2.49,0,0,1,1.66-.57,2.44,2.44,0,0,1,1.65.56,1.58,1.58,0,0,1,.61,1.21C141.08,64.1,140.91,64.2,140.58,64.2ZM139.83,63a1.67,1.67,0,0,0-1-.26,1.47,1.47,0,0,0-.9.26,1.2,1.2,0,0,0-.52.66h2.83A.91.91,0,0,0,139.83,63Z" fill="#da4d6d"/><path d="M146.24,62.68a2.55,2.55,0,0,0-.44.15,1,1,0,0,1,.22.56,1,1,0,0,1-.65.9,2.79,2.79,0,0,1-1.32.31,2.83,2.83,0,0,1-.63-.07q-.18.1-.18.18s.09.09.29.14l1.79.34c.63.17,1,.45,1,.83s-.27.59-.8.77a4.22,4.22,0,0,1-1.36.21,5,5,0,0,1-1.57-.21c-.54-.17-.79-.43-.79-.77s.37-.63,1.11-.81c-.32-.11-.47-.27-.47-.5a.57.57,0,0,1,.29-.44,1,1,0,0,1-.63-.86,1.07,1.07,0,0,1,.63-1,3,3,0,0,1,2.59,0,1.8,1.8,0,0,1,.91-.27c.24,0,.38.1.38.3S146.46,62.64,146.24,62.68Zm-2,2.79c-1.09.12-1.63.31-1.63.55s.5.4,1.52.4a3.89,3.89,0,0,0,.78-.08c.34-.07.52-.18.52-.32S145,65.63,144.23,65.47Zm.58-2.55a1.68,1.68,0,0,0-.76-.19,1.82,1.82,0,0,0-.79.16.56.56,0,0,0-.36.52c0,.19.14.33.42.44a1.87,1.87,0,0,0,.78.14,1.54,1.54,0,0,0,.68-.16c.25-.12.38-.27.38-.42A.58.58,0,0,0,144.81,62.92Z" fill="#da4d6d"/><path d="M149.21,61.12a.65.65,0,0,1-.39.12.65.65,0,0,1-.4-.12.37.37,0,0,1,0-.62.65.65,0,0,1,.4-.12.65.65,0,0,1,.39.12.37.37,0,0,1,0,.62ZM148.82,66c-.27,0-.4-.12-.4-.37V62.48c0-.24.13-.36.4-.36s.39.12.39.36v3.19C149.21,65.92,149.08,66,148.82,66Z" fill="#da4d6d"/><path d="M154.46,65.78A3.89,3.89,0,0,1,153,66a3.08,3.08,0,0,1-1.54-.35c-.43-.23-.64-.45-.64-.67s.15-.33.47-.33a.38.38,0,0,1,.27.15,1.66,1.66,0,0,0,1.4.59c.88,0,1.33-.15,1.33-.46,0-.15-.2-.31-.6-.44-.15,0-.46-.12-.91-.23a6.89,6.89,0,0,1-1.19-.34c-.45-.19-.66-.44-.66-.75a.88.88,0,0,1,.59-.81,3.29,3.29,0,0,1,1.43-.26,3.73,3.73,0,0,1,1.24.24c.49.19.75.42.75.7s-.15.33-.45.33c-.1,0-.21-.08-.33-.26a1.39,1.39,0,0,0-1.16-.43c-.81,0-1.22.17-1.22.49,0,.12.12.21.36.29l.89.21a9.78,9.78,0,0,1,1.36.4c.5.24.76.52.76.86S154.93,65.59,154.46,65.78Z" fill="#da4d6d"/><path d="M158.29,65.9h-.87c-.54,0-.81-.3-.81-.91V62.84H156c-.31,0-.46-.1-.46-.31s.15-.31.46-.31h.59v-.66c0-.24.12-.36.38-.36s.4.12.4.36v.66h.84c.3,0,.46.11.46.31s-.16.31-.46.31h-.84V65c0,.22.05.33.16.33h.74c.31,0,.46.11.46.31S158.6,65.9,158.29,65.9Z" fill="#da4d6d"/><path d="M162.12,62.81a2.87,2.87,0,0,0-1,.3,2.33,2.33,0,0,0-.49.42,1,1,0,0,0-.29.6v1.53A.32.32,0,0,1,160,66c-.29,0-.43-.12-.43-.36V62.48q0-.36.42-.36a.32.32,0,0,1,.36.36V63a2.08,2.08,0,0,1,1.65-.73c.3,0,.44.12.44.34S162.31,62.8,162.12,62.81Z" fill="#da4d6d"/><path d="M167.35,62.58l-2.66,4.26a.38.38,0,0,1-.3.16c-.29,0-.42-.1-.42-.28a.8.8,0,0,1,.21-.44l.53-.76-1.94-2.94s0-.07,0-.18.09-.28.29-.28a.47.47,0,0,1,.39.19l1.7,2.54,1.61-2.54a.39.39,0,0,1,.37-.19c.2,0,.3.09.3.28A.54.54,0,0,1,167.35,62.58Z" fill="#da4d6d"/><path d="M216.37,30.4a1.53,1.53,0,0,1,1.28.57,2.1,2.1,0,0,1,.36,1.32,6.28,6.28,0,0,1-.17,1.32.84.84,0,0,1-.9.56c-.51,0-.74-.23-.74-.73a5.09,5.09,0,0,0,.25-1.07c0-.54-.23-.81-.67-.81h-14.6a.42.42,0,0,0-.48.48v1.4c0,.5-.25.73-.75.73s-.74-.23-.74-.73V31.89a1.32,1.32,0,0,1,1.49-1.49ZM215.13,33a.43.43,0,0,1-.48.5h-1A23,23,0,0,1,216,35c.34.13.5.31.5.57q0,.81-.75.81a1.19,1.19,0,0,1-.32-.12c-.42-.3-.84-.59-1.26-.86a.07.07,0,0,1-.06,0c-1.6.13-3.15.21-4.66.27v1.11h5.39c.34,0,.51.17.51.48s-.17.59-.51.59H209.4v.9h8a.58.58,0,0,1,.67.65.59.59,0,0,1-.67.65H199.88a.58.58,0,0,1-.67-.65c0-.44.21-.65.67-.65h8v-.9H202c-.33,0-.48-.19-.48-.59a.42.42,0,0,1,.48-.48h5.91v-1c-2.25.12-4.44.23-6.56.29-.38,0-.56-.21-.56-.65a.52.52,0,0,1,.56-.59c1,0,1.93,0,2.86,0l1-1.26h-3a.49.49,0,1,1,0-1h12.48A.43.43,0,0,1,215.13,33Zm2.46-10.14c0,.44-.19.65-.57.65H209.4v1H216a.52.52,0,0,1,.59.56.52.52,0,0,1-.59.59H201.44a.52.52,0,0,1-.59-.59c0-.37.19-.56.59-.56h6.47v-1H200.2c-.38,0-.57-.21-.57-.65a.5.5,0,0,1,.57-.56h7.71V22a.75.75,0,0,1,1.49,0v.34H217A.5.5,0,0,1,217.59,22.88Zm-2.38,3.77c.66,0,1,.26,1,.74v1.46c0,.55-.33.82-1,.82h-13c-.67,0-1-.27-1-.82V27.39c0-.48.32-.74,1-.74Zm-.48,1.64V28c0-.16,0-.25-.08-.25H202.74c-.06,0-.09.09-.09.25v.34c0,.21,0,.31.09.31h11.91S214.73,28.5,214.73,28.29Zm-2.48,6.05a.61.61,0,0,1-.48-.65.47.47,0,0,1,0-.17h-5l-.94,1.22c2.39,0,4.62-.15,6.67-.29A1.69,1.69,0,0,1,212.25,34.34Z" fill="#da4d6d"/><path d="M221.37,27.7a17.73,17.73,0,0,1,2,2.14,1.11,1.11,0,0,1,.17.48c0,.46-.25.67-.76.67a.56.56,0,0,1-.4-.17c-.65-.75-1.34-1.51-2-2.22a.75.75,0,0,1-.17-.4c0-.48.27-.73.82-.73A.71.71,0,0,1,221.37,27.7Zm2.29,5.49a25.74,25.74,0,0,1-.61,3.37,22.53,22.53,0,0,1-1.2,3.25.76.76,0,0,1-.65.42c-.5,0-.74-.23-.74-.65a.59.59,0,0,1,.17-.34,20,20,0,0,0,1.09-2.93,30.1,30.1,0,0,0,.72-3.46c0-.25.23-.39.57-.39S223.66,32.71,223.66,33.19ZM222,22.32A15.24,15.24,0,0,1,223.51,24a1.37,1.37,0,0,1,.15.48c0,.44-.25.65-.74.65a.52.52,0,0,1-.4-.17c-.5-.61-1-1.19-1.57-1.78a1,1,0,0,1-.15-.42c0-.48.27-.73.82-.73C221.72,22.07,221.85,22.15,222,22.32Zm4.54-.53a.51.51,0,0,1,.23.36,1.15,1.15,0,0,1-.09.31,9.34,9.34,0,0,1-1.28,1.74c.3.23.55.44.8.65.29-.48.59-1,.88-1.57a.43.43,0,0,1,.42-.23.84.84,0,0,1,.46.15.39.39,0,0,1,.19.33.57.57,0,0,1-.08.25,17.38,17.38,0,0,1-2,3,10.61,10.61,0,0,0,1.47-.21s0,0,0-.06a.9.9,0,0,1-.08-.34c0-.31.19-.48.56-.48a.6.6,0,0,1,.34.17,12.38,12.38,0,0,1,.74,1.46,1.24,1.24,0,0,1,.08.32c0,.33-.19.5-.57.5a.43.43,0,0,1-.25-.08c-.1-.17-.19-.36-.27-.53a.26.26,0,0,1-.15,0,7.87,7.87,0,0,1-1,.19V31.3c0,.34-.21.51-.58.51s-.49-.17-.49-.51V27.91c-.63.08-1.24.17-1.8.21-.38,0-.57-.21-.57-.65s.19-.56.57-.59.5,0,.75,0a9.57,9.57,0,0,0,.8-1.11c-.52-.42-1.07-.83-1.64-1.23a.56.56,0,0,1-.16-.34c0-.37.21-.56.65-.56a.55.55,0,0,1,.19.06,19.14,19.14,0,0,0,1-1.7.39.39,0,0,1,.42-.33A1.22,1.22,0,0,1,226.56,21.79Zm-1.43,6.85a.43.43,0,0,1,.17.3.63.63,0,0,1-.07.25c-.19.84-.38,1.57-.59,2.2a.52.52,0,0,1-.39.25c-.4,0-.59-.13-.59-.42a.43.43,0,0,1,.08-.31c.17-.55.38-1.26.59-2.14,0-.17.19-.25.4-.25A.72.72,0,0,1,225.13,28.64Zm11.17,5.53c.21,0,.34-.12.34-.42v-.14a.32.32,0,0,0-.34-.34H224.73c-.38,0-.57-.21-.57-.65a.52.52,0,0,1,.57-.58h12c.88,0,1.32.39,1.32,1.15v1c0,.84-.44,1.24-1.32,1.24h-9.91c-.34,0-.51.19-.51.56a.23.23,0,0,0,.25.26h11.41c.59,0,.9.42.9,1.21a3.67,3.67,0,0,1-.25,1.19,3.16,3.16,0,0,1-.86,1.37,3.86,3.86,0,0,1-2.33.48c-2,0-5-.13-9.12-.34a.61.61,0,0,1-.56-.65c0-.44.23-.65.73-.65q5.27.31,9,.32a2.19,2.19,0,0,0,1.53-.36,1.41,1.41,0,0,0,.44-.86c0-.33-.12-.5-.33-.5H225.88c-.67,0-1-.38-1-1.13a5.3,5.3,0,0,1,.19-1.4.86.86,0,0,1,.88-.74H236.3Zm-7.79-5.4c.08.33.17.88.27,1.63,0,.17,0,.28,0,.34a.42.42,0,0,1-.48.48c-.31,0-.48-.13-.48-.4-.09-.67-.15-1.25-.23-1.74l0-.14c0-.28.12-.42.39-.42A.61.61,0,0,1,228.51,28.77Zm4.83-4.9c0,.33-.15.48-.4.48h-3.86c-.28,0-.4-.15-.4-.48s.12-.42.4-.42h3.86A.37.37,0,0,1,233.34,23.87ZM233,22.24c0,.27-.14.39-.42.39h-3c-.29,0-.42-.12-.42-.39a.37.37,0,0,1,.42-.42h3A.37.37,0,0,1,233,22.24Zm-.08,3.18a.37.37,0,0,1-.42.42h-2.86c-.29,0-.42-.13-.42-.42a.37.37,0,0,1,.42-.42h2.86A.38.38,0,0,1,232.94,25.42Zm0,1.55a.37.37,0,0,1-.42.42h-2.79c-.28,0-.4-.13-.4-.42a.35.35,0,0,1,.4-.4h2.79A.37.37,0,0,1,232.94,27Zm-.65,1.23c.55,0,.82.23.82.65v1.89c0,.44-.27.65-.82.65h-2.14c-.51,0-.74-.21-.74-.65V28.85c0-.42.23-.65.74-.65Zm-.25,2v-.75c0-.25-.13-.4-.34-.4h-1c-.16,0-.23.15-.23.4v.75c0,.28.07.4.23.4h1C231.91,30.57,232,30.45,232,30.17Zm4.39-8.29a.51.51,0,0,1,.21.36.41.41,0,0,1-.09.22,8.44,8.44,0,0,1-1.3,1.7c.25.21.48.44.72.67.33-.5.65-1,1-1.61a.41.41,0,0,1,.42-.25.92.92,0,0,1,.46.14.4.4,0,0,1,.19.34.61.61,0,0,1-.08.25,18.71,18.71,0,0,1-2.21,3,11.52,11.52,0,0,0,1.75-.25s-.07-.11-.11-.17a.9.9,0,0,1-.08-.34c0-.31.19-.48.57-.48a.65.65,0,0,1,.33.17,13,13,0,0,1,1.14,1.63,2.14,2.14,0,0,1,.08.4c0,.34-.19.5-.57.5a.62.62,0,0,1-.33-.08,6.9,6.9,0,0,1-.42-.71.53.53,0,0,1-.23.06c-.38.08-.74.17-1.08.21V31.3c0,.34-.18.51-.56.51s-.49-.17-.49-.51V27.85c-.67.12-1.34.21-2,.27-.4,0-.59-.21-.59-.65s.19-.56.59-.59a3.66,3.66,0,0,0,.67,0,9.83,9.83,0,0,0,.93-1.13c-.57-.5-1.14-1-1.68-1.44a.54.54,0,0,1-.17-.32c0-.37.21-.58.65-.58a.62.62,0,0,1,.33.16l.07.07a14.88,14.88,0,0,0,1-1.62.37.37,0,0,1,.4-.25A.9.9,0,0,1,236.43,21.88ZM235,28.64a.43.43,0,0,1,.17.3.69.69,0,0,1-.09.25c-.12.88-.25,1.63-.4,2.28a.52.52,0,0,1-.42.25c-.44,0-.65-.16-.65-.5a.25.25,0,0,1,.09-.23c.14-.59.31-1.32.48-2.22a.4.4,0,0,1,.42-.25A.72.72,0,0,1,235,28.64Zm3.44.3a9.46,9.46,0,0,1,.38,1.57c0,.15,0,.25,0,.31,0,.34-.19.48-.56.48a.45.45,0,0,1-.51-.48c-.08-.65-.19-1.19-.29-1.65l0-.15c0-.27.14-.42.48-.42A.53.53,0,0,1,238.42,28.94Z" fill="#da4d6d"/><path d="M252.7,33.36a.76.76,0,0,1-.4.65,29.75,29.75,0,0,1-3.76,1,10.67,10.67,0,0,1,.24,2.16,3.77,3.77,0,0,1-.49,1.82,2.59,2.59,0,0,1-1.09,1.17,3,3,0,0,1-1.47.36,5.67,5.67,0,0,1-1.72-.34c-.42-.16-.65-.4-.65-.73,0-.52.23-.8.65-.82a10.19,10.19,0,0,0,1.64.4,1.4,1.4,0,0,0,.71-.19,1.5,1.5,0,0,0,.67-.69,1.88,1.88,0,0,0,.25-1,12.93,12.93,0,0,0-.14-1.89c-1.45.27-3.15.53-5.11.73-.42,0-.63-.27-.65-.73a.65.65,0,0,1,.57-.73c2-.17,3.61-.38,4.75-.59h0c-.13-.25-.25-.5-.38-.73a4.91,4.91,0,0,0-.92-1,.32.32,0,0,1-.17-.27c0-.46.29-.71.82-.75a1,1,0,0,1,.46.23,7.29,7.29,0,0,1,1,1.11.94.94,0,0,0,.09.12,5.8,5.8,0,0,0,1.07-.79,4.77,4.77,0,0,0,.94-1,1.42,1.42,0,0,0,.32-.54c0-.09-.08-.15-.23-.15h-7c-.47,0-.68-.21-.68-.67s.21-.65.68-.65h8.19c.65,0,1,.27,1,.82a1.73,1.73,0,0,1-.31.9,9.22,9.22,0,0,1-1.37,1.71,10,10,0,0,1-1.7,1.41c1.22-.23,2.33-.48,3.3-.76a1.11,1.11,0,0,1,.34-.06A.54.54,0,0,1,252.7,33.36Zm-.9-10.9c0,.36-.27.59-.82.68a40.57,40.57,0,0,1-4.22.52c-2,.21-3.32.29-4,.29-.55,0-.82-.23-.82-.73a.58.58,0,0,1,.65-.67c1.49,0,2.88-.09,4.16-.21a29.63,29.63,0,0,0,4.45-.69C251.57,21.65,251.8,21.92,251.8,22.46Zm-8,2.31a15.63,15.63,0,0,1,.81,2.45,1.75,1.75,0,0,1,.09.48c0,.4-.27.59-.82.59-.21,0-.38-.17-.48-.5a16.79,16.79,0,0,0-.74-2.29,1,1,0,0,1-.17-.5c0-.38.23-.57.74-.57A.76.76,0,0,1,243.76,24.77Zm3.21-.25a12.06,12.06,0,0,1,.9,2.05,2.35,2.35,0,0,1,.09.48c0,.44-.28.65-.82.65-.28,0-.46-.15-.59-.48a11.91,11.91,0,0,0-.65-2,.67.67,0,0,1-.17-.4c0-.38.23-.59.74-.59A.74.74,0,0,1,247,24.52Zm4.66-.57a.5.5,0,0,1,.25.4,1.19,1.19,0,0,1-.08.34,17.24,17.24,0,0,1-1.55,3,.62.62,0,0,1-.49.34q-.84,0-.84-.57c0-.17,0-.27.09-.33a24,24,0,0,0,1.57-3,.45.45,0,0,1,.48-.32A1.09,1.09,0,0,1,251.63,24Zm3.3-1.49V37.69a1,1,0,0,0,.27.82,2.66,2.66,0,0,0,1.45.25c.84,0,1.33-.15,1.49-.44a2.38,2.38,0,0,0,.32-1.28V34.09c0-.57.25-.86.73-.9s.78.4.82,1.07a19.72,19.72,0,0,1-.25,4.4,1.88,1.88,0,0,1-.78,1.21,4.16,4.16,0,0,1-2.33.44,4.84,4.84,0,0,1-2.71-.52,2.2,2.2,0,0,1-.59-1.76V22.46a.66.66,0,0,1,.76-.73C254.66,21.73,254.93,22,254.93,22.46Z" fill="#da4d6d"/><path d="M265.26,31.56A22.74,22.74,0,0,1,264.7,37a10.59,10.59,0,0,1-1.08,2.83,1.08,1.08,0,0,1-.73.33c-.55,0-.82-.27-.84-.73a1.55,1.55,0,0,1,.19-.46,10.16,10.16,0,0,0,1-2.72,19.53,19.53,0,0,0,.52-4.67V23.45a1,1,0,0,1,1.14-1.13,93.36,93.36,0,0,0,14-.76.8.8,0,0,1,.82.76c0,.33-.24.54-.66.65a87.33,87.33,0,0,1-13.21.65c-.44,0-.65.27-.65.81v.26H279c.75,0,1.15.33,1.15,1v2.62c0,.71-.4,1.05-1.15,1.05h-5.65v1.73h7.2a.59.59,0,0,1,.67.65c0,.51-.23.74-.67.74h-8.44c-.07.58-.15,1.13-.23,1.63h6.72c1,0,1.47.54,1.47,1.63a18.27,18.27,0,0,1-.23,2.91,2.16,2.16,0,0,1-.93,1.55,5.06,5.06,0,0,1-2.2.38,14.27,14.27,0,0,1-3.53-.5c-.4-.19-.59-.44-.59-.73,0-.61.27-.9.84-.9a13.47,13.47,0,0,0,3.19.56,2.63,2.63,0,0,0,1.22-.21,1.26,1.26,0,0,0,.53-.84,9.43,9.43,0,0,0,.14-1.63c0-.59-.25-.9-.73-.9h-6.22c-.06.21-.12.38-.17.54a6.59,6.59,0,0,1-1.78,2.73,9.81,9.81,0,0,1-3.22,1.76l-.18,0c-.55,0-.82-.32-.82-.9,0-.27.14-.46.48-.59a7,7,0,0,0,2.83-1.55A5.35,5.35,0,0,0,270,35.33a13.91,13.91,0,0,0,.61-2.87h-4.12c-.44,0-.65-.23-.65-.74a.58.58,0,0,1,.65-.65h5.25V29.34h-6.47Zm0-3.44h13.05c.25,0,.39-.17.39-.5v-1.3a.37.37,0,0,0-.39-.42H265.26Z" fill="#da4d6d"/><path d="M290.19,25.84c0,.5-.23.73-.65.73H287.9v.67l2.5,3.94a1.49,1.49,0,0,1,.21.63c0,.5-.27.73-.82.73a.56.56,0,0,1-.54-.42l-1.35-2.64V39.89a.66.66,0,0,1-.73.76c-.51,0-.74-.26-.74-.76V29.31c-.08.26-.15.51-.21.74a29.57,29.57,0,0,1-1,2.91,10.86,10.86,0,0,1-.94,2.11.74.74,0,0,1-.65.49c-.51,0-.74-.23-.74-.74a1.34,1.34,0,0,1,.15-.56,35.34,35.34,0,0,0,2.08-4.61,27,27,0,0,0,.84-3.08h-1.85c-.44,0-.65-.23-.65-.73a.58.58,0,0,1,.65-.67h2.31V22.32c0-.5.23-.76.74-.76a.66.66,0,0,1,.73.76v2.85h1.64A.59.59,0,0,1,290.19,25.84Zm4.08.23c.21-.46.42-.92.58-1.38a.51.51,0,0,0,0-.17h-4.12c-.46,0-.67-.23-.67-.74s.21-.64.67-.64h4.56l.35-1.24a.77.77,0,0,1,.66-.34.83.83,0,0,1,.58.26.8.8,0,0,1,.23.56,1,1,0,0,1-.14.5,1.34,1.34,0,0,0-.09.26h4.27a.58.58,0,0,1,.65.64c0,.51-.23.74-.65.74h-4.69c-.08.21-.14.42-.19.58-.12.34-.27.67-.39,1h3.38c.86,0,1.3.42,1.3,1.23V38.68h.82c.5,0,.75.21.75.65a.66.66,0,0,1-.75.73H290c-.46,0-.67-.25-.67-.73s.21-.65.67-.65h1.22V27.3c0-.81.44-1.23,1.32-1.23Zm4.87,3V28a.43.43,0,0,0-.48-.48h-5.51a.42.42,0,0,0-.48.48V29.1Zm0,3.1V30.4h-6.47v1.8Zm0,3.21V33.52h-6.47v1.89Zm0,3.27v-2h-6.47v2Z" fill="#da4d6d"/><path d="M312.92,22.63c.71,0,1.19.42,1.49,1.24a34.09,34.09,0,0,0,3.06,7.85,24.91,24.91,0,0,0,2.86,4.19,34.88,34.88,0,0,0,3,3.08.84.84,0,0,1,.26.59.72.72,0,0,1-.74.73.85.85,0,0,1-.57-.25A27.23,27.23,0,0,1,319,36.69a30,30,0,0,1-3.4-5.2,26.13,26.13,0,0,1-1.3-3.08,28.66,28.66,0,0,1-3.32,6.33,23.08,23.08,0,0,1-5.42,5.49,1.28,1.28,0,0,1-.63.25c-.5,0-.75-.27-.75-.82a.69.69,0,0,1,.42-.59,22.26,22.26,0,0,0,5.79-5.94,35.38,35.38,0,0,0,3.15-6.64.31.31,0,0,1,.09-.11c-.19-.58-.36-1.17-.51-1.78-.08-.33-.23-.5-.48-.5h-4.77a.64.64,0,0,1-.73-.73.65.65,0,0,1,.73-.74Z" fill="#da4d6d"/><path d="M327.2,23.28c0,.88-.05,1.7-.11,2.47h1.66V22.24c0-.51.23-.76.74-.76a.67.67,0,0,1,.75.76v3.51h1.31a.59.59,0,0,1,.65.65c0,.51-.23.74-.65.74h-1.31v4.75q.54-.32,1.14-.75l.33-.07c.49,0,.74.28.74.82a.87.87,0,0,1-.38.63,13.16,13.16,0,0,1-1.83,1.26v6a.66.66,0,0,1-.75.75.65.65,0,0,1-.74-.75V34.57a18.84,18.84,0,0,1-2.48,1,1.13,1.13,0,0,1-.46.1q-.75,0-.75-.81a.77.77,0,0,1,.58-.82A18.76,18.76,0,0,0,328.39,33a2.37,2.37,0,0,0,.36-.17V27.14H327a23.89,23.89,0,0,1-.74,3.43.81.81,0,0,1-.9.65.5.5,0,0,1-.57-.56,1.71,1.71,0,0,1,.08-.57,26.49,26.49,0,0,0,1-6.95.6.6,0,0,1,.65-.68C327,22.46,327.2,22.74,327.2,23.28Zm8.13-1.21c-.07.81-.15,1.55-.26,2.2h7.4c1,0,1.55.44,1.55,1.32a86.38,86.38,0,0,1-.5,10.51,6.22,6.22,0,0,1-1.2,3.44,3.38,3.38,0,0,1-2.56.94,7.65,7.65,0,0,1-2.31-.5.79.79,0,0,1-.57-.82c0-.55.23-.82.73-.82a9,9,0,0,0,2.15.5,1.77,1.77,0,0,0,1.57-.71,6.61,6.61,0,0,0,.72-2.55,69.86,69.86,0,0,0,.42-9.34.52.52,0,0,0-.59-.57h-.65a7.69,7.69,0,0,1-.09.88A25,25,0,0,1,339.8,32a19.47,19.47,0,0,1-2.12,4.1,21.81,21.81,0,0,1-3.43,3.71,1,1,0,0,1-.56.17.7.7,0,0,1-.53-.24.8.8,0,0,1-.23-.58.7.7,0,0,1,.25-.57,21.39,21.39,0,0,0,3.26-3.43,16,16,0,0,0,2-3.81,22,22,0,0,0,1.32-5.68H338l-.06.23a23.26,23.26,0,0,1-1.3,4.21,17.5,17.5,0,0,1-1.83,3.46,10.84,10.84,0,0,1-2,2.4.76.76,0,0,1-.5.17.67.67,0,0,1-.53-.25.84.84,0,0,1-.2-.56.66.66,0,0,1,.25-.51,13.35,13.35,0,0,0,1.93-2.26,22.85,22.85,0,0,0,1.7-3.27,19.18,19.18,0,0,0,1.11-3.62H334.8a4,4,0,0,1-.13.5,11.46,11.46,0,0,1-1.74,3.5,1.08,1.08,0,0,1-.73.42c-.61,0-.91-.27-.91-.82a.89.89,0,0,1,.26-.42,10.1,10.1,0,0,0,1.68-3.14,17.22,17.22,0,0,0,.6-3.64c0-.42.26-.65.76-.65S335.33,21.65,335.33,22.07Z" fill="#da4d6d"/><path d="M355.26,21.82a1.51,1.51,0,0,1,.44.06.91.91,0,0,1,.38-.06,1,1,0,0,1,.65.42,17.2,17.2,0,0,0,1.49,1.69A18.25,18.25,0,0,0,360.34,22a.94.94,0,0,1,.59-.33.65.65,0,0,1,.73.73.9.9,0,0,1-.33.67,15.67,15.67,0,0,1-2.19,1.82,9.07,9.07,0,0,0,1.45,1.2,14.59,14.59,0,0,0,2.37-2,.92.92,0,0,1,.59-.32.66.66,0,0,1,.74.74.88.88,0,0,1-.34.65,18.33,18.33,0,0,1-2.16,1.67,20,20,0,0,0,3.32,1.53.7.7,0,0,1,.48.65c0,.55-.32.82-.9.82a2.86,2.86,0,0,1-.84-.23,19.21,19.21,0,0,1-5-3,15.63,15.63,0,0,1-2.94-3.08c-.13.21-.26.4-.4.59A19.45,19.45,0,0,1,352.23,27a23.21,23.21,0,0,1-4.56,2.6,1.93,1.93,0,0,1-.86.25c-.54,0-.82-.23-.82-.74a.77.77,0,0,1,.4-.73,26.2,26.2,0,0,0,3.55-1.63c-.5-.42-.92-.73-1.24-1s-.63-.44-1-.67a.76.76,0,0,1-.26-.56.66.66,0,0,1,.74-.74,1.32,1.32,0,0,1,.48.17c.4.25.76.51,1.09.76a8.52,8.52,0,0,1,1.39,1.19s0,.08.06.08a15.18,15.18,0,0,0,2.06-1.55c.72-.56,1.07-.94,1.07-1.15s-.06-.14-.17-.14h-4.83c-.46,0-.67-.21-.67-.68s.21-.64.67-.64Zm6.4,8.42c.8,0,1.22.39,1.22,1.15v2.87a1.08,1.08,0,0,1-1.22,1.21h-1.72l-.67,3.21h5.25c.5,0,.75.23.75.73a.66.66,0,0,1-.75.73H347.13a.65.65,0,0,1-.74-.73c0-.5.23-.73.74-.73H352l-.78-3.21h-1.72c-.84,0-1.24-.4-1.24-1.21V31.39c0-.76.4-1.15,1.24-1.15Zm-.25,3.28v-1.4a.43.43,0,0,0-.48-.48H350.26c-.34,0-.51.17-.51.48v1.4q0,.57.51.57h10.67C361.24,34.09,361.41,33.9,361.41,33.52ZM359.86,28c0,.51-.24.74-.68.74h-7c-.46,0-.67-.23-.67-.74a.58.58,0,0,1,.67-.65h7A.6.6,0,0,1,359.86,28Zm-2.17,10.73.7-3.21h-5.57l.78,3.21Z" fill="#da4d6d"/><path d="M372.2,21.94l2.73,2.91a.87.87,0,0,1,.26.57.71.71,0,0,1-.74.73.59.59,0,0,1-.4-.17l-2.33-2.66a.43.43,0,0,0-.29-.18c-.09,0-.17.08-.26.21a26,26,0,0,1-2.41,3.18.74.74,0,0,1,.44-.13h4.35a.59.59,0,0,1,.65.65.58.58,0,0,1-.65.65h-1.64v2.39h2.21a.59.59,0,0,1,.67.65c0,.5-.23.73-.67.73h-2.21v6.2a15.16,15.16,0,0,0,2-.54.77.77,0,0,1,.32-.09.57.57,0,0,1,.59.57.72.72,0,0,1-.42.65,17.25,17.25,0,0,1-2.9.92c-.92.21-2,.42-3.34.63a.64.64,0,0,1-.65-.74.67.67,0,0,1,.57-.73c1.07-.12,1.91-.25,2.54-.38V31.47h-2.38c-.44,0-.65-.23-.65-.73a.58.58,0,0,1,.65-.65h2.38V27.7H369.2a.69.69,0,0,1-.55-1.05,3.21,3.21,0,0,1-.27.32,1,1,0,0,1-.65.33.67.67,0,0,1-.73-.73,1,1,0,0,1,.31-.67,17.94,17.94,0,0,0,3.15-3.73c.3-.5.59-.75.88-.75A1.38,1.38,0,0,1,372.2,21.94Zm-3,10.77c.13.63.27,1.61.44,3,0,.3,0,.48,0,.61,0,.38-.23.57-.65.57s-.63-.19-.65-.57c-.1-1.26-.23-2.35-.38-3.25l0-.27c0-.33.19-.5.59-.5A.7.7,0,0,1,369.2,32.71Zm5.19,0a.39.39,0,0,1,.23.33,1.72,1.72,0,0,1-.08.42c-.24,1.09-.49,2-.74,2.87a.51.51,0,0,1-.42.23c-.5,0-.73-.15-.73-.48a.5.5,0,0,1,.08-.34c.21-.75.42-1.69.65-2.87a.48.48,0,0,1,.5-.31A1.11,1.11,0,0,1,374.39,32.69Zm4.66,2.64a2.28,2.28,0,0,1-.59,1.11,24.1,24.1,0,0,1-1.74,2A15.71,15.71,0,0,1,375.1,40a1.37,1.37,0,0,1-.56.16.58.58,0,0,1-.66-.65,1,1,0,0,1,.45-.86A13.3,13.3,0,0,0,376.19,37,20.3,20.3,0,0,0,378,34.82a.65.65,0,0,1,.42-.16A.59.59,0,0,1,379.05,35.33Zm-1.64-8.53c-.88,0-1.32-.33-1.32-1.05,0-.12.32-1.42,1-3.85.08-.38.35-.57.82-.57s.82.19.82.57a3.71,3.71,0,0,0-.19.56h4.28c.93,0,1.41.4,1.41,1.16,0,.14-.44,1.76-1.28,4.84h3a.58.58,0,0,1,.65.64.57.57,0,0,1-.65.65H381V30a12.18,12.18,0,0,0,.63,2.69,3,3,0,0,0,.16.37,15.65,15.65,0,0,0,2.23-2.13.55.55,0,0,1,.5-.34c.49,0,.74.23.74.65A1.52,1.52,0,0,1,385,32a15.24,15.24,0,0,1-2.37,2.22.18.18,0,0,1-.13.06c.24.44.49.86.76,1.26a13.8,13.8,0,0,0,2.73,3,.6.6,0,0,1,.17.4c0,.55-.25.82-.74.82a.84.84,0,0,1-.5-.23,13.59,13.59,0,0,1-2.14-2.35,17.79,17.79,0,0,1-1.64-2.89.22.22,0,0,1-.06-.15V39c0,.92-.42,1.4-1.24,1.4a6.73,6.73,0,0,1-2.38-.5c-.4-.1-.58-.31-.58-.65s.25-.71.67-.73a10.23,10.23,0,0,0,1.72.48c.21,0,.31-.19.31-.56V29.75h-4a.57.57,0,0,1-.65-.65.57.57,0,0,1,.65-.64h5.84c.17-.63.32-1.18.44-1.66Zm-.9,3.94.78.77a12.77,12.77,0,0,1,1,1.28,1.46,1.46,0,0,1,.14.4c0,.44-.19.65-.56.65a1.16,1.16,0,0,1-.65-.15c-.38-.5-.7-.88-.93-1.17l-.71-.71a.74.74,0,0,1-.26-.51.58.58,0,0,1,.66-.64A3.32,3.32,0,0,1,376.51,30.74Zm1.22-5.66c0,.23.21.34.67.34h3.78c.21-.78.32-1.2.32-1.24,0-.21-.17-.31-.51-.31h-3.9A10.22,10.22,0,0,0,377.73,25.08Z" fill="#da4d6d"/><path d="M406.38,22.32c0,.4-.32.65-.91.73-2,.23-4.6.42-7.91.59-.3,0-.55,0-.8,0a.77.77,0,0,1-.32.5,23.84,23.84,0,0,1-3.17,2.94,3,3,0,0,1,.44.25A23.16,23.16,0,0,1,397.47,30c.36-.35.69-.71,1-1.08a39.8,39.8,0,0,0,3-4,.77.77,0,0,1,.66-.34,1,1,0,0,1,.58.23.89.89,0,0,1,.23.59.91.91,0,0,1-.14.48,33.28,33.28,0,0,1-2.63,3.41,20,20,0,0,1-1.74,1.7c1.95,0,3.8-.08,5.54-.17L402.51,29a.85.85,0,0,1-.25-.56.59.59,0,0,1,.67-.67,1.21,1.21,0,0,1,.48.16c.61.71,1.18,1.39,1.68,2.06a23.4,23.4,0,0,1,2.19,3.26.92.92,0,0,1,.23.42.58.58,0,0,1-.65.65.9.9,0,0,1-.65-.25c-.46-.73-.88-1.38-1.24-1.93a.55.55,0,0,1-.25,0c-2.12.11-4.2.19-6.22.28v7.58a.83.83,0,0,1-1.66,0V32.54c-2.81.1-5.54.19-8.19.25-.5,0-.74-.29-.74-.9a.67.67,0,0,1,.74-.75c2.69,0,5.23-.05,7.62-.09a.41.41,0,0,0,.13-.1c-1.49-1.09-2.73-1.93-3.74-2.54s-1.87-1-2.94-1.61a.78.78,0,0,1-.25-.56.65.65,0,0,1,.73-.74,1.29,1.29,0,0,1,.49.17l1.28.69a29.05,29.05,0,0,0,2.88-2.58c-2.29.13-4,.17-5,.17-.61,0-.91-.27-.91-.81s.26-.68.76-.68c2.77,0,5.34-.08,7.69-.22,2.94-.15,5.69-.4,8.21-.76C406.12,21.48,406.38,21.77,406.38,22.32ZM394.07,34.51a1.81,1.81,0,0,1-.34.9,26.76,26.76,0,0,1-4.18,4.73.94.94,0,0,1-.59.25q-.9,0-.9-.81a1,1,0,0,1,.17-.59,25.83,25.83,0,0,0,4.43-4.9.67.67,0,0,1,.59-.4A.72.72,0,0,1,394.07,34.51Zm8.78-.67c.63.71,1.19,1.38,1.74,2a21.29,21.29,0,0,1,2.27,3.2.91.91,0,0,1,.25.51c0,.54-.25.81-.73.81a1.16,1.16,0,0,1-.76-.25c-.84-1.34-1.55-2.38-2.12-3.16-.51-.63-1.05-1.3-1.64-2a.85.85,0,0,1-.25-.56.65.65,0,0,1,.73-.74A1.46,1.46,0,0,1,402.85,33.84Z" fill="#da4d6d"/><path d="M413.22,21.59a.65.65,0,0,1,.27.48,1.43,1.43,0,0,1-.06.39,19.89,19.89,0,0,1-2.14,3.61,1.18,1.18,0,0,1-.08.12,11.93,11.93,0,0,1,1.32,1.41c.61-1,1.18-2,1.72-3.08a.76.76,0,0,1,.65-.34.7.7,0,0,1,.46.19.73.73,0,0,1,.19.48.84.84,0,0,1-.16.48,36,36,0,0,1-2,3.5A18.84,18.84,0,0,1,412,30.68c1.07-.09,2.06-.21,3-.38-.13-.38-.24-.69-.34-1a.78.78,0,0,1-.08-.32c0-.38.21-.56.65-.56a.67.67,0,0,1,.5.31,18.23,18.23,0,0,1,.9,2.62,1.76,1.76,0,0,1,.09.5c0,.38-.27.57-.82.57-.23,0-.4-.17-.5-.51a2.16,2.16,0,0,1-.09-.39l-1.55.27V40a.66.66,0,0,1-.74.73.64.64,0,0,1-.73-.73V32c-1,.14-2,.25-2.88.33-.44,0-.65-.29-.65-.9,0-.42.21-.63.65-.65.27,0,.55,0,.8,0a20.6,20.6,0,0,0,1.61-2.07.7.7,0,0,1-.18-.13c-.55-.61-1-1.09-1.39-1.46s-.69-.59-1.09-.9a.82.82,0,0,1-.23-.57.58.58,0,0,1,.65-.67,1.15,1.15,0,0,1,.48.17l.15.12A28.56,28.56,0,0,0,412,21.82a.55.55,0,0,1,.57-.4A1.14,1.14,0,0,1,413.22,21.59Zm-1.53,12a2.49,2.49,0,0,1-.06.48,41.2,41.2,0,0,1-1.08,5.32.71.71,0,0,1-.65.4c-.5,0-.75-.23-.75-.65a.71.71,0,0,1,.17-.48,39.75,39.75,0,0,0,1.07-5.24c0-.27.23-.42.56-.42C411.44,33,411.69,33.23,411.69,33.61Zm4.43.14c.13.7.23,1.79.36,3.29a6.27,6.27,0,0,1,.06.65c0,.38-.23.57-.65.57s-.65-.19-.67-.57c-.09-1.38-.17-2.55-.3-3.54l0-.31q0-.48.57-.48A.7.7,0,0,1,416.12,33.75ZM421,32.12a24.16,24.16,0,0,1-.5,3.67,7.84,7.84,0,0,1-1.24,2.82A6.62,6.62,0,0,1,417,40.44a.24.24,0,0,0-.1,0c-.55,0-.82-.32-.82-.9a.63.63,0,0,1,.48-.65,4.63,4.63,0,0,0,1.76-1.64,6.74,6.74,0,0,0,.82-2.19A19.05,19.05,0,0,0,419.5,32c0-.38.27-.57.74-.57S421,31.7,421,32.12Zm1.64-9.8v1.46h4.26a.66.66,0,0,1,.74.74.65.65,0,0,1-.74.73h-5.5l-2,4.36a41.51,41.51,0,0,0,5.71-.67c-.4-.71-.8-1.34-1.18-1.89a.69.69,0,0,1-.16-.4c0-.37.23-.58.73-.58.17,0,.32.12.48.33a22.63,22.63,0,0,1,2.88,4.9,3.44,3.44,0,0,1,.08.59c0,.44-.31.65-.9.65-.25,0-.44-.19-.56-.59-.26-.63-.51-1.21-.74-1.76a.54.54,0,0,1-.25,0q-4.15.75-7.88,1.06c-.5,0-.73-.29-.73-.9a.66.66,0,0,1,.73-.73h.3l2-4.42h-2.37c-.51,0-.74-.23-.74-.73a.65.65,0,0,1,.74-.74H421V22.32a.82.82,0,1,1,1.64,0Zm2,9.72v6.22a.92.92,0,0,0,.21.69,2,2,0,0,0,1.1.21,1.68,1.68,0,0,0,1-.19,1,1,0,0,0,.21-.57V37.13c0-.53.23-.8.65-.82s.69.34.73,1a7.32,7.32,0,0,1-.19,2.33,1.12,1.12,0,0,1-.61.65,4.88,4.88,0,0,1-1.82.23,3.71,3.71,0,0,1-2.23-.46,1.86,1.86,0,0,1-.48-1.51V32a.58.58,0,0,1,.67-.65C424.33,31.39,424.58,31.62,424.58,32Z" fill="#da4d6d"/><path d="M207.22,46.7h-3.35v9.36c0,.49-.21.74-.63.74s-.64-.25-.64-.74V46.7h-3.35c-.49,0-.74-.19-.74-.62s.25-.63.74-.63h8c.49,0,.74.21.74.63S207.71,46.7,207.22,46.7Z"/><path d="M215.13,56.83c-.42,0-.62-.24-.62-.74v-.63a5,5,0,0,1-1.48.93,3.84,3.84,0,0,1-1.63.39,2.8,2.8,0,0,1-1.75-.51,2,2,0,0,1-.81-1.73,2.36,2.36,0,0,1,1.36-2.18,5.51,5.51,0,0,1,2.66-.6h1.65c-.07-1.16-.74-1.75-2-1.75a3.42,3.42,0,0,0-1.27.25,2,2,0,0,0-1,.74c-.14.23-.28.34-.4.34-.48,0-.71-.23-.71-.73a1.07,1.07,0,0,1,.35-.65,3.92,3.92,0,0,1,3-1.2,2.84,2.84,0,0,1,3.24,3v4.38C215.75,56.59,215.54,56.83,215.13,56.83ZM214.51,53h-1.07c-2.19,0-3.28.53-3.28,1.55a.86.86,0,0,0,.37.73,1.49,1.49,0,0,0,.87.26,3.83,3.83,0,0,0,1.76-.48,3.28,3.28,0,0,0,1.35-1.14Z"/><path d="M219.89,46.7a.91.91,0,0,1-1.25,0,.88.88,0,0,1,0-1.27.91.91,0,0,1,1.25,0,.91.91,0,0,1,0,1.27Zm-.62,10.12c-.42,0-.63-.25-.63-.76V49.5c0-.49.21-.74.63-.74s.62.25.62.74v6.56C219.89,56.57,219.68,56.82,219.27,56.82Z"/><path d="M234.25,49.66l-2.64,6.66a.6.6,0,0,1-.58.44c-.23,0-.41-.14-.51-.44l-2.17-5.41-2.22,5.41c-.12.3-.3.44-.51.44a.6.6,0,0,1-.58-.44l-2.7-6.66a.74.74,0,0,1-.09-.33c0-.39.23-.59.69-.59a.56.56,0,0,1,.51.41l2.17,5.45,2.22-5.4c.1-.3.28-.46.51-.46s.39.16.53.46L231,54.6l2.11-5.45a.55.55,0,0,1,.51-.41c.46,0,.69.2.69.59A.91.91,0,0,1,234.25,49.66Z"/><path d="M241.34,56.83c-.42,0-.62-.24-.62-.74v-.63a5,5,0,0,1-1.48.93,3.88,3.88,0,0,1-1.64.39,2.78,2.78,0,0,1-1.74-.51,2,2,0,0,1-.81-1.73,2.37,2.37,0,0,1,1.35-2.18,5.57,5.57,0,0,1,2.67-.6h1.65c-.07-1.16-.74-1.75-2-1.75a3.46,3.46,0,0,0-1.27.25,2.06,2.06,0,0,0-1,.74c-.14.23-.28.34-.41.34-.47,0-.7-.23-.7-.73a1.07,1.07,0,0,1,.35-.65,3.9,3.9,0,0,1,3-1.2,2.86,2.86,0,0,1,3.25,3v4.38C242,56.59,241.74,56.83,241.34,56.83ZM240.72,53h-1.07c-2.19,0-3.28.53-3.28,1.55a.83.83,0,0,0,.37.73,1.48,1.48,0,0,0,.86.26,3.84,3.84,0,0,0,1.77-.48,3.41,3.41,0,0,0,1.35-1.14Z"/><path d="M249.87,56.78c-.42,0-.62-.25-.62-.74V51.83a1.71,1.71,0,0,0-.6-1.32,2.13,2.13,0,0,0-1.41-.51,2.88,2.88,0,0,0-1.9.7,1.77,1.77,0,0,0-.74,1.3v4c0,.49-.18.74-.53.74s-.7-.25-.7-.74V49.49c0-.5.19-.75.61-.75s.62.25.62.75V50a3.28,3.28,0,0,1,2.64-1.27,3.23,3.23,0,0,1,2.29.89,2.85,2.85,0,0,1,1,2.2V56C250.49,56.53,250.27,56.78,249.87,56.78Z"/><path d="M265.24,55.67a5.29,5.29,0,0,1-3.26.86h-3.12a.65.65,0,0,1-.74-.74v-9.6a.66.66,0,0,1,.74-.74h3.89a3.61,3.61,0,0,1,2.22.65,2.61,2.61,0,0,1,1,2.1,2.58,2.58,0,0,1-1.76,2.59,2.78,2.78,0,0,1,1.46.83,2.88,2.88,0,0,1,.71,1.85A2.64,2.64,0,0,1,265.24,55.67ZM264.13,47a1.69,1.69,0,0,0-1-.3h-3.42a.25.25,0,0,0-.28.28v3.19h2.76a3,3,0,0,0,1.73-.46,1.72,1.72,0,0,0,.81-1.51A1.48,1.48,0,0,0,264.13,47Zm.21,5a3.68,3.68,0,0,0-2.19-.56h-2.76V55c0,.18.09.26.28.26h2.8a3.31,3.31,0,0,0,1.75-.42,1.62,1.62,0,0,0,.88-1.43A1.91,1.91,0,0,0,264.34,52Z"/><path d="M272,50.19a3.56,3.56,0,0,0-1.6.62,3.94,3.94,0,0,0-.76.84,2.22,2.22,0,0,0-.46,1.24V56c0,.49-.19.74-.54.74s-.67-.25-.67-.74V49.5c0-.49.21-.74.65-.74s.56.25.56.74v1a3,3,0,0,1,2.59-1.5.62.62,0,0,1,.69.7A.45.45,0,0,1,272,50.19Z"/><path d="M279.71,53h-5.08a2.74,2.74,0,0,0,.71,1.77,2,2,0,0,0,1.64.72,2,2,0,0,0,1.35-.49,4.48,4.48,0,0,0,.76-1.06.59.59,0,0,1,.56-.3.61.61,0,0,1,.43.21.71.71,0,0,1,.21.51,2.29,2.29,0,0,1-.65,1.25,3.37,3.37,0,0,1-2.7,1.13,3.3,3.3,0,0,1-2.7-1.22,4.27,4.27,0,0,1-.93-2.87,4,4,0,0,1,1-2.75,3.35,3.35,0,0,1,2.59-1.18,3.3,3.3,0,0,1,2.59,1.15,3.63,3.63,0,0,1,1,2.5C280.48,52.83,280.22,53,279.71,53Zm-1.18-2.48a2.18,2.18,0,0,0-1.59-.55,2,2,0,0,0-1.41.53,2.59,2.59,0,0,0-.81,1.36h4.35c.07,0,.09,0,.09,0A2,2,0,0,0,278.53,50.56Z"/><path d="M287.83,56.83c-.42,0-.61-.24-.61-.74v-.63a5.23,5.23,0,0,1-1.48.93,3.91,3.91,0,0,1-1.64.39,2.8,2.8,0,0,1-1.75-.51,2,2,0,0,1-.81-1.73,2.36,2.36,0,0,1,1.36-2.18,5.51,5.51,0,0,1,2.66-.6h1.66c-.07-1.16-.74-1.75-2-1.75a3.42,3.42,0,0,0-1.27.25,2.09,2.09,0,0,0-1,.74c-.14.23-.28.34-.4.34-.48,0-.71-.23-.71-.73a1,1,0,0,1,.36-.65,3.89,3.89,0,0,1,3-1.2,2.84,2.84,0,0,1,3.24,3v4.38C288.45,56.59,288.24,56.83,287.83,56.83ZM287.22,53h-1.08c-2.18,0-3.28.53-3.28,1.55a.86.86,0,0,0,.37.73,1.49,1.49,0,0,0,.87.26,3.83,3.83,0,0,0,1.76-.48,3.38,3.38,0,0,0,1.36-1.14Z"/><path d="M295.18,56.29a5,5,0,0,1-2.25.47,4,4,0,0,1-2.42-.72c-.67-.48-1-.93-1-1.37s.24-.69.74-.69c.14,0,.28.1.42.32a2.41,2.41,0,0,0,2.2,1.21c1.38,0,2.08-.31,2.08-.95,0-.32-.31-.63-.93-.92-.25-.08-.72-.24-1.43-.45a8.77,8.77,0,0,1-1.87-.71,1.72,1.72,0,0,1-1-1.53,1.84,1.84,0,0,1,.94-1.68,4.08,4.08,0,0,1,2.24-.53,4.43,4.43,0,0,1,1.93.5c.78.39,1.19.86,1.19,1.43a.62.62,0,0,1-.71.68c-.16,0-.33-.17-.53-.53a1.91,1.91,0,0,0-1.81-.89c-1.27,0-1.91.35-1.91,1,0,.23.18.42.57.58A14.34,14.34,0,0,0,293,52a11.6,11.6,0,0,1,2.13.83,2.06,2.06,0,0,1,1.18,1.76A1.86,1.86,0,0,1,295.18,56.29Z"/><path d="M301.19,56.53h-1.37c-.85,0-1.27-.62-1.27-1.87V50.24h-.92c-.49,0-.72-.21-.72-.63s.23-.64.72-.64h.92V47.62c0-.5.19-.74.6-.74s.63.24.63.74V49h1.31c.47,0,.72.22.72.64s-.25.63-.72.63h-1.31V54.6c0,.45.07.68.25.68h1.16c.48,0,.72.21.72.64S301.67,56.53,301.19,56.53Z"/><path d="M310.94,56.78c-.42,0-.62-.26-.62-.81V46c0-.53.2-.81.62-.81s.63.28.63.81V56C311.57,56.52,311.36,56.78,310.94,56.78Z"/><path d="M324.6,56.76c-.43,0-.64-.24-.64-.74V51.27a1.33,1.33,0,0,0-.47-.94,1.4,1.4,0,0,0-.94-.33,1.86,1.86,0,0,0-1.28.42c-.48.39-.71.74-.71,1.06V56c0,.5-.21.74-.63.74s-.64-.24-.64-.74V51.48a1.72,1.72,0,0,0-.54-1,1.45,1.45,0,0,0-1-.45,1.86,1.86,0,0,0-1.35.56,1.8,1.8,0,0,0-.66,1.11V56c0,.5-.21.74-.59.74s-.66-.24-.66-.74V49.49c0-.5.2-.75.62-.75s.65.3.65.9v.11a2.53,2.53,0,0,1,4.2.23,3.14,3.14,0,0,1,2.62-1.24,2.65,2.65,0,0,1,1.85.75,2.36,2.36,0,0,1,.81,1.78V56C325.21,56.52,325,56.76,324.6,56.76Z"/><path d="M333,55.53a3.57,3.57,0,0,1-2.8,1.23,3,3,0,0,1-1.36-.33,2,2,0,0,1-1-.85V58c0,.5-.22.74-.64.74s-.62-.24-.62-.74V49.49c0-.5.2-.75.62-.75s.64.25.64.75V50a3,3,0,0,1,2.53-1.29,3.37,3.37,0,0,1,2.65,1.17,4.32,4.32,0,0,1,0,5.62Zm-.86-4.72a2.16,2.16,0,0,0-1.75-.8,2.32,2.32,0,0,0-1.83.8,2.82,2.82,0,0,0-.7,1.94,3,3,0,0,0,.56,1.93,2,2,0,0,0,1.78.83,2.29,2.29,0,0,0,1.83-.84,3.06,3.06,0,0,0,.71-2A2.94,2.94,0,0,0,332.16,50.81Z"/><path d="M337.43,56.8c-.42,0-.64-.25-.64-.74V45.93c0-.48.22-.73.64-.73s.61.25.61.73V56.06C338,56.55,337.83,56.8,337.43,56.8Z"/><path d="M347.05,56.83c-.42,0-.62-.24-.62-.74v-.63a5,5,0,0,1-1.48.93,3.84,3.84,0,0,1-1.64.39,2.78,2.78,0,0,1-1.74-.51,2,2,0,0,1-.81-1.73,2.36,2.36,0,0,1,1.36-2.18,5.51,5.51,0,0,1,2.66-.6h1.65c-.07-1.16-.74-1.75-2-1.75a3.37,3.37,0,0,0-1.26.25,2,2,0,0,0-1,.74c-.14.23-.28.34-.4.34-.48,0-.71-.23-.71-.73a1.07,1.07,0,0,1,.35-.65,3.92,3.92,0,0,1,3-1.2,2.86,2.86,0,0,1,3.25,3v4.38C347.67,56.59,347.46,56.83,347.05,56.83ZM346.43,53h-1.07c-2.19,0-3.28.53-3.28,1.55a.83.83,0,0,0,.37.73,1.48,1.48,0,0,0,.86.26,3.84,3.84,0,0,0,1.77-.48,3.35,3.35,0,0,0,1.35-1.14Z"/><path d="M355.58,56.78c-.42,0-.62-.25-.62-.74V51.83a1.71,1.71,0,0,0-.6-1.32A2.12,2.12,0,0,0,353,50a2.89,2.89,0,0,0-1.91.7,1.77,1.77,0,0,0-.74,1.3v4c0,.49-.17.74-.53.74s-.7-.25-.7-.74V49.49c0-.5.19-.75.62-.75s.61.25.61.75V50a3.4,3.4,0,0,1,4.94-.38,2.88,2.88,0,0,1,.95,2.2V56C356.2,56.53,356,56.78,355.58,56.78Z"/><path d="M361.45,56.53h-1.37c-.85,0-1.27-.62-1.27-1.87V50.24h-.92c-.49,0-.72-.21-.72-.63s.23-.64.72-.64h.92V47.62c0-.5.19-.74.6-.74s.63.24.63.74V49h1.3c.48,0,.73.22.73.64s-.25.63-.73.63H360V54.6c0,.45.07.68.25.68h1.16c.48,0,.72.21.72.64S361.93,56.53,361.45,56.53Z"/><path d="M377.79,56.8c-.21,0-.37-.2-.44-.58s-.14-.8-.21-1.22a9.37,9.37,0,0,0-.37-1.22A2.59,2.59,0,0,0,374.33,52h-3.65v4.07c0,.49-.21.74-.61.74s-.62-.25-.62-.74V46.19a.66.66,0,0,1,.74-.74h5.32a3,3,0,0,1,2.12.86,2.83,2.83,0,0,1,.88,2.08,3,3,0,0,1-.71,1.91,3.58,3.58,0,0,1-1.69,1.07,3.58,3.58,0,0,1,1.47,1.23,7.13,7.13,0,0,1,.72,1.68,7,7,0,0,1,.3,1.81C378.6,56.57,378.32,56.8,377.79,56.8Zm-1.15-9.62a1.88,1.88,0,0,0-1.32-.48H371a.26.26,0,0,0-.29.28v3.76h3.65a3.29,3.29,0,0,0,1.38-.29,2.49,2.49,0,0,0,1.09-.89,2.06,2.06,0,0,0,.37-1.11A1.62,1.62,0,0,0,376.64,47.18Z"/><path d="M386.23,53h-5.08a2.79,2.79,0,0,0,.71,1.77,2,2,0,0,0,1.64.72,1.94,1.94,0,0,0,1.35-.49,4.21,4.21,0,0,0,.76-1.06.6.6,0,0,1,.57-.3.61.61,0,0,1,.42.21.71.71,0,0,1,.21.51,2.29,2.29,0,0,1-.65,1.25,3.36,3.36,0,0,1-2.7,1.13,3.29,3.29,0,0,1-2.69-1.22,4.23,4.23,0,0,1-.94-2.87,4,4,0,0,1,1-2.75,3.35,3.35,0,0,1,2.59-1.18,3.3,3.3,0,0,1,2.59,1.15,3.64,3.64,0,0,1,1,2.5C387,52.83,386.74,53,386.23,53Zm-1.18-2.48a2.17,2.17,0,0,0-1.59-.55,2,2,0,0,0-1.41.53,2.59,2.59,0,0,0-.81,1.36h4.36c.07,0,.08,0,.08,0A2,2,0,0,0,385.05,50.56Z"/><path d="M395.1,49.91a3.43,3.43,0,0,0-.69.31,2.46,2.46,0,0,1,.33,1.15,2.18,2.18,0,0,1-1,1.85,3.59,3.59,0,0,1-2.06.64,3.22,3.22,0,0,1-1-.15c-.19.15-.28.27-.28.37s.14.18.46.29c.63.14,1.57.37,2.8.7,1,.35,1.5.92,1.5,1.71a1.75,1.75,0,0,1-1.25,1.59,5.31,5.31,0,0,1-2.14.42,6.18,6.18,0,0,1-2.44-.42,1.71,1.71,0,0,1-1.26-1.59c0-.74.59-1.3,1.75-1.67a1.07,1.07,0,0,1-.74-1,1.22,1.22,0,0,1,.46-.89,2.21,2.21,0,0,1-1-1.78,2.36,2.36,0,0,1,1-2,3.52,3.52,0,0,1,2.13-.65,3.56,3.56,0,0,1,1.92.55,2.52,2.52,0,0,1,1.43-.55.54.54,0,0,1,.6.62C395.61,49.66,395.43,49.84,395.1,49.91Zm-3.16,5.74c-1.71.25-2.55.64-2.55,1.13s.79.81,2.37.81a4.58,4.58,0,0,0,1.24-.16c.53-.14.81-.37.81-.65S393.17,56,391.94,55.65Zm.92-5.25a2.28,2.28,0,0,0-1.2-.39,2.21,2.21,0,0,0-1.23.34,1.17,1.17,0,0,0-.57,1.06,1,1,0,0,0,.65.91,2.44,2.44,0,0,0,1.22.28,1.94,1.94,0,0,0,1.07-.33,1.09,1.09,0,0,0,.6-.86A1.28,1.28,0,0,0,392.86,50.4Z"/><path d="M399.75,46.7a.91.91,0,0,1-1.25,0,.88.88,0,0,1,0-1.27.91.91,0,0,1,.63-.25.92.92,0,0,1,.62.25.91.91,0,0,1,0,1.27Zm-.62,10.12c-.42,0-.63-.25-.63-.76V49.5c0-.49.21-.74.63-.74s.62.25.62.74v6.56C399.75,56.57,399.54,56.82,399.13,56.82Z"/><path d="M408,56.29a5,5,0,0,1-2.25.47,4,4,0,0,1-2.42-.72c-.67-.48-1-.93-1-1.37s.24-.69.74-.69c.14,0,.28.1.42.32a2.41,2.41,0,0,0,2.2,1.21c1.38,0,2.08-.31,2.08-.95,0-.32-.31-.63-.93-.92-.25-.08-.72-.24-1.43-.45a8.77,8.77,0,0,1-1.87-.71,1.72,1.72,0,0,1-1-1.53,1.84,1.84,0,0,1,.94-1.68,4.08,4.08,0,0,1,2.24-.53,4.47,4.47,0,0,1,1.93.5c.78.39,1.18.86,1.18,1.43a.61.61,0,0,1-.7.68c-.16,0-.34-.17-.53-.53a1.91,1.91,0,0,0-1.81-.89c-1.27,0-1.91.35-1.91,1,0,.23.18.42.57.58a14.34,14.34,0,0,0,1.39.44,11.6,11.6,0,0,1,2.13.83,2.06,2.06,0,0,1,1.18,1.76A1.86,1.86,0,0,1,408,56.29Z"/><path d="M414,56.53H412.6c-.85,0-1.27-.62-1.27-1.87V50.24h-.92c-.49,0-.72-.21-.72-.63s.23-.64.72-.64h.92V47.62c0-.5.19-.74.6-.74s.63.24.63.74V49h1.3c.48,0,.73.22.73.64s-.25.63-.73.63h-1.3V54.6c0,.45.07.68.25.68H414c.48,0,.72.21.72.64S414.45,56.53,414,56.53Z"/><path d="M420,50.19a3.56,3.56,0,0,0-1.6.62,4.22,4.22,0,0,0-.76.84,2.22,2.22,0,0,0-.46,1.24V56c0,.49-.19.74-.54.74s-.67-.25-.67-.74V49.5c0-.49.21-.74.65-.74s.56.25.56.74v1a3,3,0,0,1,2.59-1.5.62.62,0,0,1,.69.7A.45.45,0,0,1,420,50.19Z"/><path d="M428.16,49.71,424,58.46a.55.55,0,0,1-.46.33c-.46,0-.67-.19-.67-.56a2,2,0,0,1,.34-.92l.83-1.55-3-6s0-.15,0-.37c0-.38.14-.58.46-.58a.67.67,0,0,1,.6.39l2.68,5.22,2.52-5.22a.59.59,0,0,1,.58-.39c.3,0,.46.2.46.58A1.17,1.17,0,0,1,428.16,49.71Z"/></svg>