<svg xmlns="http://www.w3.org/2000/svg" xmlns:xlink="http://www.w3.org/1999/xlink" viewBox="0 0 310 80"><defs><radialGradient id="a" cx="137.55" cy="35" r="191.56" gradientTransform="translate(-0.23 0.35) scale(1.13 1.13)" gradientUnits="userSpaceOnUse"><stop offset="0" stop-color="#fff"/><stop offset="0.5" stop-color="#ffebef"/><stop offset="1" stop-color="#ffccd9"/></radialGradient></defs><path d="M270.5,0a39.14,39.14,0,0,0-28.87,12.72,39.13,39.13,0,0,0-57.75,0,39.13,39.13,0,0,0-57.75,0,39.13,39.13,0,0,0-57.75,0A39.18,39.18,0,0,0,39.5,0C17.68,0,0,17.91,0,40S17.68,80,39.5,80A39.18,39.18,0,0,0,68.38,67.28a39.13,39.13,0,0,0,57.75,0,39.13,39.13,0,0,0,57.75,0,39.13,39.13,0,0,0,57.75,0A39.14,39.14,0,0,0,270.5,80C292.32,80,310,62.09,310,40S292.32,0,270.5,0Z" fill="url(#a)"/><path d="M111.19,37.22l1.49-.42a2.26,2.26,0,0,1,.51-.08,2.15,2.15,0,0,0,1.87-1.36,2.07,2.07,0,0,0,0-.5,2.3,2.3,0,0,1,.22-1.21c.06-.09,0-.27,0-.4a1.41,1.41,0,0,0-.14-.31.54.54,0,0,0-.18-.15c-.09-.06-.21-.08-.27-.15a.29.29,0,0,1,0-.27,1.79,1.79,0,0,1,1-.52.61.61,0,0,1,.57.22,1.18,1.18,0,0,1,.33,1.25s0,.11,0,.14a1.35,1.35,0,0,1,.08.77c0,.22.11.3.3.3a1.57,1.57,0,0,1,.85.17c.09,0,.23,0,.34,0s.35.08.52.1.31,0,.47,0a2.86,2.86,0,0,1,1.61.17.54.54,0,0,1,.24.59.19.19,0,0,1-.07.13,5.1,5.1,0,0,1-.82.31,4.15,4.15,0,0,0-.48.11c-.37.12-.74.22-1.11.32l-1.89.55c-.27.07-.54.16-.8.25s-.25.21-.32.4a8.74,8.74,0,0,1-.57,1.55c-.33.6-.55,1.25-.89,1.84a5.49,5.49,0,0,1-1.07,1.59,4.66,4.66,0,0,0-.39.49s0,.08-.06.1c-.31.31-.63.62-.93.94a1.55,1.55,0,0,1-.78.43.76.76,0,0,0-.36.25c-.23.28-.34.33-.66.21l-.15,0c-.54,0-.62-.39-.58-.76,0-.08.13-.2.22-.22a2.82,2.82,0,0,0,1.22-.78,4.74,4.74,0,0,1,.49-.4,4.72,4.72,0,0,0,.84-.89,3.68,3.68,0,0,1,.39-.4c.06,0,.14-.09.16-.16.18-.52.67-.82.89-1.31s.4-.92.6-1.37a1.2,1.2,0,0,0,.21-.66c0-.29-.07-.36-.35-.36a5.33,5.33,0,0,1-.8,0,3.87,3.87,0,0,1-.67-.17l-.65-.17A3.57,3.57,0,0,1,111.19,37.22Z" fill="#da4d6d"/><path d="M65.25,29a2.6,2.6,0,0,0,.3-.06,1.14,1.14,0,0,1,1,.11c.22.1.23.3.08.49a2.77,2.77,0,0,1-1.08.64l-.59.25c-.36.14-.4.5-.54.81a.65.65,0,0,0,.59,0l.73-.27a.47.47,0,0,1,.61.2.23.23,0,0,0,.13.06.25.25,0,0,1,.23.35c0,.19-.08.39-.38.46a15.69,15.69,0,0,0-2.13.61,9.08,9.08,0,0,0-1.24.72l-.49.3-.53.38a13.53,13.53,0,0,0,.74,1.24.63.63,0,0,0,.69.21c.45-.13.9-.27,1.33-.44a1.27,1.27,0,0,0,.43-.34,2.27,2.27,0,0,0,.33-.48.83.83,0,0,0,0-.28c-.1,0-.22,0-.29,0a2.06,2.06,0,0,1-1.74.19s-.11-.07-.11-.1,0-.13.1-.14.4-.14.59-.2l1.62-.5a.39.39,0,0,0,.13-.06,1,1,0,0,1,1.07-.14.5.5,0,0,1,.34.76,6.92,6.92,0,0,1-.67.78,3.07,3.07,0,0,1-.25.26c-.16.18-.17.2-.09.51l-.74.23-.64.2a3.53,3.53,0,0,1-1.41,0,.63.63,0,0,0-.19,0c0,.06,0,.14.06.18s.19.18.27.28a.3.3,0,0,1,0,.18.14.14,0,0,1-.13.08,3.14,3.14,0,0,1-1.39-.31.84.84,0,0,1-.36-.66c0-.34-.06-.67-.11-1a1.5,1.5,0,0,0-.19-.38L59.6,35.53c0-.1,0-.16,0-.17l1.48-1.28c.18-.15.34-.33.55-.52.28.1.53-.08.76-.31a1.23,1.23,0,0,1,.58-.38.52.52,0,0,0,.35-.75.71.71,0,0,1,0-.41c.07-.22.18-.43.25-.68-.5.13-.94.43-1.51.27a5.52,5.52,0,0,1-1.47-.68c.34-.07.61-.1.87-.17s.6-.23.91-.33a5.83,5.83,0,0,1,.92-.21,1.64,1.64,0,0,0,1.25-1.12,4.71,4.71,0,0,0,.12-.85A1,1,0,0,0,64,27a.4.4,0,0,1-.17-.19,2.42,2.42,0,0,1,1.28.1.84.84,0,0,1,.45,1c-.07.31-.2.61-.3.91Z" fill="#da4d6d"/><path d="M79.93,38.76c0-.35.06-.65.06-.94s-.06-.48-.08-.73a1.28,1.28,0,0,1,0-.19,1.77,1.77,0,0,0,0-.46,3.38,3.38,0,0,1,0-.71,5,5,0,0,0-.15-1.08.78.78,0,0,0,0-.14,4.08,4.08,0,0,0-.16-.6c-.14-.34-.13-.4.2-.49a1.59,1.59,0,0,1,1.49.22.43.43,0,0,1,.13.34,7.62,7.62,0,0,1-.22.82.72.72,0,0,0,.17.8.86.86,0,0,0,.38.16,4.62,4.62,0,0,0,.64.06l1.13,0c.14,0,.21.06.15.2a1.07,1.07,0,0,0-.07.19c0,.12,0,.32-.06.36a2.27,2.27,0,0,1-.57.2c-.37.11-.74.22-1.1.35-.08,0-.14.12-.21.16a.38.38,0,0,1-.21.05c-.19,0-.35,0-.4.21s-.19.54,0,.81a.84.84,0,0,1,.1.36.55.55,0,0,0,.31.45,4.48,4.48,0,0,1,.68.37,3.94,3.94,0,0,1,.51.49.12.12,0,0,1,0,.11c0,.19-.37.45-.55.38L81,40.15a1.3,1.3,0,0,0-.33-.07c-.44-.06-.54-.41-.64-.74A3.25,3.25,0,0,1,79.93,38.76Z" fill="#da4d6d"/><path d="M81.28,50.39v2.82H80.6V49.27h1.11l.61,2.52h.05c.15-.66.3-1.32.46-2a3.74,3.74,0,0,1,.12-.45.21.21,0,0,1,.16-.11h1v4a4,4,0,0,1-.6,0s-.11-.15-.11-.23c0-.78,0-1.57,0-2.36V50.4h0c-.1.49-.2,1-.31,1.47s-.2.79-.28,1.18a.2.2,0,0,1-.24.19c-.48,0-.51,0-.62-.45-.19-.71-.34-1.43-.51-2.15a2.17,2.17,0,0,0-.07-.24Z" fill="#da4d6d"/><path d="M60,37.91c.28,0,.56-.11.84-.14.11,0,.23,0,.34,0a11.49,11.49,0,0,0,1.17-.22c.77-.21,1.54-.44,2.3-.68.52-.17,1-.39,1.55-.56a9,9,0,0,1,1.52-.41,4.68,4.68,0,0,1,1.54,0,3.45,3.45,0,0,1,2,.88.61.61,0,0,1-.17.89c-.27.12-.56.2-.85.3a13.16,13.16,0,0,1-2.07.35,10,10,0,0,1-1.09.08,9.65,9.65,0,0,0,2.73-1.57c.06,0,.08-.15.13-.26a2.7,2.7,0,0,0-1.13-.34c-.26,0-.51-.07-.77-.09a2.89,2.89,0,0,0-.29,0,4.14,4.14,0,0,0-1.92.61c-.54.29-1,.67-1.52,1a5.17,5.17,0,0,1-2,1,1.93,1.93,0,0,1-1.3-.25L60.08,38a.58.58,0,0,0-.19,0Z" fill="#da4d6d"/><path d="M72.73,37.44a2.78,2.78,0,0,1,.45-.29.33.33,0,0,1,.29,0c.16.14.28.07.4,0a.63.63,0,0,1,.62-.19c.05,0,.19-.12.22-.21a1.89,1.89,0,0,0,0-1.13c-.1-.3-.22-.59-.34-.88a.39.39,0,0,1,.21-.48c.16-.1.25-.19.13-.38s0-.13,0-.2a1,1,0,0,1,.91.28,2.37,2.37,0,0,1,.9,1.23,4.78,4.78,0,0,0,.13.74,2.21,2.21,0,0,1,0,1.17c-.06.24,0,.51,0,.76a6.22,6.22,0,0,1-.3,1,.27.27,0,0,1-.25,0,9.28,9.28,0,0,1-.69-.71c-.24-.25-.4-.59-.75-.71a.84.84,0,0,0-.31-.05L73,37.51A1.11,1.11,0,0,1,72.73,37.44Z" fill="#da4d6d"/><path d="M74.6,51.48v1.1h2.3v.69h-3c-.2,0-.18-.16-.18-.28V49.15h3.06c0,.22.06.43.06.63,0,0-.13.11-.2.11h-2v.85h2v.74Z" fill="#da4d6d"/><path d="M109.15,50.74v2.47h-.67v-4h.63a.28.28,0,0,1,.16.13l.68,1.21a12.48,12.48,0,0,0,.7,1.14V49.24c.2,0,.39,0,.57,0a.25.25,0,0,1,.12.16c0,.25,0,.5,0,.75,0,.94,0,1.89,0,2.83,0,.2,0,.25-.26.29-.5.09-.65-.25-.83-.58l-1-1.75S109.22,50.83,109.15,50.74Z" fill="#da4d6d"/><path d="M87.54,52.52v.69H85c-.2,0-.28,0-.28-.26,0-1.16,0-2.32,0-3.48,0-.09,0-.17,0-.27h2.55a.2.2,0,0,1,.14.09,2.08,2.08,0,0,1,0,.5s-.14.12-.22.12c-.48,0-1,0-1.44,0h-.25v.84h1.76v.69H85.58v1.05Z" fill="#da4d6d"/><path d="M116.82,49.26h2.74c0,.14,0,.28,0,.42s-.06.27-.27.27c-.54,0-1.09,0-1.67,0v.85h1.75l0,.06c0,.63,0,.63-.61.63h-1.2v1h2v.7H117c-.14,0-.21,0-.21-.2Z" fill="#da4d6d"/><path d="M126.46,50.37a3.88,3.88,0,0,1-.57.05c-.06,0-.14-.09-.17-.16a.72.72,0,0,0-1.09-.29.29.29,0,0,0,.05.51,6.66,6.66,0,0,0,.85.31,1.38,1.38,0,0,1,.91.59,1.29,1.29,0,0,1,0,1.25,1.14,1.14,0,0,1-1,.64,1.94,1.94,0,0,1-1.06-.15,1.27,1.27,0,0,1-.66-1.21l.5-.08c.12,0,.19,0,.23.16a.74.74,0,0,0,1.06.53.48.48,0,0,0,.34-.46c0-.24-.15-.35-.34-.42-.35-.13-.73-.21-1.07-.36a1,1,0,0,1-.63-1.2,1.1,1.1,0,0,1,.77-.86,1.65,1.65,0,0,1,1.63.31A1,1,0,0,1,126.46,50.37Z" fill="#da4d6d"/><path d="M117.41,39.65c.28-.07.55-.14.83-.19a3.58,3.58,0,0,1,.8-.1,7.23,7.23,0,0,1,.91.16,6.48,6.48,0,0,1,1.15.3,6.29,6.29,0,0,1,1.14.73c.54.41.34,1,.33,1.54,0,.13-.22.25-.3.4s-.26.12-.41.1l-1.12-.1h0c-.11-.06-.26-.1-.32-.19s.1-.2.16-.3a.57.57,0,0,1,.11-.11c.28-.23.33-.38.1-.65a8.27,8.27,0,0,0-.74-.71,1.14,1.14,0,0,0-.67-.24c-.32-.06-.64-.16-1-.25l-.94-.29Z" fill="#da4d6d"/><path d="M107,49.22h.74v.27c0,.73,0,1.46,0,2.19a4.61,4.61,0,0,1-.11.82,1.05,1.05,0,0,1-1,.76,1.94,1.94,0,0,1-1.09-.1,1.19,1.19,0,0,1-.7-1.12c0-.92,0-1.83,0-2.77h.74v2.59a.7.7,0,0,0,.4.67.76.76,0,0,0,.73-.07c.26-.16.25-.47.26-.73C107,50.91,107,50.08,107,49.22Z" fill="#da4d6d"/><path d="M96.22,50.31l-.71.24a1.19,1.19,0,0,1-.09-.15.65.65,0,0,0-.6-.51.77.77,0,0,0-.82.44,2.38,2.38,0,0,0-.14,1.24,1.24,1.24,0,0,0,.36.83.72.72,0,0,0,1.15-.29c0-.12.09-.24.15-.36a6,6,0,0,1,.6.19.24.24,0,0,1,.07.19A1.48,1.48,0,0,1,95,53.27a1.54,1.54,0,0,1-1.73-1.08A2.88,2.88,0,0,1,93.34,50,1.62,1.62,0,0,1,95,49.18,1.44,1.44,0,0,1,96.22,50.31Z" fill="#da4d6d"/><path d="M113.12,49.25h.82l.87,2.82c.08-.22.16-.4.21-.58q.32-1,.6-2a.28.28,0,0,1,.34-.23l.5,0a.48.48,0,0,1,0,.17c-.26.81-.53,1.62-.79,2.42-.13.41-.26.82-.4,1.22a.3.3,0,0,1-.19.16c-.22,0-.45,0-.67,0Z" fill="#da4d6d"/><path d="M64,49.9H62.82v3.37c-.23,0-.45,0-.66,0s-.24-.08-.24-.25c0-1,0-1.89,0-2.84V49.9H60.74v-.73H64Z" fill="#da4d6d"/><path d="M76.33,39.82A5.37,5.37,0,0,0,74.85,41c-.39.49-.79,1-1.19,1.44-.45-.33-.72-.26-.83.26-.45-.11-.9-.19-1.34-.32-.27-.08-.38-.43-.29-.8s.13-.48.66-.43a4.34,4.34,0,0,0,1-.06c.41,0,.81-.11,1.21-.18a.4.4,0,0,0,.17-.09c.1-.08.19-.22.31-.25a2,2,0,0,0,.89-.51A1.06,1.06,0,0,1,76.33,39.82Z" fill="#da4d6d"/><path d="M131.3,49.26h.87s.06.05.08.09l.76,1.43.81-1.54h.87c-.17.31-.33.58-.48.86s-.49.81-.71,1.22a1,1,0,0,0-.1.44c0,.42,0,.83,0,1.25,0,.16-.06.22-.22.22-.71,0-.57.09-.58-.57a1.85,1.85,0,0,1,0-.47,2.11,2.11,0,0,0-.44-1.46l-.58-1Z" fill="#da4d6d"/><path d="M58.83,37.21a.56.56,0,0,1,.38.41q.24.71.42,1.44a2.49,2.49,0,0,1-.23,1.65.79.79,0,0,1-1,.48.33.33,0,0,1-.13-.13c-.17-.35-.36-.7-.5-1.07a.55.55,0,0,1,.09-.43,4.77,4.77,0,0,0,.77-1.72C58.71,37.65,58.76,37.44,58.83,37.21Z" fill="#da4d6d"/><path d="M129.41,53.22v-3c0-.19,0-.35-.26-.28a4,4,0,0,1-.6,0c-.16,0-.25,0-.24-.21a3.72,3.72,0,0,0,0-.48h2.91l0,.64h-.85c-.16,0-.2.1-.2.24,0,.94,0,1.87,0,2.81,0,.22-.06.3-.28.28A3.61,3.61,0,0,0,129.41,53.22Z" fill="#da4d6d"/><path d="M100.49,49.28l.05,0c.7-.07.7-.07.7.63v2.63H103v.68h-2.53Z" fill="#da4d6d"/><path d="M77.57,49.15a5.55,5.55,0,0,1,.71,0,.23.23,0,0,1,.16.17c0,1.22,0,2.44,0,3.66,0,.21,0,.31-.27.29s-.4,0-.61,0Z" fill="#da4d6d"/><path d="M68.26,53.27v-4.1h.84v4.1Z" fill="#da4d6d"/><path d="M112.79,53.21c-.75.06-.75.06-.75-.64v-3.3h.75Z" fill="#da4d6d"/><path d="M127.9,53.21c-.73.06-.73.06-.73-.64V49.25h.73Z" fill="#da4d6d"/><path d="M91.77,53.22v-4a5.61,5.61,0,0,1,.58,0,.24.24,0,0,1,.17.17c0,1.19,0,2.39,0,3.58,0,.16-.06.24-.24.23A4.47,4.47,0,0,0,91.77,53.22Z" fill="#da4d6d"/><path d="M127.2,34c0,.3-.08.6-.13.9s-.15.24-.36.19a.71.71,0,0,1-.59-.8,1.09,1.09,0,0,0-.38-.86.56.56,0,0,1-.13-.44c0-.26.12-.29.39-.21a5.74,5.74,0,0,0,.81.23c.22,0,.26.2.3.35s0,.43.06.64Z" fill="#da4d6d"/><path d="M99.23,32.49l.44.1a.77.77,0,0,1,.49.7c0,.35.07.69.11,1a.77.77,0,0,1,0,.3c-.07.35-.16.69-.24,1a1.51,1.51,0,0,1-.1.3c-.09.16-.21.16-.3,0a1.65,1.65,0,0,1-.19-1.26,1.45,1.45,0,0,0,0-.35,8.38,8.38,0,0,0,0-.87,5.63,5.63,0,0,0-.14-.69Z" fill="#da4d6d"/><path d="M67.14,41.67l.15-.07a1.34,1.34,0,0,1,1.59,1,.63.63,0,0,1-.29.71,1.08,1.08,0,0,1-.75,0c-.09,0-.2,0-.3,0a.23.23,0,0,1-.1-.08c.22-.2.44-.37.63-.56s0-.5-.19-.62a1.33,1.33,0,0,0-.3-.23A1.93,1.93,0,0,0,67.14,41.67Z" fill="#da4d6d"/><path d="M135.85,35.22c-.15-.12-.16-.43-.47-.36a.81.81,0,0,0-.9-.19,20.61,20.61,0,0,0-2.06.5c-.3.12-.64.16-.95.26l-.81.28h-.36a4.6,4.6,0,0,1,1-.78c.51-.28,1-.56,1.52-.85.27-.16.5-.39.78-.54a2.66,2.66,0,0,0,1.11-1,.67.67,0,0,0-.22-.81,1.87,1.87,0,0,0-1.55-.06c-.48.16-.94.37-1.4.55-.15-.19-.29-.34-.4-.5a.28.28,0,0,1,0-.25c.09-.15.22-.27.32-.41l.75-1a.88.88,0,0,0,.14-.9.47.47,0,0,0-.34-.25,4,4,0,0,0-.91,0c-.32.05-.33.12-.29.45a.35.35,0,0,1-.1.25c-.18.22-.38.42-.57.64a3.37,3.37,0,0,1-.43.55,2.07,2.07,0,0,0-.64.88,4.23,4.23,0,0,1-.23.41h-.08a1.42,1.42,0,0,1,0-.35c.06-.4.14-.8.23-1.2a.79.79,0,0,0-.42-1,2.87,2.87,0,0,0-.66,0l-.56,0a.47.47,0,0,0-.17,0l-.06.1c.11.07.21.16.33.23a1,1,0,0,1,.46.9,1.47,1.47,0,0,0,0,.42,12.49,12.49,0,0,1,.19,2.2,2.08,2.08,0,0,1,0,.35,4.43,4.43,0,0,1-.06,1,.89.89,0,0,0,0,.7.18.18,0,0,1-.05.17,6.17,6.17,0,0,1-.57.44l-1.52,1.1-1.13.84a.83.83,0,0,0-1.3.5c-.08.32.05.68.27.71a1.34,1.34,0,0,0,.66,0c.51-.22,1-.48,1.5-.74s1.13-.62,1.7-.93c.25-.14.49-.29.75-.42s.56-.26.84-.37a3.8,3.8,0,0,0,.54-.18,5.14,5.14,0,0,1,1.67-.71c.33-.07.66-.16,1-.26l1.19-.39h.34l-.36.63-.29.14a4.12,4.12,0,0,0-1,.65,6.92,6.92,0,0,1-1.22.91,1.24,1.24,0,0,1-.71.22.79.79,0,0,0-.64.24c-.17.13-.38.25-.29.57s.23.38.48.27l.44-.2a1.91,1.91,0,0,1,.57-.19c.22,0,.26.05.16.26s-.12.16-.16.26c-.11.28-.39.39-.6.56-.4.34-.84.63-.79,1.26a.41.41,0,0,0,.27.39c.32.15.73.07,1,.37,0,.06.09.11.13.16s-.13.1-.2.1c-.3,0-.6,0-.91.06a1.84,1.84,0,0,0-.41,0c-.36.09-.71.21-1.07.29A3,3,0,0,0,127,43a.78.78,0,0,0,.24,1.22,1.45,1.45,0,0,1,.75.44.73.73,0,0,0,.36.21c.38.11.78.2,1.17.28a.9.9,0,0,0,.46,0,2.68,2.68,0,0,0,1.25-.62,2.37,2.37,0,0,0,.52-.53c.23-.41.4-.85.59-1.28a1.16,1.16,0,0,0,0-.32l.77-.06c.42,0,.82.19,1.25.09a.51.51,0,0,0,.28-.12.3.3,0,0,0,0-.27,1.3,1.3,0,0,0-.73-.67,2.74,2.74,0,0,0-1.42-.05c-.19,0-.38.07-.51-.16a1,1,0,0,0-.33-.31c-.21-.14-.44-.26-.7-.42a2.06,2.06,0,0,1,.42-.45,3.15,3.15,0,0,0,1-.89.4.4,0,0,0,.07-.45c-.16-.25-.34-.48-.55-.77a6.83,6.83,0,0,1,.66-.3c.3-.13.63-.21.93-.34s.6-.34.91-.5l1.32-.61c.11-.05.27-.13.28-.22A.71.71,0,0,0,135.85,35.22Zm-3.4-2.63c0,.12,0,.25,0,.31-.22.25-.46.47-.71.73C131.57,33,131.75,32.76,132.45,32.59Zm-2.79.58c-.21.15-.4.31-.6.46a.23.23,0,0,1-.1,0,3,3,0,0,1,.83-1.92c0,.11.06.22.07.33,0,.37.16.48.54.47,0,0,.15.08.14.11s0,.18-.1.2a5.34,5.34,0,0,1-.52.18A1.26,1.26,0,0,0,129.66,33.17Zm1.49,9.58a1.38,1.38,0,0,1-.61.88s-.08,0-.1.06c-.32.4-.8.36-1.22.42a1.85,1.85,0,0,1-.75-.21.82.82,0,0,1-.22-.16c-.08-.06-.23-.18-.22-.2a.92.92,0,0,1,.29-.35,6,6,0,0,1,1.47-.51c.35-.07.69-.19,1-.29S131.15,42.31,131.15,42.75Z" fill="#da4d6d"/><path d="M94.79,34.92c-.33-.21-.68-.4-1-.58-.17-.09-.29-.22-.21-.38a1.11,1.11,0,0,0,0-.84.49.49,0,0,1,0-.47,2,2,0,0,0,.18-1.7.74.74,0,0,0-.88-.52.83.83,0,0,1,.21.79,3.83,3.83,0,0,1-.41.87,1.84,1.84,0,0,0-.33,1.37.88.88,0,0,1-.61,1.07l-.18.08-.7.43-.06,0,.78-1.78-.06,0-1.21,2.2-.08,0c-.18-.48-.58-.26-.9-.3l0-.08,1.11-.66c.06-.46-.11-.61-.41-.67a.74.74,0,0,0-.71.13s-.13.08-.17.06c-.22-.11-.4,0-.6.08s-.47.12-.77.2a.85.85,0,0,1,.07-.29,7,7,0,0,1,.74-.8A9.12,9.12,0,0,1,90.1,32c.18-.11.37-.25.33-.51s-.23-.34-.55-.32a4.57,4.57,0,0,0-.72.14c-.66.12-1.32.24-2,.34-.31.05-.63.06-1,.09.24.2.43.37.64.52a1.59,1.59,0,0,0,1.58.09c.13-.05.24-.1.34.06l-.49.55c-.16.18-.33.35-.48.53l-.14.18a.47.47,0,0,1-.45.23,2.33,2.33,0,0,0-.39,0,.62.62,0,0,1,.31.66c.3.22.3.22.65.16a.48.48,0,0,1,.5.29c0,.11-.06.33-.15.36-.34.13-.33.4-.31.67,0,.44.35.67.68.54l.71-.29a.49.49,0,0,1,.17,0,.53.53,0,0,1,0,.18s-.07.08-.12.12l-1.55,1a3.65,3.65,0,0,1-.64.28.28.28,0,0,1-.2-.07,2.05,2.05,0,0,1-.06-.49c0-.54.1-1.08.09-1.62a1.53,1.53,0,0,0-.23-1c-.1-.12-.08-.33-.13-.54a2.54,2.54,0,0,0-.17.46c-.07.3-.11.61-.15.91l-.21,1.62a4.85,4.85,0,0,1-.08.55.91.91,0,0,0,.57,1c.24,0,.5.14.72-.08a1.87,1.87,0,0,1,.3-.26c.51-.34,1-.77,1.43-1.15a14.08,14.08,0,0,0,1.48-1.51c.13-.15.2-.11.31,0a.79.79,0,0,0,.34.2,1.13,1.13,0,0,0,.45,0c.14,0,.28-.1.41-.14a1.07,1.07,0,0,0,.38-.13c.3-.28.57-.58.86-.87a.26.26,0,0,1,.18-.09.17.17,0,0,1,.11.15,1.62,1.62,0,0,1-.1.54,9.85,9.85,0,0,1-.64,1,1.34,1.34,0,0,1-.42.4c-.69.35-1.39.68-2.09,1l-1.88.85-.68.29a1.25,1.25,0,0,0,1.3.06c.26-.13.5-.3.76-.44a1.15,1.15,0,0,1,.19,0,.53.53,0,0,1,0,.18c-.1.2-.2.4-.32.59a1.31,1.31,0,0,1-.25.32,1.29,1.29,0,0,1-.23.12c0,.17,0,.29,0,.38-.24.49-.48,1-.75,1.46a3.37,3.37,0,0,0-.46,1.81,2,2,0,0,0,.46,1.23c.07.09.27.1.41.1s.13-.15.15-.24.05-.4.08-.6,0-.11,0-.16a4.91,4.91,0,0,1,.1-1.16,11.18,11.18,0,0,1,.65-1.41h.1a3.44,3.44,0,0,1,.3.53c.07.18-.13.23-.23.31s0,.09-.09.12-.25.15-.14.31.19.28.41.2a4.68,4.68,0,0,1,.54-.1,2.49,2.49,0,0,1-.44.47,3.46,3.46,0,0,1-.52.36c-.32.16-.3.31-.27.61a.15.15,0,0,0,.22.14,6.61,6.61,0,0,0,.76-.36c.28-.17.53-.4.81-.57a4.12,4.12,0,0,1,.64-.3l0,.06-1,1.19.07.08c.13-.06.27-.11.4-.18s.53-.32.84,0a.48.48,0,0,0,.32.08,1.34,1.34,0,0,0,1.21-.77,5.57,5.57,0,0,0,.41-.93.71.71,0,0,0,0-.21l.06-.43a1,1,0,0,0,0-.14,3.19,3.19,0,0,1,.22-1.45c-.11-.13-.26-.23-.3-.36a1.35,1.35,0,0,0-1.26-1,3.2,3.2,0,0,1-.61-.15,2.39,2.39,0,0,0-.45-.09A.89.89,0,0,0,91,39h.12c.37,0,.44.1.37.45,0,0,0,.07,0,.11s0,.18,0,.24c-.22.41-.46.82-.7,1.22-.06.1-.17.13-.25,0l-.11-.21c-.15-.29-.32-.57-.46-.87,0-.08-.09-.22-.05-.29a3.09,3.09,0,0,1,1-1.22,9.13,9.13,0,0,1,1.13-.56,3.38,3.38,0,0,0,.62-.26,1.73,1.73,0,0,0,.42-.47.37.37,0,0,0,0-.29c0-.05-.16-.06-.27-.09s0-.1.07-.14A2.21,2.21,0,0,1,94.41,36c.21,0,.47,0,.56-.29A.63.63,0,0,0,94.79,34.92Zm-5.73,6.6c.1-.27.18-.51.29-.74s.14-.15.22,0a1,1,0,0,1,.12.29C89.69,41.21,89.28,41.52,89.06,41.52ZM91.38,41a7.74,7.74,0,0,0,1.18-1.43c.07-.1,0-.34.25-.29a.73.73,0,0,1,.33.24,3.64,3.64,0,0,1,.42.63c0,.08,0,.22,0,.33a.69.69,0,0,0,0,.24,1.36,1.36,0,0,1,.07.35c0,.42-.11.84-.15,1.26a1.77,1.77,0,0,1-1.24,1.27l-.18,0L92,43.49l.21-.09a5,5,0,0,0,.54-.35c.09-.07.2-.19.18-.27a.36.36,0,0,0-.35-.34,3.23,3.23,0,0,0-.51.14l-.54.15s-.07,0-.17-.07c.46-.25.88-.44,1.26-.68s.58-.34.58-.73a.4.4,0,0,0-.42-.41,2,2,0,0,0-.94.23,4.94,4.94,0,0,1-.49.19l0,0A.52.52,0,0,1,91.38,41Z" fill="#da4d6d"/><path d="M109.05,35.2a8.65,8.65,0,0,0-.76-.47c-.16-.1-.36-.26-.5-.23-.35.09-.69,0-1,.11a13.77,13.77,0,0,1-2,.68c-.15,0-.3.1-.43-.08l.26-.11c.63-.27,1.25-.56,1.88-.81a2.64,2.64,0,0,0,1.08-.75.39.39,0,0,0,.12-.25,1.14,1.14,0,0,0-.89-.8,1.57,1.57,0,0,1-.92-.24.37.37,0,0,1-.22-.37c0-.21,0-.42,0-.62s.11-.32.19-.34a1.92,1.92,0,0,1,1-.08c.26.08.43,0,.57-.31s0-.36-.14-.51-.55-.19-.85-.22a1.69,1.69,0,0,1-.62-.17,2.73,2.73,0,0,1-.37-.32,1.07,1.07,0,0,0-1.09,0c0,.31,0,.6,0,.89a.69.69,0,0,1-.13.38,5.15,5.15,0,0,1-.45.32c-.36.3-.7.61-1.06.9a1.15,1.15,0,0,1-.25.12,1.2,1.2,0,0,1-.09-.29c0-.39.09-.78.09-1.17a.74.74,0,0,0-.23-.42s-.21,0-.28.06c-.28.18-.54.39-.82.6a1.17,1.17,0,0,1,.19.3,2.84,2.84,0,0,1,0,.58c0,1,0,1.93,0,2.9a1.25,1.25,0,0,1,0,.19c-.09.52-.25,1,.15,1.52,0,0,0,.07.05.13l-.52.27c-.31.15-.62.27-.92.43s-.58.37-.89.52c-.51.25-1,.46-1.54.71a7.29,7.29,0,0,1-1.86.79.21.21,0,0,0-.09.18c0,.21.09.43.14.64a.63.63,0,0,0,1,.42,9.38,9.38,0,0,0,.9-.6c.18-.14.32-.31.5-.45s.62-.46.94-.68.71-.53,1.09-.76,1-.59,1.54-.87c.35-.19.71-.38,1.08-.54.21-.08.44-.11.65-.19a2.57,2.57,0,0,1,1.25-.19c.1,0,.19.07.29.1s-.07.21-.14.26c-.34.26-.7.49-1,.73l-.58.4a2.59,2.59,0,0,1-.29.14l0,.06c.42-.09.9,0,1.17-.44a1.39,1.39,0,0,0,.29,0c.32-.08.64-.18,1-.25a8.35,8.35,0,0,1,1.29-.24,4.41,4.41,0,0,0,1.92-.46,2.38,2.38,0,0,0,.44-.25A.53.53,0,0,0,109.05,35.2Zm-3.32-2.56s0-.07.07-.09c.22-.09.72.27.72.58a.77.77,0,0,1-.42.56c-.12.07-.26.12-.4.19a1.69,1.69,0,0,1-.12-.48A5.1,5.1,0,0,1,105.73,32.64Zm-1.44-.92c-.05.18,0,.4,0,.59a1.19,1.19,0,0,1-.27.44c-.21.23-.45.43-.66.66a.72.72,0,0,0,.06.91c.12.16.27.3.4.45s.15.28,0,.47c-.39.4-1,.36-1.38.63l-.09,0c0-.1,0-.2,0-.3s0-.22,0-.34c0-.6,0-1.21.11-1.81a2.91,2.91,0,0,1,.63-1.22,1.89,1.89,0,0,1,.78-.73,1.37,1.37,0,0,0,.21-.15A.3.3,0,0,1,104.29,31.72Z" fill="#da4d6d"/><path d="M67.28,44.47a3.65,3.65,0,0,1-.54-1.25,1,1,0,0,0-.13-.27l0,0c0,.09,0,.18,0,.26s-.06.38-.11.55-.1.34-.2.37c-.5.16-1,.29-1.53.41-.09,0-.21-.07-.31-.11a.89.89,0,0,1,.16-.22c.2-.17.36-.34.18-.62a.13.13,0,0,1,0-.13c.12-.12.26-.22.39-.33l0,0-.29.39.08.07.19-.21c0,.2.08.17.21,0s.54-.5.81-.75c0,0,.12-.1.12-.15,0-.39.09-.79-.18-1.15s-.28-.46-.57-.51-.33,0-.5,0l-.56-.08c.07-.07.09-.11.13-.14.27-.22.54-.45.82-.66s.47-.31.7-.47a1.14,1.14,0,0,0,.47-.57c.07-.19.1-.36-.13-.47a4.83,4.83,0,0,1-.55-.3.71.71,0,0,0-.59,0,3,3,0,0,0-.78.47c-.44.28-.91.53-1.35.82a1.17,1.17,0,0,1-.76.26,1.51,1.51,0,0,0-.41.06,2.2,2.2,0,0,1-1.14,0c-.07,0-.17,0-.29,0,0,.05,0,.09.07.11.38.35.76.71,1.15,1.05a1,1,0,0,0,1.1,0l.92-.91.81-.72.09,0a1,1,0,0,1,0,.34,1.77,1.77,0,0,1-.58.72,2.11,2.11,0,0,1-1,.53S63,41,63,41a1.76,1.76,0,0,0,0,.61c0,.07.29.07.44.06s.2-.1.3-.15a2.26,2.26,0,0,1,.53-.28,1.29,1.29,0,0,1,.94.2c.36.26.41.52.07.85-.36-.51-.89-.4-1.37-.29a2.17,2.17,0,0,0-.76.51,7.06,7.06,0,0,0-1.31,1.67,1,1,0,0,0-.12,1,2.27,2.27,0,0,1,.11.53l-.06,0a1.75,1.75,0,0,0,.43.17,1.12,1.12,0,0,0,.4-.07c.33-.07.65-.16,1-.2.63-.09,1.27-.12,1.9-.21a13.67,13.67,0,0,0,1.55-.3A.41.41,0,0,0,67.28,44.47Zm-4-.67a.1.1,0,0,1-.08,0c-.28,0-.29-.12-.24-.27a1,1,0,0,1,.46-.63c.28-.17.53-.39.82-.55a.36.36,0,0,1,.35,0,.45.45,0,0,1,.05.38.61.61,0,0,1-.22.36C64,43.39,63.65,43.59,63.26,43.8Z" fill="#da4d6d"/><path d="M107.68,41.41a2.17,2.17,0,0,0-.47-.32,2.75,2.75,0,0,0-1.79-.07c-.22,0-.45.11-.65-.08a2.42,2.42,0,0,0-.31-.25l-.7-.4c.33-.29.63-.55.91-.81s.38-.37.57-.56a2.92,2.92,0,0,0,.42-.44.42.42,0,0,0,0-.38,1,1,0,0,0-1.31-.26,2.72,2.72,0,0,1-.82.31c-.39.08-.67.27-.7.57,0,0-.08-.06-.07-.07.08-.31-.11-.26-.31-.25s-.44.12-.51-.2a1.94,1.94,0,0,0-.34.11,1.81,1.81,0,0,0-.41.3,1.32,1.32,0,0,0-.18.4c-.09.22,0,.33.2.41s.52-.06.77-.19.63-.33,1-.47.54-.15.87-.25a1.31,1.31,0,0,1-.15.46c-.38.35-.58.86-1,1.13a.35.35,0,0,0-.13.14c-.11.19-.21.39-.31.58s-.06.42.25.36a4,4,0,0,0,.68-.29.69.69,0,0,1,.4,0,3.69,3.69,0,0,1,.62.32,1.91,1.91,0,0,1-.3.22l-1.19.52c-.14.06-.29.11-.42.18a6.36,6.36,0,0,0-.58.3c-.4.23-.81.46-1.2.72a1.32,1.32,0,0,0-.32.38.42.42,0,0,0,0,.29.85.85,0,0,0,.61.55l.77.19c.38.09.76.18,1.14.25a2.46,2.46,0,0,0,.54,0c.21,0,.43-.09.65-.08a1.91,1.91,0,0,0,1.53-.58,1.07,1.07,0,0,0,.31-1c-.07-.36-.16-.71-.2-1.07,0-.13,0-.32.21-.31.54,0,1.07.08,1.6.08a.74.74,0,0,0,.44-.16A.29.29,0,0,0,107.68,41.41Zm-2.91,1.73a.63.63,0,0,1-.56.39c-.47,0-.94.1-1.4.09a2.11,2.11,0,0,1-1.17-.32c.11-.46.46-.62.83-.76.21-.08.4-.18.61-.25a10.79,10.79,0,0,1,1.2-.34c.37-.08.6.14.59.52A3.74,3.74,0,0,1,104.77,43.14Z" fill="#da4d6d"/><path d="M67.75,53,67,51.07c-.24-.58-.47-1.17-.71-1.75,0-.07-.11-.16-.17-.16-.27,0-.54,0-.8,0,0,0,0,.06,0,.09-.4,1-.8,2-1.19,3-.13.32-.25.64-.38,1h.91a6.24,6.24,0,0,1,.27-.72c0-.09.15-.2.22-.2.5,0,1,0,1.48,0l.35.93h.93C67.81,53.16,67.78,53.07,67.75,53Zm-2.54-1.37c.18-.47.35-.91.54-1.42l.53,1.42Z" fill="#da4d6d"/><path d="M122.38,51.44a1.1,1.1,0,0,0,.73-1.49.88.88,0,0,0-1-.7c-.56,0-1.13,0-1.69,0-.24,0-.25.05-.25.23,0,1.19,0,2.37,0,3.56a1.37,1.37,0,0,0,0,.19H121V51.53a.92.92,0,0,1,.84.41c.23.4.47.79.72,1.18a.2.2,0,0,0,.14.1h.86Zm-.42-.55h-1V50c.38,0,.76,0,1.13,0,.21,0,.33.28.3.54A.44.44,0,0,1,122,50.89Z" fill="#da4d6d"/><path d="M91,50.21a1.26,1.26,0,0,0-1-1c-.61-.06-1.24,0-1.87,0v4c.54,0,1.07,0,1.58,0a1.37,1.37,0,0,0,1.32-1A3.34,3.34,0,0,0,91,50.21ZM90.3,52a.67.67,0,0,1-.61.48,6.71,6.71,0,0,1-.78,0V49.94c.29,0,.57,0,.85,0a.76.76,0,0,1,.62.75A3.2,3.2,0,0,1,90.3,52Z" fill="#da4d6d"/><path d="M72.32,49.25a1.32,1.32,0,0,0-.49,0H69.89v4.07h.85V51.73c.35,0,.67,0,1,0a4.46,4.46,0,0,0,.51-.07,1.22,1.22,0,0,0,.85-1.15A1.19,1.19,0,0,0,72.32,49.25ZM71.72,51c-.27,0-.54,0-.8,0s-.19,0-.19-.16v-1c.34,0,.64,0,.94,0a.55.55,0,0,1,.51.5A.51.51,0,0,1,71.72,51Z" fill="#da4d6d"/><path d="M100,53c-.08-.22-.18-.45-.26-.67l-1-2.7c-.08-.24-.18-.43-.5-.35a.5.5,0,0,1-.27,0c-.14,0-.19,0-.23.15-.14.42-.3.85-.45,1.27l-.91,2.56h.7a.25.25,0,0,0,.16-.14c.09-.24.16-.49.23-.74H99c.09.26.18.52.29.77a.18.18,0,0,0,.13.11h.67A1.72,1.72,0,0,0,100,53Zm-2.22-1.35.43-1.32h.06l.44,1.32Z" fill="#da4d6d"/><path d="M32,57.5l-.81-.1-.27,0,0-.07a1.72,1.72,0,0,1,.28-.08,4.44,4.44,0,0,1,.63,0,1.05,1.05,0,0,0,.75-.32,2.3,2.3,0,0,1,2-.37s.11.16.09.22a.81.81,0,0,1-.48.54c-.27.09-.56.15-.84.22l-.1,0Z" fill="#da4d6d"/><path d="M38.43,57.5c-.29-.09-.59-.17-.88-.27a.77.77,0,0,1-.54-.74,2.49,2.49,0,0,1,1.68.11,1.22,1.22,0,0,1,.34.18,1.61,1.61,0,0,0,1.37.43,1,1,0,0,1,.32.1c-.1,0-.2.07-.3.09l-.74.1Z" fill="#da4d6d"/><path d="M27.23,29.71l.6.52a3.52,3.52,0,0,0,2.35.81,4.44,4.44,0,0,0,1.67-.4A9.55,9.55,0,0,0,34.43,29q.6-.53,1.17-1.08c.14-.12.21-.13.36,0a14.5,14.5,0,0,0,3,2.37,6.2,6.2,0,0,0,1.93.73,3.14,3.14,0,0,0,2.22-.38c.42-.26.82-.56,1.26-.86L46.5,32a4.57,4.57,0,0,0,.44.44.25.25,0,0,1,.05.35,4.85,4.85,0,0,0-.74,2.34,20.48,20.48,0,0,0-.09,2.07,8.16,8.16,0,0,0,.6,2.79,5.74,5.74,0,0,1,.34,1.94,9.61,9.61,0,0,1-.3,2.82,9.16,9.16,0,0,1-1,2.3,10.89,10.89,0,0,1-1,1.38,18.47,18.47,0,0,1-1.68,1.63,17.41,17.41,0,0,1-1.68,1.29c-.7.47-1.41.91-2.14,1.31-1,.54-2,1-3,1.54a1.26,1.26,0,0,1-1.12,0,23.62,23.62,0,0,1-4-2.1c-.79-.52-1.56-1.06-2.33-1.62a10.58,10.58,0,0,1-4.07-5.92,9.58,9.58,0,0,1-.28-3,16.36,16.36,0,0,1,.56-2.68,8.67,8.67,0,0,0,.18-1.33c0-.6.07-1.21.05-1.81a6.45,6.45,0,0,0-.52-2.59,1.78,1.78,0,0,0-.24-.39c-.11-.11-.08-.18,0-.28Zm.24,1.2a2.94,2.94,0,0,0-.25.24c-.47.5-.94,1-1.42,1.5a.39.39,0,0,0-.12.52A7.59,7.59,0,0,1,26.24,36a13,13,0,0,1,0,1.4c-.07.68-.14,1.37-.27,2a20.37,20.37,0,0,0-.44,2.09,8.09,8.09,0,0,0,.14,2.41,9.22,9.22,0,0,0,.93,2.52,9.85,9.85,0,0,0,1.71,2.29,19.5,19.5,0,0,0,3,2.29,24.64,24.64,0,0,0,4.11,2.21.89.89,0,0,0,.84,0c.64-.33,1.3-.61,1.93-1,.84-.45,1.69-.91,2.48-1.44S42.23,49.66,43,49a9,9,0,0,0,2.42-3.21,8.16,8.16,0,0,0,.76-4.07A5.37,5.37,0,0,0,46,40.69c-.13-.5-.34-1-.45-1.49s-.17-1.27-.26-1.9a8.77,8.77,0,0,1,.1-2.4,5.4,5.4,0,0,1,.51-1.76.31.31,0,0,0-.08-.41c-.28-.28-.55-.57-.81-.86s-.6-.66-.9-1l-.28.21a4.18,4.18,0,0,1-2.28.81,5.22,5.22,0,0,1-2.34-.5,11.22,11.22,0,0,1-2.71-1.8L35.8,29c-.32.28-.61.56-.93.81A22.12,22.12,0,0,1,33,31.08a5.67,5.67,0,0,1-2.21.78,4.05,4.05,0,0,1-2.74-.55C27.86,31.18,27.67,31,27.47,30.91Z" fill="#da4d6d"/><path d="M32.47,53.89a3,3,0,0,1,.43.35,1.78,1.78,0,0,0,.75.49,1.82,1.82,0,0,1,1,.67c.07.12.07.27.15.38a2.43,2.43,0,0,0,.34.38s.1,0,.13.06c.42.45.83.26,1.24,0a1.13,1.13,0,0,0,.45-.63,1.19,1.19,0,0,1,.5-.55c.26-.18.57-.26.84-.42a4.33,4.33,0,0,0,.47-.4c.11-.09.23-.17.36-.26l0,.09a9.37,9.37,0,0,1-.44,1.19A1.93,1.93,0,0,1,37,56.32a.3.3,0,0,0-.17.08l-.55.36a1.71,1.71,0,0,1,.23.13.93.93,0,0,1,.13.15c-.06.05-.14.16-.19.15A1.19,1.19,0,0,1,36,57c-.13-.08-.22-.09-.33,0a.45.45,0,0,1-.23.13c-.11,0-.27,0-.32,0s0-.22.13-.26a.75.75,0,0,0,.17-.1l-.31-.2a2,2,0,0,0-.63-.24,2,2,0,0,1-1.67-1.6,3.46,3.46,0,0,0-.35-.76Z" fill="#da4d6d"/><path d="M25.69,27.87c-.23-.42-.46-.84-.68-1.27,0-.09-.08-.25,0-.3a1.62,1.62,0,0,1,.46-.31s.14.09.2.16c.34.39.66.8,1,1.18s.33.35,0,.68l-1-1.18,0,0c.16.31.31.62.48.93.08.15.24.29.24.44s-.2.23-.32.37l-1.26-1,0,0c.18.24.37.47.56.71l.15.15c.29.32.29.32-.09.6L24.3,28c-.14-.17-.29-.33-.43-.51a.21.21,0,0,1,0-.2,1,1,0,0,1,.28-.27.36.36,0,0,1,.27,0l1.23.92Z" fill="#da4d6d"/><path d="M43,25l-.69,1.32A1.51,1.51,0,0,1,42,26.2.19.19,0,0,1,42,26c.33-.64.68-1.28,1-1.91.44.09.46.12.46.56v1.27l.08,0,.68-1.25.41.19L43.56,27a1.5,1.5,0,0,1-.36-.16.23.23,0,0,1-.08-.18c0-.27,0-.53,0-.8s0-.52,0-.79Z" fill="#da4d6d"/><path d="M51.26,33.61c-.15-.23-.26-.4-.09-.64s-.05-.55-.26-.61a.2.2,0,0,0-.28.21,3.1,3.1,0,0,0,.1.53c.13.44,0,.78-.31.93a.8.8,0,0,1-1-.33,1.1,1.1,0,0,1-.17-.89c0-.18.22-.33.37-.54.14.26.29.43.09.67s0,.63.24.69a.23.23,0,0,0,.33-.24,4.38,4.38,0,0,0-.12-.82A.44.44,0,0,1,50.4,32c.59-.35.92-.05,1.17.41a.75.75,0,0,1,0,.71A3.55,3.55,0,0,1,51.26,33.61Z" fill="#da4d6d"/><path d="M21.9,31.1l.56-.87.36.25-.56.84.46.33c.14-.21.3-.42.43-.64.23-.37.23-.37.62-.12l-.93,1.41-1-.66-1-.63.64-1c.23-.37.25-.37.6-.09l-.6.94Z" fill="#da4d6d"/><path d="M26.14,25.43c.44-.26.86-.52,1.29-.76.16-.09.22,0,.3.32l-.94.57.27.38.64-.39c.26-.15.28-.15.41.14a.29.29,0,0,1,0,.1l-.89.54.31.47,1-.61.23.39-1.11.65c-.11.07-.24.19-.32.17s-.14-.21-.21-.31Z" fill="#da4d6d"/><path d="M47.46,28.88l-.08.07c-.34.33-.34.33,0,.67a2.12,2.12,0,0,0,.33.34c.16.14.11.23,0,.36s-.19.1-.29,0l-1-1.11.71-.66.9-.8c.1-.1.17-.08.26,0l1,1-.35.27-.43-.5c-.3-.34-.3-.34-.63,0,.18.2.37.39.54.59s.09.24.06.25-.19.29-.36.09S47.65,29.1,47.46,28.88Z" fill="#da4d6d"/><path d="M40.5,23.12l.47.2c-.17.49-.33,1-.48,1.45a.42.42,0,0,0,.26.55c.21.06.4-.07.49-.32.16-.48.33-1,.51-1.45l.47.18c-.2.55-.39,1.12-.61,1.67a.62.62,0,0,1-.75.37,1.7,1.7,0,0,1-.71-.32c-.27-.21-.21-.54-.14-.82C40.15,24.13,40.33,23.65,40.5,23.12Z" fill="#da4d6d"/><path d="M22.19,45.3a2.18,2.18,0,0,1,0-3.37c-.17.56.23,1,.28,1.5A3.38,3.38,0,0,1,22.19,45.3Z" fill="#da4d6d"/><path d="M49.41,45.29a3,3,0,0,1-.23-1.73c.07-.33.2-.65.27-1a4,4,0,0,0,0-.61A2.15,2.15,0,0,1,49.41,45.29Z" fill="#da4d6d"/><path d="M33.89,23.45c-.24-.1-.46.23-.63-.15,0-.08-.25-.11-.38-.11a.42.42,0,0,0-.41.35,1.14,1.14,0,0,0,.24,1,.59.59,0,0,0,.41.17.48.48,0,0,0,.32-.28c.07-.3.27-.29.49-.3a.88.88,0,0,1-.38.93A1.12,1.12,0,0,1,32.42,25a1.67,1.67,0,0,1-.4-1.64,1,1,0,0,1,1.87.11Z" fill="#da4d6d"/><path d="M23.14,43.44a3.64,3.64,0,0,1,0,.66,1,1,0,0,0,.08.66,2.27,2.27,0,0,1,.13,1.92.37.37,0,0,1-.05.11c-.32.43-.31.43-.55,0a2.55,2.55,0,0,1,0-2.47,6,6,0,0,0,.3-.84Z" fill="#da4d6d"/><path d="M48.54,43.42a16.22,16.22,0,0,1,.62,1.86,2.34,2.34,0,0,1-.27,1.45l-.22.43a1.53,1.53,0,0,1-.49-1.71,7.92,7.92,0,0,1,.26-.78,1.34,1.34,0,0,0,0-.66,3.62,3.62,0,0,1,0-.57Z" fill="#da4d6d"/><path d="M49.78,49.52a7.22,7.22,0,0,1-2.05,2.14,1.1,1.1,0,0,1-1.13.12,1.67,1.67,0,0,1-.16-.12,2.65,2.65,0,0,1,1.31-1.1,3.41,3.41,0,0,1,.76-.2.73.73,0,0,0,.42-.24l.59-.58a.68.68,0,0,1,.21-.1Z" fill="#da4d6d"/><path d="M48.24,52.26a8.41,8.41,0,0,1-1.92,1.32,5.85,5.85,0,0,1-.9.28.9.9,0,0,1-.76-.23c-.11-.1-.13-.17,0-.28A2.15,2.15,0,0,1,46,52.73a4,4,0,0,0,.92,0,7.21,7.21,0,0,0,1-.52.8.8,0,0,1,.23,0Z" fill="#da4d6d"/><path d="M30.25,53a2.34,2.34,0,0,1,.41.43,1.58,1.58,0,0,0,.61.54,6,6,0,0,1,.8.71.85.85,0,0,1,0,.94.21.21,0,0,1-.21.05,2.19,2.19,0,0,1-1.39-1.35.17.17,0,0,0,0-.07C30.37,53.88,30.31,53.49,30.25,53Z" fill="#da4d6d"/><path d="M41.39,53c-.09.48-.15.87-.22,1.25a1.8,1.8,0,0,1-.92,1.21c-.17.1-.35.19-.53.28a.77.77,0,0,1-.06-1.18,4.19,4.19,0,0,1,.86-.66c.25-.13.34-.36.5-.54Z" fill="#da4d6d"/><path d="M21.92,49.41c.08.07.17.13.24.2.31.3.55.68,1,.78a5.19,5.19,0,0,1,1,.33,2.42,2.42,0,0,1,.91.86s0,.17-.06.2a.92.92,0,0,1-.91,0,4.15,4.15,0,0,1-1.61-1.36l-.53-.7c0-.07-.09-.15-.14-.23Z" fill="#da4d6d"/><path d="M23.44,52.12l.34.16c.24.14.47.29.71.41a.67.67,0,0,0,.32,0,2.54,2.54,0,0,1,2.14.62c.11.11.12.17,0,.26a.9.9,0,0,1-.71.23,2.69,2.69,0,0,1-1.33-.43c-.5-.31-1-.69-1.42-1a.59.59,0,0,1-.13-.18Z" fill="#da4d6d"/><path d="M47.85,49.29a1,1,0,0,1-.73-1.18c.08-.34.2-.67.26-1a2.9,2.9,0,0,0,0-.59V46l.07,0,.13.26c.12.25.23.5.37.73a2.09,2.09,0,0,1,.14,1.71A4.58,4.58,0,0,1,47.85,49.29Z" fill="#da4d6d"/><path d="M23.81,49.3a2.21,2.21,0,0,1,0-2.57c.17-.15.19-.45.28-.68,0,0,0-.06.1-.08a1.61,1.61,0,0,1,0,.48,2.16,2.16,0,0,0,.17,1.23,1.55,1.55,0,0,1,0,1.14A1,1,0,0,1,23.81,49.3Z" fill="#da4d6d"/><path d="M25.54,54.34a2,2,0,0,1,.49.13,2,2,0,0,0,1.49.05,2,2,0,0,1,1.39.11l.22.09c.29.11.32.25.1.47a1.21,1.21,0,0,1-1.06.26,6.8,6.8,0,0,1-2.53-.94.21.21,0,0,1-.08-.06S25.56,54.42,25.54,54.34Z" fill="#da4d6d"/><path d="M28.31,51.78a5,5,0,0,0,.33.65,4.38,4.38,0,0,0,.51.55c.33.33.68.67.61,1.19a1.2,1.2,0,0,1-.29.51s-.18,0-.24,0a3.07,3.07,0,0,1-.85-.94,2,2,0,0,1-.15-1c0-.27,0-.54,0-.81a.57.57,0,0,1,0-.13Z" fill="#da4d6d"/><path d="M43.52,56.14a.91.91,0,0,1-.22.11,12.21,12.21,0,0,1-1.29.33,3.19,3.19,0,0,1-1.93-.12s-.08,0-.1-.06-.2-.31-.3-.47a1.62,1.62,0,0,1,.4-.19A2.26,2.26,0,0,1,42,56a.78.78,0,0,0,.6.11c.31-.06.62-.07.92-.1Z" fill="#da4d6d"/><path d="M43.41,51.85c0,.14,0,.29,0,.43a1.69,1.69,0,0,0,0,.45,1.53,1.53,0,0,1-.45,1.45,3.67,3.67,0,0,1-.52.44c-.21.15-.31.12-.43-.1a.89.89,0,0,1,0-1,5.12,5.12,0,0,1,.71-.76A.88.88,0,0,0,43,52.4a3.15,3.15,0,0,1,.33-.59Z" fill="#da4d6d"/><path d="M50.74,46.6a6.8,6.8,0,0,1-1.21,2.17,3.81,3.81,0,0,1-.8.64.75.75,0,0,1-.78,0,2.2,2.2,0,0,1,.81-1.18c.3-.21.67-.32,1-.53a3.23,3.23,0,0,0,.55-.61C50.42,46.91,50.49,46.67,50.74,46.6Z" fill="#da4d6d"/><path d="M20.42,43.72c.06.12.11.19.15.27.13.3.25.61.41.9a1.47,1.47,0,0,0,.36.34,2.81,2.81,0,0,1,1.26,1.83c0,.18-.08.28-.27.23a1.48,1.48,0,0,1-.91-.67,8.64,8.64,0,0,1-1.05-2.79Z" fill="#da4d6d"/><path d="M46.07,54.44a1.92,1.92,0,0,1-.26.17,17.63,17.63,0,0,1-1.93.77,1.5,1.5,0,0,1-1.39-.12,2.22,2.22,0,0,1-.32-.35,2.61,2.61,0,0,1,2.43-.26,1.16,1.16,0,0,0,.6-.06c.2,0,.38-.12.58-.18l.25,0Z" fill="#da4d6d"/><path d="M20.94,46.58c.07.08.16.16.23.25s.29.47.45.68a.71.71,0,0,0,.31.19,2.66,2.66,0,0,1,1.72,1.66.81.81,0,0,1-.91,0A3.73,3.73,0,0,1,21.52,48c-.23-.39-.42-.81-.62-1.22a.5.5,0,0,1,0-.13Z" fill="#da4d6d"/><path d="M26.61,50.2a1.45,1.45,0,0,1,.17.44c0,.42.27.69.48,1a1.42,1.42,0,0,1,.33,1.12.73.73,0,0,1-.4.52.19.19,0,0,1-.19,0,2.32,2.32,0,0,1-.75-1.56.79.79,0,0,1,.07-.4,2.36,2.36,0,0,0,.2-1S26.55,50.26,26.61,50.2Z" fill="#da4d6d"/><path d="M25.09,48.21a2.3,2.3,0,0,1,.1.51,1.41,1.41,0,0,0,.23.75,4.86,4.86,0,0,1,.41,1.1.78.78,0,0,1-.37.83c-.12.09-.16.1-.26,0a2.5,2.5,0,0,1-.6-1.6,3,3,0,0,1,.12-.52c.07-.29.15-.58.23-.86L25,48.2Z" fill="#da4d6d"/><path d="M28.1,56.06c.14,0,.27,0,.4,0a4.86,4.86,0,0,1,.55.1,1.14,1.14,0,0,0,.78-.23,1.93,1.93,0,0,1,1.41-.23,4.42,4.42,0,0,0,.5.1c.24,0,.2.17.14.32a.74.74,0,0,1-.57.42,4,4,0,0,1-1.24.1,17.66,17.66,0,0,1-1.91-.45s0,0-.06,0Z" fill="#da4d6d"/><path d="M46.56,48.18l.32,1a2,2,0,0,1-.14,1.69,4.11,4.11,0,0,1-.39.54s-.14.05-.17,0a1,1,0,0,1-.36-1.17c.12-.32.32-.6.44-.91a7.52,7.52,0,0,0,.19-.85A3.07,3.07,0,0,1,46.56,48.18Z" fill="#da4d6d"/><path d="M49,47.32a2.67,2.67,0,0,1,.55-1.4,3.28,3.28,0,0,1,.64-.6,1.64,1.64,0,0,0,.69-.91c.07-.18.14-.36.22-.54,0,0,.08,0,.13-.08s0,.1,0,.15a13.34,13.34,0,0,1-.74,2.21,2.12,2.12,0,0,1-.8,1A3.47,3.47,0,0,1,49,47.32Z" fill="#da4d6d"/><path d="M45,50.23c.1.4.19.75.29,1.1a1.74,1.74,0,0,1-.29,1.4,3.28,3.28,0,0,1-.27.38c-.24.25-.4.23-.59,0a.81.81,0,0,1-.11-.79,2.37,2.37,0,0,1,.38-.72,2.73,2.73,0,0,0,.47-1.11A1.05,1.05,0,0,1,45,50.23Z" fill="#da4d6d"/><path d="M45.88,27.77l1.36-1,.39.32-1.14.74a7.77,7.77,0,0,0-.78.48c-.2.15-.28,0-.4-.08s-.09-.22-.05-.32c.11-.27.23-.53.34-.8s.26-.7.41-1c0-.07.14-.11.22-.17,0,.16.35.16.23.41s-.37.8-.55,1.2c0,.05,0,.11-.07.17Z" fill="#da4d6d"/><path d="M50.69,38.13a3.76,3.76,0,0,0,2.23-1c.15.46.09.58-.32.8-.16.08-.32.18-.51.3.24.08.45.17.66.23.37.11.37.1.37.47v.17c-.35-.14-.69-.23-1-.39a1.88,1.88,0,0,0-1.21-.13c-.17,0-.18,0-.18-.15S50.71,38.23,50.69,38.13Z" fill="#da4d6d"/><path d="M52.18,35.61c0-.18-.11-.34-.14-.5a.2.2,0,0,1,.08-.17,1.36,1.36,0,0,1,.33-.07c.13.56.26,1.1.39,1.65a.2.2,0,0,1-.1.14,1.71,1.71,0,0,1-.29.08,3.25,3.25,0,0,1-.13-.46c0-.17-.11-.17-.24-.14l-1.43.37c-.24.07-.28-.09-.32-.26s.05-.2.22-.24C51.09,35.9,51.63,35.75,52.18,35.61Z" fill="#da4d6d"/><path d="M20.9,38.36c0,.17,0,.44-.09.45a3.76,3.76,0,0,1-.75,0l-.56-.08h-.57V39c0,.4,0,.41-.46.35,0-.41.05-.81.08-1.22a1.46,1.46,0,0,0,0-.22c0-.4,0-.4.45-.36L19,38c0,.1,0,.17.15.17Z" fill="#da4d6d"/><path d="M38.48,24.64v.24c0,.13,0,.19-.18.17s-.47,0-.71-.07l-.72-.12.29-2.31.48.07c0,.16,0,.33,0,.49-.05.35-.12.71-.15,1.06s0,.37.31.37A6.38,6.38,0,0,1,38.48,24.64Z" fill="#da4d6d"/><path d="M19.37,34.4a1.37,1.37,0,0,1,.08-.35.19.19,0,0,1,.16-.09c.68.23,1.36.48,2,.72,0,0,0,0,.07,0l-.15.46Z" fill="#da4d6d"/><path d="M50.05,35.13l-.19-.45,1-.35L51.88,34c.21-.08.28.06.33.21s0,.22-.17.28C51.38,34.65,50.73,34.89,50.05,35.13Z" fill="#da4d6d"/><path d="M30.68,23.32c.41-.21.43-.22.56.18.19.58.36,1.18.52,1.78.06.24-.19.17-.3.23s-.16,0-.2-.13C31.08,24.7,30.88,24,30.68,23.32Z" fill="#da4d6d"/><path d="M22.18,29.08c.37-.35.37-.35.74,0s.85.69,1.28,1c.14.11.13.19,0,.29s-.12.3-.35.1c-.49-.44-1-.84-1.54-1.26Z" fill="#da4d6d"/><path d="M44.34,27.51c-.45-.24-.45-.27-.15-.69s.63-.92.93-1.39c.13-.2.23-.06.33,0s.21.08.08.26C45.12,26.29,44.74,26.9,44.34,27.51Z" fill="#da4d6d"/><path d="M50.42,30.53a8.9,8.9,0,0,0-.61-.9s-.15-.05-.2,0l-.75.49-1.07.7.28.41.76-.52a1.28,1.28,0,0,0,.11.21,1.58,1.58,0,0,0,.12.15c.13.18.09.32-.09.45a2.37,2.37,0,0,0-.34.29.2.2,0,0,0-.07.18,2.22,2.22,0,0,0,.24.32l.09-.06c.11-.09.23-.18.33-.28l.42-.48c.26.14.52,0,.71-.25A.6.6,0,0,0,50.42,30.53Zm-.58.46a.23.23,0,0,1-.36,0l-.31-.46.24-.17.24-.17a4.85,4.85,0,0,1,.35.57C50,30.77,49.92,30.92,49.84,31Z" fill="#da4d6d"/><path d="M30.45,24.4A1,1,0,0,0,29,23.88a5.28,5.28,0,0,1-.69.29s0,0,0,.07c.28.67.55,1.34.84,2a.21.21,0,0,0,.16.08c.32-.13.63-.27.94-.42a.6.6,0,0,0,.24-.26A1.36,1.36,0,0,0,30.45,24.4Zm-1,1.39-.56-1.36a2.11,2.11,0,0,1,.51-.23c.26-.07.4.15.52.31a1.1,1.1,0,0,1,.17.5C30.17,25.46,30.12,25.51,29.48,25.79Z" fill="#da4d6d"/><path d="M35.75,22.7c0-.08-.12-.14-.19-.2-.12.13-.38-.09-.47.2-.21.72-.45,1.44-.68,2.16.45.07.45.07.6-.32a.35.35,0,0,1,.2-.15c.1,0,.21,0,.32,0,.28-.05.39.11.44.35,0,.05.07.12.11.12a3.8,3.8,0,0,0,.46,0ZM35.2,24l.19-.75h.07l.23.75Z" fill="#da4d6d"/><path d="M21.37,35.45,19,35.7c-.16.49-.16.5.28.78s1,.62,1.5.93c.05,0,.15.08.18.06a.34.34,0,0,0-.05-.55c-.11-.06-.26-.09-.23-.26s.12-.45.17-.67C21.37,35.94,21.45,35.86,21.37,35.45Zm-1.11,1.08-.77-.44.89-.07Z" fill="#da4d6d"/><path d="M21.86,33.65a3.8,3.8,0,0,1-.5-.24c.06-.13.11-.23.16-.35.16-.4.18-.72-.17-1s-.82-.37-1.11.14c-.17.3-.31.62-.49,1l2.16,1L22,34C22.1,33.83,22.09,33.72,21.86,33.65ZM21,33.27l-.69-.33a3.48,3.48,0,0,1,.47-.53s.32.11.32.17A3.59,3.59,0,0,1,21,33.27Z" fill="#da4d6d"/><path d="M39.47,42.13v1.59H38v1.1h2.32c.18,0,.24-.06.24-.24,0-.8,0-1.61,0-2.44h1.56c.14,0,.19,0,.19.19v4H36.21V39.51h1.32V36.39l.24,0,3.75,0s.14.07.14.11c0,.49,0,1,0,1.45-.74,0-1.44,0-2.14,0-.19,0-.26.06-.25.25,0,.92,0,1.83,0,2.75,0,.05-.12.14-.18.15H38v1.07Z" fill="#da4d6d"/><path d="M32.31,41V37.92H30V36.37H34v3.12h1.34v6.86H29.62c-.21,0-.3,0-.3-.29,0-1.22,0-2.45,0-3.68,0-.18.06-.27.25-.26h1.35c.17,0,.2.08.2.23v2.19c0,.19,0,.28.25.28.67,0,1.33,0,2,0,.22,0,.32-.06.3-.29s0-.51,0-.8H32.38c-.2,0-.28,0-.27-.26,0-.37,0-.75,0-1.12,0-.16.06-.22.22-.22h1.09c.16,0,.23,0,.23-.19s0-.5,0-.75-.11-.16-.23-.16Z" fill="#da4d6d"/><path d="M41.66,34.07v1.55h-5v.28c0,.88,0,1.75,0,2.63,0,.23-.07.29-.29.28-.48,0-1,0-1.45,0V35.63H30V34.09h4.95v-2h1.75v2Z" fill="#da4d6d"/><path d="M32.75,49.8c.25,0,.27-.17.26-.35s0-.62,0-.92c0-.11,0-.22-.15-.23s-.08-.1-.12-.15l.49-.13c.08,0,.22-.07.24-.05a.52.52,0,0,1,.08.3c0,.28,0,.55,0,.83s-.15.63.32.75C33.45,49.87,33.1,50,32.75,49.8Z" fill="#da4d6d"/><path d="M38.78,48.4a.65.65,0,0,0-.57-.44.61.61,0,0,0-.57.25,1.48,1.48,0,0,0,0,1.43.5.5,0,0,0,.54.3.54.54,0,0,0,.62-.43A1.52,1.52,0,0,0,38.78,48.4Zm-.45,1.13c0,.08-.11.14-.16.21s-.13-.11-.13-.17c0-.41,0-.82,0-1.23,0-.06.1-.12.16-.19s.16.14.17.22,0,.41,0,.62h0A4.86,4.86,0,0,1,38.33,49.53Z" fill="#da4d6d"/><path d="M35.06,48a.68.68,0,0,0-.76.29.87.87,0,0,0,0,.69c.14.22.39.3.78.22l-.17.53-.39-.14a.34.34,0,0,0-.2,0,.25.25,0,0,0-.08.15c.08.08.17.18.27.19a.81.81,0,0,0,1-.61,2.73,2.73,0,0,0,.06-.64C35.6,48.25,35.48,48.1,35.06,48Zm0,.88c0,.06-.09.11-.13.17s-.17-.11-.2-.18a.94.94,0,0,1,0-.29h0a.44.44,0,0,1,0-.2.71.71,0,0,1,.13-.22c.07.07.18.13.2.2A1.81,1.81,0,0,1,35.09,48.88Z" fill="#da4d6d"/><path d="M37.18,49c-.12-.25-.41-.33-.77-.22,0,0,0-.07,0-.09a1.09,1.09,0,0,1,.05-.26c.07-.25.19-.28.4-.13a.44.44,0,0,0,.26.06s.09-.1.07-.13A.43.43,0,0,0,37,48c-.25-.13-.48,0-.7.1-.39.18-.4.57-.46.93a.73.73,0,0,0,1.11.8A.68.68,0,0,0,37.18,49Zm-.62.76c-.19,0-.22-.22-.22-.39s0-.14,0-.2a1.43,1.43,0,0,1,.19-.24,2.05,2.05,0,0,1,.2.23c0,.06,0,.15,0,.25S36.79,49.74,36.56,49.73Z" fill="#da4d6d"/><path d="M178.34,35.61h-10V55.94a2.92,2.92,0,0,1-1.27,2.61,5.79,5.79,0,0,1-3.27.85,5.92,5.92,0,0,1-3.33-.86,2.92,2.92,0,0,1-1.28-2.6V35.61h-10a7.39,7.39,0,0,1-3.5-.64,1.82,1.82,0,0,1,0-3.4,7.52,7.52,0,0,1,3.45-.63h29.19a7.52,7.52,0,0,1,3.54.64,1.92,1.92,0,0,1,1.16,1.7A1.9,1.9,0,0,1,181.87,35,7.58,7.58,0,0,1,178.34,35.61Z" fill="#ccc"/><path d="M207.85,58.92H194a8.24,8.24,0,0,1-4.28-.83,2.9,2.9,0,0,1-1.29-2.64v-21a2.88,2.88,0,0,1,1.32-2.66,8.4,8.4,0,0,1,4.25-.81h14.69c2.17,0,4,.08,5.63.24a17.52,17.52,0,0,1,4.27,1,11.1,11.1,0,0,1,2.84,1.5,6.7,6.7,0,0,1,1.89,2A4.52,4.52,0,0,1,224,38q0,4.2-6.81,6.15,8.94,1.76,8.94,6.83a5.74,5.74,0,0,1-2,4.23A11.9,11.9,0,0,1,218.89,58a28.45,28.45,0,0,1-4.77.75Q211.44,58.93,207.85,58.92ZM197.61,35.19v7.24H206a27.51,27.51,0,0,0,5.31-.4,5.14,5.14,0,0,0,2.86-1.53,2.55,2.55,0,0,0,.77-1.79c0-1.42-.82-2.36-2.44-2.82a29.12,29.12,0,0,0-7.46-.7Zm9.56,11.3h-9.56v8.17h9.86q9.32,0,9.31-4.14a3.22,3.22,0,0,0-2.41-3.07A20.54,20.54,0,0,0,207.17,46.49Z" fill="#ccc"/><path d="M234.41,55.94v-22a2.89,2.89,0,0,1,1.27-2.57,5.67,5.67,0,0,1,3.28-.86,5.92,5.92,0,0,1,3.35.85,2.88,2.88,0,0,1,1.29,2.58v22a2.91,2.91,0,0,1-1.29,2.6,5.92,5.92,0,0,1-3.35.86,5.73,5.73,0,0,1-3.27-.87A2.93,2.93,0,0,1,234.41,55.94Z" fill="#ccc"/><path d="M266.2,47H263v9a2.93,2.93,0,0,1-1.27,2.62,5.91,5.91,0,0,1-3.31.84,5.66,5.66,0,0,1-3.4-.88,3,3,0,0,1-1.21-2.58V34.41a2.88,2.88,0,0,1,1.33-2.65,8.49,8.49,0,0,1,4.3-.82h14.94c2.06,0,3.82,0,5.29.16a20.2,20.2,0,0,1,3.95.66,13.31,13.31,0,0,1,3.78,1.58,7.76,7.76,0,0,1,2.49,2.4,5.43,5.43,0,0,1,.85,2.89,5.74,5.74,0,0,1-2.86,5q-2.87,1.88-8.68,2.65a17.89,17.89,0,0,1,4.67,2.37,28.75,28.75,0,0,1,4,3.33,24.37,24.37,0,0,1,2.72,3.19,4.65,4.65,0,0,1,1,2,1.53,1.53,0,0,1-.57,1.09,3.88,3.88,0,0,1-1.56.86,7.54,7.54,0,0,1-2.29.32,6.62,6.62,0,0,1-2.6-.45,6.49,6.49,0,0,1-1.81-1.14c-.5-.45-1.19-1.13-2.05-2L277,52a24,24,0,0,0-3.55-3.17,9.71,9.71,0,0,0-3.17-1.49A17.49,17.49,0,0,0,266.2,47Zm5.26-11.76H263v7.7h8.22a36.23,36.23,0,0,0,5.57-.36,8.07,8.07,0,0,0,3.45-1.2,2.79,2.79,0,0,0,.23-4.39,6.21,6.21,0,0,0-2.66-1.33A30.4,30.4,0,0,0,271.46,35.19Z" fill="#ccc"/><path d="M177.34,34.55h-10V54.88a2.92,2.92,0,0,1-1.27,2.61,5.79,5.79,0,0,1-3.27.85,5.92,5.92,0,0,1-3.33-.86,2.92,2.92,0,0,1-1.28-2.6V34.55h-10a7.39,7.39,0,0,1-3.5-.64,1.82,1.82,0,0,1,0-3.4,7.52,7.52,0,0,1,3.45-.63h29.19a7.52,7.52,0,0,1,3.54.64,1.92,1.92,0,0,1,1.16,1.7,1.9,1.9,0,0,1-1.17,1.69A7.58,7.58,0,0,1,177.34,34.55Z" fill="#da4d6d"/><path d="M206.85,57.86H193a8.24,8.24,0,0,1-4.28-.83,2.9,2.9,0,0,1-1.29-2.64v-21a2.88,2.88,0,0,1,1.32-2.66,8.4,8.4,0,0,1,4.25-.81h14.69c2.17,0,4,.08,5.63.24a17.52,17.52,0,0,1,4.27,1,11.1,11.1,0,0,1,2.84,1.5,6.7,6.7,0,0,1,1.89,2A4.52,4.52,0,0,1,223,36.9q0,4.2-6.81,6.15,8.94,1.76,8.94,6.83a5.74,5.74,0,0,1-2,4.23,11.9,11.9,0,0,1-5.25,2.78,29.52,29.52,0,0,1-4.77.75Q210.44,57.86,206.85,57.86ZM196.61,34.13v7.24H205a27.51,27.51,0,0,0,5.31-.4,5.14,5.14,0,0,0,2.86-1.53,2.55,2.55,0,0,0,.77-1.8c0-1.41-.82-2.35-2.44-2.81a29.12,29.12,0,0,0-7.46-.7Zm9.56,11.3h-9.56V53.6h9.86q9.32,0,9.31-4.14a3.22,3.22,0,0,0-2.41-3.07A20.54,20.54,0,0,0,206.17,45.43Z" fill="#da4d6d"/><path d="M233.41,54.88V32.83a2.89,2.89,0,0,1,1.27-2.57A5.67,5.67,0,0,1,238,29.4a5.92,5.92,0,0,1,3.35.85,2.88,2.88,0,0,1,1.29,2.58V54.88a2.91,2.91,0,0,1-1.29,2.6,5.92,5.92,0,0,1-3.35.86,5.73,5.73,0,0,1-3.27-.87A2.93,2.93,0,0,1,233.41,54.88Z" fill="#da4d6d"/><path d="M265.2,45.89H262v9a2.93,2.93,0,0,1-1.27,2.62,5.91,5.91,0,0,1-3.31.84,5.73,5.73,0,0,1-3.4-.88,3,3,0,0,1-1.21-2.58V33.35a2.88,2.88,0,0,1,1.33-2.65,8.49,8.49,0,0,1,4.3-.82h14.94c2.06,0,3.82.05,5.29.16a20.2,20.2,0,0,1,3.95.66,13.31,13.31,0,0,1,3.78,1.58,7.76,7.76,0,0,1,2.49,2.4,5.43,5.43,0,0,1,.85,2.89,5.74,5.74,0,0,1-2.86,5q-2.87,1.88-8.68,2.65a17.89,17.89,0,0,1,4.67,2.37,28.75,28.75,0,0,1,4,3.33,24.37,24.37,0,0,1,2.72,3.19,4.65,4.65,0,0,1,1,2,1.53,1.53,0,0,1-.57,1.09,3.88,3.88,0,0,1-1.56.86,7.54,7.54,0,0,1-2.29.32,6.62,6.62,0,0,1-2.6-.45,6.49,6.49,0,0,1-1.81-1.14c-.5-.45-1.19-1.13-2.05-2L276,51a24,24,0,0,0-3.55-3.17,9.71,9.71,0,0,0-3.17-1.49A17,17,0,0,0,265.2,45.89Zm5.26-11.76H262v7.7h8.22a36.23,36.23,0,0,0,5.57-.36,8.07,8.07,0,0,0,3.45-1.2,2.79,2.79,0,0,0,.23-4.39,6.21,6.21,0,0,0-2.66-1.33A30.4,30.4,0,0,0,270.46,34.13Z" fill="#da4d6d"/><path d="M155.11,19.66a1,1,0,0,1,.81.36,1.3,1.3,0,0,1,.23.84,4,4,0,0,1-.11.84.54.54,0,0,1-.57.36.41.41,0,0,1-.47-.47,3.26,3.26,0,0,0,.16-.68c0-.35-.14-.52-.42-.52h-9.29a.27.27,0,0,0-.31.31v.89a.42.42,0,0,1-.48.47.41.41,0,0,1-.47-.47v-1a.84.84,0,0,1,.95-.94Zm-.79,1.66a.28.28,0,0,1-.31.32h-.6a15.75,15.75,0,0,1,1.43.94c.22.08.32.2.32.36,0,.34-.16.52-.48.52a.83.83,0,0,1-.2-.08c-.27-.19-.53-.38-.8-.55a0,0,0,0,1,0,0c-1,.08-2,.13-3,.17v.71h3.44c.21,0,.32.1.32.3s-.11.37-.32.37h-3.44V25h5.11c.28,0,.43.13.43.41a.38.38,0,0,1-.43.42H144.62a.37.37,0,0,1-.43-.42c0-.28.13-.41.43-.41h5.1V24.4H146c-.22,0-.31-.12-.31-.37s.09-.3.31-.3h3.75v-.66c-1.43.08-2.82.15-4.17.19-.24,0-.36-.14-.36-.41a.33.33,0,0,1,.36-.38c.63,0,1.23,0,1.82,0l.63-.8h-1.93a.28.28,0,0,1-.32-.32c0-.2.11-.3.32-.3H154A.27.27,0,0,1,154.32,21.32Zm1.56-6.45c0,.28-.12.41-.36.41h-4.85v.63h4.17a.37.37,0,1,1,0,.73h-9.23c-.26,0-.38-.12-.38-.37s.12-.36.38-.36h4.11v-.63h-4.9c-.24,0-.36-.13-.36-.41a.32.32,0,0,1,.36-.36h4.9V14.3a.48.48,0,0,1,.95,0v.21h4.85A.32.32,0,0,1,155.88,14.87Zm-1.51,2.4c.42,0,.63.16.63.47v.93c0,.35-.21.52-.63.52h-8.3c-.42,0-.62-.17-.62-.52v-.93c0-.31.2-.47.62-.47Zm-.3,1V18.1c0-.11,0-.16-.06-.16h-7.58s-.05,0-.05.16v.21c0,.13,0,.2.05.2H154S154.07,18.44,154.07,18.31Zm-1.58,3.85a.39.39,0,0,1-.31-.41.2.2,0,0,1,0-.11H149l-.6.78c1.52,0,2.94-.1,4.25-.19A.53.53,0,0,1,152.49,22.16Z" fill="#da4d6d"/><path d="M158.29,17.94a11,11,0,0,1,1.25,1.36.69.69,0,0,1,.11.3c0,.3-.16.43-.48.43a.35.35,0,0,1-.25-.11c-.42-.48-.86-1-1.31-1.41a.52.52,0,0,1-.11-.25c0-.31.17-.47.52-.47A.44.44,0,0,1,158.29,17.94Zm1.45,3.49a16.05,16.05,0,0,1-.38,2.15,14,14,0,0,1-.76,2.06.48.48,0,0,1-.42.27c-.32,0-.47-.14-.47-.41a.35.35,0,0,1,.11-.21,14.81,14.81,0,0,0,.7-1.87,20.61,20.61,0,0,0,.45-2.2.32.32,0,0,1,.36-.26C159.6,21,159.74,21.12,159.74,21.43Zm-1-6.92a10.45,10.45,0,0,1,1,1.09.94.94,0,0,1,.09.31c0,.28-.16.41-.46.41a.33.33,0,0,1-.26-.1c-.32-.39-.65-.76-1-1.14a.59.59,0,0,1-.09-.26c0-.31.17-.47.52-.47C158.52,14.35,158.6,14.4,158.7,14.51Zm2.89-.33a.29.29,0,0,1,.15.22.63.63,0,0,1-.06.2,6.12,6.12,0,0,1-.81,1.11l.51.41c.18-.3.37-.64.56-1a.26.26,0,0,1,.26-.14.65.65,0,0,1,.3.09.25.25,0,0,1,.12.21.31.31,0,0,1-.06.16,11.39,11.39,0,0,1-1.26,1.9,6.48,6.48,0,0,0,.93-.14s0,0,0,0a.52.52,0,0,1,0-.21c0-.2.12-.31.36-.31a.41.41,0,0,1,.22.11,7.33,7.33,0,0,1,.46.93.71.71,0,0,1,.06.2c0,.22-.12.32-.36.32a.24.24,0,0,1-.16-.05c-.07-.11-.12-.23-.18-.33a.18.18,0,0,1-.09,0,4,4,0,0,1-.62.12v2.27c0,.21-.13.32-.37.32a.28.28,0,0,1-.31-.32V18.07c-.4.05-.79.11-1.15.13s-.36-.13-.36-.41a.33.33,0,0,1,.36-.37,3.85,3.85,0,0,0,.48,0,6.3,6.3,0,0,0,.51-.7c-.33-.27-.68-.54-1-.79a.35.35,0,0,1-.11-.21q0-.36.42-.36a.31.31,0,0,1,.12,0c.2-.31.4-.67.61-1.08a.25.25,0,0,1,.27-.22A.66.66,0,0,1,161.59,14.18Zm-.91,4.36a.24.24,0,0,1,.11.18.42.42,0,0,1,0,.16,12.49,12.49,0,0,1-.38,1.4.33.33,0,0,1-.25.16c-.25,0-.38-.08-.38-.26a.27.27,0,0,1,.06-.2c.11-.35.24-.8.37-1.36,0-.11.12-.16.26-.16A.39.39,0,0,1,160.68,18.54Zm7.11,3.52c.14,0,.22-.08.22-.27V21.7a.2.2,0,0,0-.22-.22h-7.36c-.24,0-.36-.13-.36-.41a.33.33,0,0,1,.36-.37h7.62c.56,0,.84.25.84.73v.63c0,.53-.28.79-.84.79h-6.31c-.22,0-.32.12-.32.35a.14.14,0,0,0,.16.16h7.25c.38,0,.58.27.58.78a2.35,2.35,0,0,1-.16.76,2,2,0,0,1-.55.87,2.44,2.44,0,0,1-1.48.3c-1.25,0-3.18-.08-5.8-.21a.39.39,0,0,1-.37-.41c0-.28.15-.42.47-.42,2.23.14,4.13.2,5.7.2a1.43,1.43,0,0,0,1-.22,1,1,0,0,0,.28-.55c0-.22-.08-.32-.21-.32h-7.1c-.43,0-.63-.24-.63-.72a3.54,3.54,0,0,1,.12-.9.55.55,0,0,1,.56-.46h6.58Zm-5-3.44a9.9,9.9,0,0,1,.18,1c0,.1,0,.17,0,.21,0,.21-.1.31-.3.31s-.31-.08-.31-.26c-.06-.42-.1-.8-.15-1.1v-.1c0-.17.08-.26.25-.26A.36.36,0,0,1,162.83,18.62Zm3.08-3.12c0,.21-.1.3-.26.3h-2.46c-.17,0-.25-.09-.25-.3s.08-.27.25-.27h2.46A.24.24,0,0,1,165.91,15.5Zm-.2-1c0,.17-.1.25-.27.25h-1.93c-.18,0-.26-.08-.26-.25s.08-.27.26-.27h1.93A.24.24,0,0,1,165.71,14.46Zm-.06,2c0,.19-.09.27-.26.27h-1.82c-.19,0-.27-.08-.27-.27s.08-.26.27-.26h1.82A.23.23,0,0,1,165.65,16.48Zm0,1c0,.19-.09.27-.26.27h-1.78c-.18,0-.26-.08-.26-.27s.08-.25.26-.25h1.78A.23.23,0,0,1,165.65,17.47Zm-.41.79c.35,0,.52.14.52.41v1.2c0,.28-.17.41-.52.41h-1.37c-.32,0-.46-.13-.46-.41v-1.2c0-.27.14-.41.46-.41Zm-.16,1.25V19c0-.16-.08-.25-.22-.25h-.62c-.11,0-.15.09-.15.25v.48c0,.17,0,.25.15.25h.62C165,19.76,165.08,19.68,165.08,19.51Zm2.79-5.28a.34.34,0,0,1,.14.23.28.28,0,0,1-.06.14,5,5,0,0,1-.83,1.08l.46.43c.21-.32.41-.67.63-1a.26.26,0,0,1,.26-.16.57.57,0,0,1,.3.1.25.25,0,0,1,.12.21.35.35,0,0,1-.06.16,11.39,11.39,0,0,1-1.4,1.93,6.31,6.31,0,0,0,1.11-.16s0-.06-.07-.1a.55.55,0,0,1-.05-.22q0-.3.36-.3a.43.43,0,0,1,.21.1,8.32,8.32,0,0,1,.73,1,1.91,1.91,0,0,1,.05.26c0,.21-.12.32-.36.32a.43.43,0,0,1-.22-.06c-.1-.16-.18-.3-.26-.45a.31.31,0,0,1-.15,0,6.7,6.7,0,0,1-.68.13v2.31c0,.21-.12.32-.36.32s-.31-.11-.31-.32V18c-.43.08-.85.13-1.26.17-.25,0-.37-.13-.37-.41s.12-.36.37-.37a2,2,0,0,0,.43,0,6.31,6.31,0,0,0,.59-.72c-.36-.32-.72-.63-1.07-.92a.36.36,0,0,1-.11-.2c0-.24.14-.37.42-.37a.43.43,0,0,1,.21.1l0,0a7.21,7.21,0,0,0,.64-1c0-.11.12-.16.26-.16A.62.62,0,0,1,167.87,14.23ZM167,18.54a.24.24,0,0,1,.11.18.31.31,0,0,1-.06.16c-.08.56-.16,1-.25,1.46a.36.36,0,0,1-.27.16c-.28,0-.41-.11-.41-.32a.17.17,0,0,1,.05-.15c.09-.37.2-.84.31-1.41a.25.25,0,0,1,.27-.16A.39.39,0,0,1,167,18.54Zm2.19.18a6.4,6.4,0,0,1,.24,1,1.19,1.19,0,0,1,0,.2c0,.22-.12.31-.36.31a.28.28,0,0,1-.32-.31c-.06-.41-.12-.76-.19-1.05v-.09c0-.18.09-.27.3-.27A.35.35,0,0,1,169.14,18.72Z" fill="#da4d6d"/><path d="M178.23,21.54A.5.5,0,0,1,178,22a18.6,18.6,0,0,1-2.39.61,7.28,7.28,0,0,1,.15,1.38,2.43,2.43,0,0,1-.31,1.16,1.68,1.68,0,0,1-.69.75,2,2,0,0,1-.94.22,3.71,3.71,0,0,1-1.1-.21c-.26-.11-.41-.26-.41-.47s.15-.5.41-.52a6.5,6.5,0,0,0,1.05.26.92.92,0,0,0,.45-.12,1,1,0,0,0,.43-.45,1.15,1.15,0,0,0,.16-.62,8.17,8.17,0,0,0-.09-1.2c-.93.17-2,.33-3.25.46-.27,0-.4-.17-.42-.46a.42.42,0,0,1,.36-.47c1.29-.11,2.3-.24,3-.37h0l-.24-.47a3.14,3.14,0,0,0-.59-.65.23.23,0,0,1-.11-.18c0-.29.19-.45.52-.48a.73.73,0,0,1,.3.15,4.65,4.65,0,0,1,.61.71s0,.05.06.08a4.1,4.1,0,0,0,.68-.51,3.05,3.05,0,0,0,.6-.65,1,1,0,0,0,.2-.35c0-.05,0-.09-.15-.09h-4.44c-.29,0-.42-.14-.42-.43s.13-.41.42-.41h5.22c.41,0,.63.17.63.52a1.12,1.12,0,0,1-.2.57,5.67,5.67,0,0,1-.87,1.09,6.42,6.42,0,0,1-1.09.9c.78-.15,1.49-.31,2.1-.48a.6.6,0,0,1,.22,0A.35.35,0,0,1,178.23,21.54Zm-.58-6.94c0,.23-.17.38-.52.43a25.2,25.2,0,0,1-2.69.33,25.7,25.7,0,0,1-2.58.19c-.34,0-.52-.15-.52-.47a.37.37,0,0,1,.42-.42c1,0,1.83-.06,2.64-.14a17.24,17.24,0,0,0,2.84-.44C177.51,14.08,177.65,14.26,177.65,14.6Zm-5.12,1.47a8.9,8.9,0,0,1,.52,1.56,1.21,1.21,0,0,1,.06.31c0,.25-.18.37-.52.37-.14,0-.24-.11-.31-.32a9.92,9.92,0,0,0-.47-1.45.67.67,0,0,1-.11-.32c0-.24.15-.36.47-.36A.46.46,0,0,1,172.53,16.07Zm2.05-.16a8.33,8.33,0,0,1,.57,1.31,1.14,1.14,0,0,1,.06.3c0,.28-.18.42-.52.42-.18,0-.3-.1-.38-.31a7.93,7.93,0,0,0-.41-1.31.41.41,0,0,1-.11-.25c0-.24.15-.37.47-.37A.48.48,0,0,1,174.58,15.91Zm3-.36a.34.34,0,0,1,.16.25.66.66,0,0,1-.06.22,10.76,10.76,0,0,1-1,1.92.39.39,0,0,1-.3.21q-.54,0-.54-.36c0-.11,0-.17.05-.21a14.2,14.2,0,0,0,1-1.94.28.28,0,0,1,.31-.2A.66.66,0,0,1,177.55,15.55Zm2.09-1v9.7a.63.63,0,0,0,.18.52,1.64,1.64,0,0,0,.92.16c.53,0,.84-.09.95-.28a1.57,1.57,0,0,0,.2-.81V22c0-.36.16-.54.47-.57s.49.25.52.68a12.4,12.4,0,0,1-.16,2.8,1.2,1.2,0,0,1-.5.77,2.58,2.58,0,0,1-1.48.29,2.94,2.94,0,0,1-1.72-.34,1.36,1.36,0,0,1-.38-1.12V14.6a.42.42,0,0,1,.48-.46C179.47,14.14,179.64,14.3,179.64,14.6Z" fill="#da4d6d"/><path d="M186.22,20.39a14.3,14.3,0,0,1-.36,3.46,6.85,6.85,0,0,1-.68,1.79.69.69,0,0,1-.47.22c-.35,0-.52-.18-.54-.47a1,1,0,0,1,.12-.29,6.2,6.2,0,0,0,.66-1.74,12.42,12.42,0,0,0,.33-3V15.23a.64.64,0,0,1,.72-.72,60.16,60.16,0,0,0,8.93-.48.5.5,0,0,1,.52.48c0,.21-.14.35-.41.41a55.4,55.4,0,0,1-8.41.42c-.28,0-.41.17-.41.52V16h8.71c.48,0,.74.21.74.62v1.67c0,.45-.26.67-.74.67h-3.59v1.1h4.58a.38.38,0,0,1,.43.42c0,.32-.15.46-.43.46h-5.37c0,.38-.09.72-.15,1h4.28c.61,0,.93.35.93,1a11.65,11.65,0,0,1-.14,1.86,1.41,1.41,0,0,1-.59,1,3.29,3.29,0,0,1-1.4.24,9.09,9.09,0,0,1-2.25-.32c-.25-.13-.37-.28-.37-.47,0-.39.17-.57.53-.57a8.33,8.33,0,0,0,2,.36,1.71,1.71,0,0,0,.78-.14.74.74,0,0,0,.33-.53,5.16,5.16,0,0,0,.1-1c0-.38-.17-.57-.47-.57h-4c0,.13-.08.23-.11.34A4.15,4.15,0,0,1,189,24.93a6.25,6.25,0,0,1-2.05,1.12l-.12,0c-.34,0-.52-.2-.52-.57,0-.17.09-.29.31-.37a4.55,4.55,0,0,0,1.8-1,3.52,3.52,0,0,0,.85-1.35,8.35,8.35,0,0,0,.38-1.83H187c-.28,0-.41-.14-.41-.46a.37.37,0,0,1,.41-.42h3.34V19h-4.11Zm0-2.19h8.3c.16,0,.25-.1.25-.32v-.82c0-.18-.09-.27-.25-.27h-8.3Z" fill="#da4d6d"/><path d="M202.08,16.75c0,.32-.15.47-.41.47h-1v.42l1.59,2.51a1,1,0,0,1,.14.4c0,.32-.18.47-.52.47a.36.36,0,0,1-.35-.27l-.86-1.68V25.7a.47.47,0,1,1-.93,0V19c-.05.16-.1.32-.14.47-.24.8-.44,1.41-.62,1.85a7.72,7.72,0,0,1-.6,1.35.47.47,0,0,1-.42.31.41.41,0,0,1-.47-.47.76.76,0,0,1,.1-.36,23.33,23.33,0,0,0,1.32-2.93,16.33,16.33,0,0,0,.53-2h-1.17c-.28,0-.42-.15-.42-.47a.38.38,0,0,1,.42-.43h1.47V14.51a.47.47,0,1,1,.93,0v1.81h1A.38.38,0,0,1,202.08,16.75Zm2.59.15c.14-.3.27-.59.38-.88a.61.61,0,0,0,0-.11h-2.62c-.3,0-.43-.15-.43-.47s.13-.41.43-.41h2.9c.08-.27.14-.52.22-.79A.5.5,0,0,1,206,14a.53.53,0,0,1,.37.16.53.53,0,0,1,.15.36.66.66,0,0,1-.09.32,1,1,0,0,0-.06.16h2.72a.37.37,0,0,1,.41.41c0,.32-.15.47-.41.47h-3c0,.13-.09.27-.12.37s-.17.43-.25.62h2.15c.55,0,.83.26.83.78v7.25h.52c.32,0,.48.13.48.41a.43.43,0,0,1-.48.47h-7.3c-.29,0-.42-.17-.42-.47s.13-.41.42-.41h.78V17.68q0-.78.84-.78Zm3.11,1.93V18.1a.28.28,0,0,0-.31-.31H204a.27.27,0,0,0-.31.31v.73Zm0,2V19.66h-4.12V20.8Zm0,2.05V21.64h-4.12v1.21Zm0,2.08V23.67h-4.12v1.26Z" fill="#da4d6d"/><path d="M216.54,14.71c.46,0,.76.27,1,.79a21.81,21.81,0,0,0,1.95,5,15.72,15.72,0,0,0,1.82,2.66,21.53,21.53,0,0,0,1.91,2,.5.5,0,0,1,.16.37.46.46,0,0,1-.47.47.58.58,0,0,1-.36-.16,17.41,17.41,0,0,1-2.11-2.15,19.14,19.14,0,0,1-2.17-3.31,17.46,17.46,0,0,1-.82-2,18.13,18.13,0,0,1-2.12,4,14.75,14.75,0,0,1-3.44,3.49.8.8,0,0,1-.41.16c-.32,0-.48-.17-.48-.52a.45.45,0,0,1,.27-.37,14.26,14.26,0,0,0,3.69-3.79,23.22,23.22,0,0,0,2-4.23.13.13,0,0,1,.05-.06c-.12-.38-.23-.75-.32-1.14-.06-.21-.15-.32-.31-.32h-3c-.33,0-.47-.14-.47-.46a.41.41,0,0,1,.47-.47Z" fill="#da4d6d"/><path d="M225.63,15.12c0,.56,0,1.08-.07,1.58h1.06V14.46c0-.32.14-.48.46-.48a.42.42,0,0,1,.48.48V16.7h.83a.37.37,0,0,1,.42.41c0,.32-.15.47-.42.47h-.83v3a7.55,7.55,0,0,0,.73-.48l.21,0c.31,0,.47.18.47.52a.53.53,0,0,1-.24.4,7.66,7.66,0,0,1-1.17.8v3.84a.43.43,0,0,1-.48.49c-.32,0-.46-.16-.46-.49V22.31A13,13,0,0,1,225,23a.72.72,0,0,1-.3.06c-.32,0-.48-.17-.48-.52a.5.5,0,0,1,.38-.52,12.46,12.46,0,0,0,1.75-.72,1.15,1.15,0,0,0,.23-.1v-3.6h-1.15a15.83,15.83,0,0,1-.47,2.18.53.53,0,0,1-.58.42.32.32,0,0,1-.36-.36,1,1,0,0,1,.06-.36,17.09,17.09,0,0,0,.62-4.43.38.38,0,0,1,.42-.43C225.47,14.6,225.63,14.78,225.63,15.12Zm5.17-.77c0,.52-.09,1-.16,1.4h4.7q1,0,1,.84a52.85,52.85,0,0,1-.32,6.69,4,4,0,0,1-.76,2.19,2.12,2.12,0,0,1-1.63.6,4.6,4.6,0,0,1-1.47-.32.49.49,0,0,1-.36-.52c0-.34.15-.52.47-.52a5.48,5.48,0,0,0,1.36.32,1.12,1.12,0,0,0,1-.45,4.13,4.13,0,0,0,.46-1.63,45.23,45.23,0,0,0,.26-5.95.33.33,0,0,0-.37-.36h-.41c0,.2,0,.39-.06.56a16.09,16.09,0,0,1-.85,3.47,12.2,12.2,0,0,1-1.35,2.61,13.27,13.27,0,0,1-2.18,2.36.61.61,0,0,1-.36.11.42.42,0,0,1-.34-.15.52.52,0,0,1-.14-.37.41.41,0,0,1,.16-.36,13.54,13.54,0,0,0,2.07-2.19,10,10,0,0,0,1.29-2.42,13.58,13.58,0,0,0,.85-3.62h-1.14c0,.06,0,.1,0,.15a14.51,14.51,0,0,1-.83,2.68,11.77,11.77,0,0,1-1.16,2.2,6.7,6.7,0,0,1-1.3,1.53.5.5,0,0,1-.32.11.41.41,0,0,1-.33-.16.5.5,0,0,1-.14-.36.43.43,0,0,1,.16-.32A8,8,0,0,0,229.78,21,14.08,14.08,0,0,0,230.87,19a12.66,12.66,0,0,0,.71-2.31h-1.11l-.08.32a7.75,7.75,0,0,1-1.11,2.23.7.7,0,0,1-.47.27c-.39,0-.58-.18-.58-.52a.57.57,0,0,1,.16-.27,6.19,6.19,0,0,0,1.07-2,11,11,0,0,0,.39-2.32c0-.27.16-.41.48-.41S230.8,14.08,230.8,14.35Z" fill="#da4d6d"/><path d="M243.48,14.19a.79.79,0,0,1,.28,0,.55.55,0,0,1,.24,0,.66.66,0,0,1,.42.27,11.77,11.77,0,0,0,1,1.08,13.22,13.22,0,0,0,1.35-1.24.57.57,0,0,1,.37-.22.42.42,0,0,1,.47.47.57.57,0,0,1-.22.43A10.4,10.4,0,0,1,246,16.14a5.88,5.88,0,0,0,.93.76,9.91,9.91,0,0,0,1.51-1.26.57.57,0,0,1,.37-.2.42.42,0,0,1,.47.47.55.55,0,0,1-.21.41,12,12,0,0,1-1.38,1.07,13,13,0,0,0,2.11,1,.44.44,0,0,1,.31.42c0,.34-.2.52-.58.52a1.66,1.66,0,0,1-.53-.15,12.19,12.19,0,0,1-3.21-1.91,10.05,10.05,0,0,1-1.87-2,3.57,3.57,0,0,1-.25.38,12.67,12.67,0,0,1-2.06,1.82,15,15,0,0,1-2.9,1.66,1.3,1.3,0,0,1-.55.16c-.35,0-.52-.15-.52-.47a.51.51,0,0,1,.25-.47,15.26,15.26,0,0,0,2.26-1l-.79-.62c-.19-.14-.4-.28-.63-.43a.54.54,0,0,1-.16-.36.41.41,0,0,1,.47-.47.77.77,0,0,1,.31.11q.38.24.69.48a6.19,6.19,0,0,1,.89.76s0,.05,0,.05a10.39,10.39,0,0,0,1.31-1c.45-.36.68-.6.68-.74s0-.09-.11-.09h-3.07c-.3,0-.43-.13-.43-.43s.13-.41.43-.41Zm4.08,5.36c.51,0,.77.25.77.73v1.83a.69.69,0,0,1-.77.78h-1.1l-.42,2h3.34c.32,0,.48.14.48.46a.42.42,0,0,1-.48.47H238.31a.41.41,0,0,1-.47-.47c0-.32.15-.46.47-.46h3.11l-.49-2h-1.1a.69.69,0,0,1-.79-.78V20.28c0-.48.26-.73.79-.73Zm-.16,2.09v-.89a.28.28,0,0,0-.31-.31H240.3a.28.28,0,0,0-.32.31v.89c0,.24.11.36.32.36h6.79C247.29,22,247.4,21.88,247.4,21.64Zm-1-3.54c0,.32-.15.46-.43.46H241.5c-.29,0-.42-.14-.42-.46a.37.37,0,0,1,.42-.42H246A.38.38,0,0,1,246.41,18.1ZM245,24.93l.44-2h-3.54l.5,2Z" fill="#da4d6d"/><path d="M254.27,14.27,256,16.12a.53.53,0,0,1,.16.36.44.44,0,0,1-.46.47.41.41,0,0,1-.26-.11L254,15.15a.3.3,0,0,0-.19-.12c-.05,0-.11.05-.16.13a17.19,17.19,0,0,1-1.54,2,.54.54,0,0,1,.28-.08h2.77a.42.42,0,1,1,0,.83h-1v1.52h1.4a.38.38,0,0,1,.43.41c0,.32-.15.47-.43.47h-1.4v3.94a9.23,9.23,0,0,0,1.25-.34.54.54,0,0,1,.21-.05.36.36,0,0,1,.37.35.45.45,0,0,1-.27.42,11.46,11.46,0,0,1-1.84.59q-.88.2-2.13.39c-.27,0-.41-.17-.41-.46a.43.43,0,0,1,.36-.47c.68-.08,1.21-.16,1.62-.24V20.34h-1.51c-.28,0-.42-.15-.42-.47a.37.37,0,0,1,.42-.41h1.51V17.94h-.89c-.28,0-.41-.14-.41-.42,0-.12,0-.2.07-.25a1.9,1.9,0,0,1-.18.2.62.62,0,0,1-.41.21.42.42,0,0,1-.47-.46.62.62,0,0,1,.2-.43,12.25,12.25,0,0,0,2-2.37c.18-.32.37-.48.56-.48S254.05,14.06,254.27,14.27Zm-1.92,6.85c.08.4.18,1,.28,1.91,0,.19,0,.31,0,.39,0,.24-.15.36-.41.36s-.4-.12-.42-.36c-.06-.8-.14-1.5-.24-2.07l0-.17c0-.22.12-.32.37-.32A.44.44,0,0,1,252.35,21.12Zm3.31,0a.25.25,0,0,1,.14.21.91.91,0,0,1-.05.27c-.15.69-.31,1.3-.47,1.83a.33.33,0,0,1-.27.14c-.32,0-.46-.09-.46-.3s0-.18,0-.22c.13-.48.27-1.08.41-1.82a.31.31,0,0,1,.32-.2A.82.82,0,0,1,255.66,21.11Zm3,1.68a1.44,1.44,0,0,1-.37.71,14.86,14.86,0,0,1-1.11,1.29,9.16,9.16,0,0,1-1,1,.78.78,0,0,1-.36.11.37.37,0,0,1-.42-.41.63.63,0,0,1,.29-.55,10.77,10.77,0,0,0,1.19-1,16.22,16.22,0,0,0,1.13-1.38.39.39,0,0,1,.27-.11A.38.38,0,0,1,258.62,22.79Zm-1-5.43c-.56,0-.84-.21-.84-.66,0-.08.2-.91.63-2.46.05-.24.22-.36.52-.36s.52.12.52.36-.09.26-.12.36H261c.58,0,.89.26.89.74,0,.09-.28,1.12-.81,3.08H263a.37.37,0,0,1,.41.41.37.37,0,0,1-.41.41h-3.13v.15a8.07,8.07,0,0,0,.4,1.71,2.56,2.56,0,0,0,.11.24A10.15,10.15,0,0,0,261.8,20a.35.35,0,0,1,.32-.22c.31,0,.47.15.47.42a1,1,0,0,1-.21.52,10,10,0,0,1-1.51,1.41.12.12,0,0,1-.08,0,8.91,8.91,0,0,0,.48.8A8.75,8.75,0,0,0,263,24.87a.42.42,0,0,1,.1.26c0,.34-.16.51-.46.51a.49.49,0,0,1-.32-.14A8.6,8.6,0,0,1,261,24a12.21,12.21,0,0,1-1-1.85.11.11,0,0,1,0-.09v3.06c0,.58-.27.89-.79.89a4.41,4.41,0,0,1-1.51-.32c-.25-.07-.37-.2-.37-.41s.16-.46.42-.47a6.72,6.72,0,0,0,1.1.31c.13,0,.2-.12.2-.36V19.24h-2.55c-.28,0-.42-.13-.42-.41a.37.37,0,0,1,.42-.41h3.71c.11-.4.2-.75.28-1.06ZM257,19.87l.49.49a7.15,7.15,0,0,1,.66.82,1,1,0,0,1,.09.25c0,.28-.12.41-.36.41a.79.79,0,0,1-.42-.09l-.58-.75-.46-.45a.45.45,0,0,1-.16-.32.36.36,0,0,1,.41-.41A1.65,1.65,0,0,1,257,19.87Zm.77-3.6c0,.15.13.21.43.21h2.4c.14-.49.2-.76.2-.78s-.1-.2-.32-.2H258A7.9,7.9,0,0,0,257.78,16.27Z" fill="#da4d6d"/><path d="M276,14.51c0,.25-.2.41-.57.47-1.26.14-2.93.26-5,.37l-.51,0a.52.52,0,0,1-.2.32,15.91,15.91,0,0,1-2,1.86l.28.16a14.63,14.63,0,0,1,2.39,1.67c.23-.23.44-.45.66-.69a26.16,26.16,0,0,0,1.92-2.52.48.48,0,0,1,.42-.22.62.62,0,0,1,.37.15.55.55,0,0,1,.15.37.6.6,0,0,1-.09.31A20.61,20.61,0,0,1,272.09,19,10.33,10.33,0,0,1,271,20c1.25,0,2.42-.05,3.53-.1-.3-.38-.62-.76-1-1.16a.53.53,0,0,1-.16-.36.38.38,0,0,1,.43-.43.77.77,0,0,1,.31.11c.38.45.74.88,1.06,1.3a15.68,15.68,0,0,1,1.4,2.08.61.61,0,0,1,.14.27.36.36,0,0,1-.41.41.58.58,0,0,1-.42-.16c-.29-.46-.56-.88-.79-1.22a.41.41,0,0,1-.16,0L271,21v4.83a.47.47,0,0,1-.52.52.47.47,0,0,1-.54-.52V21c-1.79.06-3.53.12-5.21.16-.32,0-.47-.19-.47-.58a.43.43,0,0,1,.47-.48c1.71,0,3.33,0,4.85-.05,0,0,.05,0,.08-.07-1-.69-1.74-1.22-2.38-1.61s-1.19-.67-1.87-1a.46.46,0,0,1-.16-.36.41.41,0,0,1,.47-.46.89.89,0,0,1,.31.1l.81.44a16.52,16.52,0,0,0,1.83-1.64c-1.45.08-2.51.11-3.17.11-.38,0-.57-.17-.57-.52s.16-.43.48-.43c1.77,0,3.4,0,4.89-.14,1.87-.1,3.63-.26,5.23-.48C275.85,14,276,14.16,276,14.51Zm-7.83,7.76a1.14,1.14,0,0,1-.22.58,16.79,16.79,0,0,1-2.66,3,.57.57,0,0,1-.37.16c-.39,0-.58-.17-.58-.52a.64.64,0,0,1,.11-.37A16,16,0,0,0,267.28,22a.42.42,0,0,1,.38-.25A.46.46,0,0,1,268.18,22.27Zm5.59-.43c.4.46.76.89,1.1,1.3a13.85,13.85,0,0,1,1.45,2,.55.55,0,0,1,.16.32c0,.35-.16.52-.47.52a.71.71,0,0,1-.48-.16q-.81-1.27-1.35-2c-.32-.41-.67-.83-1-1.27a.53.53,0,0,1-.16-.36c0-.31.14-.47.46-.47A1.18,1.18,0,0,1,273.77,21.84Z" fill="#da4d6d"/><path d="M280.36,14a.44.44,0,0,1,.18.31,1.18,1.18,0,0,1,0,.25,13.82,13.82,0,0,1-1.36,2.3l-.06.08a6.49,6.49,0,0,1,.84.89c.39-.63.75-1.28,1.1-2a.48.48,0,0,1,.41-.21.41.41,0,0,1,.42.42.51.51,0,0,1-.11.31,24.19,24.19,0,0,1-1.26,2.23,10.94,10.94,0,0,1-.89,1.17,17.26,17.26,0,0,0,1.9-.24c-.08-.24-.15-.44-.22-.61a.45.45,0,0,1,0-.2c0-.24.13-.36.41-.36a.43.43,0,0,1,.33.2,12.37,12.37,0,0,1,.57,1.66,1.25,1.25,0,0,1,.05.32c0,.24-.17.36-.52.36-.14,0-.25-.1-.32-.32a1.23,1.23,0,0,1-.05-.25l-1,.17v5.19a.47.47,0,1,1-.94,0V20.7c-.64.09-1.24.16-1.83.21-.28,0-.41-.19-.41-.57s.13-.4.41-.42h.51a15.69,15.69,0,0,0,1-1.32.62.62,0,0,1-.12-.08c-.35-.39-.64-.69-.88-.93s-.44-.38-.7-.58a.52.52,0,0,1-.15-.36.37.37,0,0,1,.42-.42.89.89,0,0,1,.31.1.34.34,0,0,0,.09.08,18.29,18.29,0,0,0,1.16-2.21.36.36,0,0,1,.36-.25A.79.79,0,0,1,280.36,14Zm-1,7.66a1.24,1.24,0,0,1,0,.3,26,26,0,0,1-.68,3.39.47.47,0,0,1-.42.25c-.32,0-.48-.14-.48-.41a.47.47,0,0,1,.11-.3,24.63,24.63,0,0,0,.68-3.34.32.32,0,0,1,.36-.27C279.23,21.32,279.39,21.46,279.39,21.7Zm2.82.09c.08.44.15,1.14.23,2.1,0,.2,0,.33,0,.41,0,.24-.15.36-.42.36a.37.37,0,0,1-.43-.36c-.05-.88-.1-1.63-.18-2.26l0-.2c0-.2.12-.3.37-.3A.44.44,0,0,1,282.21,21.79Zm3.09-1a17.06,17.06,0,0,1-.32,2.33,5.15,5.15,0,0,1-.79,1.81,4.31,4.31,0,0,1-1.43,1.16l-.07,0c-.35,0-.52-.2-.52-.57a.4.4,0,0,1,.31-.41,3.2,3.2,0,0,0,1.12-1,4.54,4.54,0,0,0,.52-1.41,11.63,11.63,0,0,0,.24-1.94c0-.24.17-.36.47-.36S285.3,20.48,285.3,20.75Zm1-6.24v.93h2.71a.47.47,0,0,1,0,.94h-3.5l-1.26,2.77a24.93,24.93,0,0,0,3.64-.43c-.25-.45-.51-.85-.75-1.2a.41.41,0,0,1-.11-.25c0-.24.15-.37.47-.37.11,0,.2.08.31.21a14.14,14.14,0,0,1,1.83,3.12,1.8,1.8,0,0,1,.05.37c0,.28-.2.42-.57.42-.16,0-.28-.12-.36-.38s-.32-.77-.47-1.12a.36.36,0,0,1-.16,0c-1.76.32-3.43.55-5,.68-.32,0-.47-.19-.47-.57a.42.42,0,0,1,.47-.47h.19l1.27-2.81H283.1c-.32,0-.46-.15-.46-.47s.14-.47.46-.47h2.2v-.93a.52.52,0,1,1,1,0Zm1.26,6.19v4a.58.58,0,0,0,.13.44,1.21,1.21,0,0,0,.7.13c.36,0,.57,0,.65-.12a.57.57,0,0,0,.13-.36v-.81c0-.34.15-.51.42-.52s.44.21.47.61a4.67,4.67,0,0,1-.12,1.48.78.78,0,0,1-.39.42,3.18,3.18,0,0,1-1.16.14,2.31,2.31,0,0,1-1.42-.29,1.17,1.17,0,0,1-.31-1V20.7a.37.37,0,0,1,.43-.42C287.44,20.28,287.6,20.43,287.6,20.7Z" fill="#da4d6d"/><path d="M149.3,61.9h-2.14v4.56c0,.24-.13.36-.4.36s-.41-.12-.41-.36V61.9h-2.13c-.32,0-.47-.09-.47-.3s.15-.3.47-.3h5.08c.32,0,.47.1.47.3S149.62,61.9,149.3,61.9Z" fill="#da4d6d"/><path d="M154.35,66.84c-.27,0-.39-.12-.39-.36v-.31a3.72,3.72,0,0,1-.94.45,3.2,3.2,0,0,1-1.05.19,2.17,2.17,0,0,1-1.11-.25.9.9,0,0,1-.52-.84c0-.46.28-.81.86-1.06a4.51,4.51,0,0,1,1.7-.29H154c0-.57-.47-.85-1.28-.85a2.74,2.74,0,0,0-.81.12,1.23,1.23,0,0,0-.64.36.36.36,0,0,1-.26.16c-.3,0-.45-.11-.45-.35s.07-.19.22-.32a3,3,0,0,1,1.94-.58,2.44,2.44,0,0,1,1.61.44,1.37,1.37,0,0,1,.46,1v2.14C154.75,66.72,154.61,66.84,154.35,66.84ZM154,65h-.69c-1.39,0-2.09.25-2.09.75a.37.37,0,0,0,.24.35,1.09,1.09,0,0,0,.55.13,3.11,3.11,0,0,0,1.12-.23,2,2,0,0,0,.87-.56Z" fill="#da4d6d"/><path d="M157.39,61.9A.6.6,0,0,1,157,62a.64.64,0,0,1-.41-.12.35.35,0,0,1-.16-.3.37.37,0,0,1,.16-.31.71.71,0,0,1,.41-.12.67.67,0,0,1,.39.12.38.38,0,0,1,.17.31A.36.36,0,0,1,157.39,61.9ZM157,66.83c-.27,0-.41-.12-.41-.37V63.27c0-.24.14-.36.41-.36s.39.12.39.36v3.19C157.39,66.71,157.26,66.83,157,66.83Z" fill="#da4d6d"/><path d="M166.56,63.35l-1.69,3.24a.39.39,0,0,1-.37.21.32.32,0,0,1-.32-.21L162.79,64l-1.42,2.64a.35.35,0,0,1-.32.21.39.39,0,0,1-.37-.21L159,63.35a.27.27,0,0,1-.06-.17c0-.19.15-.28.44-.28a.35.35,0,0,1,.33.2l1.38,2.65,1.42-2.63a.34.34,0,0,1,.32-.22.4.4,0,0,1,.34.22l1.37,2.63,1.35-2.65a.34.34,0,0,1,.33-.2c.29,0,.44.09.44.28A.5.5,0,0,1,166.56,63.35Z" fill="#da4d6d"/><path d="M171.08,66.84c-.27,0-.39-.12-.39-.36v-.31a3.56,3.56,0,0,1-.94.45,3.2,3.2,0,0,1-1.05.19,2.17,2.17,0,0,1-1.11-.25.9.9,0,0,1-.52-.84c0-.46.28-.81.87-1.06a4.42,4.42,0,0,1,1.69-.29h1.06c0-.57-.47-.85-1.28-.85a2.74,2.74,0,0,0-.81.12A1.23,1.23,0,0,0,168,64a.36.36,0,0,1-.26.16c-.3,0-.45-.11-.45-.35s.07-.19.22-.32a3,3,0,0,1,1.94-.58,2.44,2.44,0,0,1,1.61.44,1.37,1.37,0,0,1,.46,1v2.14C171.48,66.72,171.34,66.84,171.08,66.84ZM170.69,65H170c-1.39,0-2.09.25-2.09.75a.37.37,0,0,0,.24.35,1.09,1.09,0,0,0,.55.13,3.21,3.21,0,0,0,1.13-.23,2.07,2.07,0,0,0,.86-.56Z" fill="#da4d6d"/><path d="M176.53,66.81c-.27,0-.39-.12-.39-.36v-2a.77.77,0,0,0-.39-.64,1.58,1.58,0,0,0-.9-.25,2.22,2.22,0,0,0-1.21.34c-.31.21-.47.42-.47.64v2c0,.24-.11.36-.34.36s-.45-.12-.45-.36V63.26c0-.24.12-.36.39-.36s.4.12.4.36v.26a2.37,2.37,0,0,1,1.68-.62,2.53,2.53,0,0,1,1.47.43,1.27,1.27,0,0,1,.6,1.07v2Q176.92,66.81,176.53,66.81Z" fill="#da4d6d"/><path d="M186.34,66.27a4.2,4.2,0,0,1-2.08.42h-2c-.31,0-.47-.12-.47-.36V61.66c0-.24.16-.36.47-.36h2.49a2.89,2.89,0,0,1,1.41.31,1.17,1.17,0,0,1,.62,1c0,.62-.38,1-1.12,1.26a2,2,0,0,1,.93.41,1.15,1.15,0,0,1-.26,2Zm-.71-4.22a1.31,1.31,0,0,0-.66-.15h-2.18c-.13,0-.18.06-.18.14v1.55h1.76a2.39,2.39,0,0,0,1.11-.22.82.82,0,0,0,.51-.74A.66.66,0,0,0,185.63,62.05Zm.14,2.44a2.88,2.88,0,0,0-1.4-.28h-1.76V66c0,.09,0,.13.18.13h1.79a2.72,2.72,0,0,0,1.11-.2c.37-.18.56-.41.56-.7A.86.86,0,0,0,185.77,64.49Z" fill="#da4d6d"/><path d="M190.64,63.6a2.73,2.73,0,0,0-1,.3,2.6,2.6,0,0,0-.49.41,1,1,0,0,0-.29.6v1.54a.32.32,0,0,1-.35.36c-.29,0-.43-.12-.43-.36V63.27q0-.36.42-.36a.32.32,0,0,1,.36.36v.49a2.1,2.1,0,0,1,1.65-.73c.3,0,.44.12.44.34S190.83,63.59,190.64,63.6Z" fill="#da4d6d"/><path d="M195.58,65h-3.24a1.17,1.17,0,0,0,.45.86,1.52,1.52,0,0,0,1.05.35,1.5,1.5,0,0,0,.86-.24,2.19,2.19,0,0,0,.49-.51.39.39,0,0,1,.35-.15.47.47,0,0,1,.27.1.33.33,0,0,1,.14.25c0,.16-.15.36-.42.61a2.49,2.49,0,0,1-1.72.55,2.46,2.46,0,0,1-1.72-.59,1.79,1.79,0,0,1-.59-1.4,1.71,1.71,0,0,1,.66-1.34,2.49,2.49,0,0,1,1.65-.57,2.45,2.45,0,0,1,1.66.56,1.57,1.57,0,0,1,.6,1.21C196.07,64.89,195.9,65,195.58,65Zm-.75-1.21a1.7,1.7,0,0,0-1-.26,1.54,1.54,0,0,0-.9.25,1.26,1.26,0,0,0-.51.66h2.83A.91.91,0,0,0,194.83,63.78Z" fill="#da4d6d"/><path d="M200.77,66.84c-.27,0-.4-.12-.4-.36v-.31a3.56,3.56,0,0,1-.94.45,3.16,3.16,0,0,1-1.05.19,2.17,2.17,0,0,1-1.11-.25.9.9,0,0,1-.52-.84c0-.46.28-.81.87-1.06a4.43,4.43,0,0,1,1.7-.29h1.05c0-.57-.47-.85-1.28-.85a2.74,2.74,0,0,0-.81.12,1.23,1.23,0,0,0-.64.36.36.36,0,0,1-.26.16c-.3,0-.45-.11-.45-.35s.07-.19.23-.32a2.94,2.94,0,0,1,1.93-.58,2.44,2.44,0,0,1,1.61.44,1.37,1.37,0,0,1,.46,1v2.14C201.16,66.72,201,66.84,200.77,66.84Zm-.4-1.87h-.68q-2.1,0-2.1.75a.37.37,0,0,0,.24.35,1.09,1.09,0,0,0,.55.13,3.21,3.21,0,0,0,1.13-.23,2.07,2.07,0,0,0,.86-.56Z" fill="#da4d6d"/><path d="M205.46,66.57a4.1,4.1,0,0,1-1.44.23,3.1,3.1,0,0,1-1.54-.35c-.43-.23-.64-.45-.64-.67s.15-.33.47-.33a.38.38,0,0,1,.27.15,1.67,1.67,0,0,0,1.4.59c.88,0,1.33-.15,1.33-.46s-.2-.31-.59-.45l-.92-.22a6.89,6.89,0,0,1-1.19-.34c-.45-.19-.66-.44-.66-.75a.87.87,0,0,1,.6-.81A3.24,3.24,0,0,1,204,62.9a3.73,3.73,0,0,1,1.24.24q.75.28.75.69c0,.23-.15.34-.45.34-.1,0-.21-.09-.33-.26a1.39,1.39,0,0,0-1.16-.44c-.81,0-1.22.18-1.22.5,0,.11.12.21.36.28a8.15,8.15,0,0,0,.89.22,8.55,8.55,0,0,1,1.36.4c.5.23.76.52.76.86S205.93,66.38,205.46,66.57Z" fill="#da4d6d"/><path d="M209.3,66.69h-.88c-.54,0-.81-.3-.81-.91V63.63H207c-.31,0-.46-.1-.46-.31s.15-.31.46-.31h.59v-.66c0-.24.12-.36.38-.36s.41.12.41.36V63h.83c.3,0,.46.1.46.31s-.16.31-.46.31h-.83v2.12c0,.22,0,.33.15.33h.75c.3,0,.46.1.46.31S209.6,66.69,209.3,66.69Z" fill="#da4d6d"/><path d="M215.52,66.81a.35.35,0,0,1-.4-.39V61.57a.4.4,0,0,1,.8,0v4.85A.35.35,0,0,1,215.52,66.81Z" fill="#da4d6d"/><path d="M224.23,66.8c-.27,0-.4-.12-.4-.36V64.13a.6.6,0,0,0-.3-.46,1.09,1.09,0,0,0-.6-.16,1.51,1.51,0,0,0-.82.2c-.3.19-.45.36-.45.52v2.21c0,.24-.14.36-.41.36s-.4-.12-.4-.36V64.23c0-.14-.12-.31-.35-.5a1.06,1.06,0,0,0-.65-.22,1.41,1.41,0,0,0-.87.27c-.28.22-.41.4-.41.54v2.12c0,.24-.14.36-.39.36s-.41-.12-.41-.36V63.26c0-.24.12-.36.39-.36s.42.15.42.44v0a1.74,1.74,0,0,1,1.27-.49,1.68,1.68,0,0,1,1.4.6,2.33,2.33,0,0,1,1.68-.6,2,2,0,0,1,1.18.36,1.06,1.06,0,0,1,.52.87v2.31C224.63,66.68,224.49,66.8,224.23,66.8Z" fill="#da4d6d"/><path d="M229.61,66.2a2.64,2.64,0,0,1-1.78.6,2.39,2.39,0,0,1-.87-.16,1.26,1.26,0,0,1-.63-.41v1.19c0,.24-.13.36-.4.36s-.4-.12-.4-.36V63.26c0-.24.13-.36.4-.36s.4.12.4.36v.27A2.07,2.07,0,0,1,228,62.9a2.49,2.49,0,0,1,1.69.57,1.73,1.73,0,0,1,0,2.73Zm-.55-2.3a1.61,1.61,0,0,0-1.11-.38,1.75,1.75,0,0,0-1.17.38,1.22,1.22,0,0,0-.45.95,1.24,1.24,0,0,0,.36.94,1.52,1.52,0,0,0,1.14.4,1.67,1.67,0,0,0,1.17-.41,1.29,1.29,0,0,0,.45-1A1.24,1.24,0,0,0,229.06,63.9Z" fill="#da4d6d"/><path d="M232.43,66.82c-.27,0-.41-.12-.41-.36V61.53c0-.23.14-.35.41-.35s.39.12.39.35v4.93Q232.82,66.82,232.43,66.82Z" fill="#da4d6d"/><path d="M238.57,66.84c-.27,0-.39-.12-.39-.36v-.31a3.63,3.63,0,0,1-1,.45,3.15,3.15,0,0,1-1,.19,2.24,2.24,0,0,1-1.12-.25.89.89,0,0,1-.51-.84c0-.46.28-.81.86-1.06a4.47,4.47,0,0,1,1.7-.29h1.06c-.05-.57-.47-.85-1.29-.85a2.63,2.63,0,0,0-.8.12,1.26,1.26,0,0,0-.65.36.36.36,0,0,1-.25.16c-.31,0-.45-.11-.45-.35s.06-.19.22-.32a2.94,2.94,0,0,1,1.93-.58,2.4,2.4,0,0,1,1.61.44,1.33,1.33,0,0,1,.46,1v2.14Q239,66.84,238.57,66.84ZM238.18,65h-.69c-1.39,0-2.09.25-2.09.75a.37.37,0,0,0,.24.35,1,1,0,0,0,.55.13,3.11,3.11,0,0,0,1.12-.23,2.12,2.12,0,0,0,.87-.56Z" fill="#da4d6d"/><path d="M244,66.81c-.27,0-.4-.12-.4-.36v-2a.76.76,0,0,0-.38-.64,1.6,1.6,0,0,0-.9-.25,2.22,2.22,0,0,0-1.21.34c-.32.21-.48.42-.48.64v2q0,.36-.33.36c-.31,0-.45-.12-.45-.36V63.26c0-.24.12-.36.39-.36s.39.12.39.36v.26a2.38,2.38,0,0,1,1.69-.62,2.49,2.49,0,0,1,1.46.43,1.25,1.25,0,0,1,.61,1.07v2Q244.41,66.81,244,66.81Z" fill="#da4d6d"/><path d="M247.76,66.69h-.87c-.54,0-.81-.3-.81-.91V63.63h-.59c-.31,0-.46-.1-.46-.31s.15-.31.46-.31h.59v-.66c0-.24.12-.36.38-.36s.4.12.4.36V63h.84c.3,0,.46.1.46.31s-.16.31-.46.31h-.84v2.12c0,.22,0,.33.16.33h.74c.31,0,.46.1.46.31S248.07,66.69,247.76,66.69Z" fill="#da4d6d"/><path d="M258.19,66.82c-.13,0-.23-.1-.28-.28s-.09-.39-.13-.6a3.62,3.62,0,0,0-.24-.59,1.67,1.67,0,0,0-1.55-.87h-2.33v2q0,.36-.39.36c-.27,0-.4-.12-.4-.36v-4.8q0-.36.48-.36h3.39a2.21,2.21,0,0,1,1.35.42,1.18,1.18,0,0,1,.11,1.93,2.28,2.28,0,0,1-1.08.53,2.12,2.12,0,0,1,.94.6,3.12,3.12,0,0,1,.46.81,2.74,2.74,0,0,1,.19.89C258.71,66.71,258.53,66.82,258.19,66.82Zm-.73-4.68a1.39,1.39,0,0,0-.84-.24h-2.78c-.12,0-.18.06-.18.14v1.83H256a2.66,2.66,0,0,0,.88-.14,1.45,1.45,0,0,0,.69-.44.82.82,0,0,0,.24-.54A.7.7,0,0,0,257.46,62.14Z" fill="#da4d6d"/><path d="M263.58,65h-3.24a1.2,1.2,0,0,0,.45.86,1.52,1.52,0,0,0,1,.35,1.53,1.53,0,0,0,.87-.24,2.42,2.42,0,0,0,.48-.51.41.41,0,0,1,.36-.15.5.5,0,0,1,.27.1.31.31,0,0,1,.13.25c0,.16-.14.36-.41.61a2.5,2.5,0,0,1-1.72.55,2.44,2.44,0,0,1-1.72-.59,1.77,1.77,0,0,1-.6-1.4,1.71,1.71,0,0,1,.66-1.34,2.49,2.49,0,0,1,1.66-.57,2.44,2.44,0,0,1,1.65.56,1.58,1.58,0,0,1,.61,1.21C264.08,64.89,263.91,65,263.58,65Zm-.75-1.21a1.67,1.67,0,0,0-1-.26,1.54,1.54,0,0,0-.9.25,1.28,1.28,0,0,0-.52.66h2.83A.91.91,0,0,0,262.83,63.78Z" fill="#da4d6d"/><path d="M269.24,63.47a2.55,2.55,0,0,0-.44.15,1,1,0,0,1,.22.56,1,1,0,0,1-.65.9,2.92,2.92,0,0,1-1.32.31,2.83,2.83,0,0,1-.63-.07q-.18.11-.18.18s.09.08.29.14c.41.06,1,.17,1.79.34.63.17,1,.44,1,.83s-.27.59-.8.77a4.22,4.22,0,0,1-1.36.21,5,5,0,0,1-1.57-.21c-.54-.17-.79-.43-.79-.77s.37-.63,1.11-.81c-.32-.11-.47-.27-.47-.5a.57.57,0,0,1,.29-.44,1,1,0,0,1-.63-.87,1.06,1.06,0,0,1,.63-1,2.71,2.71,0,0,1,1.36-.32,2.85,2.85,0,0,1,1.23.26,1.88,1.88,0,0,1,.91-.26c.24,0,.38.1.38.3S269.46,63.43,269.24,63.47Zm-2,2.79c-1.09.12-1.63.31-1.63.55s.5.39,1.52.39a3.9,3.9,0,0,0,.78-.07c.34-.07.52-.18.52-.32S268,66.42,267.23,66.26Zm.58-2.55a1.68,1.68,0,0,0-.76-.19,1.82,1.82,0,0,0-.79.16.56.56,0,0,0-.36.51q0,.28.42.45a2.05,2.05,0,0,0,.78.14,1.43,1.43,0,0,0,.68-.17c.25-.12.38-.26.38-.42A.58.58,0,0,0,267.81,63.71Z" fill="#da4d6d"/><path d="M272.21,61.9a.59.59,0,0,1-.39.12.6.6,0,0,1-.4-.12.34.34,0,0,1-.17-.3.36.36,0,0,1,.17-.31.65.65,0,0,1,.4-.12.65.65,0,0,1,.39.12.36.36,0,0,1,.17.31A.34.34,0,0,1,272.21,61.9Zm-.39,4.93c-.27,0-.4-.12-.4-.37V63.27c0-.24.13-.36.4-.36s.39.12.39.36v3.19C272.21,66.71,272.08,66.83,271.82,66.83Z" fill="#da4d6d"/><path d="M277.46,66.57a4.1,4.1,0,0,1-1.44.23,3.08,3.08,0,0,1-1.54-.35c-.43-.23-.64-.45-.64-.67s.15-.33.47-.33a.38.38,0,0,1,.27.15,1.66,1.66,0,0,0,1.4.59c.88,0,1.33-.15,1.33-.46s-.2-.31-.6-.45l-.91-.22a6.89,6.89,0,0,1-1.19-.34c-.45-.19-.66-.44-.66-.75a.88.88,0,0,1,.59-.81A3.29,3.29,0,0,1,276,62.9a3.73,3.73,0,0,1,1.24.24c.49.19.75.42.75.69s-.15.34-.45.34c-.1,0-.21-.09-.33-.26a1.39,1.39,0,0,0-1.16-.44c-.81,0-1.22.18-1.22.5,0,.11.12.21.36.28a8.15,8.15,0,0,0,.89.22,8.55,8.55,0,0,1,1.36.4c.5.23.76.52.76.86S277.93,66.38,277.46,66.57Z" fill="#da4d6d"/><path d="M281.29,66.69h-.87c-.54,0-.81-.3-.81-.91V63.63H279c-.31,0-.46-.1-.46-.31s.15-.31.46-.31h.59v-.66c0-.24.12-.36.38-.36s.4.12.4.36V63h.84c.3,0,.46.1.46.31s-.16.31-.46.31h-.84v2.12c0,.22.05.33.16.33h.74c.31,0,.46.1.46.31S281.6,66.69,281.29,66.69Z" fill="#da4d6d"/><path d="M285.12,63.6a2.68,2.68,0,0,0-1,.3,2.6,2.6,0,0,0-.49.41,1,1,0,0,0-.29.6v1.54a.32.32,0,0,1-.35.36c-.29,0-.43-.12-.43-.36V63.27q0-.36.42-.36a.32.32,0,0,1,.36.36v.49A2.08,2.08,0,0,1,285,63c.3,0,.44.12.44.34S285.31,63.59,285.12,63.6Z" fill="#da4d6d"/><path d="M290.35,63.37l-2.66,4.25a.36.36,0,0,1-.3.17c-.29,0-.42-.1-.42-.28a.8.8,0,0,1,.21-.44l.53-.76-1.94-2.94s0-.08,0-.18.09-.28.29-.28a.47.47,0,0,1,.39.19l1.7,2.54,1.61-2.54a.39.39,0,0,1,.37-.19c.2,0,.3.09.3.28A.54.54,0,0,1,290.35,63.37Z" fill="#da4d6d"/></svg>